<?xml version="1.0" encoding="utf-8"?>
<!-- Generator: Adobe Illustrator 21.1.0, SVG Export Plug-In . SVG Version: 6.00 Build 0)  -->
<svg version="1.1" id="Слой_1" xmlns="http://www.w3.org/2000/svg" xmlns:xlink="http://www.w3.org/1999/xlink" x="0px" y="0px"
	 viewBox="0 0 22.6 31.6" style="enable-background:new 0 0 22.6 31.6;" xml:space="preserve">
<style type="text/css">
	.st0{fill:#653106;}
	.st1{fill:#F59F38;}
	.st2{fill:#7F3F12;}
	.st3{fill:#643310;}
	.st4{fill:#C6BEA8;}
	.st5{fill:none;}
	.st6{fill:#F8C929;}
	.st7{fill:#E62D37;}
	.st8{fill:#72B1AA;}
	.st9{fill:#DFEFE1;}
	.st10{display:none;fill:#72B1AA;}
	.st11{clip-path:url(#SVGID_2_);}
	.st12{fill:#C6BEA9;}
</style>
<g id="_x37_61914fb-d82b-4f25-a684-6be02729a779">
	<g id="e6812385-6777-4259-a439-22f840c3caf0">
		<g id="_x33_0c6e771-0e14-4df8-9ca4-792362c9fcac">
			<path class="st0" d="M0,20.5v6.9c0,2.3,5,4.2,11.3,4.2s11.3-1.9,11.3-4.2v-6.9H0z"/>
		</g>
		<g id="b15e3c62-a07b-4ee0-a512-845b4110995e">
			<ellipse class="st1" cx="11.3" cy="20.5" rx="11.3" ry="4.2"/>
		</g>
		<g id="c5240391-b607-4e30-bfae-afc2d523b6c5">
			<ellipse class="st2" cx="11.3" cy="19.8" rx="10.9" ry="4.2"/>
		</g>
		<g id="a6e0d514-9c5b-49c5-878e-b4ed722bac20">
			<path class="st3" d="M3.1,12.6v4.9c0,1.6,3.6,3,8,3s8-1.3,8-3v-4.9H3.1z"/>
		</g>
		<g id="_x38_b5ff9b6-a181-49e5-9c88-9a6e75f8833f">
			<path class="st4" d="M18.8,13.1c-0.2-2-4-1.5-3.8,0.5c0,0.1,0,0.2,0,0.3c-0.5-2-2.6-3.3-4.6-2.8c-1.5,0.4-2.6,1.7-2.8,3.2
				c-0.1-1.6-1.1-3-2.3-3S3.1,13,3.1,14.8s1,3.4,2.3,3.4s2.1-1.2,2.2-2.8c0.2,2.1,2.1,3.6,4.2,3.4c0,0,0,0,0,0
				c1.9-0.2,3.4-1.8,3.4-3.8c0-0.1,0-0.2,0-0.3c0.4,1.5,1.2,2.5,2.1,2.4S19,15.1,18.8,13.1z M5.2,17.7c-0.9,0-1.6-1.4-1.6-3.1
				s0.7-3.1,1.6-3.1s1.6,1.4,1.6,3.1S6.1,17.7,5.2,17.7z M11.3,18c-1.8,0-3.2-1.4-3.2-3.2s1.4-3.2,3.2-3.2c1.8,0,3.2,1.4,3.2,3.2
				c0,0,0,0,0,0v0.1C14.5,16.6,13.1,18,11.3,18C11.4,18,11.4,18,11.3,18z M17,16.3c-0.8,0-1.5-1.3-1.5-2.9s0.6-2.9,1.5-2.9
				s1.5,1.3,1.5,2.9S17.8,16.4,17,16.3z"/>
		</g>
		<g id="_x30_d776b53-3d10-4dc8-99fe-0fa152bd9a13">
			<ellipse class="st1" cx="11" cy="12.6" rx="8" ry="3"/>
		</g>
		<g id="_x34_50bd4f1-07d7-4712-81b9-60125f1cb72a">
			<ellipse class="st2" cx="11" cy="12.1" rx="7.7" ry="3"/>
		</g>
		<path class="st5" d="M5.2,19.4c-0.1-1-0.9-1.7-1.9-1.7c-0.1,0-0.2,0-0.3,0l-0.2-0.4c-0.1-0.1-0.2-0.2-0.2-0.4
			c-0.1-0.1-0.2-0.3-0.3-0.5c-0.2-0.3-0.5-0.5-0.7-0.7c-0.2-0.2-0.5-0.4-0.8-0.5c-0.2-0.1-0.3,0-0.4,0.1c-0.1,0.1,0,0.3,0.1,0.4
			l0.4,0.2L0.8,16l0.1,0.1l0.1,0.1c0.1,0.1,0.3,0.2,0.4,0.4c0.1,0.1,0.2,0.3,0.4,0.4l0.1,0.1l0,0v0.1l0,0l0.1,0.2v0.1
			c0.1,0.1,0.1,0.2,0.2,0.3v0.1c-0.9,0.5-1.3,1.7-0.8,2.6c0.5,0.9,1.7,1.3,2.6,0.8c0,0,0,0,0,0C4.8,20.9,5.2,20.2,5.2,19.4z"/>
		<path class="st5" d="M13,21c-0.1-1-1-1.8-2-1.7c-0.1,0-0.2,0-0.3,0l-0.2-0.4c-0.1-0.1-0.2-0.2-0.2-0.4c-0.1-0.1-0.2-0.3-0.3-0.5
			c-0.2-0.3-0.5-0.5-0.7-0.7c-0.2-0.2-0.5-0.4-0.8-0.5c-0.2-0.1-0.3,0-0.5,0.1c-0.1,0.1,0,0.3,0.1,0.4l0.4,0.2l0.1,0.1l0.1,0.1
			l0.1,0.1C8.9,17.9,9,18,9.1,18.2c0.1,0.1,0.2,0.3,0.4,0.4l0.1,0.1l0,0v0.1l0,0L9.8,19l0.1,0.1c0.1,0.1,0.1,0.2,0.2,0.3v0.1
			c-0.9,0.7-1,1.9-0.4,2.8c0.5,0.7,1.4,0.9,2.2,0.7C12.7,22.6,13,21.8,13,21z"/>
		<path class="st5" d="M20.8,19.4c-0.1-1-1-1.8-2-1.7c-0.1,0-0.2,0-0.3,0l-0.2-0.4c-0.1-0.1-0.2-0.2-0.2-0.4
			c-0.1-0.1-0.2-0.3-0.3-0.5c-0.2-0.3-0.5-0.5-0.7-0.7c-0.2-0.2-0.5-0.4-0.8-0.5c-0.2-0.1-0.3,0-0.5,0.1c-0.1,0.1,0,0.3,0.1,0.4
			l0.4,0.2l0.1,0.1l0.1,0.1l0.1,0.1c0.1,0.1,0.3,0.2,0.4,0.4c0.1,0.1,0.2,0.3,0.4,0.4l0.1,0.1l0,0v0.1l0,0l0.1,0.2l0.1,0.1
			c0.1,0.1,0.1,0.2,0.2,0.3v0.1c-0.9,0.5-1.3,1.7-0.8,2.6c0.3,1,1.4,1.6,2.5,1.3C20.6,21.5,21.2,20.4,20.8,19.4z"/>
		<path class="st5" d="M11.1,4.6C10,4.6,9,4.9,9,5v6.8c0.6,0.5,1.3,0.7,2.1,0.7c0.8,0,1.6-0.2,2.2-0.7V5C12.6,4.7,11.8,4.5,11.1,4.6
			z"/>
		<g id="_x31_d5396ec-8553-46f4-9065-c830bce8eee5">
			<path class="st6" d="M12.3,0C11,0.7,10,1.3,10,3c0,0.9,0.5,1.6,1.2,1.6s1.2-0.7,1.2-1.6S11.8,1.2,12.3,0z"/>
		</g>
		<g id="ebf00940-6554-42c1-a7df-0777890a4767">
			<path class="st7" d="M11.3,1.8c-0.7,0.4-0.8,1-0.8,1.9c0,0.5,0.3,0.9,0.6,0.9s0.6-0.4,0.6-0.9S11.1,2.4,11.3,1.8z"/>
		</g>
		<path class="st1" d="M18.4,19.1c-0.2,0-0.3-0.1-0.3-0.3l0,0c0-1.1-0.9-2-2-2c-0.2,0-0.3-0.1-0.3-0.3c0-0.2,0.1-0.3,0.3-0.3l0,0
			c1.5,0,2.6,1.2,2.6,2.6C18.7,19,18.5,19.1,18.4,19.1C18.4,19.1,18.4,19.1,18.4,19.1z"/>
		<circle class="st7" cx="18.4" cy="19.9" r="1.8"/>
		<path class="st1" d="M10.4,20.4c-0.2,0-0.3-0.1-0.3-0.3l0,0c0-1.1-0.9-2-2-2c-0.2,0-0.3-0.1-0.3-0.3c0-0.2,0.1-0.3,0.3-0.3l0,0
			c1.5,0,2.6,1.2,2.6,2.6c0,0,0,0,0,0C10.7,20.3,10.6,20.4,10.4,20.4L10.4,20.4z"/>
		<circle class="st7" cx="10.4" cy="21.3" r="1.8"/>
		<path class="st1" d="M3,18.6c-0.2,0-0.3-0.1-0.3-0.3c0,0,0,0,0,0l0,0c0-1.1-0.9-2-2-2l0,0c-0.2,0-0.3-0.1-0.3-0.3
			c0-0.2,0.1-0.3,0.3-0.3l0,0c1.5,0,2.6,1.2,2.7,2.6C3.4,18.5,3.2,18.6,3,18.6C3,18.6,3,18.6,3,18.6z"/>
		<circle class="st7" cx="3.1" cy="19.5" r="1.8"/>
		<path class="st8" d="M12.9,6.4V4.9H9.5v1.6C10.6,6.9,11.8,6.8,12.9,6.4z"/>
		<path class="st9" d="M11.8,7.3c0.4,0,0.7-0.1,1.1-0.2V6.4c-1.1,0.4-2.3,0.4-3.4,0.1v0.7C10.3,7.4,11.1,7.4,11.8,7.3z"/>
		<path class="st8" d="M12.9,8.4V7.1c-0.3,0.1-0.7,0.2-1.1,0.2c-0.8,0.1-1.5,0.1-2.3-0.1v1.6C10.7,9,11.8,8.9,12.9,8.4z"/>
		<path class="st8" d="M12.9,10.1V8.8c-1.1,0.4-2.2,0.5-3.4,0.3v1.2C10.6,10.5,11.8,10.5,12.9,10.1z"/>
		<path class="st10" d="M12.2,10.9c-0.9,0.2-1.8,0.2-2.6,0v1h3.4v-1.2C12.7,10.8,12.4,10.9,12.2,10.9z"/>
		<path class="st9" d="M12.2,10.9c0.2,0,0.5-0.1,0.7-0.2V10c-1.1,0.4-2.3,0.5-3.4,0.2v0.6C10.4,11.1,11.3,11.1,12.2,10.9z"/>
		<path class="st9" d="M9.5,8.5v0.6c1.1,0.2,2.3,0.1,3.4-0.3V8.2C11.8,8.6,10.6,8.7,9.5,8.5z"/>
		<g>
			<defs>
				<polygon id="SVGID_1_" points="-1.8,21 1,21.3 5.5,23.3 6.5,23.5 7.5,23.7 16.4,23.5 17.2,23.2 18,23.1 20.8,21.8 21.8,20.8 
					22.2,20 24.2,24.4 22.2,32.7 -1.3,30.7 				"/>
			</defs>
			<clipPath id="SVGID_2_">
				<use xlink:href="#SVGID_1_"  style="overflow:visible;"/>
			</clipPath>
			<g class="st11">
				<g id="_x31_6573944-1758-41f0-849d-04217ca3e1fd">
					<path class="st12" d="M22.7,22.2c-0.3-2.4-1.7-4.2-3.2-4s-2.5,2.2-2.3,4.6c0,0.1,0,0.3,0.1,0.4c-0.8-2.2-3-3.6-5.3-3.5
						c-2.8,0-5.1,1.8-5.4,4.1c-0.2-2-1.5-3.6-3.2-3.6S0,22,0,24.2s1.5,4,3.3,4c1.6,0,3-1.5,3.2-3.4c0.3,2.4,2.6,4.2,5.5,4.2
						c3,0,5.5-2.1,5.5-4.7c0-0.2,0-0.3,0-0.5c0.5,1.8,1.7,3.1,3,2.9C21.9,26.6,22.9,24.6,22.7,22.2z M3.1,27.7
						c-1.3,0-2.3-1.6-2.3-3.7s1-3.7,2.3-3.7s2.3,1.6,2.3,3.7S4.4,27.7,3.1,27.7z M12,28.1c-2.5,0-4.5-1.7-4.5-3.8s2-3.8,4.5-3.8
						s4.5,1.7,4.5,3.8S14.5,28.1,12,28.1L12,28.1z M20.1,26.1c-1.2,0-2.1-1.5-2.1-3.4s0.9-3.4,2.1-3.4s2.1,1.5,2.1,3.4
						S21.2,26,20.1,26.1L20.1,26.1z"/>
				</g>
			</g>
		</g>
	</g>
</g>
</svg>
