<svg viewBox="0 0 16 16" fill="none" xmlns="http://www.w3.org/2000/svg">
<path fill-rule="evenodd" clip-rule="evenodd" d="M8 16C12.4183 16 16 12.4183 16 8C16 3.58173 12.4183 0 8 0C3.58173 0 0 3.58173 0 8C0 12.4183 3.58173 16 8 16ZM4.15442 11.7659C3.94849 11.5558 3.94849 11.2152 4.15442 11.0051L7.2168 7.88058L4.38843 4.99487C4.1825 4.78479 4.1825 4.44415 4.38843 4.23404C4.59436 4.02396 4.92822 4.02396 5.13416 4.23404L7.96252 7.11975L10.8658 4.15756C11.0718 3.94748 11.4056 3.94748 11.6116 4.15756C11.8175 4.36768 11.8175 4.70831 11.6116 4.9184L8.70825 7.88058L11.8456 11.0815C12.0515 11.2917 12.0515 11.6323 11.8456 11.8424C11.6396 12.0525 11.3058 12.0525 11.0999 11.8424L7.96252 8.64145L4.90015 11.7659C4.69421 11.976 4.36035 11.976 4.15442 11.7659Z" fill="#B4B4B4"/>
</svg>
