<svg width="14" height="14" viewBox="0 0 14 14" fill="none" xmlns="http://www.w3.org/2000/svg">
<path d="M7.6629 6.99999L12.8627 1.80021C13.0458 1.61716 13.0458 1.32035 12.8627 1.1373C12.6796 0.954232 12.3828 0.954232 12.1998 1.1373L6.99999 6.33709L1.80021 1.1373C1.61714 0.954232 1.32035 0.954232 1.1373 1.1373C0.954233 1.32035 0.954233 1.61716 1.1373 1.80021L6.33709 6.99999L1.1373 12.1998C0.954233 12.3829 0.954233 12.6796 1.1373 12.8627C1.32035 13.0457 1.61714 13.0458 1.80021 12.8627L6.99999 7.6629L12.1998 12.8627C12.3828 13.0457 12.6796 13.0458 12.8627 12.8627C13.0458 12.6796 13.0458 12.3828 12.8627 12.1998L7.6629 6.99999Z" fill="#DD6D00" stroke="#DD6D00" stroke-width="0.2"/>
</svg>
