<svg width="17" height="14" viewBox="0 0 17 14" fill="none" xmlns="http://www.w3.org/2000/svg">
<rect width="17" height="14"/>
<rect width="1280" height="1332" transform="translate(-737 -540)" />
<path d="M-167 -15H53V73C53 75.7614 50.7614 78 48 78H-162C-164.761 78 -167 75.7614 -167 73V-15Z"/>
<path d="M16.6356 0.186902C16.5124 0.0624385 16.3661 0 16.1976 0H6.22985C6.06115 0 5.91506 0.0624385 5.79184 0.186902C5.66859 0.311538 5.60691 0.459192 5.60691 0.629692V2.51863H4.04939C3.87415 2.51863 3.68424 2.56126 3.47985 2.64651C3.27542 2.73189 3.1116 2.83665 2.98835 2.96128L1.06094 4.90925C0.976626 4.9945 0.903699 5.09281 0.84192 5.20438C0.780312 5.31569 0.734864 5.41596 0.705646 5.50434C0.676495 5.59297 0.655289 5.71416 0.642435 5.86843C0.629548 6.02263 0.621297 6.13576 0.618058 6.20795C0.614955 6.28004 0.614955 6.40471 0.618058 6.58182C0.621331 6.75901 0.622968 6.87369 0.622968 6.92623V10.0744C0.454304 10.0744 0.308313 10.1366 0.184961 10.2614C0.0616763 10.3858 0 10.5335 0 10.704C0 10.8022 0.0128876 10.8893 0.0388673 10.9646C0.0648811 11.04 0.108624 11.1007 0.170402 11.1467C0.23201 11.1927 0.285572 11.2303 0.330952 11.2599C0.376467 11.2893 0.452702 11.3089 0.559757 11.3188C0.666813 11.3287 0.739774 11.3353 0.778744 11.3386C0.817713 11.3417 0.900391 11.3417 1.02691 11.3386C1.15357 11.3353 1.22654 11.3337 1.24604 11.3337H1.86897C1.86897 12.0287 2.11237 12.6223 2.59896 13.1143C3.08572 13.6061 3.67296 13.8521 4.36088 13.8521C5.04872 13.8521 5.63603 13.6061 6.12269 13.1143C6.60945 12.6223 6.85268 12.0287 6.85268 11.3337H10.5907C10.5907 12.0287 10.8341 12.6223 11.3207 13.1143C11.8072 13.6061 12.3946 13.8521 13.0825 13.8521C13.7705 13.8521 14.3575 13.6061 14.8443 13.1143C15.3311 12.6223 15.5743 12.0287 15.5743 11.3337C15.5937 11.3337 15.6668 11.3353 15.7932 11.3386C15.9198 11.3417 16.0025 11.3417 16.0415 11.3386C16.0805 11.3353 16.1536 11.3287 16.2606 11.3188C16.3676 11.3089 16.4438 11.2894 16.4893 11.2599C16.5348 11.2304 16.5882 11.1927 16.6499 11.1467C16.7116 11.1007 16.7554 11.04 16.7813 10.9646C16.8076 10.8892 16.8203 10.8022 16.8203 10.704V0.629795C16.8204 0.459261 16.7588 0.311779 16.6356 0.186902ZM5.23675 12.2191C4.99029 12.4682 4.69817 12.5931 4.36074 12.5931C4.02328 12.5931 3.73123 12.4683 3.48462 12.2191C3.23802 11.97 3.11477 11.6747 3.11477 11.3337C3.11477 10.9927 3.23816 10.6973 3.48462 10.4481C3.73119 10.1991 4.02324 10.0743 4.36074 10.0743C4.69817 10.0743 4.99025 10.199 5.23675 10.4481C5.48346 10.6973 5.60678 10.9927 5.60678 11.3337C5.60678 11.6747 5.48346 11.97 5.23675 12.2191ZM5.60678 6.29647H1.86883V6.00144C1.86883 5.91616 1.89798 5.844 1.95639 5.78494L3.85454 3.86657C3.91291 3.80751 3.98441 3.77808 4.06876 3.77808H5.60678V6.29647ZM13.9585 12.2191C13.712 12.4682 13.4199 12.5931 13.0825 12.5931C12.745 12.5931 12.4528 12.4683 12.2063 12.2191C11.9597 11.97 11.8364 11.6747 11.8364 11.3337C11.8364 10.9927 11.9597 10.6973 12.2063 10.4481C12.4528 10.1991 12.745 10.0743 13.0825 10.0743C13.4199 10.0743 13.712 10.199 13.9585 10.4481C14.205 10.6974 14.3285 10.9927 14.3285 11.3337C14.3285 11.6747 14.2052 11.97 13.9585 12.2191Z" fill="#7685B4"/>
</svg>
