<svg xmlns="http://www.w3.org/2000/svg" viewBox="0 0 20.41 16"><defs><style>.cls-1{fill:#fff;}</style></defs><title>Ресурс 70</title><g id="Слой_2" data-name="Слой 2"><g id="иконки"><g id="Слой_2-2" data-name="Слой 2"><g id="Слой_3" data-name="Слой 3"><circle class="cls-1" cx="9.73" cy="14.15" r="1.85"/><circle class="cls-1" cx="15.1" cy="14.15" r="1.85"/><path class="cls-1" d="M20.21,4a.9.9,0,0,0-.73-.38H5.14L3.93.58A.9.9,0,0,0,3.1,0H.69A.67.67,0,0,0,0,.66s0,0,0,0v.65H2.81L6.59,11a.9.9,0,0,0,.83.56h9.83a.9.9,0,0,0,.84-.59l2.28-6.14A.9.9,0,0,0,20.21,4Zm-3.36,6.22H7.71L5.62,5H18.81Z"/></g></g></g></g></svg>