<svg xmlns="http://www.w3.org/2000/svg" viewBox="0 0 14.53 11.39"><defs><style>.cls-1,.cls-2{fill:#e76d00;}.cls-1{opacity:0.2;isolation:isolate;}</style></defs><title>Ресурс 55</title><g id="Слой_2" data-name="Слой 2"><g id="иконки"><g id="Слой_2-2" data-name="Слой 2"><g id="Слой_3" data-name="Слой 3"><polygon class="cls-1" points="3.4 3.14 14.13 3.14 12.39 7.76 5.12 7.76 3.4 3.14"/><circle class="cls-2" cx="6.93" cy="10.07" r="1.32"/><circle class="cls-2" cx="10.75" cy="10.07" r="1.32"/><path class="cls-2" d="M14.39,2.88a.64.64,0,0,0-.52-.27H3.66L2.8.41A.64.64,0,0,0,2.21,0H.49A.48.48,0,0,0,0,.47s0,0,0,0V1H2L4.69,7.86a.64.64,0,0,0,.59.4h7a.64.64,0,0,0,.6-.42L14.5,3.47A.64.64,0,0,0,14.39,2.88ZM12,7.31H5.49L4,3.56h9.39Z"/></g></g></g></g></svg>