<?xml version="1.0" encoding="utf-8"?>
<!-- (c) Livemaster LLC - https://livemaster.ru -->
<!DOCTYPE svg PUBLIC "-//W3C//DTD SVG 1.1//EN" "http://www.w3.org/Graphics/SVG/1.1/DTD/svg11.dtd">
<svg xmlns="http://www.w3.org/2000/svg" viewBox="0 0 15.08 15.08"><defs><style>.cls-1{fill:none;stroke:#223b7c;stroke-miterlimit:10;}.cls-2{fill:#223b7c;}</style></defs><title>question</title><g><g><circle class="cls-1" cx="7.54" cy="7.54" r="7.04"/><path class="cls-2" d="M7.55 9.4A.56.56 0 0 1 7 8.84V7.17a.56.56 0 0 1 .56-.56 1.38 1.38 0 0 0 1.08-.36 1.26 1.26 0 0 0 .24-.87 1.23 1.23 0 0 0-1.41-1.3 1.26 1.26 0 0 0-1 .35 1.44 1.44 0 0 0-.23 1 .56.56 0 1 1-1.1.19 2.51 2.51 0 0 1 .45-1.92A2.31 2.31 0 0 1 7.46 3a2.5 2.5 0 0 1 1.86.69A2.45 2.45 0 0 1 10 5.31 2.28 2.28 0 0 1 9.47 7a2.19 2.19 0 0 1-1.36.71v1.13a.56.56 0 0 1-.56.56z"/><circle class="cls-2" cx="7.54" cy="11.44" r=".68"/></g></g></svg>