<?xml version="1.0" encoding="utf-8"?>
<!-- (c) Livemaster LLC - https://livemaster.ru -->
<!DOCTYPE svg PUBLIC "-//W3C//DTD SVG 1.1//EN" "http://www.w3.org/Graphics/SVG/1.1/DTD/svg11.dtd">
<svg viewBox="0 0 78 28" fill="none" xmlns="http://www.w3.org/2000/svg">
	<path d="M31.6788 27.885H32.3198V22.678H31.6788V27.885ZM33.6927 23.4466H34.3366V22.678H33.6927V23.4466ZM33.6927 27.885H34.3366V24.0961H33.6927V27.885ZM37.1429 27.268L36.0424 24.0961H35.3325L36.7742 27.885H37.4538L38.868 24.0961H38.2022L37.1429 27.268ZM41.3112 23.9987C40.2436 23.9987 39.5173 24.8106 39.5173 26.042C39.5173 27.2734 40.1969 27.9987 41.3332 27.9987C42.2439 27.9987 42.8216 27.5521 43.0142 26.6861H42.3924C42.2136 27.2544 41.9082 27.498 41.3524 27.498C40.6041 27.498 40.1474 27.0163 40.1474 26.2125V26.1692H43.0583V26.0718C43.0583 24.9838 42.5795 23.9987 41.3084 23.9987H41.3112ZM40.1694 25.655C40.2519 24.9486 40.6839 24.5102 41.3057 24.5102C41.9275 24.5102 42.3512 24.9405 42.4062 25.655H40.1694ZM48.3931 24.0041C48.1404 23.9967 47.89 24.0532 47.666 24.1684C47.442 24.2836 47.2518 24.4535 47.1137 24.6617C47.0316 24.4541 46.883 24.2785 46.6904 24.1613C46.4978 24.0441 46.2717 23.9918 46.0462 24.0122C45.7981 24.0029 45.5518 24.057 45.3314 24.1695C45.1109 24.2819 44.924 24.4487 44.7888 24.6536V24.0961H44.1918V27.885H44.8274V25.8823C44.8274 25.1732 45.0199 24.567 45.8729 24.567C46.4864 24.567 46.5827 24.9621 46.5827 25.4574V27.885H47.2183V25.747C47.2183 25.0542 47.4934 24.5724 48.206 24.5724C48.9186 24.5724 48.9764 24.9811 48.9764 25.5142V27.885H49.6119V25.2382C49.6009 24.4723 49.1965 24.0041 48.3821 24.0041H48.3931ZM53.9618 27.0244C53.9618 26.4615 53.992 25.9067 53.992 25.3464C53.992 25.0109 53.992 24.6239 53.7169 24.3695C53.3718 24.1072 52.9415 23.9773 52.5063 24.0041C51.5103 24.0041 50.9133 24.4777 50.8913 25.2815H51.5103C51.5709 24.7267 51.8763 24.5156 52.4678 24.5156C53.0593 24.5156 53.3427 24.7348 53.3427 25.1354C53.3427 25.6469 53.0291 25.6252 52.1101 25.7335C51.1912 25.8417 50.7344 26.2368 50.7344 26.908C50.7344 27.5792 51.2049 27.9743 51.9698 27.9743C52.2338 27.9868 52.4972 27.9393 52.7396 27.8356C52.9819 27.7319 53.1968 27.5747 53.3675 27.3762C53.3595 27.4498 53.3682 27.5242 53.3929 27.5942C53.4175 27.6641 53.4575 27.7278 53.5101 27.7808C53.5626 27.8338 53.6264 27.8747 53.6969 27.9007C53.7673 27.9266 53.8427 27.937 53.9177 27.931C54.065 27.9323 54.2113 27.9076 54.3497 27.858V27.3762C54.2985 27.3896 54.2458 27.3969 54.1929 27.3979C54.0168 27.4006 53.9508 27.3031 53.9508 27.0271L53.9618 27.0244ZM53.3565 26.6022C53.3565 27.0839 52.7814 27.4872 52.1817 27.4872C51.7029 27.4872 51.4113 27.2463 51.4113 26.8593C51.4113 26.2531 52.0386 26.2017 52.5118 26.1448C52.8111 26.141 53.1045 26.0628 53.3647 25.9175L53.3565 26.6022ZM56.9524 25.6333C56.4297 25.5169 55.929 25.452 55.929 25.0271C55.929 24.7132 56.2261 24.5156 56.7131 24.5156C57.2633 24.5156 57.61 24.705 57.654 25.203H58.2896C58.2896 24.4073 57.6155 23.9987 56.7488 23.9987C55.8822 23.9987 55.2769 24.429 55.2769 25.1083C55.2769 25.977 56.1656 26.0582 56.8314 26.2179C57.3817 26.3478 57.8026 26.4371 57.8026 26.8539C57.8026 27.2707 57.4284 27.4818 56.8617 27.4818C56.2481 27.4818 55.8519 27.2544 55.8161 26.6861H55.1888C55.2274 27.5332 55.7996 27.9933 56.8396 27.9933C57.8054 27.9933 58.4382 27.5115 58.4382 26.7808C58.4409 25.9608 57.5963 25.7795 56.9524 25.6333ZM60.4769 22.9919H59.8413V24.0961H59.1893V24.6076H59.8413V26.6076C59.8413 27.4195 59.7973 27.9013 60.7603 27.9013C60.9222 27.9021 61.084 27.8921 61.2445 27.8715V27.3302C61.1304 27.3444 61.0156 27.3516 60.9006 27.3519C60.4521 27.3519 60.4741 27.1408 60.4741 26.7971V24.6184H61.2445V24.0961H60.4741V22.9892L60.4769 22.9919ZM63.8308 23.9987C62.7632 23.9987 62.0369 24.8106 62.0369 26.042C62.0369 27.2734 62.7165 27.9987 63.8528 27.9987C64.7635 27.9987 65.3385 27.5521 65.5338 26.6861H64.9313C64.7497 27.2544 64.4471 27.498 63.8913 27.498C63.1429 27.498 62.6862 27.0163 62.6862 26.2125V26.1692H65.5861V26.0718C65.5889 24.9838 65.1101 23.9987 63.8308 23.9987ZM62.6807 25.655C62.7632 24.9486 63.1952 24.5102 63.817 24.5102C64.4388 24.5102 64.8625 24.9405 64.9175 25.655H62.6807ZM67.3057 24.908V24.0961H66.7004V27.885H67.3359V26.2828C67.3359 25.4358 67.523 24.659 68.5685 24.659C68.6235 24.655 68.6787 24.655 68.7336 24.659V24.0203C68.4291 23.9911 68.1234 24.0624 67.8648 24.2232C67.6062 24.384 67.4095 24.6249 67.3057 24.908ZM69.2124 27.885H70.0378V27.0731H69.2124V27.885ZM72.049 24.908V24.0961H71.4437V27.885H72.0847V26.2828C72.0847 25.4358 72.2718 24.659 73.3201 24.659C73.375 24.655 73.4302 24.655 73.4852 24.659V24.0203C73.1798 23.992 72.8735 24.0637 72.6138 24.2242C72.3541 24.3847 72.1555 24.6251 72.049 24.908ZM77.0014 24.0961V26.0663C77.0014 26.8404 76.7097 27.4195 75.8733 27.4195C75.2212 27.4195 75.0672 27.0542 75.0672 26.5129V24.0961H74.4316V26.6888C74.4316 27.5197 74.9104 27.9662 75.7165 27.9662C75.9802 27.9747 76.2415 27.9152 76.4746 27.7937C76.7077 27.6722 76.9045 27.4928 77.0454 27.2734V27.885H77.6369V24.0961H77.0014Z" fill="#807E79"/>
	<path d="M69.8836 4.90547C71.1437 4.23429 71.053 2.4508 71.053 2.4508H70.2111C70.2111 2.4508 70.2331 3.41697 69.8341 3.89871C69.6652 4.12768 69.4463 4.31654 69.1935 4.45142C68.9407 4.58629 68.6604 4.66376 68.3732 4.67814C67.7926 4.7025 67.3992 4.67814 67.2259 4.67814V2.44539H66.3289V7.80398H67.2259V5.40344H67.8201C68.0966 5.40715 68.3729 5.38632 68.6455 5.3412L70.3486 7.80669H71.4216L69.4792 5.10033C69.6085 5.04079 69.7406 4.98125 69.8836 4.90547ZM43.0857 2.29925C41.9219 2.29925 41.3937 2.73768 41.0085 3.31143C41.0085 3.20317 41.0085 2.65919 40.593 2.48057C40.2563 2.37513 39.8988 2.35009 39.5503 2.4075V3.05162C39.6338 3.02905 39.7216 3.02691 39.8062 3.04539C39.8907 3.06388 39.9694 3.10242 40.0353 3.15766C40.1012 3.2129 40.1524 3.28316 40.1844 3.36233C40.2164 3.44149 40.2282 3.52715 40.2189 3.61183C40.2189 3.66325 40.2189 3.70385 40.2189 3.73903V10.5509H41.1185V7.27083C41.1488 7.27083 41.1185 7.27083 41.1185 7.27083C41.64 7.60209 42.2426 7.78906 42.8629 7.8121C43.3757 7.82173 43.8802 7.68365 44.3143 7.41486C44.7484 7.14606 45.0931 6.75828 45.3061 6.29925C45.4914 5.8471 45.5757 5.36106 45.5534 4.87405C45.5311 4.38704 45.4027 3.91043 45.1767 3.47651C44.9747 3.10659 44.671 2.80002 44.3003 2.59184C43.9296 2.38366 43.5068 2.28227 43.0802 2.29925H43.0857ZM44.3816 6.18558C44.214 6.46184 43.9756 6.68998 43.6903 6.84718C43.4049 7.00438 43.0826 7.08514 42.7556 7.08138C42.1688 7.06161 41.6007 6.87346 41.1213 6.54011L41.0883 6.51846V4.84052C41.0925 4.74963 41.1036 4.65918 41.1213 4.56988C41.1956 4.11749 41.4341 3.70693 41.7926 3.41427C42.0395 3.2422 42.3246 3.13058 42.6241 3.08869C42.9237 3.0468 43.2291 3.07584 43.5149 3.1734C44.0019 3.29789 44.5137 3.86082 44.6155 4.57259C44.6949 5.12259 44.6118 5.68345 44.3761 6.18829L44.3816 6.18558ZM62.8155 2.29925C61.6517 2.29925 61.1234 2.73768 60.7382 3.31143C60.7382 3.20317 60.7382 2.65919 60.32 2.48057C59.9832 2.37534 59.6258 2.35029 59.2773 2.4075V3.05162C59.3606 3.02958 59.4482 3.02785 59.5323 3.04658C59.6165 3.06531 59.6947 3.10394 59.7603 3.15911C59.8259 3.21428 59.8768 3.28434 59.9086 3.36322C59.9405 3.44211 59.9523 3.52744 59.9431 3.61183C59.9431 3.66325 59.9431 3.70385 59.9431 3.73903V10.5509H60.8428V7.27083C60.8731 7.27083 60.8428 7.27083 60.8428 7.27083C61.3643 7.60209 61.9668 7.78906 62.5871 7.8121C63.0999 7.82139 63.6043 7.68316 64.0383 7.41441C64.4723 7.14565 64.8171 6.75807 65.0303 6.29925C65.2156 5.8471 65.3 5.36106 65.2777 4.87405C65.2554 4.38704 65.1269 3.91043 64.901 3.47651C64.6998 3.10892 64.3982 2.80392 64.0302 2.59591C63.6622 2.3879 63.2424 2.28515 62.8182 2.29925H62.8155ZM64.1059 6.18829C63.9383 6.46454 63.6999 6.69268 63.4145 6.84988C63.1292 7.00709 62.8069 7.08785 62.4798 7.08409C61.8923 7.0639 61.3234 6.87581 60.8428 6.54282L60.8043 6.50493V4.82699C60.8094 4.73603 60.8213 4.64557 60.84 4.55635C60.9144 4.10396 61.1529 3.69339 61.5114 3.40074C61.7582 3.22867 62.0433 3.11705 62.3429 3.07516C62.6424 3.03326 62.9478 3.06231 63.2337 3.15987C63.7207 3.28436 64.2324 3.84729 64.3342 4.55906C64.4198 5.11243 64.3405 5.67833 64.1059 6.18829ZM46.6157 2.09086V7.74986H47.4851V4.25053L49.4551 6.50493L51.425 4.25324V7.74986H52.2944V2.09086L49.4551 5.33849L46.6157 2.09086ZM58.5207 7.24647C58.2153 7.21941 58.207 6.75121 58.207 6.75121V3.97719C58.207 2.86488 57.0927 2.32631 55.8051 2.32631C55.1123 2.30174 54.4235 2.44095 53.7966 2.73227L53.97 3.41697C54.7488 3.02229 55.6488 2.92585 56.4957 3.14634C57.3899 3.36285 57.3954 4.04485 57.3954 4.04485V4.93524C57.1902 4.82892 56.9745 4.74367 56.7516 4.68084C56.3856 4.57259 55.1008 4.38585 54.2479 4.82969C53.9565 4.98682 53.718 5.22412 53.5616 5.51253C53.4052 5.80094 53.3378 6.12795 53.3674 6.45351C53.3674 6.7918 53.6426 7.88247 55.3594 7.88247C57.0762 7.88247 57.5384 6.82428 57.5384 6.82428C57.5384 6.82428 57.555 7.53605 57.8824 7.74174C58.2098 7.94742 58.9031 7.83375 58.9031 7.83375V7.24647C58.7759 7.25747 58.6479 7.25747 58.5207 7.24647ZM57.3954 5.96366C57.3443 6.17468 57.2424 6.37053 57.0982 6.5347C56.6318 6.9437 56.0254 7.16412 55.4007 7.15175C54.6165 7.15175 54.2671 6.76745 54.2671 6.23159C54.2671 5.7688 54.6386 5.25189 55.6208 5.22753C56.2348 5.20026 56.8457 5.32789 57.3954 5.5983V5.96366ZM77.1554 7.25459C76.85 7.22753 76.8417 6.75933 76.8417 6.75933V3.97719C76.8417 2.86488 75.7412 2.32631 74.4453 2.32631C73.7533 2.30133 73.0654 2.44057 72.4396 2.73227L72.6157 3.41697C73.3925 3.02215 74.2908 2.92568 75.1359 3.14634C76.0301 3.36285 76.0301 4.04485 76.0301 4.04485V4.93524C75.8274 4.82787 75.6133 4.74257 75.3918 4.68084C75.0259 4.57259 73.741 4.38585 72.8908 4.82969C72.6 4.9872 72.3621 5.22466 72.2062 5.51304C72.0503 5.80142 71.9832 6.12823 72.0132 6.45351C72.0132 6.7918 72.2883 7.88247 74.0051 7.88247C75.722 7.88247 76.1842 6.82428 76.1842 6.82428C76.1842 6.82428 76.1842 7.53605 76.5226 7.74174C76.861 7.94742 77.5378 7.83375 77.5378 7.83375V7.24647C77.4106 7.25739 77.2826 7.25739 77.1554 7.24647V7.25459ZM76.0301 5.96366C75.9826 6.17488 75.8824 6.37115 75.7385 6.5347C75.2727 6.94306 74.6674 7.16344 74.0436 7.15175C73.2595 7.15175 72.9101 6.76745 72.9101 6.23159C72.9101 5.7688 73.276 5.25189 74.2582 5.22753C74.8714 5.19951 75.4816 5.3272 76.0301 5.5983V5.96366ZM35.5691 0.00966854C34.8105 -0.0491938 34.0557 0.162119 33.4423 0.605068C33.1543 0.822842 32.924 1.1059 32.7712 1.43011C32.6184 1.75432 32.5475 2.11007 32.5647 2.46704C32.5386 2.80852 32.5971 3.15111 32.7351 3.46549C32.8731 3.77986 33.0865 4.05666 33.357 4.27218C33.7588 4.59209 34.2371 4.80545 34.7465 4.89194C34.5841 5.13551 34.3723 5.45486 34.0999 5.8554C33.2745 7.09492 32.826 7.06785 32.683 7.05973C32.4628 7.04426 32.2492 6.97946 32.0584 6.87029L31.5907 7.58747C31.9074 7.77424 32.2649 7.88374 32.6335 7.90682H32.7242C33.4396 7.90682 34.0999 7.41156 34.8318 6.3209C35.2692 5.67408 35.5554 5.23835 35.7232 4.98666H37.5418V7.80669H38.5185V0.00966854H35.5691ZM37.5446 4.16934H35.404C35.0766 4.16934 33.9018 4.12063 33.5689 3.0435C33.4454 2.70554 33.4383 2.33701 33.5487 1.99469C33.659 1.65236 33.8808 1.35523 34.1797 1.14905C34.6392 0.864878 35.0051 0.851346 35.5554 0.851346H37.5418L37.5446 4.16934ZM50.7152 14.5482H52.5035V18.7079H53.2932V14.5509H55.0815V13.8446H50.7124L50.7152 14.5482ZM77.8845 16.8297C77.8017 16.6408 77.6723 16.4753 77.508 16.3482C77.3437 16.221 77.1496 16.1363 76.9435 16.1017C77.0884 16.0704 77.224 16.0067 77.34 15.9157C77.4559 15.8247 77.549 15.7087 77.6121 15.5766C77.6959 15.3731 77.7233 15.1514 77.6914 14.9341C77.6595 14.7168 77.5694 14.5117 77.4305 14.3398C76.9986 13.7986 75.8568 13.8419 75.8568 13.8419H73.7355V18.7133H76.2117C76.7222 18.7506 77.2289 18.6034 77.6369 18.2992C77.8177 18.1043 77.9373 17.8621 77.9812 17.6018C78.0252 17.3416 77.9916 17.0743 77.8845 16.8324V16.8297ZM74.5114 14.4454H75.8568C75.8568 14.4454 76.9188 14.4156 76.8885 15.1761C76.8582 15.9366 75.9366 15.8608 75.9366 15.8608H74.5059L74.5114 14.4454ZM76.8032 17.9095C76.5631 18.0116 76.3025 18.0588 76.0411 18.0476H74.5114V16.467H75.909C75.909 16.467 76.8748 16.4346 77.1114 16.965C77.1551 17.0472 77.1819 17.1371 77.19 17.2294C77.1982 17.3218 77.1876 17.4149 77.159 17.5033C77.1303 17.5916 77.0841 17.6735 77.023 17.7442C76.962 17.8148 76.8873 17.8729 76.8032 17.9149V17.9095ZM64.3095 13.7309C63.253 13.7309 62.777 14.1314 62.4248 14.6511C62.4248 14.5509 62.4248 14.0584 62.0451 13.896C61.7395 13.8 61.4151 13.7768 61.0987 13.8283V14.4129C61.1744 14.3926 61.254 14.3908 61.3306 14.4077C61.4072 14.4246 61.4785 14.4596 61.5382 14.5098C61.5978 14.5599 61.6441 14.6237 61.673 14.6955C61.7019 14.7673 61.7126 14.845 61.704 14.9217C61.704 14.9704 61.704 15.0056 61.704 15.0381V21.2275H62.5294V18.2505C62.5541 18.2505 62.5294 18.2505 62.5294 18.2505C62.9991 18.5555 63.5437 18.7304 64.1059 18.7566C64.5711 18.765 65.0288 18.6396 65.4227 18.3959C65.8166 18.1522 66.1297 17.8007 66.3234 17.3845C66.4917 16.9736 66.5685 16.5319 66.5486 16.0893C66.5286 15.6468 66.4125 15.2135 66.2079 14.8189C66.0275 14.4803 65.7537 14.1986 65.4179 14.0061C65.0821 13.8137 64.6979 13.7183 64.3095 13.7309ZM65.4815 17.2654C65.3296 17.516 65.1134 17.7229 64.8546 17.8654C64.5958 18.0079 64.3034 18.081 64.0068 18.0773C63.4723 18.0575 62.9556 17.8834 62.5211 17.5766L62.4881 17.5577V16.034C62.4929 15.953 62.5039 15.8725 62.5211 15.7932C62.5879 15.3823 62.8039 15.0092 63.1291 14.7431C63.3532 14.5871 63.612 14.4861 63.8838 14.4484C64.1557 14.4107 64.4327 14.4375 64.6919 14.5266C64.9615 14.6273 65.1974 14.7995 65.3737 15.024C65.55 15.2485 65.6597 15.5165 65.6906 15.7986C65.7654 16.2971 65.6928 16.8063 65.4815 17.2654ZM57.8081 13.7471C57.2277 13.7551 56.6689 13.9649 56.2308 14.3394C55.7926 14.7139 55.5034 15.2289 55.4144 15.7932C55.2026 17.1463 55.7859 18.0124 56.7653 18.5212C57.7448 19.03 59.3213 18.6944 59.6872 18.5428L60.0559 18.3886L59.9266 17.8121C59.3488 18.0378 58.7324 18.1526 58.1107 18.1504C57.7478 18.1653 57.3881 18.077 57.0749 17.896C56.7616 17.7151 56.508 17.4491 56.3444 17.1301C56.2476 16.8918 56.1999 16.637 56.2041 16.3804H60.2265C60.2265 16.3804 60.4218 15.1599 59.9238 14.5563C59.4259 13.9528 58.8343 13.7201 57.8136 13.758L57.8081 13.7471ZM59.5167 15.7499H56.2343C56.2664 15.5336 56.343 15.3261 56.4594 15.14C56.5757 14.9539 56.7295 14.793 56.9111 14.6673C57.2045 14.4912 57.5381 14.3905 57.8814 14.3744C58.2247 14.3583 58.5666 14.4274 58.8756 14.5753C59.092 14.686 59.2695 14.8584 59.3848 15.0698C59.5002 15.2813 59.548 15.5221 59.5222 15.7607L59.5167 15.7499ZM70.1368 13.7309C68.486 13.7309 67.4735 14.8622 67.4735 16.2586C67.4735 17.6551 68.4612 18.7864 70.1368 18.7864C71.8123 18.7864 72.8028 17.6551 72.8028 16.2586C72.8028 14.8622 71.8096 13.7417 70.1423 13.7417L70.1368 13.7309ZM70.1368 18.1125C69.8881 18.1224 69.6401 18.0809 69.4087 17.9908C69.1773 17.9007 68.9676 17.7639 68.7932 17.5893C68.6188 17.4146 68.4835 17.206 68.396 16.9769C68.3085 16.7477 68.2707 16.503 68.2851 16.2586C68.2851 15.7756 68.4802 15.3123 68.8275 14.9707C69.1747 14.6292 69.6457 14.4373 70.1368 14.4373C70.6278 14.4373 71.0988 14.6292 71.4461 14.9707C71.7933 15.3123 71.9884 15.7756 71.9884 16.2586C71.9994 17.2925 71.3226 18.1233 70.1588 18.1233L70.1368 18.1125ZM44.4641 18.2181C44.189 18.1937 44.189 17.7661 44.189 17.7661V15.2546C44.189 14.2424 43.1875 13.7553 42.021 13.7553C41.3932 13.7327 40.7693 13.8599 40.2023 14.126L40.3619 14.7485C41.0622 14.3815 41.8766 14.285 42.6455 14.4779C43.4709 14.6727 43.4544 15.2898 43.4544 15.2898V16.1017C43.2722 16.0039 43.0793 15.9267 42.8794 15.8716C42.5465 15.7742 41.3882 15.601 40.615 16.007C40.3498 16.1503 40.1329 16.3668 39.9911 16.6298C39.8494 16.8929 39.7889 17.1909 39.8172 17.4873C39.8172 17.7959 40.0758 18.7837 41.6248 18.7837C43.1738 18.7837 43.603 17.8229 43.603 17.8229C43.603 17.8229 43.603 18.4697 43.9056 18.6565C44.2083 18.8432 44.8246 18.7404 44.8246 18.7404V18.1991C44.7104 18.2211 44.5942 18.2311 44.4779 18.2289L44.4641 18.2181ZM43.4544 17.0597C43.4133 17.2497 43.3244 17.4265 43.1958 17.5739C42.7751 17.9487 42.2252 18.1519 41.6578 18.1423C40.948 18.1423 40.6316 17.7932 40.6316 17.306C40.6316 16.8865 40.9617 16.4156 41.8531 16.394C42.4086 16.3683 42.9612 16.4849 43.4572 16.7323V17.0597H43.4544ZM32.0419 11.1761V18.7079H32.9086V13.6903L35.4095 16.8432L37.9077 13.6903V18.7079H38.7772V11.1761L35.4095 15.5848L32.0419 11.1761ZM49.4165 15.8148L50.1676 15.6768C50.1729 15.2816 50.0547 14.8943 49.8292 14.5672C49.3478 13.9853 48.7287 13.7201 47.7135 13.7553C47.1331 13.7632 46.5743 13.973 46.1361 14.3476C45.698 14.7221 45.4088 15.2371 45.3198 15.8013C45.108 17.1545 45.6885 18.0205 46.6707 18.5293C47.6529 19.0381 49.2267 18.7025 49.5926 18.5509L49.9613 18.3967L49.832 17.8202C49.2533 18.0462 48.636 18.1611 48.0134 18.1585C47.6509 18.1729 47.2918 18.0843 46.9791 17.9034C46.6664 17.7225 46.4132 17.4568 46.2498 17.1382C46.1574 16.9119 46.1097 16.6703 46.1094 16.4264C46.0697 16.108 46.1007 15.7848 46.2002 15.4792C46.3116 15.1512 46.5266 14.8668 46.8138 14.6673C47.1071 14.4912 47.4408 14.3905 47.7841 14.3744C48.1273 14.3583 48.4692 14.4274 48.7782 14.5753C48.9949 14.6863 49.1723 14.8592 49.2872 15.0712C49.4021 15.2833 49.4491 15.5246 49.422 15.7634L49.4165 15.8148Z" fill="black"/>
	<path d="M14.2271 27.9999C22.0845 27.9999 28.4542 21.7343 28.4542 14.0053C28.4542 6.27633 22.0845 0.0107422 14.2271 0.0107422C6.36969 0.0107422 0 6.27633 0 14.0053C0 21.7343 6.36969 27.9999 14.2271 27.9999Z" fill="url(#paint0_linear)"/>
	<path d="M22.0958 16.0855L25.8624 14.0097L22.0931 11.9366L24.2941 8.28574L19.9746 8.34257L20.0323 4.09359L16.3208 6.25867L14.227 2.55908L12.1058 6.26679L8.39423 4.10171L8.45201 8.35069L4.13243 8.29386L6.33349 11.9447L2.58618 14.0097L6.3555 16.0855L4.15444 19.7363L8.47402 19.6795L8.41624 23.9285L12.1278 21.7634L14.227 25.4495L16.3373 21.7418L20.0488 23.9068L19.9911 19.6579L24.3106 19.7147L22.0958 16.0855ZM19.284 22.6267L16.0594 20.7323L14.227 23.9583L12.3809 20.7377L9.15635 22.6321L9.20862 18.9407L5.45581 18.9894L7.38174 15.8175L4.11317 14.0097L7.38724 12.2073L5.46132 9.0354L9.21413 9.08411L9.1701 5.39535L12.3947 7.2898L14.227 4.06923L16.0594 7.2898L19.284 5.39535L19.2317 9.08411L22.9845 9.0354L21.0586 12.2073L24.3354 14.0097L21.0613 15.8121L22.9873 18.984L19.2317 18.9353L19.284 22.6267ZM20.0241 12.9244C19.8093 12.8547 19.6124 12.7403 19.4465 12.589C19.2807 12.4378 19.1499 12.2532 19.063 12.0478C18.9761 11.8425 18.9351 11.6211 18.9429 11.3988C18.9506 11.1765 19.0069 10.9584 19.1079 10.7593C19.3995 10.1558 19.438 9.67681 19.2234 9.34663C18.9483 8.91632 18.332 8.85678 17.5451 9.22214C17.3195 9.32964 17.0722 9.38605 16.8215 9.38723C16.4912 9.38493 16.17 9.28082 15.903 9.08954C15.636 8.89826 15.4366 8.62945 15.3331 8.32092C15.0057 7.41158 14.5517 7.22214 14.2325 7.22214C13.9134 7.22214 13.4539 7.41429 13.132 8.32092C13.0284 8.62945 12.8291 8.89826 12.5621 9.08954C12.2951 9.28082 11.9738 9.38493 11.6435 9.38723C11.3882 9.38469 11.1369 9.32451 10.9089 9.21131C10.1221 8.84325 9.50576 8.90549 9.23063 9.3358C9.01603 9.67139 9.05455 10.1477 9.34619 10.7485C9.44719 10.9476 9.50347 11.1656 9.51122 11.388C9.51896 11.6103 9.47799 11.8316 9.39109 12.037C9.30418 12.2424 9.17337 12.427 9.00754 12.5782C8.84171 12.7295 8.64474 12.8439 8.43 12.9136C7.50555 13.2357 7.31296 13.6822 7.31296 13.9962C7.31296 14.3101 7.5083 14.7621 8.43 15.0787C8.64474 15.1485 8.84171 15.2628 9.00754 15.4141C9.17337 15.5653 9.30418 15.7499 9.39109 15.9553C9.47799 16.1607 9.51896 16.382 9.51122 16.6043C9.50347 16.8267 9.44719 17.0448 9.34619 17.2438C9.05455 17.8473 9.01603 18.3263 9.23063 18.6565C9.50576 19.0868 10.1221 19.1491 10.9089 18.781C11.1346 18.6735 11.3818 18.6171 11.6325 18.6159C11.9628 18.6182 12.2841 18.7223 12.5511 18.9136C12.8181 19.1049 13.0174 19.3737 13.121 19.6822C13.4484 20.5916 13.9024 20.781 14.2215 20.781C14.5407 20.781 15.0002 20.5888 15.3221 19.6822C15.4255 19.3741 15.6244 19.1056 15.8908 18.9144C16.1573 18.7231 16.4779 18.6188 16.8078 18.6159C17.0585 18.6171 17.3057 18.6735 17.5314 18.781C18.3183 19.1491 18.9346 19.0868 19.2097 18.6565C19.4243 18.3209 19.3858 17.8446 19.0941 17.2438C18.9931 17.0448 18.9369 16.8267 18.9291 16.6043C18.9214 16.382 18.9623 16.1607 19.0492 15.9553C19.1361 15.7499 19.267 15.5653 19.4328 15.4141C19.5986 15.2628 19.7956 15.1485 20.0103 15.0787C20.9348 14.7566 21.1274 14.3101 21.1274 13.9962C21.1274 13.6822 20.9458 13.2465 20.0213 12.9217L20.0241 12.9244ZM19.7655 14.3832C19.4474 14.4883 19.156 14.6592 18.9107 14.8844C18.6654 15.1096 18.472 15.3839 18.3435 15.6888C18.215 15.9936 18.1544 16.322 18.1657 16.6519C18.177 16.9817 18.26 17.3054 18.4091 17.601C18.6264 18.053 18.5879 18.2587 18.5686 18.283C18.5376 18.2967 18.5035 18.3023 18.4696 18.2993C18.2637 18.2824 18.0639 18.2224 17.8836 18.1234C17.554 17.9672 17.1929 17.8858 16.827 17.8852C16.3395 17.8896 15.8654 18.0434 15.4709 18.3252C15.0764 18.607 14.781 19.0029 14.626 19.4576C14.4581 19.9231 14.2848 20.0449 14.2491 20.053C14.2133 20.0611 14.0399 19.9258 13.8721 19.4576C13.7163 19.0007 13.4188 18.6033 13.0216 18.3213C12.6243 18.0393 12.1472 17.8868 11.6573 17.8852C11.2914 17.8858 10.9304 17.9672 10.6008 18.1234C10.4177 18.2226 10.215 18.2816 10.0065 18.2966C9.97357 18.2985 9.94061 18.2929 9.91021 18.2803C9.8882 18.2533 9.85243 18.0476 10.0698 17.5983C10.2185 17.3013 10.3005 16.9762 10.3104 16.6453C10.3203 16.3143 10.2578 15.9851 10.1271 15.68C9.99635 15.3749 9.80052 15.1009 9.55282 14.8767C9.30512 14.6525 9.01134 14.4833 8.69137 14.3805C8.21264 14.2127 8.09158 14.0422 8.08883 14.0097C8.08608 13.9772 8.21539 13.804 8.69137 13.6389C9.00945 13.5339 9.30093 13.363 9.54615 13.1377C9.79138 12.9124 9.98465 12.6381 10.1129 12.3331C10.2412 12.0282 10.3016 11.6997 10.2898 11.3698C10.2781 11.04 10.1946 10.7165 10.045 10.4211C9.82767 9.9718 9.86619 9.76612 9.88545 9.73905C9.91657 9.72559 9.95062 9.72001 9.9845 9.72281C10.1929 9.73807 10.3956 9.79714 10.5788 9.89602C10.9084 10.0522 11.2694 10.1336 11.6353 10.1342C12.1229 10.1298 12.5969 9.976 12.9914 9.69416C13.3859 9.41233 13.6813 9.0165 13.8364 8.56179C14.0069 8.09088 14.1803 7.9718 14.2133 7.96909C14.2463 7.96639 14.4224 8.09088 14.5902 8.56179C14.7453 9.0165 15.0406 9.41233 15.4352 9.69416C15.8297 9.976 16.3037 10.1298 16.7913 10.1342C17.1692 10.1391 17.5431 10.0575 17.8836 9.89602C18.0667 9.79698 18.2694 9.73791 18.4778 9.72281C18.5117 9.72023 18.5457 9.72581 18.5769 9.73905C18.5989 9.76612 18.6347 9.9718 18.4173 10.4211C18.2677 10.7165 18.1842 11.04 18.1725 11.3698C18.1608 11.6997 18.2211 12.0282 18.3494 12.3331C18.4777 12.6381 18.671 12.9124 18.9162 13.1377C19.1614 13.363 19.4529 13.5339 19.771 13.6389C20.2414 13.8121 20.3597 13.9772 20.3597 14.0097C20.3597 14.0422 20.2414 14.2127 19.7627 14.3805L19.7655 14.3832ZM14.227 10.4508C13.5115 10.4508 12.812 10.6595 12.217 11.0506C11.622 11.4417 11.1583 11.9975 10.8844 12.6478C10.6106 13.2981 10.539 14.0136 10.6786 14.704C10.8182 15.3943 11.1627 16.0285 11.6687 16.5262C12.1747 17.0239 12.8194 17.3628 13.5212 17.5002C14.223 17.6375 14.9505 17.567 15.6116 17.2976C16.2727 17.0283 16.8377 16.5721 17.2353 15.9869C17.6328 15.4016 17.845 14.7136 17.845 14.0097C17.8443 13.066 17.4629 12.1612 16.7845 11.494C16.1062 10.8267 15.1864 10.4515 14.227 10.4508ZM14.227 16.8351C13.6589 16.8351 13.1036 16.6694 12.6312 16.359C12.1589 16.0485 11.7907 15.6072 11.5733 15.0909C11.3559 14.5747 11.299 14.0066 11.4098 13.4585C11.5207 12.9104 11.7942 12.4069 12.196 12.0118C12.5977 11.6167 13.1095 11.3476 13.6667 11.2385C14.2239 11.1295 14.8014 11.1855 15.3263 11.3993C15.8511 11.6132 16.2997 11.9753 16.6153 12.44C16.931 12.9046 17.0994 13.4509 17.0994 14.0097C17.0987 14.7588 16.7958 15.4771 16.2573 16.0068C15.7188 16.5365 14.9886 16.8344 14.227 16.8351Z" fill="white"/>
	<defs>
		<linearGradient id="paint0_linear" x1="14.1996" y1="0.091933" x2="14.2528" y2="28.0784" gradientUnits="userSpaceOnUse">
			<stop stop-color="#F39440"/>
			<stop offset="1" stop-color="#E7680B"/>
		</linearGradient>
	</defs>
</svg>
