<svg xmlns="http://www.w3.org/2000/svg" viewBox="0 0 17.9 12"><defs><style>.cls-1{fill:#b3adad;}</style></defs><title>Ресурс 52</title><g id="Слой_2" data-name="Слой 2"><g id="иконки"><g id="Слой_2-2" data-name="Слой 2"><g id="Слой_3" data-name="Слой 3"><path class="cls-1" d="M17.05,0H.85A.85.85,0,0,0,0,.85H0V11.1a.85.85,0,0,0,.8.9H17.05a.85.85,0,0,0,.85-.85h0V.85A.85.85,0,0,0,17.05,0ZM9.66,6A1.33,1.33,0,0,1,7.81,6L1.44,1H16ZM5.24,5.46,1,9.46V2.16Zm.93.72.94.73a2.47,2.47,0,0,0,1.65.65,2.41,2.41,0,0,0,1.61-.63l1-.82L16.49,11H1.11Zm6.2-.81L16.9,1.83V9.69Z"/></g></g></g></g></svg>