<svg width="20" height="16" viewBox="0 0 20 16" fill="none" xmlns="http://www.w3.org/2000/svg">
<path d="M9.53931 16C10.5428 16 11.3563 15.1698 11.3563 14.1457C11.3563 13.1217 10.5428 12.2915 9.53931 12.2915C8.5358 12.2915 7.72229 13.1217 7.72229 14.1457C7.72229 15.1698 8.5358 16 9.53931 16Z" fill="white"/>
<path d="M14.7976 16C15.8011 16 16.6146 15.1698 16.6146 14.1457C16.6146 13.1217 15.8011 12.2915 14.7976 12.2915C13.7941 12.2915 12.9806 13.1217 12.9806 14.1457C12.9806 15.1698 13.7941 16 14.7976 16Z" fill="white"/>
<path d="M19.8083 4.04577C19.7272 3.92895 19.6199 3.8336 19.4954 3.76763C19.3709 3.70166 19.2328 3.66698 19.0925 3.66649H5.0381L3.85428 0.576088C3.79093 0.408175 3.67966 0.263525 3.53487 0.160847C3.39009 0.0581701 3.21844 0.00219028 3.04213 0.000149352H0.6745C0.587726 -0.00171469 0.501442 0.0138859 0.420578 0.0460598C0.339714 0.0782337 0.265854 0.126351 0.203217 0.187662C0.14058 0.248973 0.0903939 0.322276 0.0555253 0.403385C0.0206567 0.484494 0.00178896 0.571819 0 0.660371C0 0.660371 0 0.660371 0 0.660371V1.40488H2.75306L6.45593 11.0413C6.52144 11.2066 6.63364 11.3483 6.77825 11.4483C6.92286 11.5484 7.09337 11.6023 7.26808 11.6032H16.9038C17.0841 11.6029 17.2599 11.5462 17.4076 11.4407C17.5553 11.3352 17.6677 11.186 17.7297 11.0132L19.9597 4.87456C20.0028 4.7343 20.0115 4.58541 19.9851 4.44092C19.9587 4.29644 19.898 4.16076 19.8083 4.04577ZM16.5184 10.2687H7.55715L5.50612 5.00098H18.4317L16.5184 10.2687Z" fill="white"/>
</svg>
