<svg xmlns="http://www.w3.org/2000/svg" viewBox="0 0 17 15">
	<title>comment-hover</title>
	<path fill="#e4f4fc" d="M15.52,10.37H9.78c-1.06,0-.38,3,.06,4,0,.09,0,.13-.14.13-.51,0-3.93-4.09-4.6-4.1H1.48a1,1,0,0,1-1-1V1.5a1,1,0,0,1,1-1h14a1,1,0,0,1,1,1V9.35a1,1,0,0,1-1,1Z"/>
	<path fill="#26b3e5" d="M9.7,15c-.41,0-.82-.38-2.41-2A16.88,16.88,0,0,0,5,10.89H1.48A1.49,1.49,0,0,1,0,9.4V1.5A1.49,1.49,0,0,1,1.48,0h14A1.49,1.49,0,0,1,17,1.5V9.35a1.49,1.49,0,0,1-1.45,1.52H9.78c-.24.28,0,2.23.52,3.3l0,.2A.59.59,0,0,1,9.7,15ZM1.48,1A.49.49,0,0,0,1,1.5V9.4a.49.49,0,0,0,.48.5H5.11c.5,0,1.09.55,2.9,2.4l1,1a4.46,4.46,0,0,1,0-3,.94.94,0,0,1,.81-.44h5.73A.5.5,0,0,0,16,9.36V1.5a.49.49,0,0,0-.48-.5Z"/>
</svg>
