<?xml version="1.0" encoding="utf-8"?>
<!-- (c) Livemaster LLC - https://livemaster.ru -->
<!DOCTYPE svg PUBLIC "-//W3C//DTD SVG 1.1//EN" "http://www.w3.org/Graphics/SVG/1.1/DTD/svg11.dtd">
<svg xmlns="http://www.w3.org/2000/svg" viewBox="0 0 15 13.15">
	<title>favourite-active</title>
	<path fill="#f14a47" d="M15,3.92A4.13,4.13,0,0,0,10.92,0,4.09,4.09,0,0,0,7.46,1.88,3.93,3.93,0,0,0,4.08,0,4.13,4.13,0,0,0,0,3.92,3.82,3.82,0,0,0,.15,5.41,6.33,6.33,0,0,0,2.23,8.68l5.23,4.47,5.32-4.47a6.33,6.33,0,0,0,2.08-3.27A3.83,3.83,0,0,0,15,3.92Z"/>
</svg>
