<svg xmlns="http://www.w3.org/2000/svg" xmlns:xlink="http://www.w3.org/1999/xlink" viewBox="0 0 25 32"><defs><style>.cls-1{fill:#646464;}.cls-2{fill:url(#Безымянный_градиент_103);}.cls-3{fill:url(#Безымянный_градиент_99);}.cls-4{fill:url(#Безымянный_градиент_101);}.cls-5{fill:url(#Безымянный_градиент_100);}.cls-6{fill:url(#Безымянный_градиент_99-2);}.cls-7{fill:#6b6b6b;}.cls-8{fill:url(#Безымянный_градиент_98);}.cls-9{fill:url(#Безымянный_градиент_97);}.cls-10{fill:url(#Безымянный_градиент_96);}.cls-11{fill:url(#Безымянный_градиент_95);}.cls-12{fill:#d2d2d2;}.cls-13{fill:url(#Безымянный_градиент_94);}.cls-14{fill:#9c9c9c;}.cls-15{fill:url(#Безымянный_градиент_93);}.cls-16{fill:url(#Безымянный_градиент_92);}.cls-17{fill:#555;}.cls-18{fill:url(#Безымянный_градиент_91);}.cls-19{fill:url(#Безымянный_градиент_90);}.cls-20{fill:url(#Безымянный_градиент_84);}.cls-21{fill:url(#Безымянный_градиент_84-2);}.cls-22{fill:url(#Безымянный_градиент_84-3);}.cls-23{fill:url(#Безымянный_градиент_82);}.cls-24{fill:url(#Безымянный_градиент_84-4);}.cls-25{fill:url(#Безымянный_градиент_84-5);}.cls-26{fill:url(#Безымянный_градиент_82-2);}.cls-27{fill:url(#Безымянный_градиент_82-3);}.cls-28{fill:url(#Безымянный_градиент_81);}.cls-29{fill:url(#Безымянный_градиент_80);}.cls-30{fill:url(#Безымянный_градиент_74);}.cls-31{fill:url(#Безымянный_градиент_74-2);}.cls-32{fill:url(#Безымянный_градиент_74-3);}.cls-33{fill:url(#Безымянный_градиент_74-4);}.cls-34{fill:url(#Безымянный_градиент_74-5);}.cls-35{fill:#b2b2b2;}.cls-36{fill:url(#Безымянный_градиент_74-6);}.cls-37{fill:url(#Безымянный_градиент_73);}.cls-38{fill:url(#Безымянный_градиент_65);}.cls-39{fill:url(#Безымянный_градиент_65-2);}.cls-40{fill:url(#Безымянный_градиент_64);}.cls-41{fill:url(#Безымянный_градиент_62);}.cls-42{fill:url(#Безымянный_градиент_62-2);}.cls-43{fill:url(#Безымянный_градиент_67);}.cls-44{fill:url(#Безымянный_градиент_65-3);}.cls-45{fill:url(#Безымянный_градиент_65-4);}.cls-46{fill:url(#Безымянный_градиент_64-2);}.cls-47{fill:url(#Безымянный_градиент_62-3);}.cls-48{fill:url(#Безымянный_градиент_62-4);}.cls-49{fill:url(#Безымянный_градиент_61);}.cls-50{fill:url(#Безымянный_градиент_60);}.cls-51{fill:url(#Безымянный_градиент_59);}.cls-52{fill:url(#Безымянный_градиент_58);}.cls-53{fill:url(#Безымянный_градиент_57);}.cls-54{fill:url(#Безымянный_градиент_56);}.cls-55{fill:url(#Безымянный_градиент_55);}.cls-56{fill:url(#Безымянный_градиент_53);}.cls-57{fill:url(#Безымянный_градиент_53-2);}.cls-58{fill:#ddd;}</style><linearGradient id="Безымянный_градиент_103" x1="15.64" y1="17.63" x2="4.3" y2="18.67" gradientTransform="matrix(1, 0, 0, -1, 0, 34)" gradientUnits="userSpaceOnUse"><stop offset="0" stop-color="#c8c8c8"/><stop offset="0.05" stop-color="#cbcbcb"/><stop offset="0.13" stop-color="#d2d2d2"/><stop offset="0.22" stop-color="#ddd"/><stop offset="0.33" stop-color="#ededed"/><stop offset="0.35" stop-color="#ebebeb"/><stop offset="0.38" stop-color="#e5e5e5"/><stop offset="0.42" stop-color="#dadada"/><stop offset="0.45" stop-color="#ccc"/><stop offset="0.46" stop-color="#c8c8c8"/><stop offset="0.5" stop-color="#bcbcbc"/><stop offset="0.6" stop-color="#9a9a9a"/><stop offset="0.71" stop-color="gray"/><stop offset="0.81" stop-color="#6d6d6d"/><stop offset="0.91" stop-color="#616161"/><stop offset="1" stop-color="#5d5d5d"/></linearGradient><linearGradient id="Безымянный_градиент_99" x1="15.32" y1="23.91" x2="5.81" y2="23.97" gradientTransform="matrix(1, 0, 0, -1, 0, 34)" gradientUnits="userSpaceOnUse"><stop offset="0" stop-color="#c8c8c8"/><stop offset="0.07" stop-color="#cdcdcd"/><stop offset="0.2" stop-color="#d9d9d9"/><stop offset="0.36" stop-color="#ebebeb"/><stop offset="0.38" stop-color="#ededed"/><stop offset="0.41" stop-color="#ececec"/><stop offset="0.44" stop-color="#e8e8e8"/><stop offset="0.47" stop-color="#e1e1e1"/><stop offset="0.5" stop-color="#d8d8d8"/><stop offset="0.53" stop-color="#ccc"/><stop offset="0.54" stop-color="#c8c8c8"/><stop offset="0.54" stop-color="#c7c7c7"/><stop offset="0.6" stop-color="#a7a7a7"/><stop offset="0.67" stop-color="#8c8c8c"/><stop offset="0.74" stop-color="#787878"/><stop offset="0.81" stop-color="#696969"/><stop offset="0.9" stop-color="#606060"/><stop offset="1" stop-color="#5d5d5d"/></linearGradient><linearGradient id="Безымянный_градиент_101" x1="16.24" y1="19.08" x2="5.43" y2="19.08" gradientTransform="matrix(1, 0, 0, -1, 0, 34)" gradientUnits="userSpaceOnUse"><stop offset="0" stop-color="#c8c8c8"/><stop offset="0.51" stop-color="#c7c7c7"/><stop offset="0.51" stop-color="#c8c8c8"/><stop offset="0.58" stop-color="#a7a7a7"/><stop offset="0.65" stop-color="#8c8c8c"/><stop offset="0.72" stop-color="#787878"/><stop offset="0.8" stop-color="#696969"/><stop offset="0.89" stop-color="#606060"/><stop offset="1" stop-color="#5d5d5d"/></linearGradient><linearGradient id="Безымянный_градиент_100" x1="10.15" y1="17.49" x2="13.67" y2="17.5" gradientTransform="matrix(1, 0, 0, -1, 0, 34)" gradientUnits="userSpaceOnUse"><stop offset="0.1" stop-color="#c8c8c8"/><stop offset="0.13" stop-color="#cacaca"/><stop offset="0.15" stop-color="#cecece"/><stop offset="0.18" stop-color="#d6d6d6"/><stop offset="0.21" stop-color="#e0e0e0"/><stop offset="0.23" stop-color="#ededed"/><stop offset="0.26" stop-color="#e1e1e1"/><stop offset="0.29" stop-color="#d7d7d7"/><stop offset="0.32" stop-color="#cecece"/><stop offset="0.35" stop-color="#cacaca"/><stop offset="0.38" stop-color="#c8c8c8"/><stop offset="0.52" stop-color="#a9a9a9"/><stop offset="0.74" stop-color="#818181"/><stop offset="0.9" stop-color="#676767"/><stop offset="1" stop-color="#5d5d5d"/></linearGradient><linearGradient id="Безымянный_градиент_99-2" x1="439.42" y1="16.69" x2="934.95" y2="16.69" xlink:href="#Безымянный_градиент_99"/><linearGradient id="Безымянный_градиент_98" x1="14.22" y1="36.8" x2="22.39" y2="24.15" gradientTransform="matrix(1, 0, 0, -1, 0, 34)" gradientUnits="userSpaceOnUse"><stop offset="0.2" stop-color="#ededed"/><stop offset="0.23" stop-color="#ececec"/><stop offset="0.26" stop-color="#e8e8e8"/><stop offset="0.28" stop-color="#e1e1e1"/><stop offset="0.3" stop-color="#d8d8d8"/><stop offset="0.32" stop-color="#ccc"/><stop offset="0.33" stop-color="#c8c8c8"/><stop offset="0.51" stop-color="#c8c8c8"/><stop offset="0.61" stop-color="#acacac"/><stop offset="0.79" stop-color="#818181"/><stop offset="0.92" stop-color="#676767"/><stop offset="1" stop-color="#5d5d5d"/></linearGradient><linearGradient id="Безымянный_градиент_97" x1="14.84" y1="21.8" x2="25.58" y2="21.8" gradientTransform="matrix(1, 0, 0, -1, 0, 34)" gradientUnits="userSpaceOnUse"><stop offset="0.07" stop-color="#5d5d5d"/><stop offset="0.15" stop-color="#838383"/><stop offset="0.27" stop-color="#b4b4b4"/><stop offset="0.32" stop-color="#c8c8c8"/><stop offset="0.33" stop-color="#c9c9c9"/><stop offset="0.34" stop-color="#cdcdcd"/><stop offset="0.35" stop-color="#d4d4d4"/><stop offset="0.36" stop-color="#dedede"/><stop offset="0.37" stop-color="#eaeaea"/><stop offset="0.37" stop-color="#ededed"/><stop offset="0.39" stop-color="#dfdfdf"/><stop offset="0.4" stop-color="#d3d3d3"/><stop offset="0.42" stop-color="#c8c8c8"/><stop offset="0.42" stop-color="#cbcbcb"/><stop offset="0.55" stop-color="#a2a2a2"/><stop offset="0.7" stop-color="#7d7d7d"/><stop offset="0.82" stop-color="#666"/><stop offset="0.88" stop-color="#5d5d5d"/><stop offset="0.97" stop-color="#383838"/></linearGradient><linearGradient id="Безымянный_градиент_96" x1="2.66" y1="23.57" x2="25" y2="23.57" gradientTransform="matrix(1, 0, 0, -1, 0, 34)" gradientUnits="userSpaceOnUse"><stop offset="0" stop-color="#c8c8c8"/><stop offset="0.1" stop-color="#cecece"/><stop offset="0.32" stop-color="#d8d8d8"/><stop offset="0.47" stop-color="#e3e3e3"/><stop offset="0.59" stop-color="#ebebeb"/><stop offset="0.66" stop-color="#ededed"/><stop offset="0.8" stop-color="#e2e2e2"/><stop offset="0.87" stop-color="#ddd"/><stop offset="0.91" stop-color="#d8d8d8"/><stop offset="1" stop-color="#cecece"/></linearGradient><linearGradient id="Безымянный_градиент_95" x1="1.05" y1="11.81" x2="14.58" y2="11.81" gradientTransform="matrix(1, 0, 0, -1, 0, 34)" gradientUnits="userSpaceOnUse"><stop offset="0" stop-color="#5d5d5d"/><stop offset="0.36" stop-color="#848484"/><stop offset="0.55" stop-color="#949494"/><stop offset="0.65" stop-color="#8d8d8d"/><stop offset="0.8" stop-color="#7c7c7c"/><stop offset="0.99" stop-color="#5f5f5f"/><stop offset="1" stop-color="#5d5d5d"/></linearGradient><linearGradient id="Безымянный_градиент_94" x1="1.56" y1="12.59" x2="14.17" y2="12.59" gradientTransform="matrix(1, 0, 0, -1, 0, 34)" gradientUnits="userSpaceOnUse"><stop offset="0" stop-color="#c8c8c8"/><stop offset="0.04" stop-color="#cbcbcb"/><stop offset="0.1" stop-color="#d2d2d2"/><stop offset="0.17" stop-color="#ddd"/><stop offset="0.25" stop-color="#ededed"/><stop offset="0.29" stop-color="#e5e5e5"/><stop offset="0.36" stop-color="#dadada"/><stop offset="0.43" stop-color="#d2d2d2"/><stop offset="0.51" stop-color="#cdcdcd"/><stop offset="0.59" stop-color="#c9c9c9"/><stop offset="0.72" stop-color="#c8c8c8"/><stop offset="0.73" stop-color="#c4c4c4"/><stop offset="0.91" stop-color="#9e9e9e"/><stop offset="1" stop-color="#8e8e8e"/></linearGradient><radialGradient id="Безымянный_градиент_93" cx="-333.64" cy="285.84" r="1" gradientTransform="matrix(7.76, 0, 0, -7.78, 2585.38, 2247.73)" gradientUnits="userSpaceOnUse"><stop offset="0" stop-color="#c8c8c8"/><stop offset="0.11" stop-color="#c9c9c9"/><stop offset="0.2" stop-color="#cdcdcd"/><stop offset="0.28" stop-color="#d3d3d3"/><stop offset="0.35" stop-color="#dbdbdb"/><stop offset="0.42" stop-color="#e6e6e6"/><stop offset="0.43" stop-color="#e7e7e7"/><stop offset="0.43" stop-color="#e4e4e4"/><stop offset="0.49" stop-color="#d8d8d8"/><stop offset="0.53" stop-color="#d1d1d1"/><stop offset="0.56" stop-color="#cecece"/><stop offset="0.62" stop-color="#b9b9b9"/><stop offset="0.71" stop-color="#9a9a9a"/><stop offset="0.77" stop-color="#8e8e8e"/></radialGradient><radialGradient id="Безымянный_градиент_92" cx="-335.32" cy="287.1" r="1" gradientTransform="matrix(8.03, 0, 0, -8.05, 2711.99, 2335.08)" gradientUnits="userSpaceOnUse"><stop offset="0" stop-color="#c8c8c8"/><stop offset="0.07" stop-color="#c9c9c9"/><stop offset="0.13" stop-color="#cdcdcd"/><stop offset="0.18" stop-color="#d3d3d3"/><stop offset="0.22" stop-color="#dcdcdc"/><stop offset="0.27" stop-color="#e6e6e6"/><stop offset="0.29" stop-color="#ededed"/><stop offset="0.32" stop-color="#e4e4e4"/><stop offset="0.36" stop-color="#d8d8d8"/><stop offset="0.4" stop-color="#d1d1d1"/><stop offset="0.42" stop-color="#cecece"/><stop offset="0.56" stop-color="#b9b9b9"/><stop offset="0.78" stop-color="#9a9a9a"/><stop offset="0.9" stop-color="#8e8e8e"/></radialGradient><linearGradient id="Безымянный_градиент_91" x1="12.54" y1="6.39" x2="3.62" y2="6.39" gradientTransform="matrix(1, 0, 0, -1, 0, 34)" gradientUnits="userSpaceOnUse"><stop offset="0" stop-color="#686868"/><stop offset="0.02" stop-color="#787878"/><stop offset="0.04" stop-color="#858585"/><stop offset="0.07" stop-color="#8c8c8c"/><stop offset="0.1" stop-color="#8e8e8e"/><stop offset="0.16" stop-color="#acacac"/><stop offset="0.22" stop-color="#c8c8c8"/><stop offset="0.34" stop-color="#f0f0f0"/><stop offset="0.37" stop-color="#eaeaea"/><stop offset="0.46" stop-color="#dbdbdb"/><stop offset="0.55" stop-color="#d1d1d1"/><stop offset="0.62" stop-color="#cacaca"/><stop offset="0.67" stop-color="#c8c8c8"/><stop offset="0.7" stop-color="#bcbcbc"/><stop offset="0.8" stop-color="#9b9b9b"/><stop offset="0.86" stop-color="#8e8e8e"/><stop offset="0.92" stop-color="#7a7a7a"/><stop offset="1" stop-color="#606060"/></linearGradient><linearGradient id="Безымянный_градиент_90" x1="12.1" y1="5.38" x2="3.45" y2="5.38" gradientTransform="matrix(1, 0, 0, -1, 0, 34)" gradientUnits="userSpaceOnUse"><stop offset="0" stop-color="#686868"/><stop offset="0.02" stop-color="#787878"/><stop offset="0.05" stop-color="#858585"/><stop offset="0.08" stop-color="#8c8c8c"/><stop offset="0.12" stop-color="#8e8e8e"/><stop offset="0.19" stop-color="#acacac"/><stop offset="0.26" stop-color="#c8c8c8"/><stop offset="0.38" stop-color="#f0f0f0"/><stop offset="0.41" stop-color="#eaeaea"/><stop offset="0.49" stop-color="#dbdbdb"/><stop offset="0.56" stop-color="#d1d1d1"/><stop offset="0.62" stop-color="#cacaca"/><stop offset="0.67" stop-color="#c8c8c8"/><stop offset="0.7" stop-color="#bcbcbc"/><stop offset="0.82" stop-color="#9b9b9b"/><stop offset="0.88" stop-color="#8e8e8e"/></linearGradient><linearGradient id="Безымянный_градиент_84" x1="7.08" y1="3.71" x2="8.16" y2="3.71" gradientTransform="matrix(1, 0, 0, -1, 0, 34)" gradientUnits="userSpaceOnUse"><stop offset="0.12" stop-color="#c8c8c8"/><stop offset="0.19" stop-color="#bcbcbc"/><stop offset="0.43" stop-color="#9b9b9b"/><stop offset="0.55" stop-color="#8e8e8e"/><stop offset="0.76" stop-color="#6d6d6d"/><stop offset="0.94" stop-color="#525252"/></linearGradient><linearGradient id="Безымянный_градиент_84-2" x1="122.75" y1="3.71" x2="117" y2="3.71" xlink:href="#Безымянный_градиент_84"/><linearGradient id="Безымянный_градиент_84-3" x1="123.66" y1="3.7" x2="132.65" y2="3.7" xlink:href="#Безымянный_градиент_84"/><linearGradient id="Безымянный_градиент_82" x1="10.07" y1="3.69" x2="9.19" y2="3.69" gradientTransform="matrix(1, 0, 0, -1, 0, 34)" gradientUnits="userSpaceOnUse"><stop offset="0.12" stop-color="#c8c8c8"/><stop offset="0.18" stop-color="#bcbcbc"/><stop offset="0.37" stop-color="#9b9b9b"/><stop offset="0.47" stop-color="#8e8e8e"/><stop offset="0.54" stop-color="#787878"/><stop offset="0.61" stop-color="#676767"/><stop offset="0.7" stop-color="#5c5c5c"/><stop offset="0.8" stop-color="#545454"/><stop offset="0.94" stop-color="#525252"/></linearGradient><linearGradient id="Безымянный_градиент_84-4" x1="103.13" y1="3.66" x2="110.86" y2="3.66" xlink:href="#Безымянный_градиент_84"/><linearGradient id="Безымянный_градиент_84-5" x1="88.69" y1="3.6" x2="96.54" y2="3.6" xlink:href="#Безымянный_градиент_84"/><linearGradient id="Безымянный_градиент_82-2" x1="79.41" y1="3.58" x2="76.76" y2="3.58" xlink:href="#Безымянный_градиент_82"/><linearGradient id="Безымянный_градиент_82-3" x1="151.23" y1="3.19" x2="145.23" y2="3.21" xlink:href="#Безымянный_градиент_82"/><linearGradient id="Безымянный_градиент_81" x1="7.45" y1="3.71" x2="11.24" y2="3.71" gradientTransform="matrix(1, 0, 0, -1, 0, 34)" gradientUnits="userSpaceOnUse"><stop offset="0" stop-color="#c8c8c8"/><stop offset="0.05" stop-color="#cacaca"/><stop offset="0.11" stop-color="#cfcfcf"/><stop offset="0.18" stop-color="#d7d7d7"/><stop offset="0.25" stop-color="#e3e3e3"/><stop offset="0.29" stop-color="#ededed"/><stop offset="0.31" stop-color="#e8e8e8"/><stop offset="0.34" stop-color="#dedede"/><stop offset="0.37" stop-color="#d6d6d6"/><stop offset="0.41" stop-color="#d0d0d0"/><stop offset="0.46" stop-color="#cbcbcb"/><stop offset="0.53" stop-color="#c9c9c9"/><stop offset="0.72" stop-color="#c8c8c8"/><stop offset="0.73" stop-color="#c4c4c4"/><stop offset="0.91" stop-color="#9e9e9e"/><stop offset="1" stop-color="#8e8e8e"/></linearGradient><linearGradient id="Безымянный_градиент_80" x1="8.57" y1="3.7" x2="12.72" y2="3.7" gradientTransform="matrix(1, 0, 0, -1, 0, 34)" gradientUnits="userSpaceOnUse"><stop offset="0" stop-color="#c8c8c8"/><stop offset="0.11" stop-color="#c9c9c9"/><stop offset="0.15" stop-color="#cbcbcb"/><stop offset="0.18" stop-color="#d0d0d0"/><stop offset="0.2" stop-color="#d6d6d6"/><stop offset="0.22" stop-color="#dedede"/><stop offset="0.24" stop-color="#e8e8e8"/><stop offset="0.25" stop-color="#ededed"/><stop offset="0.27" stop-color="#e8e8e8"/><stop offset="0.3" stop-color="#dedede"/><stop offset="0.34" stop-color="#d6d6d6"/><stop offset="0.38" stop-color="#d0d0d0"/><stop offset="0.43" stop-color="#cbcbcb"/><stop offset="0.51" stop-color="#c9c9c9"/><stop offset="0.72" stop-color="#c8c8c8"/><stop offset="0.73" stop-color="#c4c4c4"/><stop offset="0.91" stop-color="#9e9e9e"/><stop offset="1" stop-color="#8e8e8e"/></linearGradient><linearGradient id="Безымянный_градиент_74" x1="9.93" y1="3.67" x2="10.57" y2="3.67" gradientTransform="matrix(1, 0, 0, -1, 0, 34)" gradientUnits="userSpaceOnUse"><stop offset="0" stop-color="#c8c8c8"/><stop offset="0.25" stop-color="#c9c9c9"/><stop offset="0.39" stop-color="#ccc"/><stop offset="0.5" stop-color="#d1d1d1"/><stop offset="0.59" stop-color="#d8d8d8"/><stop offset="0.68" stop-color="#e1e1e1"/><stop offset="0.75" stop-color="#ececec"/><stop offset="0.76" stop-color="#ededed"/></linearGradient><linearGradient id="Безымянный_градиент_74-2" x1="120.37" y1="3.69" x2="129.14" y2="3.69" xlink:href="#Безымянный_градиент_74"/><linearGradient id="Безымянный_градиент_74-3" x1="33.71" y1="3.64" x2="39.11" y2="3.64" xlink:href="#Безымянный_градиент_74"/><linearGradient id="Безымянный_градиент_74-4" x1="77.56" y1="3.63" x2="82.39" y2="3.63" xlink:href="#Безымянный_градиент_74"/><linearGradient id="Безымянный_градиент_74-5" x1="141.1" y1="3.71" x2="152.36" y2="3.71" xlink:href="#Безымянный_градиент_74"/><linearGradient id="Безымянный_градиент_74-6" x1="69.92" y1="3.54" x2="74.18" y2="3.54" xlink:href="#Безымянный_градиент_74"/><linearGradient id="Безымянный_градиент_73" x1="3.49" y1="5.76" x2="12.14" y2="5.76" gradientTransform="matrix(1, 0, 0, -1, 0, 34)" gradientUnits="userSpaceOnUse"><stop offset="0" stop-color="#686868"/><stop offset="0.03" stop-color="#787878"/><stop offset="0.06" stop-color="#858585"/><stop offset="0.1" stop-color="#8c8c8c"/><stop offset="0.16" stop-color="#8e8e8e"/><stop offset="0.22" stop-color="#acacac"/><stop offset="0.3" stop-color="#c8c8c8"/><stop offset="0.36" stop-color="#c9c9c9"/><stop offset="0.42" stop-color="#cdcdcd"/><stop offset="0.48" stop-color="#d4d4d4"/><stop offset="0.54" stop-color="#ddd"/><stop offset="0.6" stop-color="#e9e9e9"/><stop offset="0.63" stop-color="#f0f0f0"/><stop offset="0.64" stop-color="#eaeaea"/><stop offset="0.68" stop-color="#dbdbdb"/><stop offset="0.71" stop-color="#d1d1d1"/><stop offset="0.74" stop-color="#cacaca"/><stop offset="0.76" stop-color="#c8c8c8"/><stop offset="0.84" stop-color="#8d8d8d"/><stop offset="0.9" stop-color="#686868"/><stop offset="0.93" stop-color="#5b5b5b"/></linearGradient><radialGradient id="Безымянный_градиент_65" cx="-303.33" cy="259.9" r="1" gradientTransform="matrix(4.81, 0, 0, -4.58, 1463.62, 1215.51)" gradientUnits="userSpaceOnUse"><stop offset="0" stop-color="#8e8e8e"/><stop offset="0.27" stop-color="#cecece"/><stop offset="0.27" stop-color="#cfcfcf"/><stop offset="0.32" stop-color="#d8d8d8"/><stop offset="0.37" stop-color="#e1e1e1"/><stop offset="0.43" stop-color="#e9e9e9"/><stop offset="0.47" stop-color="#e3e3e3"/><stop offset="0.51" stop-color="#dfdfdf"/><stop offset="0.54" stop-color="#ddd"/><stop offset="0.65" stop-color="#d4d4d4"/><stop offset="0.85" stop-color="#c8c8c8"/></radialGradient><radialGradient id="Безымянный_градиент_65-2" cx="-381.32" cy="321.89" gradientTransform="matrix(228.15, 0, 0, -259.94, 87505.46, 84984.27)" xlink:href="#Безымянный_градиент_65"/><radialGradient id="Безымянный_градиент_64" cx="-330.61" cy="281.5" r="1" gradientTransform="matrix(7.31, 0, 0, -6.96, 2423.82, 1985.12)" gradientUnits="userSpaceOnUse"><stop offset="0" stop-color="#8e8e8e"/><stop offset="0.08" stop-color="#a8a8a8"/><stop offset="0.22" stop-color="#cecece"/><stop offset="0.32" stop-color="#d6d6d6"/><stop offset="0.38" stop-color="#e3e3e3"/><stop offset="0.43" stop-color="#e9e9e9"/><stop offset="0.46" stop-color="#e3e3e3"/><stop offset="0.49" stop-color="#dfdfdf"/><stop offset="0.51" stop-color="#ddd"/><stop offset="0.63" stop-color="#d4d4d4"/><stop offset="0.85" stop-color="#c8c8c8"/></radialGradient><radialGradient id="Безымянный_градиент_62" cx="-334.69" cy="284.74" r="1" gradientTransform="matrix(7.93, 0, 0, -7.55, 2661.48, 2174.63)" gradientUnits="userSpaceOnUse"><stop offset="0" stop-color="#8e8e8e"/><stop offset="0.28" stop-color="#cecece"/><stop offset="0.29" stop-color="#cfcfcf"/><stop offset="0.39" stop-color="#d8d8d8"/><stop offset="0.42" stop-color="#e1e1e1"/><stop offset="0.47" stop-color="#e9e9e9"/><stop offset="0.49" stop-color="#e3e3e3"/><stop offset="0.52" stop-color="#dfdfdf"/><stop offset="0.54" stop-color="#ddd"/><stop offset="0.65" stop-color="#d4d4d4"/><stop offset="0.85" stop-color="#c8c8c8"/></radialGradient><radialGradient id="Безымянный_градиент_62-2" cx="-379.79" cy="321.89" gradientTransform="matrix(119.16, 0, 0, -261.09, 45591.12, 85527.26)" xlink:href="#Безымянный_градиент_62"/><radialGradient id="Безымянный_градиент_67" cx="-317.93" cy="271.46" r="1" gradientTransform="matrix(5.89, 0, 0, -5.61, 1879.76, 1546.57)" gradientUnits="userSpaceOnUse"><stop offset="0" stop-color="#8e8e8e"/><stop offset="0.02" stop-color="#949494"/><stop offset="0.13" stop-color="#b4b4b4"/><stop offset="0.22" stop-color="#c7c7c7"/><stop offset="0.28" stop-color="#cecece"/><stop offset="0.29" stop-color="#cfcfcf"/><stop offset="0.39" stop-color="#d8d8d8"/><stop offset="0.42" stop-color="#e1e1e1"/><stop offset="0.47" stop-color="#e9e9e9"/><stop offset="0.49" stop-color="#e3e3e3"/><stop offset="0.52" stop-color="#dfdfdf"/><stop offset="0.54" stop-color="#ddd"/><stop offset="0.65" stop-color="#d4d4d4"/><stop offset="0.85" stop-color="#c8c8c8"/></radialGradient><radialGradient id="Безымянный_градиент_65-3" cx="-386.28" cy="325.44" gradientTransform="matrix(-116.87, 0, 0, 118.25, -46128.45, -37554.95)" xlink:href="#Безымянный_градиент_65"/><radialGradient id="Безымянный_градиент_65-4" cx="-384.66" cy="324.16" gradientTransform="matrix(-230.43, 0, 0, 249.54, -89965.38, -79631.74)" xlink:href="#Безымянный_градиент_65"/><radialGradient id="Безымянный_градиент_64-2" cx="-384.59" cy="324.06" gradientTransform="matrix(-241.13, 0, 0, 273.36, -94135.7, -87208.63)" xlink:href="#Безымянный_градиент_64"/><radialGradient id="Безымянный_градиент_62-3" cx="-384.75" cy="323.96" gradientTransform="matrix(-219.26, 0, 0, 301.51, -85554.95, -96303.05)" xlink:href="#Безымянный_градиент_62"/><radialGradient id="Безымянный_градиент_62-4" cx="-386.18" cy="324.15" gradientTransform="matrix(-120.36, 0, 0, 250.64, -47282.43, -79819.87)" xlink:href="#Безымянный_градиент_62"/><radialGradient id="Безымянный_градиент_61" cx="-448.07" cy="374.54" r="1" gradientTransform="matrix(-5.89, 0, 0, 5.61, -2630.01, -2075.67)" gradientUnits="userSpaceOnUse"><stop offset="0" stop-color="#8e8e8e"/><stop offset="0.02" stop-color="#979797"/><stop offset="0.09" stop-color="#afafaf"/><stop offset="0.15" stop-color="#c1c1c1"/><stop offset="0.22" stop-color="#cbcbcb"/><stop offset="0.28" stop-color="#cecece"/><stop offset="0.29" stop-color="#cfcfcf"/><stop offset="0.39" stop-color="#d8d8d8"/><stop offset="0.42" stop-color="#e1e1e1"/><stop offset="0.47" stop-color="#e9e9e9"/><stop offset="0.49" stop-color="#e3e3e3"/><stop offset="0.52" stop-color="#dfdfdf"/><stop offset="0.54" stop-color="#ddd"/><stop offset="0.65" stop-color="#d4d4d4"/><stop offset="0.85" stop-color="#c8c8c8"/></radialGradient><linearGradient id="Безымянный_градиент_60" x1="7.86" y1="7.38" x2="7.86" y2="6.83" gradientTransform="matrix(1, 0, 0, -1, 0, 34)" gradientUnits="userSpaceOnUse"><stop offset="0" stop-color="#c8c8c8"/><stop offset="0.19" stop-color="#c5c5c5"/><stop offset="0.34" stop-color="#bdbdbd"/><stop offset="0.48" stop-color="#b0b0b0"/><stop offset="0.6" stop-color="#9c9c9c"/><stop offset="0.67" stop-color="#909090"/><stop offset="0.69" stop-color="#8a8a8a"/><stop offset="0.83" stop-color="#6a6a6a"/><stop offset="0.9" stop-color="#5d5d5d"/></linearGradient><radialGradient id="Безымянный_градиент_59" cx="-354.94" cy="302.09" r="1" gradientTransform="matrix(13.65, 0, 0, -13.82, 4859.31, 4195.75)" gradientUnits="userSpaceOnUse"><stop offset="0" stop-color="#c8c8c8"/><stop offset="0.07" stop-color="#c9c9c9"/><stop offset="0.13" stop-color="#cdcdcd"/><stop offset="0.18" stop-color="#d3d3d3"/><stop offset="0.22" stop-color="#dcdcdc"/><stop offset="0.27" stop-color="#e6e6e6"/><stop offset="0.29" stop-color="#ededed"/><stop offset="0.33" stop-color="#e4e4e4"/><stop offset="0.39" stop-color="#d8d8d8"/><stop offset="0.44" stop-color="#d1d1d1"/><stop offset="0.48" stop-color="#cecece"/><stop offset="0.59" stop-color="#b9b9b9"/><stop offset="0.77" stop-color="#9a9a9a"/><stop offset="0.87" stop-color="#8e8e8e"/><stop offset="0.91" stop-color="#a5a5a5"/><stop offset="0.99" stop-color="#c8c8c8"/></radialGradient><radialGradient id="Безымянный_градиент_58" cx="-455.81" cy="267.75" r="1" gradientTransform="matrix(-1.35, -5.02, -5.16, 1.38, 771.44, -2630.65)" gradientUnits="userSpaceOnUse"><stop offset="0" stop-color="#c8c8c8"/><stop offset="0.08" stop-color="#c9c9c9"/><stop offset="0.14" stop-color="#cdcdcd"/><stop offset="0.2" stop-color="#d3d3d3"/><stop offset="0.25" stop-color="#dcdcdc"/><stop offset="0.3" stop-color="#e6e6e6"/><stop offset="0.33" stop-color="#ededed"/><stop offset="0.42" stop-color="#dcdcdc"/><stop offset="0.49" stop-color="#cecece"/><stop offset="0.56" stop-color="#b4b4b4"/><stop offset="0.64" stop-color="#9f9f9f"/><stop offset="0.71" stop-color="#939393"/><stop offset="0.77" stop-color="#8e8e8e"/><stop offset="0.89" stop-color="#5e5e5e"/></radialGradient><radialGradient id="Безымянный_градиент_57" cx="-249.73" cy="222.66" r="1" gradientTransform="matrix(2.87, 0, 0, -2.88, 720.57, 668)" gradientUnits="userSpaceOnUse"><stop offset="0" stop-color="#c8c8c8"/><stop offset="0.07" stop-color="#c9c9c9"/><stop offset="0.14" stop-color="#cdcdcd"/><stop offset="0.2" stop-color="#d4d4d4"/><stop offset="0.26" stop-color="#ddd"/><stop offset="0.31" stop-color="#e9e9e9"/><stop offset="0.33" stop-color="#ededed"/><stop offset="0.42" stop-color="#dcdcdc"/><stop offset="0.49" stop-color="#cecece"/><stop offset="0.53" stop-color="#bbb"/><stop offset="0.58" stop-color="#a3a3a3"/><stop offset="0.63" stop-color="#949494"/><stop offset="0.66" stop-color="#8e8e8e"/><stop offset="0.89" stop-color="#5e5e5e"/></radialGradient><radialGradient id="Безымянный_градиент_56" cx="-283.06" cy="247.76" r="1" gradientTransform="matrix(3.83, 0, 0, -3.84, 1097.79, 978.14)" gradientUnits="userSpaceOnUse"><stop offset="0" stop-color="#c8c8c8"/><stop offset="0.03" stop-color="#c9c9c9"/><stop offset="0.06" stop-color="#cdcdcd"/><stop offset="0.09" stop-color="#d3d3d3"/><stop offset="0.11" stop-color="#dcdcdc"/><stop offset="0.13" stop-color="#e6e6e6"/><stop offset="0.14" stop-color="#ededed"/><stop offset="0.33" stop-color="#dcdcdc"/><stop offset="0.49" stop-color="#cecece"/><stop offset="0.54" stop-color="#b4b4b4"/><stop offset="0.58" stop-color="#9f9f9f"/><stop offset="0.63" stop-color="#939393"/><stop offset="0.66" stop-color="#8e8e8e"/><stop offset="0.89" stop-color="#5e5e5e"/></radialGradient><radialGradient id="Безымянный_градиент_55" cx="-182.43" cy="172" r="1" gradientTransform="matrix(1.91, 0, 0, -1.91, 361.52, 355.02)" gradientUnits="userSpaceOnUse"><stop offset="0.02" stop-color="#ededed"/><stop offset="0.19" stop-color="#dcdcdc"/><stop offset="0.34" stop-color="#cecece"/><stop offset="0.4" stop-color="#b4b4b4"/><stop offset="0.46" stop-color="#9f9f9f"/><stop offset="0.51" stop-color="#939393"/><stop offset="0.56" stop-color="#8e8e8e"/><stop offset="0.73" stop-color="#5e5e5e"/></radialGradient><radialGradient id="Безымянный_градиент_53" cx="-253.82" cy="225.75" r="1" gradientTransform="matrix(2.96, 0, 0, -2.97, 757.46, 696.32)" gradientUnits="userSpaceOnUse"><stop offset="0" stop-color="#c8c8c8"/><stop offset="0.07" stop-color="#c9c9c9"/><stop offset="0.13" stop-color="#cdcdcd"/><stop offset="0.18" stop-color="#d3d3d3"/><stop offset="0.22" stop-color="#dcdcdc"/><stop offset="0.27" stop-color="#e6e6e6"/><stop offset="0.29" stop-color="#ededed"/><stop offset="0.33" stop-color="#e4e4e4"/><stop offset="0.39" stop-color="#d8d8d8"/><stop offset="0.44" stop-color="#d1d1d1"/><stop offset="0.48" stop-color="#cecece"/><stop offset="0.6" stop-color="#b9b9b9"/><stop offset="0.8" stop-color="#9a9a9a"/><stop offset="0.9" stop-color="#8e8e8e"/></radialGradient><radialGradient id="Безымянный_градиент_53-2" cx="-377.76" cy="319.05" r="1" gradientTransform="matrix(73.08, 0, 0, -73.24, 27821.6, 23835.33)" xlink:href="#Безымянный_градиент_53"/></defs><title>рунет</title><g id="Слой_2" data-name="Слой 2"><g id="Слой_1-2" data-name="Слой 1"><path class="cls-1" d="M13.59,12.33a3.08,3.08,0,0,0,.54-2.41,4.54,4.54,0,0,1-.78,2.19Z"/><path class="cls-2" d="M2.65,10.24,7.78,21.59l3.33-1.65v-.8L7.87,20.86,2.65,9.23Z"/><path class="cls-3" d="M7.39,10.77,9.13,10a.89.89,0,0,1,1.12.34c.38.67.28.56.28.56s.18-.22.05-.8a1.27,1.27,0,0,0-.53-.8,1.11,1.11,0,0,0-.74-.08c-.34.12-1,.44-1,.44l-1.18.54Z"/><path class="cls-4" d="M10.38,14.31v.82l-.9.4-.29-.64Z"/><path class="cls-5" d="M10.38,14.31v.82l3.52,3.56v-.92Z"/><path class="cls-6" d="M13.9,18.69v-.92l3.62-1.84v.9Z"/><path class="cls-7" d="M12.15,4.58v1.1l.29.65a5.42,5.42,0,0,1,.84.73Z"/><path class="cls-8" d="M18.44,1.43V2.58L21,8.39a5.05,5.05,0,0,1,.61,2.53,1.17,1.17,0,0,0,.33-.87,7.43,7.43,0,0,0-.54-2.17C21,7.05,19.3,3.31,19.3,3.31Z"/><path class="cls-9" d="M14.11,10.18,14.88,12A7.33,7.33,0,0,0,16,13.71a8.88,8.88,0,0,0,1,1,5.57,5.57,0,0,0,1,.55,4.52,4.52,0,0,0,1.26.22A5.5,5.5,0,0,0,21.49,15a5.73,5.73,0,0,0,2-1.33,6.62,6.62,0,0,0,.48-.59,6,6,0,0,0,.92-2.36,4.46,4.46,0,0,1-1,1.84,7.51,7.51,0,0,1-2.37,1.64,8.3,8.3,0,0,1-2.15.46c-1.05,0-1.29-.16-1.29-.16a4.44,4.44,0,0,1-1.48-1.08,7.71,7.71,0,0,1-1.29-1.8L14.1,8.92A7,7,0,0,1,14.11,10.18Z"/><path class="cls-10" d="M24.81,7.88a23.87,23.87,0,0,0-1.73-4.07L21.34,0l-2.9,1.43,2.67,5.84s1.18,2.48.67,3.37a2.44,2.44,0,0,1-1.59,1.07,1.93,1.93,0,0,1-.94-.3,2,2,0,0,1-.68-.71c-.59-1-3.52-7.56-3.52-7.56l-2.9,1.44,1.13,2.48A4.25,4.25,0,0,0,12,6.11a5.94,5.94,0,0,0-1.43-.25s-.61-.15-2.47.71S2.66,9.23,2.66,9.23L7.87,20.86l3.24-1.71L9.19,14.9l1.19-.59,3.51,3.46,3.63-1.84-4.17-3.82a4.17,4.17,0,0,0,.75-3.19l1.29,2.85s1.66,3,3.69,2.88a5.52,5.52,0,0,0,2.7-.62A11.22,11.22,0,0,0,23.48,13a4.85,4.85,0,0,0,1.33-2.08A6.06,6.06,0,0,0,24.81,7.88Zm-14.28,3a1.92,1.92,0,0,1-.58.52c-.36.22-1.77.92-1.77.92L7.11,10.21l1.8-.83s.95-.55,1.44.22A1.3,1.3,0,0,1,10.53,10.91Z"/><path class="cls-11" d="M14.21,21.78a56.51,56.51,0,0,1-6.06.29c-3.77,0-6.71-.28-7.1-.29l.66.87H14.05l.53-.91Z"/><path class="cls-12" d="M14.52,21.76l0-.05,0,.05h.06l-.2-1-.36,0,.13,1.05Z"/><path class="cls-13" d="M14,20.75c-1.06.08-4.19.3-6,.3s-5.18-.22-6.33-.3l0,.11-.15,1,.15-1-.16,1c1,.07,3.53.24,6.58.24s5.15-.18,6-.26Z"/><path class="cls-14" d="M1.75,20.75l-.39,0a6.75,6.75,0,0,0-.3,1.08h0l0,0,0,0,.47,0,.16-1Z"/><path class="cls-15" d="M1.72,22.58A2.45,2.45,0,0,0,0,25.44a2.41,2.41,0,0,0,2.75,2s.92.39,1.25,0a1.15,1.15,0,0,0,.19-1l-.46-.25a1.75,1.75,0,0,1-2.38.06c-1.37-1-.67-3.35.88-3.71Z"/><path class="cls-16" d="M14.06,22.58A2.5,2.5,0,0,1,13,27.43s-.91.39-1.25,0a1.17,1.17,0,0,1-.18-1l.46-.25a1.74,1.74,0,0,0,2.38.06,2.18,2.18,0,0,0-.89-3.71Z"/><path class="cls-17" d="M13,23.64H2.59v2.72H13Z"/><path class="cls-18" d="M12.93,27.07H2.7v1.09H12.93Z"/><path class="cls-19" d="M12.14,28.19H3.49V29h8.65Z"/><path class="cls-20" d="M7.31,28.59V32H7.8V28.58Z"/><path class="cls-21" d="M8.48,28.59V32h.43V28.6Z"/><path class="cls-22" d="M6.17,28.63V32h.54V28.6Z"/><path class="cls-23" d="M9.45,28.62V32h.48V28.65Z"/><path class="cls-24" d="M5.15,28.73V32h.48V28.67Z"/><path class="cls-25" d="M4.26,28.93V32h.46V28.8A3.47,3.47,0,0,0,4.26,28.93Z"/><path class="cls-26" d="M11.22,28.84V32h.23V28.91Z"/><path class="cls-27" d="M10.32,28.69V32h.47V28.75Z"/><path class="cls-28" d="M7.92,28.58H7.8V32h.68V28.58Z"/><path class="cls-29" d="M8.91,28.6V32h.54V28.6Z"/><path class="cls-30" d="M9.93,28.65V32h.39V28.65Z"/><path class="cls-31" d="M5.64,28.67V32h.53V28.63Z"/><path class="cls-32" d="M4.72,28.73V32h.43V28.73Z"/><path class="cls-33" d="M10.79,28.75V32h.43V28.75Z"/><path class="cls-34" d="M6.71,28.6V32h.6V28.59Z"/><path class="cls-35" d="M3.91,28.9V32h.35V28.9Z"/><path class="cls-36" d="M11.44,28.92h0V32h.36V28.92Z"/><path class="cls-37" d="M12.14,28.16H3.49v.16h8.65Z"/><path class="cls-38" d="M5.28,27.07H4.22l-.63-.81a1.19,1.19,0,0,0,.42-1Z"/><path class="cls-39" d="M5.26,27.07,4.08,25.64a1.56,1.56,0,0,0,0-.57A2.22,2.22,0,0,0,4,24.7a.71.71,0,0,1,.78,0,16.82,16.82,0,0,1,1.41,2.37Z"/><path class="cls-40" d="M6,27l-1.29-1.9s-.34-.66.34-.81,1,.6,1,.6L6.9,27Z"/><path class="cls-41" d="M6.67,26.92l-1.2-2a.47.47,0,0,1,.23-.74c.57-.22,1,.44,1,.44l.63,2.29Z"/><path class="cls-42" d="M7,24.08s-.81-.29-.74.58a9.15,9.15,0,0,0,.58,1.28l.49.94h.23s0-2.23,0-2.23A7.46,7.46,0,0,0,7,24.08Z"/><path class="cls-43" d="M7.91,24.24V27H7.42l-.53-2.21s-.32-.8.51-.86C7.4,23.91,7.91,23.9,7.91,24.24Z"/><path class="cls-44" d="M10.52,27.07h1.06l.63-.81a1.16,1.16,0,0,1-.42-1Z"/><path class="cls-45" d="M10.49,27.07l1.18-1.43a1.56,1.56,0,0,1,0-.57,2.22,2.22,0,0,1,.09-.37.71.71,0,0,0-.78,0,16.82,16.82,0,0,0-1.41,2.37Z"/><path class="cls-46" d="M9.8,27l1.29-1.9s.34-.66-.34-.81-.95.6-.95.6L8.88,27Z"/><path class="cls-47" d="M9.08,26.92l1.2-2a.47.47,0,0,0-.23-.74c-.57-.22-1,.44-1,.44l-.62,2.29Z"/><path class="cls-48" d="M8.79,24.08s.8-.29.73.58A8,8,0,0,1,9,25.94l-.49.94H8.23s0-2.23,0-2.23A6,6,0,0,1,8.79,24.08Z"/><path class="cls-49" d="M7.84,24.24V27h.49l.53-2.21s.32-.8-.51-.86C8.35,23.91,7.84,23.9,7.84,24.24Z"/><path class="cls-50" d="M10.71,26.87H5v.2h5.7Z"/><path class="cls-51" d="M2.13,22.58H13.64a2.19,2.19,0,0,1,1.47,2,2,2,0,0,1-1.47,2.07,1.7,1.7,0,0,1-1.8-.63,1.47,1.47,0,0,1,.48-2.18H3.49a1.57,1.57,0,0,1,.59,1.86,1.62,1.62,0,0,1-2.06,1A2,2,0,0,1,.68,24.46,2,2,0,0,1,2.13,22.58Z"/><path class="cls-52" d="M2.67,26a1,1,0,1,0-1-1A1,1,0,0,0,2.67,26Z"/><path class="cls-53" d="M2.64,25.71a.42.42,0,1,0-.42-.42A.42.42,0,0,0,2.64,25.71Z"/><path class="cls-54" d="M13.16,26a1,1,0,1,0-1-1A1,1,0,0,0,13.16,26Z"/><path class="cls-55" d="M13.13,25.71a.42.42,0,1,0-.42-.42A.42.42,0,0,0,13.13,25.71Z"/><path class="cls-56" d="M5,26.46H3.78v1.22H5Z"/><path class="cls-57" d="M11.94,26.46H10.71v1.22h1.23Z"/><path class="cls-58" d="M5.15,26.46H5v1.22h.14Z"/><path class="cls-58" d="M12.08,26.46h-.14v1.22h.14Z"/></g></g></svg>