<?xml version="1.0" encoding="utf-8"?>
<!-- Generator: Adobe Illustrator 21.1.0, SVG Export Plug-In . SVG Version: 6.00 Build 0)  -->
<svg version="1.1" id="Слой_1" xmlns="http://www.w3.org/2000/svg" xmlns:xlink="http://www.w3.org/1999/xlink" x="0px" y="0px"
	 viewBox="0 0 20 20" style="enable-background:new 0 0 20 20;" xml:space="preserve">
<style type="text/css">
	.st0{fill:#C0BFBF;}
</style>
<g>
	<g>
		<path class="st0" d="M0.8,20h18.4c0.2,0,0.5-0.1,0.6-0.3c0.1-0.2,0.2-0.4,0.2-0.6c-0.4-3.6-2.5-6.5-5.3-8.1
			c-1.2,1.3-2.8,2.1-4.7,2.1S6.5,12.3,5.3,11c-2.8,1.6-4.9,4.6-5.3,8.1c0,0.2,0,0.4,0.2,0.6C0.3,19.9,0.6,20,0.8,20z"/>
		<path class="st0" d="M5.9,10.2c0.1,0.1,0.2,0.2,0.3,0.3c1,1,2.3,1.6,3.8,1.6s2.8-0.6,3.8-1.6c0.1-0.1,0.2-0.2,0.3-0.3
			c0.1-0.1,0.2-0.2,0.3-0.4c0.8-1,1.3-2.4,1.3-3.8C15.7,2.7,13.2,0,10,0S4.3,2.7,4.3,6.1c0,1.4,0.5,2.8,1.3,3.8
			C5.6,10,5.8,10.1,5.9,10.2z"/>
	</g>
</g>
</svg>
