<svg xmlns="http://www.w3.org/2000/svg" viewBox="0 0 20.58 13.86"><defs><style>.cls-1{fill:#fff;}</style></defs><title>Ресурс 71</title><g id="Слой_2" data-name="Слой 2"><g id="иконки"><path class="cls-1" d="M20.27,1.4A2.38,2.38,0,0,0,18,0H2.57A2.38,2.38,0,0,0,.31,1.42,3.44,3.44,0,0,0,0,2.77v8.32a3.44,3.44,0,0,0,.31,1.35,2.38,2.38,0,0,0,2.21,1.42H18a2.82,2.82,0,0,0,1.25-.33,2.6,2.6,0,0,0,1.32-2.44V2.73A3.34,3.34,0,0,0,20.27,1.4Zm-19,1.17a1.71,1.71,0,0,1,.3-.77,1.1,1.1,0,0,1,1-.41H18A1.08,1.08,0,0,1,19.12,2a1.87,1.87,0,0,1,.15.5c0,.14,0,.2,0,.2v0h-18A1.4,1.4,0,0,1,1.31,2.56Zm18,8.53c0,.79-.29,1-.61,1.2a1.57,1.57,0,0,1-.48.16l-.2,0H2.57a1.08,1.08,0,0,1-1.11-.66,2,2,0,0,1-.15-.52c0-.14,0-.21,0-.21V5.55h18Z"/></g></g></svg>