<?xml version="1.0" encoding="utf-8"?>
<!-- Generator: Adobe Illustrator 21.1.0, SVG Export Plug-In . SVG Version: 6.00 Build 0)  -->
<svg version="1.1" xmlns="http://www.w3.org/2000/svg" xmlns:xlink="http://www.w3.org/1999/xlink" x="0px" y="0px"
	 viewBox="0 0 436.5 44" style="enable-background:new 0 0 436.5 44;" xml:space="preserve">
	<title>logo-career</title>

	<path fill="#807F7A" d="M235.5,13.1h1V5.1h-1V13.1z M238.5,6.3h1V5.1h-1V6.3z M238.5,13.1h1V7.3h-1V13.1z M243.7,12.1l-1.6-4.8H241
		l2.1,5.7h1l2.1-5.8h-1L243.7,12.1z M249.9,7.1c-1.6,0-2.7,1.3-2.7,3.1s1,3,2.7,3c1.2,0.1,2.3-0.8,2.5-2h-0.9
		c-0.1,0.8-0.8,1.3-1.6,1.2c-1,0-1.8-0.7-1.8-1.6c0-0.1,0-0.2,0-0.4l0,0h4.4v-0.1C252.5,8.7,251.8,7.2,249.9,7.1L249.9,7.1z
		M248.2,9.7c0-1,0.8-1.7,1.7-1.8c0.9,0,1.7,0.7,1.7,1.7c0,0,0,0,0,0c0,0,0,0.1,0,0.1H248.2L248.2,9.7z M260.6,7.2
		c-0.8,0-1.5,0.4-1.9,1c-0.3-0.7-0.9-1.1-1.6-1c-0.8,0-1.5,0.4-1.9,1V7.3h-0.9v5.7h1V10c0-1.1,0.3-2,1.6-2c0.9,0,1.1,0.6,1.1,1.4V13
		h1V9.8c0-1.1,0.4-1.8,1.5-1.8s1.1,0.6,1.1,1.4v3.6h1v-4c0.1-0.9-0.5-1.8-1.4-1.9C261,7.1,260.8,7.1,260.6,7.2L260.6,7.2z
		M268.9,11.8V9.2c0.1-0.5-0.1-1.1-0.4-1.5c-0.5-0.4-1.2-0.6-1.8-0.6c-1.5,0-2.4,0.7-2.4,2h0.9c0-0.7,0.5-1.2,1.2-1.2c0,0,0,0,0,0
		h0.2c0.9,0,1.3,0.3,1.3,1c0,0.8-0.5,0.8-1.9,0.9s-2,0.8-2,1.8c0,0.9,0.7,1.6,1.6,1.6c0,0,0,0,0,0h0.3c0.8,0,1.6-0.3,2.1-0.9
		c0,0.4,0.3,0.8,0.7,0.9h0.2c0.2,0,0.4,0,0.6-0.1v-0.7h-0.2C269.1,12.4,269,12.3,268.9,11.8L268.9,11.8z M268,11.1
		c-0.2,0.8-0.9,1.4-1.8,1.4c-0.5,0.1-1.1-0.3-1.1-0.8c0-0.1,0-0.1,0-0.2c0-0.9,0.9-1,1.6-1.1c0.4,0,0.9-0.1,1.3-0.4L268,11.1
		L268,11.1z M273.4,9.6c-0.8-0.2-1.5-0.3-1.5-0.9c0.1-0.5,0.6-0.9,1.2-0.8c0,0,0,0,0,0l0,0c0.6-0.1,1.3,0.3,1.4,0.9v0.1h1
		c0-1.2-1-1.8-2.3-1.8S271,7.8,271,8.8c0,1.3,1.3,1.4,2.3,1.7c0.8,0.2,1.5,0.3,1.5,1c-0.1,0.6-0.7,1.1-1.3,1h-0.1
		c-0.7,0.1-1.4-0.3-1.5-1c0-0.1,0-0.1,0-0.2h-1c0.1,1.3,0.9,2,2.5,2s2.4-0.7,2.4-1.9S274.4,9.9,273.4,9.6L273.4,9.6z M278.7,5.6h-1
		v1.7h-1v0.8h1v3.1c0,1.3-0.1,2,1.4,2c0.2,0,0.5,0,0.7,0v-0.9c-0.2,0-0.3,0-0.5,0c-0.7,0-0.6-0.3-0.6-0.9V8.1h1.1V7.3h-1.1
		L278.7,5.6L278.7,5.6L278.7,5.6z M283.8,7.2c-1.6,0-2.7,1.3-2.7,3.1s1,3,2.7,3c1.2,0.1,2.3-0.8,2.5-2h-0.9
		c-0.1,0.8-0.8,1.3-1.6,1.2c-1,0-1.8-0.7-1.8-1.6c0-0.1,0-0.2,0-0.4v-0.1h4.4v-0.1C286.4,8.7,285.7,7.2,283.8,7.2L283.8,7.2z
		M282.1,9.7c0-1,0.8-1.7,1.7-1.8c0.9,0,1.7,0.7,1.7,1.7c0,0,0,0,0,0c0,0,0,0.1,0,0.1H282.1z M289,8.6V7.3h-0.9v5.7h1v-2.4
		c0-1.3,0.3-2.5,1.9-2.5h0.1v-1C290.1,7.1,289.3,7.7,289,8.6L289,8.6z M291.9,13.1h1.2v-1.2h-1.2L291.9,13.1L291.9,13.1z M296.1,8.6
		V7.3h-0.9v5.7h1v-2.4c0-1.3,0.3-2.5,1.9-2.5h0.2v-1C297.3,7.1,296.4,7.7,296.1,8.6L296.1,8.6z M303.5,7.3v3c0,1.2-0.4,2.1-1.7,2.1
		c-0.6,0-1.2-0.4-1.2-1c0-0.1,0-0.2,0-0.3V7.3h-1v4c-0.1,1,0.6,1.8,1.5,1.9c0.1,0,0.3,0,0.4,0c0.8,0,1.6-0.4,2-1.1v0.9h0.9V7.3
		L303.5,7.3L303.5,7.3z"/>

	<path d="M230,21.6h4.9v11.6h2.1V21.6h5v-2h-12V21.6z M304.2,27.9c-0.5-1.1-1.4-1.8-2.6-2c0.8-0.2,1.5-0.7,1.8-1.5
		c0.5-1.2,0.3-2.5-0.5-3.4c-1.2-1.5-4.3-1.4-4.3-1.4h-5.8v13.5h6.8c1.4,0.1,2.8-0.3,3.9-1.1C304.6,30.9,304.9,29.3,304.2,27.9
		L304.2,27.9z M295,21.3h3.7c0,0,2.9-0.1,2.8,2s-2.5,1.9-2.5,1.9h-3.9L295,21.3L295,21.3z M301.3,30.9c-0.7,0.3-1.4,0.4-2.1,0.4H295
		v-4.4h3.8c0,0,2.6-0.1,3.3,1.4C302.6,29.2,302.3,30.4,301.3,30.9C301.3,30.9,301.3,30.9,301.3,30.9L301.3,30.9L301.3,30.9z
		M148.7,25.2c3.1-1.7,2.9-6.2,2.9-6.2h-2.1c0,1.3-0.3,2.5-0.9,3.6c-0.8,1.2-2.2,1.9-3.6,2c-1.4,0.1-2.4,0-2.8,0v-5.6h-2.2v13.5h2.2
		v-6h1.5c0.7,0,1.3,0,2-0.2l4.2,6.2h2.7l-4.8-6.8L148.7,25.2z M82.3,18.7c-2.9,0-4.2,1.1-5.2,2.5c0.1-0.8-0.3-1.6-1-2.1
		c-0.8-0.3-1.7-0.3-2.6-0.1v1.6c0.7-0.2,1.4,0.3,1.6,1c0,0.1,0,0.3,0,0.4v17.5h2.2v-8.3l0,0c1.3,0.8,2.8,1.3,4.3,1.4
		c2.6,0,5-1.4,6.1-3.8c0.9-2.3,0.8-4.9-0.3-7.1C86.4,19.8,84.4,18.6,82.3,18.7z M85.5,28.5c-0.8,1.4-2.4,2.3-4,2.3
		c-1.5-0.1-2.9-0.5-4.1-1.4l-0.1-0.1V25c0-0.2,0-0.4,0.1-0.7c0.2-1.1,0.8-2.2,1.7-2.9c1.2-0.9,2.8-1.1,4.3-0.6
		c1.5,0.6,2.6,2,2.7,3.6C86.3,25.8,86.1,27.2,85.5,28.5L85.5,28.5z M131.2,18.7c-2.9,0-4.2,1.1-5.2,2.5c0.1-0.8-0.3-1.6-1-2.1
		c-0.8-0.3-1.7-0.3-2.6-0.2v1.6c0.7-0.2,1.4,0.3,1.6,1c0,0.1,0,0.3,0,0.5v17.5h2.2v-8.3l0,0c1.3,0.8,2.8,1.3,4.3,1.4
		c2.6,0,5-1.4,6.1-3.8c0.9-2.3,0.8-4.9-0.3-7.1C135.3,19.8,133.3,18.6,131.2,18.7z M134.4,28.5c-0.8,1.4-2.4,2.3-4,2.3
		c-1.5-0.1-2.9-0.5-4.1-1.4l-0.1-0.1V25c0-0.2,0-0.4,0.1-0.7c0.2-1.1,0.8-2.1,1.7-2.9c1.2-0.9,2.8-1.1,4.3-0.6
		c1.5,0.6,2.6,1.9,2.7,3.5C135.2,25.8,135,27.2,134.4,28.5L134.4,28.5z M267.2,19.3c-2.9,0-4.2,1.1-5.1,2.5c0.1-0.8-0.3-1.6-1-2.1
		c-0.8-0.3-1.7-0.3-2.6-0.2v1.6c0.7-0.2,1.4,0.2,1.6,0.9c0,0.2,0.1,0.3,0,0.5v17.5h2.2v-8.3l0,0c1.3,0.8,2.8,1.3,4.3,1.4
		c2.6,0,5-1.5,6.1-3.8c0.9-2.3,0.8-4.9-0.3-7.1C271.4,20.4,269.4,19.2,267.2,19.3L267.2,19.3z M270.4,29.1c-0.8,1.4-2.4,2.3-4,2.3
		c-1.5,0-2.9-0.5-4.1-1.4h-0.1v-4.3c0-0.2,0-0.4,0.1-0.7c0.2-1.1,0.8-2.2,1.7-2.9c1.2-0.9,2.8-1.1,4.3-0.6c1.5,0.6,2.5,1.9,2.7,3.5
		C271.2,26.4,271,27.8,270.4,29.1L270.4,29.1z M249.4,19.4c-3.2,0.1-6,2.4-6.5,5.6c-0.7,3.1,0.8,6.2,3.7,7.6c2.7,1.4,7,0.5,8,0.1
		l1-0.4l-0.4-1.6c-1.6,0.6-3.3,1-5,0.9c-2,0.1-3.9-1-4.8-2.8c-0.3-0.7-0.4-1.4-0.4-2.1h11c0,0,0.5-3.4-0.8-5.1
		S252.2,19.3,249.4,19.4L249.4,19.4z M254.1,24.9h-9c0.2-1.2,0.8-2.3,1.9-3c1.6-1,3.7-1.1,5.4-0.3C253.5,22.3,254.2,23.6,254.1,24.9
		L254.1,24.9z M283.1,19.3c-3.8-0.2-7,2.7-7.3,6.4c0,0,0,0,0,0c0,0.2,0,0.4,0,0.5c0,3.9,2.7,7,7.3,7s7.3-3.1,7.3-7
		c0.1-3.8-2.8-6.9-6.6-7C283.6,19.3,283.3,19.3,283.1,19.3L283.1,19.3z M283.1,31.5c-2.7,0.1-5-2-5.1-4.7c0,0,0,0,0,0
		c0-0.2,0-0.3,0-0.5c0-2.8,2.3-5.1,5.1-5.1c2.8,0,5.1,2.3,5.1,5.1l0,0c0.2,2.7-1.9,5-4.6,5.1L283.1,31.5L283.1,31.5z M91,18.1v14.3
		h2.2v-8.8l4.8,5.7l4.9-5.7v8.8h2.2V18.1l-7,8.2L91,18.1z M120.5,31.1c-0.8-0.1-0.8-1.2-0.8-1.2v-7c0-2.8-2.8-4.1-5.9-4.1
		c-1.7-0.1-3.4,0.3-5,1l0.4,1.7c1.9-1,4.2-1.3,6.3-0.7c1.2,0.1,2.1,1,2.3,2.2v2.2c-0.5-0.3-1-0.5-1.6-0.6c-0.9-0.3-4.1-0.7-6.2,0.4
		c-1.5,0.8-2.3,2.4-2.2,4.1c0,0.9,0.7,3.6,4.9,3.6s5.4-2.7,5.4-2.7s0,1.8,0.9,2.3c0.8,0.3,1.7,0.4,2.5,0.2v-1.4
		C121.1,31.2,120.8,31.2,120.5,31.1L120.5,31.1z M117.7,27.9c-0.1,0.5-0.4,1-0.7,1.4c-1.2,1-2.7,1.6-4.2,1.6c-1.9,0-2.8-1-2.8-2.3
		s0.9-2.5,3.4-2.5c1.5-0.1,3,0.3,4.4,0.9L117.7,27.9L117.7,27.9L117.7,27.9z M166.6,31.1c-0.8-0.1-0.8-1.2-0.8-1.2v-7
		c0-2.8-2.8-4.1-5.9-4.1c-1.7-0.1-3.4,0.3-5,1l0.4,1.7c1.9-1,4.1-1.3,6.2-0.7c1.2,0.1,2.2,1,2.3,2.2v2.2c-0.5-0.3-1-0.5-1.6-0.6
		c-0.9-0.3-4.1-0.7-6.2,0.4c-1.5,0.8-2.3,2.4-2.2,4.1c0,0.9,0.7,3.6,4.9,3.6s5.4-2.7,5.4-2.7s0,1.8,0.8,2.3c0.8,0.3,1.7,0.4,2.5,0.2
		v-1.4C167.3,31.2,167,31.2,166.6,31.1L166.6,31.1z M163.9,27.9c-0.1,0.5-0.4,1-0.7,1.4c-1.2,1-2.7,1.6-4.2,1.6
		c-1.9,0-2.8-1-2.8-2.3s0.9-2.5,3.3-2.5c1.5-0.1,3,0.3,4.4,0.9V27.9L163.9,27.9L163.9,27.9z M213,31.8c-0.8-0.1-0.8-1.2-0.8-1.2v-7
		c0-2.8-2.7-4.2-5.9-4.2c-1.7-0.1-3.4,0.3-5,1l0.4,1.7c1.9-1,4.1-1.3,6.2-0.7c1.2,0.1,2.1,1.1,2.2,2.3v2.2c-0.5-0.3-1-0.5-1.6-0.6
		c-0.9-0.3-4.1-0.7-6.2,0.4c-1.5,0.8-2.3,2.4-2.2,4.1c0,0.9,0.7,3.6,4.9,3.6s5.4-2.7,5.4-2.7s0,1.8,0.8,2.3c0.8,0.3,1.7,0.4,2.5,0.2
		v-1.5C213.6,31.8,213.3,31.8,213,31.8z M210.2,28.5c-0.1,0.5-0.3,1.1-0.7,1.5c-1.2,1-2.7,1.6-4.2,1.6c-1.9,0-2.8-1-2.8-2.3
		c0-1.2,0.9-2.5,3.3-2.5c1.5-0.1,3,0.3,4.4,0.9V28.5L210.2,28.5L210.2,28.5z M179,12.2v20.9h2.4V19.2l6.8,8.8l6.8-8.8v13.9h2.4V12.2
		l-9.2,12.2L179,12.2z M63.7,12.9c-1.9-0.1-3.8,0.4-5.3,1.5c-1.4,1.1-2.3,2.9-2.2,4.7c-0.1,1.8,0.6,3.5,2,4.5c1,0.8,2.2,1.3,3.4,1.6
		L60,27.6c-2.1,3.1-3.2,3-3.5,3c-0.5,0-1-0.2-1.5-0.4L53.8,32c0.8,0.5,1.7,0.7,2.6,0.8h0.2c1.8,0,3.4-1.2,5.2-4
		c1.1-1.6,1.8-2.7,2.2-3.4h4.5v7.1H71V12.9H63.7z M68.5,23.4h-5.3c-0.8,0-3.7-0.1-4.5-2.8c-0.6-1.8,0-3.7,1.5-4.8
		c1-0.6,2.2-0.9,3.5-0.8h4.9L68.5,23.4L68.5,23.4z M226.5,25.1l2.1-0.4c0-1.1-0.3-2.2-0.9-3.1c-1.3-1.6-3-2.4-5.8-2.2
		c-3.3,0-6.1,2.4-6.6,5.6c-0.7,3.1,0.8,6.3,3.7,7.6c2.7,1.4,7,0.5,8,0.1l1-0.4l-0.4-1.6c-1.6,0.6-3.3,1-5,0.9c-2,0.1-3.9-1-4.8-2.8
		c-0.3-0.6-0.4-1.3-0.4-2c-0.1-0.9,0-1.8,0.2-2.6l0,0c0.3-0.9,0.9-1.7,1.7-2.3c1.6-1,3.7-1.1,5.4-0.3c1.2,0.6,1.9,1.9,1.8,3.3
		L226.5,25.1z"/>

	<linearGradient id="SVGID_1_" gradientUnits="userSpaceOnUse" x1="21.9602" y1="-160.27" x2="22.0402" y2="-204.2699" gradientTransform="matrix(1 0 0 -1 0 -160.14)">
		<stop  offset="0" style="stop-color:#F39340"/>
		<stop  offset="1" style="stop-color:#E6670A"/>
	</linearGradient>

	<circle fill="url(#SVGID_1_)" cx="22" cy="22" r="22"/>

	<path fill="#FFFFFF" d="M34.2,25.3L40,22l-5.8-3.3l3.4-5.7l-6.7,0.1L31,6.4l-5.7,3.4L22,4l-3.3,5.8L13,6.4l0.1,6.7L6.4,13l3.4,5.7
		L4,22l5.8,3.3L6.4,31l6.7-0.1L13,37.6l5.7-3.4L22,40l3.3-5.8l5.7,3.4l-0.1-6.7l6.7,0.1L34.2,25.3z M29.8,35.5l-5-3L22,37.6
		l-2.8-5.1l-5,3l0.1-5.8l-5.8,0.1l3-5L6.4,22l5.1-2.8l-3-5l5.8,0.1l-0.1-5.8l5,3L22,6.4l2.8,5.1l5-3l-0.1,5.8l5.8-0.1l-3,5l5.1,2.9
		l-5.1,2.8l3,5l-5.8-0.1L29.8,35.5z M31,20.3c-1.3-0.4-2-1.8-1.6-3.1c0-0.1,0.1-0.2,0.1-0.3c0.4-0.7,0.5-1.5,0.2-2.2
		c-0.4-0.7-1.4-0.8-2.6-0.2c-0.3,0.2-0.7,0.3-1.1,0.3c-1.1,0-2-0.7-2.3-1.7c-0.5-1.4-1.2-1.7-1.7-1.7s-1.2,0.3-1.7,1.7
		C20,14,19,14.7,18,14.7c-0.4,0-0.8-0.1-1.1-0.3c-1.2-0.6-2.2-0.5-2.6,0.2c-0.3,0.7-0.3,1.6,0.2,2.2c0.6,1.2,0.1,2.7-1.1,3.3
		c-0.1,0.1-0.2,0.1-0.4,0.2c-1.4,0.5-1.7,1.2-1.7,1.7s0.3,1.2,1.7,1.7c1.3,0.4,2,1.8,1.6,3.1c0,0.1-0.1,0.2-0.1,0.3
		c-0.4,0.7-0.5,1.5-0.2,2.2c0.4,0.7,1.4,0.8,2.6,0.2c0.4-0.2,0.8-0.3,1.2-0.2c1.1,0,2,0.7,2.3,1.7c0.5,1.4,1.2,1.7,1.7,1.7
		s1.2-0.3,1.7-1.7c0.3-1,1.2-1.7,2.3-1.7c0.4,0,0.8,0.1,1.1,0.3c1.2,0.6,2.2,0.5,2.6-0.2c0.3-0.7,0.3-1.6-0.2-2.2
		c-0.6-1.2-0.1-2.7,1.1-3.3c0.1-0.1,0.2-0.1,0.4-0.2c1.4-0.5,1.7-1.2,1.7-1.7S32.4,20.8,31,20.3z M30.6,22.6
		c-1.9,0.6-2.9,2.7-2.3,4.6c0.1,0.2,0.1,0.3,0.2,0.5c0.2,0.3,0.3,0.7,0.2,1.1c0,0-0.1,0-0.1,0c-0.3,0-0.6-0.1-0.9-0.3
		c-0.5-0.2-1.1-0.4-1.7-0.4c-1.6,0-2.9,1-3.4,2.5c-0.1,0.4-0.3,0.7-0.6,0.9c-0.3-0.2-0.5-0.6-0.6-0.9c-0.5-1.5-1.9-2.5-3.4-2.5
		c-0.6,0-1.1,0.1-1.6,0.4c-0.3,0.2-0.6,0.2-0.9,0.3c0,0-0.1,0-0.1,0c-0.1-0.4,0-0.8,0.2-1.1c0.9-1.8,0.2-4-1.6-4.9
		c-0.1-0.1-0.3-0.1-0.5-0.2c-0.4-0.1-0.8-0.3-1-0.6c0.2-0.3,0.6-0.5,0.9-0.6c1.9-0.6,2.9-2.7,2.3-4.6c-0.1-0.2-0.1-0.3-0.2-0.5
		c-0.2-0.3-0.3-0.7-0.2-1.1c0,0,0.1,0,0.1,0c0.3,0,0.6,0.1,0.9,0.3c0.5,0.2,1.1,0.4,1.6,0.4l0,0c1.6,0,2.9-1,3.4-2.5
		c0.1-0.4,0.3-0.8,0.6-1c0.3,0.2,0.5,0.6,0.6,0.9c0.5,1.5,1.9,2.5,3.5,2.5c0.6,0,1.1-0.1,1.6-0.4c0.3-0.2,0.6-0.2,0.9-0.3
		c0,0,0.1,0,0.1,0c0.1,0.4,0,0.8-0.2,1.1c-0.9,1.8-0.2,4,1.6,4.9c0.1,0.1,0.3,0.1,0.5,0.2c0.4,0.1,0.7,0.3,0.9,0.6
		C31.3,22.3,30.9,22.5,30.6,22.6L30.6,22.6z M22,16.4c-3.1,0-5.6,2.5-5.6,5.6s2.5,5.6,5.6,5.6s5.6-2.5,5.6-5.6l0,0l0,0
		C27.6,18.9,25.1,16.4,22,16.4z M22,26.4c-2.5,0-4.4-2-4.4-4.4c0-2.5,2-4.4,4.4-4.4c2.5,0,4.4,2,4.4,4.4c0,0,0,0,0,0l0,0
		C26.4,24.4,24.4,26.4,22,26.4L22,26.4z"/>

	<g enable-background="new">
		<path fill="#F3801F" d="M322.8,22.6c2.5,0.6,3.8,2.5,3.8,4.8c0,3.7-2.7,5.4-6.2,5.4h-8.1V13.2h7.2c3.5,0,6.3,1.4,6.3,5.2
			C325.7,20.2,324.8,21.9,322.8,22.6z M313.7,14.4v7.7h5.8c2.7,0,4.8-0.8,4.8-3.8c0-3.1-2.2-3.9-5-3.9H313.7z M313.7,23.3v8.2h6.7
			c2.7,0,4.9-1.2,4.9-4.1c0-3.1-2.5-4.1-5.6-4.1H313.7z"/>
		<path fill="#F3801F" d="M334.1,33c-2.4,0-4.8-1.5-4.8-4.1c0-3.1,2.5-4.5,5.2-4.5c1.7,0,3.5,0.4,5,1.2v-2.1c0-2.6-2.4-3.3-4.6-3.3
			c-1.6,0-3.2,0.4-4.3,1l-0.3-1.1c1.3-0.7,3.1-1.1,4.8-1.1c2.9,0,5.7,1.2,5.7,4.5l0,6.2c0,1.6-0.1,2.5,1.7,2.3l0.1,0.9
			c-2.3,0.4-2.9-0.4-2.8-2.6C338.7,32.3,336.3,33,334.1,33z M339.5,26.7c-1.5-0.8-3.2-1.3-4.8-1.2c-2,0-4.2,1.1-4.1,3.4
			c0.1,2.1,1.8,3,3.7,3c2.2,0,4.6-1,5.2-3.3V26.7z"/>
		<path fill="#F3801F" d="M349,25.2c3.9,0,6-1.8,6-5.9h1.3c0,3.1-1.1,5.6-4.2,6.5l4.9,6.8v0.2h-1.4l-4.7-6.6c-0.6,0.1-1.2,0.2-1.9,0.2
			h-2.2v6.4h-1.3V19.2h1.3v5.9H349z"/>
		<path fill="#F3801F" d="M363.7,33c-2.4,0-4.8-1.5-4.8-4.1c0-3.1,2.5-4.5,5.2-4.5c1.7,0,3.5,0.4,5,1.2v-2.1c0-2.6-2.4-3.3-4.6-3.3
			c-1.6,0-3.2,0.4-4.3,1l-0.3-1.1c1.3-0.7,3.1-1.1,4.8-1.1c2.9,0,5.7,1.2,5.7,4.5l0,6.2c0,1.6-0.1,2.5,1.7,2.3l0.1,0.9
			c-2.3,0.4-2.9-0.4-2.8-2.6C368.4,32.3,366,33,363.7,33z M369.2,26.7c-1.5-0.8-3.2-1.3-4.8-1.2c-2,0-4.2,1.1-4.1,3.4
			c0.1,2.1,1.8,3,3.7,3c2.2,0,4.6-1,5.2-3.3V26.7z"/>
		<path fill="#F3801F" d="M386.6,19.3v13.5h-1.3v-6.4h-8.8v6.4h-1.3V19.3h1.3v5.9h8.8v-5.9H386.6z"/>
		<path fill="#F3801F" d="M402.1,23c-0.8-1.9-2.7-2.8-4.6-2.8c-2.9,0-5.9,1.9-5.9,5.8c0,3.8,2.9,5.8,5.7,5.8c2.1,0,4.1-1.1,4.9-3.2h1.3
			c-0.9,3-3.6,4.4-6.3,4.4c-3.5,0-7-2.4-7-7c0-4.7,3.7-7.1,7.3-7c2.6,0.1,5.1,1.4,6,4H402.1z"/>
		<path fill="#F3801F" d="M407.5,32.8H407V19.3h1.3v7.3l-0.2,3.7l9.7-11c0.2,0,0.3,0,0.5,0c0,4.5,0,9,0,13.5c-0.4,0-0.8,0-1.3,0v-8.1
			l0.1-2.9L407.5,32.8z"/>
		<path fill="#F3801F" d="M423.3,32.8h-0.5V19.3h1.3v7.3l-0.2,3.7l9.7-11c0.2,0,0.3,0,0.5,0c0,4.5,0,9,0,13.5c-0.4,0-0.8,0-1.3,0v-8.1
			l0.1-2.9L423.3,32.8z"/>
	</g>
</svg>
