<?xml version="1.0" encoding="utf-8"?>
<!-- Generator: Adobe Illustrator 16.0.0, SVG Export Plug-In . SVG Version: 6.00 Build 0)  -->
<!DOCTYPE svg PUBLIC "-//W3C//DTD SVG 1.1//EN" "http://www.w3.org/Graphics/SVG/1.1/DTD/svg11.dtd">
<svg version="1.1" xmlns="http://www.w3.org/2000/svg" xmlns:xlink="http://www.w3.org/1999/xlink" viewBox="0 0 194.75 44">
<linearGradient id="SVGID_1_" gradientUnits="userSpaceOnUse" x1="138.9185" y1="-209.2871" x2="139.0021" y2="-253.287" gradientTransform="matrix(1 0 0 -1 -115.96 -209.1602)">
	<stop  offset="0" style="stop-color:#FF9739"/>
	<stop  offset="1" style="stop-color:#E76801"/>
</linearGradient>
<circle fill="url(#SVGID_1_)" cx="23" cy="22" r="22"/>
<g>
	<g>
		<path fill="#FFFFFF" d="M35.17,25.262L41,22l-5.83-3.261L38.588,13l-6.679,0.09L32,6.412l-5.739,3.417L23,4l-3.261,5.829L14,6.411
			l0.09,6.678L7.412,13l3.417,5.739L5,22l5.829,3.262L7.412,31l6.679-0.09L14,37.589l5.739-3.419L23,40l3.262-5.829L32,37.589
			l-0.09-6.679L38.588,31L35.17,25.262z M30.82,35.545l-4.986-2.97L23,37.641l-2.833-5.064l-4.986,2.97l0.079-5.803L9.457,29.82
			l2.97-4.985L7.36,22l5.065-2.833l-2.97-4.986l5.803,0.078L15.18,8.456l4.986,2.969L23,6.359l2.833,5.065l4.987-2.969l-0.079,5.803
			l5.803-0.078l-2.97,4.986L38.64,22l-5.065,2.834l2.97,4.984l-5.803-0.076L30.82,35.545z M31.963,20.29
			c-0.697-0.248-1.227-0.74-1.495-1.385c-0.267-0.644-0.239-1.366,0.078-2.035c0.451-0.947,0.511-1.696,0.178-2.223
			c-0.427-0.675-1.379-0.772-2.596-0.194c-0.362,0.172-0.739,0.259-1.119,0.259c-1.035,0-1.938-0.657-2.3-1.675
			c-0.507-1.428-1.21-1.728-1.709-1.728c-0.5,0-1.202,0.3-1.71,1.728c-0.362,1.018-1.265,1.675-2.3,1.675
			c-0.38,0-0.757-0.086-1.119-0.259c-1.216-0.579-2.168-0.481-2.596,0.194c-0.333,0.527-0.273,1.276,0.178,2.223
			c0.317,0.668,0.345,1.391,0.078,2.035c-0.267,0.646-0.798,1.137-1.494,1.385C12.609,20.798,12.31,21.5,12.31,22
			s0.3,1.202,1.728,1.71c0.696,0.248,1.227,0.739,1.494,1.384c0.267,0.646,0.239,1.367-0.078,2.035
			c-0.451,0.948-0.511,1.697-0.178,2.223c0.427,0.676,1.379,0.773,2.596,0.195c0.362-0.172,0.739-0.26,1.119-0.26
			c1.035,0,1.938,0.656,2.3,1.676c0.508,1.428,1.21,1.729,1.71,1.729s1.202-0.301,1.71-1.729c0.362-1.02,1.265-1.676,2.299-1.676
			c0.38,0,0.757,0.088,1.119,0.26c1.217,0.578,2.169,0.48,2.596-0.195c0.333-0.526,0.273-1.273-0.178-2.223
			c-0.317-0.668-0.345-1.391-0.078-2.035c0.268-0.645,0.798-1.136,1.495-1.384c1.428-0.508,1.728-1.21,1.728-1.71
			S33.391,20.798,31.963,20.29z M31.563,22.584c-1.02,0.361-1.8,1.092-2.198,2.055c-0.398,0.959-0.361,2.026,0.103,3.002
			c0.336,0.709,0.278,1.033,0.247,1.072c-0.008,0.008-0.055,0.026-0.153,0.026c-0.13,0-0.423-0.034-0.92-0.271
			c-0.524-0.249-1.073-0.375-1.632-0.375c-1.547,0-2.892,0.97-3.425,2.47c-0.261,0.733-0.529,0.924-0.584,0.935
			c-0.055-0.011-0.323-0.2-0.584-0.935c-0.534-1.5-1.878-2.47-3.426-2.47c-0.559,0-1.108,0.126-1.632,0.375
			c-0.497,0.237-0.79,0.271-0.92,0.271c-0.098,0-0.144-0.019-0.151-0.024c-0.032-0.041-0.09-0.365,0.246-1.074
			c0.464-0.976,0.501-2.043,0.103-3.002c-0.398-0.963-1.178-1.691-2.198-2.055c-0.739-0.264-0.926-0.533-0.933-0.583
			c0.007-0.054,0.194-0.323,0.933-0.585c1.02-0.363,1.8-1.092,2.198-2.053c0.398-0.96,0.361-2.027-0.103-3.004
			c-0.337-0.708-0.278-1.031-0.248-1.072c0.009-0.007,0.055-0.025,0.153-0.025c0.13,0,0.423,0.035,0.92,0.271
			c0.524,0.249,1.073,0.375,1.632,0.375l0,0c1.547,0,2.892-0.97,3.425-2.47c0.263-0.739,0.532-0.926,0.583-0.933
			c0.052,0.007,0.322,0.193,0.585,0.933c0.534,1.5,1.878,2.47,3.425,2.47c0.56,0,1.108-0.126,1.632-0.375
			c0.498-0.237,0.791-0.271,0.92-0.271c0.098,0,0.145,0.018,0.152,0.024c0.032,0.042,0.09,0.365-0.246,1.073
			c-0.464,0.977-0.501,2.044-0.103,3.004c0.397,0.961,1.178,1.69,2.198,2.053c0.739,0.262,0.926,0.532,0.933,0.583
			C32.489,22.051,32.301,22.32,31.563,22.584z M23,16.406c-3.084,0-5.594,2.51-5.594,5.594s2.509,5.594,5.594,5.594
			s5.594-2.51,5.594-5.594S26.084,16.406,23,16.406z M23,26.441c-2.449,0-4.441-1.992-4.441-4.441s1.992-4.442,4.441-4.442
			s4.441,1.993,4.441,4.442S25.449,26.441,23,26.441z"/>
	</g>
</g>
<g>
	<polygon points="57.148,30.35 57.148,12.901 54.82,12.901 54.82,32.45 55.859,32.45 57.148,32.45 66.352,32.45 66.352,30.35 	"/>
	<path d="M70.019,32.45h-2.181V18.968h2.181V32.45z M68.916,14.554c-0.759,0-1.375,0.615-1.375,1.375s0.616,1.375,1.375,1.375
		s1.375-0.616,1.375-1.375S69.675,14.554,68.916,14.554z"/>
	<polygon points="85.651,18.91 83.231,18.91 78.701,29.083 74.169,18.91 71.75,18.91 78.271,32.446 78.271,32.45 79.129,32.45
		79.129,32.448 	"/>
	<path d="M98.411,26.021c0,0,0.519-3.375-0.802-5.042c-1.271-1.607-2.895-2.339-5.59-2.24c-2.695,0.1-5.769,1.913-6.329,5.656
		c-0.56,3.743,0.978,6.141,3.573,7.542c2.596,1.4,6.753,0.479,7.726,0.059c0.971-0.422,0.971-0.424,0.971-0.424l-0.341-1.596
		c0,0-2.031,0.938-4.802,0.938s-4.248-1.819-4.666-2.821c-0.417-1.002-0.374-2.072-0.374-2.072H98.411z M89.637,21.253
		c1.056-0.763,3.205-1.25,5.194-0.257c1.991,0.994,1.705,3.284,1.705,3.284h-8.689C88.003,23.025,88.707,21.923,89.637,21.253"/>
	<path d="M177.024,26.021c0,0,0.519-3.375-0.801-5.042c-1.271-1.607-2.896-2.339-5.591-2.24c-2.696,0.1-5.771,1.913-6.329,5.656
		c-0.561,3.743,0.977,6.141,3.573,7.542c2.596,1.4,6.754,0.479,7.727,0.059c0.97-0.422,0.97-0.424,0.97-0.424l-0.341-1.596
		c0,0-2.031,0.938-4.803,0.938c-2.771,0-4.248-1.819-4.665-2.821c-0.418-1.002-0.373-2.072-0.373-2.072H177.024z M168.25,21.253
		c1.058-0.763,3.207-1.25,5.196-0.257c1.988,0.994,1.703,3.284,1.703,3.284h-8.688C166.616,23.025,167.32,21.923,168.25,21.253"/>
	<path d="M121.417,20.539c-0.654-1.184-2.808-2.279-5.552-1.568c-2.743,0.712-3.335,2.701-3.335,2.701s-0.165-0.522-0.699-1.397
		c-0.535-0.875-2.177-1.951-4.84-1.378s-3.192,2.197-3.192,2.197s0.133-0.825-0.32-1.517c-0.454-0.692-0.938-0.793-1.649-0.793
		c-0.712,0-1.548,0.182-1.548,0.182v1.562c0.202-0.025,0.897-0.088,1.164,0.264c0.343,0.454,0.381,1.076,0.385,1.701v9.958h2.174
		v-7.503c0-1.404,0.123-1.706,0.463-2.474c0.339-0.768,1.36-1.99,3.562-1.927c2.203,0.063,2.8,2.443,2.8,3.097v8.807h2.173v-6.296
		c0-2.24,0.182-2.712,0.434-3.393c0.251-0.679,1.454-2.221,3.242-2.221c1.787,0,2.379,0.61,2.895,1.517
		c0.517,0.906,0.531,2.662,0.531,2.662v7.73h2.173v-7.794C122.275,22.583,122.053,21.688,121.417,20.539z"/>
	<path d="M137.307,31.086c-0.731-0.066-0.753-1.247-0.753-1.247v-6.966c0-2.795-2.672-4.142-5.756-4.142
		c-3.083,0-4.815,1.021-4.815,1.021l0.416,1.721c2.129-1.088,4.091-1.208,6.053-0.713c2.144,0.542,2.158,2.254,2.158,2.254v2.237
		c0,0-0.57-0.335-1.546-0.635c-0.876-0.27-3.951-0.739-6,0.374c-1.994,1.083-2.11,3.027-2.11,4.09c0,0.854,0.683,3.586,4.772,3.586
		c4.089,0,5.222-2.655,5.222-2.655s0.04,1.789,0.827,2.308c0.788,0.518,2.448,0.234,2.448,0.234v-1.468
		C138.221,31.086,137.805,31.132,137.307,31.086 M134.609,27.844c0,0-0.201,0.911-0.712,1.434c-0.511,0.523-1.941,1.551-4.071,1.551
		c-1.878,0-2.72-0.963-2.72-2.313c0-1.163,0.892-2.462,3.247-2.524c2.59-0.069,4.256,0.932,4.256,0.932V27.844z"/>
	<path d="M151.325,22.578c0,0,0.046-2.065-1.884-3.012c-1.929-0.947-4.371-1.164-6.868-0.275c-2.497,0.891-2.361,2.887-2.361,3.401
		c0,0.513-0.09,2.384,2.999,3.183c3.085,0.799,5.436,0.297,6.197,1.997s-1.25,2.864-2.123,2.966
		c-0.875,0.103-3.462,0.251-4.395-0.559c-0.929-0.811-0.895-1.643-0.895-1.643h-2.203c0,0,0.068,3.332,4.064,3.913
		c3.996,0.582,6.436-0.775,7.287-2.076c0.853-1.301,0.671-3.446-0.453-4.348c-1.123-0.901-2.19-1.164-5.019-1.529
		c-2.826-0.364-3.415-1.106-3.415-1.848c0-0.742,0.146-1.608,1.576-2.042c1.432-0.434,3.179-0.342,4.395,0.319
		c1.214,0.662,1.044,1.576,1.044,1.576L151.325,22.578z"/>
	<path d="M162.932,30.338l0.244,1.696c0,0-1.826,0.633-3.699,0.633c-1.659,0-2.766-0.822-3.254-1.641
		c-0.486-0.813-0.807-1.762-0.807-3.147c0-1.388,0-7.057,0-7.057l-2.956-0.126v-1.455h3.092l0.193-4.171h1.842v4.193h4.909v1.58
		h-4.955c0,0,0,5.045,0,6.773s0.579,2.671,1.762,3.16C160.485,31.265,162.932,30.338,162.932,30.338z"/>
	<path d="M179.128,18.964v1.475c0,0,1.644-0.361,1.644,1.199s0,10.812,0,10.812h2.207c0,0,0-6.78,0-8.128s0.382-2.313,1.74-3.172
		c1.357-0.859,3.088-0.328,3.65-0.127c0.562,0.202,1.112,0.626,1.112,0.626l0.596-1.867c0,0-1.252-1.029-3.268-1.029
		c-2.017,0-2.644,0.637-3.046,0.987c-0.403,0.35-0.924,1.157-0.924,1.157s0.022-1.285-0.901-1.773
		C181.016,18.635,179.404,18.933,179.128,18.964z"/>
</g>
</svg>
