<svg width="34" height="16" viewBox="0 0 34 16" fill="none" xmlns="http://www.w3.org/2000/svg">
<rect width="34" height="15" rx="6" fill="#1BA2FC"/>
<path d="M12.2891 11H11.3467L7.76758 5.52148V11H6.8252V3.89062H7.76758L11.3564 9.39355V3.89062H12.2891V11ZM17.9727 7.71387H14.8916V10.2334H18.4707V11H13.9541V3.89062H18.4219V4.66211H14.8916V6.94727H17.9727V7.71387ZM21.1709 8.75879L21.3076 9.69629L21.5078 8.85156L22.9141 3.89062H23.7051L25.0771 8.85156L25.2725 9.71094L25.4238 8.75391L26.5273 3.89062H27.4697L25.7461 11H24.8916L23.4268 5.81934L23.3145 5.27734L23.2021 5.81934L21.6836 11H20.8291L19.1104 3.89062H20.0479L21.1709 8.75879Z" fill="white"/>
</svg>
