<svg width="35" height="15" viewBox="0 0 35 15" fill="none" xmlns="http://www.w3.org/2000/svg">
<path d="M28.8235 0H6.17647C2.7653 0 0 2.68629 0 6V9C0 12.3137 2.7653 15 6.17647 15H28.8235C32.2347 15 35 12.3137 35 9V6C35 2.68629 32.2347 0 28.8235 0Z" fill="#1BA2FC"/>
<path d="M8.91992 7.83105C8.11589 7.59993 7.52995 7.31673 7.16211 6.98145C6.79753 6.6429 6.61523 6.22624 6.61523 5.73145C6.61523 5.17155 6.83822 4.70931 7.28418 4.34473C7.7334 3.97689 8.31608 3.79297 9.03223 3.79297C9.52051 3.79297 9.95508 3.88737 10.3359 4.07617C10.7201 4.26497 11.0163 4.52539 11.2246 4.85742C11.4362 5.18945 11.542 5.55241 11.542 5.94629H10.5996C10.5996 5.5166 10.4629 5.17969 10.1895 4.93555C9.91602 4.68815 9.53027 4.56445 9.03223 4.56445C8.56999 4.56445 8.20866 4.66699 7.94824 4.87207C7.69108 5.07389 7.5625 5.35547 7.5625 5.7168C7.5625 6.00651 7.68457 6.25228 7.92871 6.4541C8.17611 6.65267 8.5944 6.83496 9.18359 7.00098C9.77604 7.16699 10.2383 7.35091 10.5703 7.55273C10.9056 7.7513 11.153 7.98405 11.3125 8.25098C11.4753 8.5179 11.5566 8.83203 11.5566 9.19336C11.5566 9.76953 11.332 10.2318 10.8828 10.5801C10.4336 10.9251 9.83301 11.0977 9.08105 11.0977C8.59277 11.0977 8.13704 11.0049 7.71387 10.8193C7.29069 10.6305 6.96354 10.3734 6.73242 10.0479C6.50456 9.72233 6.39062 9.35286 6.39062 8.93945H7.33301C7.33301 9.36914 7.49089 9.70931 7.80664 9.95996C8.12565 10.2074 8.55046 10.3311 9.08105 10.3311C9.57585 10.3311 9.95508 10.2301 10.2188 10.0283C10.4824 9.8265 10.6143 9.55143 10.6143 9.20312C10.6143 8.85482 10.4922 8.58626 10.248 8.39746C10.0039 8.2054 9.5612 8.0166 8.91992 7.83105ZM16.6885 9.14453H13.71L13.041 11H12.0742L14.7891 3.89062H15.6094L18.3291 11H17.3672L16.6885 9.14453ZM13.9932 8.37305H16.4102L15.1992 5.04785L13.9932 8.37305ZM20.2285 10.2334H23.5977V11H19.2861V3.89062H20.2285V10.2334ZM28.6855 7.71387H25.6045V10.2334H29.1836V11H24.667V3.89062H29.1348V4.66211H25.6045V6.94727H28.6855V7.71387Z" fill="white"/>
</svg>
