<svg xmlns="http://www.w3.org/2000/svg" width="35" height="35" viewBox="0 0 35 35">
  <metadata><?xpacket begin="﻿" id="W5M0MpCehiHzreSzNTczkc9d"?>
<x:xmpmeta xmlns:x="adobe:ns:meta/" x:xmptk="Adobe XMP Core 5.6-c138 79.159824, 2016/09/14-01:09:01        ">
   <rdf:RDF xmlns:rdf="http://www.w3.org/1999/02/22-rdf-syntax-ns#">
      <rdf:Description rdf:about=""/>
   </rdf:RDF>
</x:xmpmeta>
                                                                                                    
                                                                                                    
                                                                                                    
                                                                                                    
                                                                                                    
                                                                                                    
                                                                                                    
                                                                                                    
                                                                                                    
                                                                                                    
                                                                                                    
                                                                                                    
                                                                                                    
                                                                                                    
                                                                                                    
                                                                                                    
                                                                                                    
                                                                                                    
                                                                                                    
                                                                                                    
                           
<?xpacket end="w"?></metadata>
<defs>
    <style>
      .cls-1 {
        fill: #fff;
        fill-rule: evenodd;
      }
    </style>
  </defs>
  <path id="Forma_1" data-name="Forma 1" class="cls-1" d="M53.207,1393.94H47.471a31.364,31.364,0,0,0-1.1-7.87h3.762a0.56,0.56,0,0,0,0-1.12h-4.1a17.465,17.465,0,0,0-2.275-4.66,0.559,0.559,0,1,0-.909.65,16.022,16.022,0,0,1,2.008,4.01H39.058v-5.16a0.559,0.559,0,1,0-1.117,0v5.16H32.147a16.029,16.029,0,0,1,2.008-4.01,0.559,0.559,0,1,0-.909-0.65,17.465,17.465,0,0,0-2.275,4.66h-4.1a0.56,0.56,0,0,0,0,1.12h3.762a31.373,31.373,0,0,0-1.1,7.87H23.793a0.56,0.56,0,0,0,0,1.12h5.736a31.368,31.368,0,0,0,1.1,7.87H26.867a0.56,0.56,0,0,0,0,1.12h4.1a17.46,17.46,0,0,0,2.276,4.66,0.545,0.545,0,0,0,.455.24,0.567,0.567,0,0,0,.454-0.89,16.029,16.029,0,0,1-2.009-4.01h5.794v5.16a0.559,0.559,0,1,0,1.117,0v-5.16h5.794a16.019,16.019,0,0,1-2.008,4.01,0.567,0.567,0,0,0,.454.89,0.545,0.545,0,0,0,.455-0.24,17.457,17.457,0,0,0,2.276-4.66h4.1a0.56,0.56,0,0,0,0-1.12H46.371a31.364,31.364,0,0,0,1.1-7.87h5.736A0.56,0.56,0,0,0,53.207,1393.94Zm-7.995-7.87a30.017,30.017,0,0,1,1.141,7.87h-7.3v-7.87h6.154Zm-13.425,0h6.154v7.87h-7.3A30.03,30.03,0,0,1,31.787,1386.07Zm0,16.86a30.026,30.026,0,0,1-1.141-7.87h7.3v7.87H31.787Zm13.425,0H39.058v-7.87h7.3A30.021,30.021,0,0,1,45.212,1402.93Zm5.662-20.8a17.5,17.5,0,0,0-26.988,22l-2.139,6.42a0.556,0.556,0,0,0,.135.57,0.549,0.549,0,0,0,.572.13l6.415-2.14A17.5,17.5,0,0,0,50.874,1382.13ZM38.5,1410.88a16.308,16.308,0,0,1-9.231-2.84,0.519,0.519,0,0,0-.315-0.1,0.538,0.538,0,0,0-.177.03l-5.616,1.87,1.872-5.62a0.561,0.561,0,0,0-.069-0.49A16.384,16.384,0,1,1,38.5,1410.88Z" transform="translate(-21 -1377)"/>
</svg>
