<?xml version="1.0" encoding="utf-8"?>
<!-- (c) Livemaster LLC - https://livemaster.ru -->
<!DOCTYPE svg PUBLIC "-//W3C//DTD SVG 1.1//EN" "http://www.w3.org/Graphics/SVG/1.1/DTD/svg11.dtd">
<svg xmlns="http://www.w3.org/2000/svg" width="17" height="18" viewBox="0 0 17 18">
	<path fill="#fff" fill-rule="evenodd" d="M1358.73,1481.39l-4.18-4.45a7.383,7.383,0,0,0,1.66-4.67,7.107,7.107,0,1,0-7.1,7.26,6.929,6.929,0,0,0,4.07-1.31l4.22,4.49a0.885,0.885,0,0,0,.67.29,0.9,0.9,0,0,0,.64-0.26A0.969,0.969,0,0,0,1358.73,1481.39Zm-9.62-14.49a5.371,5.371,0,1,1-5.26,5.37A5.321,5.321,0,0,1,1349.11,1466.9Z" transform="translate(-1342 -1465)"/>
</svg>
