<?xml version="1.0" encoding="utf-8"?>
<!-- (c) Livemaster LLC - https://livemaster.ru -->
<!DOCTYPE svg PUBLIC "-//W3C//DTD SVG 1.1//EN" "http://www.w3.org/Graphics/SVG/1.1/DTD/svg11.dtd">
<svg xmlns="http://www.w3.org/2000/svg" width="21" height="30" viewBox="0 0 21 30">
	<path fill="#fff" fill-rule="evenodd" d="M34.575,949.853a3.033,3.033,0,0,0,.968.147,2.739,2.739,0,0,0,1.755-.588l15.976-12.991A1.8,1.8,0,0,0,54,935a1.73,1.73,0,0,0-.726-1.422l-16.037-12.99a2.953,2.953,0,0,0-2.723-.441A2.029,2.029,0,0,0,33,922.009V947.99A2.114,2.114,0,0,0,34.575,949.853Zm3.389-22.991L48.01,935l-10.046,8.137V926.862Z" transform="translate(-33 -920)"/>
</svg>
