<?xml version="1.0" encoding="utf-8"?>
<!-- (c) Livemaster LLC - https://livemaster.ru -->
<!DOCTYPE svg PUBLIC "-//W3C//DTD SVG 1.1//EN" "http://www.w3.org/Graphics/SVG/1.1/DTD/svg11.dtd">
<svg width="156" height="164" viewBox="0 0 156 164" fill="none" xmlns="http://www.w3.org/2000/svg">
	<path d="M22.7438 164C16.7152 163.989 10.9367 161.588 6.67384 157.323C2.41096 153.057 0.0111538 147.276 0 141.244L0 22.7561C0.0111538 16.7242 2.41096 10.9426 6.67384 6.67743C10.9367 2.41225 16.7152 0.0111598 22.7438 0L133.256 0C139.285 0.0111598 145.063 2.41225 149.326 6.67743C153.589 10.9426 155.989 16.7242 156 22.7561V141.244C155.989 147.276 153.589 153.057 149.326 157.323C145.063 161.588 139.285 163.989 133.256 164H22.7438ZM22.7438 3.3142C17.5864 3.31979 12.6418 5.37214 8.995 9.02095C5.34815 12.6698 3.2969 17.617 3.29132 22.7772V141.244C3.2969 146.404 5.34815 151.351 8.995 155C12.6418 158.649 17.5864 160.701 22.7438 160.707H133.256C138.414 160.701 143.358 158.649 147.005 155C150.652 151.351 152.703 146.404 152.709 141.244V22.7561C152.703 17.5959 150.652 12.6486 147.005 8.99984C143.358 5.35103 138.414 3.29868 133.256 3.29309L22.7438 3.3142Z" fill="#bababa"/>
	<path d="M132.665 162.818H22.1531C16.2794 162.812 10.648 160.475 6.49466 156.32C2.34136 152.164 0.00558598 146.53 2.5151e-09 140.653V22.165C0.00558598 16.2882 2.34136 10.6537 6.49466 6.49816C10.648 2.34262 16.2794 0.00558899 22.1531 2.51645e-09H132.665C138.539 0.00558899 144.171 2.34262 148.324 6.49816C152.477 10.6537 154.813 16.2882 154.819 22.165V140.653C154.813 146.53 152.477 152.164 148.324 156.32C144.171 160.475 138.539 162.812 132.665 162.818ZM22.1531 2.11095C16.839 2.11654 11.7442 4.23117 7.98653 7.99082C4.22889 11.7505 2.1154 16.8481 2.10982 22.165V140.653C2.1154 145.97 4.22889 151.067 7.98653 154.827C11.7442 158.587 16.839 160.701 22.1531 160.707H132.665C137.98 160.701 143.074 158.587 146.832 154.827C150.59 151.067 152.703 145.97 152.709 140.653V22.165C152.703 16.8481 150.59 11.7505 146.832 7.99082C143.074 4.23117 137.98 2.11654 132.665 2.11095H22.1531Z" transform="translate(0.590332 0.591064)" fill="#bababa"/>
	<path d="M5.99426 117.137C5.20214 117.114 4.43035 116.881 3.75785 116.461L2.23878 115.575C1.21197 114.979 0.462576 114 0.154243 112.853C-0.15409 111.706 0.00368632 110.484 0.593122 109.453L18.5899 78.4642C10.1968 72.4729 4.22018 63.6776 1.73837 53.6652C-0.74345 43.6527 0.432961 33.0825 5.05535 23.8616C9.67773 14.6407 17.4417 7.37628 26.9465 3.3791C36.4512 -0.618076 47.0708 -1.08483 56.8893 2.06306C66.7077 5.21095 75.0784 11.7662 80.4911 20.546C85.9038 29.3259 88.0021 39.7522 86.4073 49.9438C84.8126 60.1354 79.6298 69.4212 71.7941 76.1257C63.9584 82.8303 53.9858 86.5121 43.6756 86.5069C38.32 86.5158 33.0101 85.5205 28.0208 83.5727L9.89742 114.878C9.5025 115.558 8.93616 116.123 8.25495 116.515C7.57375 116.908 6.80151 117.115 6.01536 117.116L5.99426 117.137ZM3.12491 110.973C2.92492 111.329 2.87255 111.75 2.97905 112.145C3.08555 112.539 3.34243 112.876 3.69456 113.084L5.21363 113.97C5.45117 114.107 5.72016 114.18 5.99426 114.181H6.39512C6.59434 114.127 6.78083 114.034 6.9438 113.907C7.10677 113.78 7.24298 113.622 7.34454 113.443L24.9826 82.876L20.763 80.4273L3.12491 110.973ZM43.6756 2.74424C35.6981 2.74425 27.8996 5.11087 21.2663 9.54491C14.6329 13.9789 9.46243 20.2813 6.40859 27.6552C3.35475 35.029 2.55466 43.1433 4.10947 50.972C5.66428 58.8008 9.50417 65.9926 15.1437 71.6381C20.7832 77.2835 27.9691 81.1293 35.7928 82.689C43.6166 84.2487 51.7269 83.4525 59.0984 80.4008C66.4698 77.3492 72.7715 72.1793 77.2066 65.5446C81.6418 58.91 84.0112 51.1086 84.0154 43.1268C84.0042 32.4238 79.7512 22.162 72.1891 14.5918C64.6269 7.02164 54.3729 2.76101 43.6756 2.74424Z" transform="translate(34.5352 22.8616)" fill="#bababa"/>
	<path d="M43.0752 0.000116596C33.9667 -0.0211784 25.0904 2.87503 17.7456 8.26487C10.4007 13.6547 4.97281 21.2552 2.25635 29.954C-0.460109 38.6527 -0.322544 47.9931 2.64892 56.608C5.62038 65.2229 11.2697 72.66 18.7701 77.831L0.520205 109.495C0.00612028 110.389 -0.133771 111.45 0.131056 112.447C0.395883 113.443 1.04393 114.295 1.93378 114.815L3.45286 115.701C3.8945 115.959 4.38262 116.127 4.8892 116.195C5.39578 116.263 5.91085 116.231 6.40485 116.099C6.89884 115.968 7.36203 115.74 7.76784 115.429C8.17365 115.118 8.51408 114.73 8.7696 114.287L27.1672 82.3273C33.0004 84.6562 39.2755 85.6677 45.5445 85.2897C51.8136 84.9116 57.9218 83.1533 63.4332 80.1403C68.9446 77.1273 73.723 72.9339 77.4274 67.8596C81.1318 62.7852 83.6707 56.9551 84.8628 50.7856C86.055 44.6161 85.8709 38.2593 84.3239 32.1691C82.7768 26.0789 79.9048 20.4057 75.9131 15.5544C71.9213 10.7031 66.9083 6.79355 61.2318 4.1048C55.5554 1.41604 49.3556 0.0144538 43.0752 0.000116596ZM7.20833 113.295C7.0725 113.547 6.88678 113.769 6.66249 113.947C6.43819 114.125 6.18001 114.256 5.90367 114.331C5.62732 114.406 5.33861 114.424 5.0551 114.384C4.77159 114.344 4.49922 114.246 4.25458 114.097L2.84101 113.274C2.58893 113.138 2.36715 112.952 2.18916 112.728C2.01116 112.503 1.88069 112.245 1.80569 111.969C1.73068 111.692 1.71271 111.403 1.75287 111.12C1.79302 110.836 1.89047 110.563 2.03928 110.319L19.9727 79.2453L25.2262 82.3273L7.20833 113.295ZM43.0752 83.7416C34.9749 83.7458 27.0553 81.3463 20.318 76.8466C13.5808 72.3469 8.32864 65.9492 5.22588 58.4626C2.12312 50.976 1.30913 42.7369 2.88687 34.7874C4.46462 26.8379 8.36321 19.5352 14.0896 13.8028C19.8159 8.07042 27.1127 4.16596 35.0571 2.58328C43.0015 1.00059 51.2366 1.81077 58.7208 4.91134C66.2049 8.01192 72.6019 13.2636 77.1027 20.0021C81.6034 26.7407 84.0057 34.6633 84.0057 42.768C83.989 53.6242 79.6713 64.0309 71.999 71.7073C64.3267 79.3838 53.9255 83.7038 43.0752 83.7205V83.7416Z" transform="translate(35.1357 23.2204)" fill="#bababa"/>
	<path d="M34.6854 69.3237C27.8319 69.3321 21.1298 67.3063 15.4272 63.5027C9.72461 59.6991 5.27773 54.2885 2.6492 47.9557C0.0206643 41.6228 -0.671407 34.6521 0.66054 27.9256C1.99249 21.1991 5.2886 15.019 10.1319 10.1672C14.9751 5.31541 21.1479 2.00999 27.8691 0.669129C34.5904 -0.671732 41.5582 0.0122176 47.8909 2.63445C54.2235 5.25668 59.6366 9.69935 63.4451 15.4004C67.2536 21.1014 69.2865 27.8046 69.2865 34.6619C69.2753 43.844 65.6276 52.6475 59.1423 59.1443C52.657 65.641 43.8626 69.3014 34.6854 69.3237ZM34.6854 2.9131C28.4262 2.9131 22.3075 4.77018 17.1031 8.2495C11.8988 11.7288 7.84247 16.6741 5.44716 22.46C3.05185 28.2459 2.42513 34.6125 3.64625 40.7548C4.86737 46.8971 7.88148 52.5391 12.3074 56.9675C16.7334 61.3958 22.3724 64.4115 28.5114 65.6333C34.6503 66.8551 41.0135 66.228 46.7963 63.8314C52.5791 61.4348 57.5217 57.3763 60.9992 52.1692C64.4766 46.962 66.3327 40.84 66.3327 34.5774C66.2994 26.1898 62.9544 18.1552 57.0266 12.2242C51.0988 6.29322 43.0686 2.94646 34.6854 2.9131Z" transform="translate(43.3779 31.1577)" fill="#bababa"/>
	<path d="M34.1157 5.86877e-05C27.3817 -0.0124441 20.7951 1.97301 15.1887 5.70541C9.58236 9.43782 5.2079 14.7496 2.61839 20.9692C0.0288721 27.1888 -0.659427 34.0369 0.640513 40.6478C1.94045 47.2588 5.17026 53.3356 9.92161 58.1102C14.673 62.8848 20.7325 66.1426 27.3342 67.4719C33.9359 68.8012 40.7832 68.1422 47.0107 65.5783C53.2381 63.0144 58.5659 58.6607 62.3206 53.0675C66.0752 47.4744 68.0882 40.8929 68.1049 34.1553C68.1161 25.1189 64.5434 16.4472 58.171 10.0437C51.7986 3.64018 43.1472 0.0280109 34.1157 5.86877e-05ZM34.1157 66.4951C27.7211 66.5035 21.4678 64.6139 16.1468 61.0654C10.8259 57.5169 6.67646 52.4691 4.22358 46.5605C1.77071 40.6519 1.12459 34.1481 2.36699 27.872C3.60939 21.5959 6.68447 15.8296 11.2032 11.3026C15.7218 6.77553 21.4811 3.69127 27.7522 2.44C34.0232 1.18874 40.5244 1.8267 46.433 4.27318C52.3416 6.71966 57.3922 10.8647 60.9457 16.1839C64.4992 21.503 66.3959 27.7573 66.3959 34.1553C66.3848 42.7216 62.9816 50.9345 56.9315 56.9958C50.8814 63.057 42.6774 66.4728 34.1157 66.4951Z" transform="translate(43.9478 31.6642)" fill="#bababa"/>
	<path d="M3.31242 0H0V60.8799H3.31242V0Z" transform="translate(18.3135 17.6687)" fill="#bababa"/>
	<path d="M2.10982 0H0V59.6978H2.10982V0Z" transform="translate(18.9038 18.2598)" fill="#bababa"/>
	<path d="M117.538 0H0V3.3142H117.538V0Z" transform="translate(18.5454 17.6687)" fill="#bababa"/>
	<path d="M116.335 0H0V2.11095H116.335V0Z" transform="translate(19.1357 18.2598)" fill="#bababa"/>
	<path d="M3.31241 0H-3.86319e-06V60.8799H3.31241V0Z" transform="translate(133.805 17.6687)" fill="#bababa"/>
	<path d="M2.10982 0H-1.9316e-06V59.6978H2.10982V0Z" transform="translate(134.417 18.2598)" fill="#bababa"/>
	<path d="M19.0306 0H0V3.3142H19.0306V0Z" transform="translate(18.5454 75.2344)" fill="#bababa"/>
	<path d="M17.828 0H0V2.11095H17.828V0Z" transform="translate(19.1357 75.8466)" fill="#bababa"/>
	<path d="M18.1655 0H3.54126e-06V3.3142H18.1655V0Z" transform="translate(118.657 75.2344)" fill="#bababa"/>
	<path d="M16.984 0H0V2.11095H16.984V0Z" transform="translate(119.247 75.8466)" fill="#bababa"/>
	<path d="M3.31242 -2.25474e-06H0V60.8799H3.31242V-2.25474e-06Z" transform="translate(18.3135 83.1082)" fill="#bababa"/>
	<path d="M2.10982 3.22106e-06H0V59.6978H2.10982V3.22106e-06Z" transform="translate(18.9038 83.6993)" fill="#bababa"/>
	<path d="M118.825 0H0V3.3142H118.825V0Z" transform="translate(18.3135 141.729)" fill="#bababa"/>
	<path d="M117.622 0H0V2.11095H117.622V0Z" transform="translate(18.9038 142.342)" fill="#bababa"/>
	<path d="M3.31241 -2.25474e-06H-3.86319e-06V60.8799H3.31241V-2.25474e-06Z" transform="translate(133.805 83.1082)" fill="#bababa"/>
	<path d="M2.10982 3.22106e-06H-1.9316e-06V59.6978H2.10982V3.22106e-06Z" transform="translate(134.417 83.6993)" fill="#bababa"/>
	<path d="M22.4063 -2.25474e-06H0V3.31419H22.4063V-2.25474e-06Z" transform="translate(18.5454 83.1082)" fill="#bababa"/>
	<path d="M21.2037 3.22106e-06H0V2.11096H21.2037V3.22106e-06Z" transform="translate(19.1357 83.6993)" fill="#bababa"/>
	<path d="M21.2037 -2.25474e-06H0V3.31419H21.2037V-2.25474e-06Z" transform="translate(115.618 83.1082)" fill="#bababa"/>
	<path d="M20.0011 3.22106e-06H3.86319e-06V2.11096H20.0011V3.22106e-06Z" transform="translate(116.209 83.6993)" fill="#bababa"/>
	<path d="M6.07628 25.9858V21.3206H9.83175V25.9225L6.07628 25.9858ZM6.35056 19.9907V19.3997C6.35056 15.1778 7.25778 14.1645 9.95835 11.4836L10.4014 11.0403C10.988 10.5531 11.4657 9.94814 11.8037 9.26449C12.1417 8.58084 12.3325 7.83378 12.3635 7.07169C12.3712 6.52754 12.2651 5.98779 12.0521 5.48706C11.8391 4.98633 11.5238 4.53567 11.1265 4.164C10.7292 3.79232 10.2586 3.50783 9.74502 3.32877C9.23139 3.14971 8.68602 3.08003 8.1439 3.12421C7.44493 3.11788 6.75277 3.26206 6.1144 3.54697C5.47602 3.83187 4.90637 4.25084 4.4441 4.77543C3.98182 5.30003 3.63773 5.91798 3.43519 6.58735C3.23265 7.25673 3.17638 7.96186 3.27022 8.65491V9.24598H-1.60966e-06V8.65491C-1.60966e-06 3.39864 3.18583 -8.05265e-07 8.12281 -8.05265e-07C12.7222 -8.05265e-07 15.8236 2.76535 15.8236 6.88171C15.8236 10.2381 13.9037 12.0324 11.8783 13.9323L11.5407 14.2489C10.7764 14.8429 10.1894 15.6352 9.84347 16.5395C9.49755 17.4439 9.40593 18.4258 9.57858 19.3786V19.9696L6.35056 19.9907Z" transform="translate(69.729 52.5628)" fill="#bababa"/>
	<path d="M7.63754 1.12737e-06C11.8572 1.12737e-06 14.7265 2.53315 14.7265 6.33286C14.7265 9.60484 12.7855 11.2514 10.6335 13.2568C9.81827 13.9093 9.19261 14.7684 8.82158 15.7447C8.45055 16.721 8.34768 17.779 8.52367 18.8086H6.41385C6.41385 14.5867 7.25777 13.8901 10.2959 10.8503C10.9341 10.3061 11.4516 9.63432 11.8149 8.87815C12.1783 8.12198 12.3795 7.29813 12.4057 6.45952C12.4172 5.83119 12.2962 5.20751 12.0507 4.62906C11.8052 4.05062 11.4408 3.53039 10.981 3.10224C10.5212 2.67409 9.9765 2.34762 9.38226 2.1441C8.78802 1.94057 8.15761 1.86454 7.53205 1.92097C3.58669 1.92097 2.10982 4.91852 2.10982 8.08495H1.9316e-06C0.0843947 3.63084 2.51068 1.12737e-06 7.63754 1.12737e-06ZM8.73465 24.7615H6.16067V21.3629H8.71355L8.73465 24.7615Z" transform="translate(70.2358 53.1749)" fill="#bababa"/>
</svg>
