<svg width="296" height="44" viewBox="0 0 296 44" fill="none" xmlns="http://www.w3.org/2000/svg">
<path d="M148.653 25.2366C151.77 23.5493 151.555 19.0579 151.555 19.0579H149.463C149.501 20.3363 149.177 21.5996 148.53 22.7025C148.115 23.2858 147.574 23.7683 146.947 24.1145C146.321 24.4607 145.624 24.6618 144.91 24.7028C143.474 24.7642 142.505 24.7028 142.075 24.7028V19.0579H139.842V32.5199H142.075V26.5374H143.541C144.212 26.5478 144.881 26.4965 145.542 26.384L149.763 32.5935H152.42L147.616 25.7705L148.653 25.2366ZM82.2753 18.6774C79.3853 18.6774 78.0845 19.7819 77.1273 21.2299C77.1273 20.9477 77.1273 19.5794 76.1272 19.1376C75.2891 18.8888 74.4042 18.8404 73.544 18.9965V20.6164C73.7505 20.5654 73.9662 20.5656 74.1726 20.6169C74.379 20.6683 74.5697 20.7692 74.7282 20.9109C74.8886 21.0473 75.0111 21.2227 75.0841 21.4202C75.1614 21.6149 75.1888 21.8258 75.1639 22.0337V39.4472H77.3973V31.1884C78.6806 32.0244 80.1627 32.505 81.6924 32.5812C82.9621 32.6033 84.2107 32.2547 85.2853 31.5779C86.3599 30.9011 87.2137 29.9256 87.7423 28.7709C88.1974 27.6309 88.4043 26.407 88.3493 25.1808C88.2942 23.9545 87.9786 22.7541 87.4232 21.6595C86.9223 20.7285 86.1724 19.9552 85.2573 19.426C84.3524 18.9036 83.3196 18.6443 82.2753 18.6774ZM85.4843 28.4948C85.0705 29.1857 84.4841 29.7571 83.7827 30.1529C83.0814 30.5488 82.2891 30.7555 81.4838 30.7527C80.045 30.6831 78.6564 30.2018 77.4832 29.3661L77.4034 29.3047V25.071C77.4175 24.8508 77.4442 24.6316 77.4832 24.4144C77.5752 23.7544 77.8143 23.1235 78.1828 22.5683C78.5514 22.013 79.04 21.5477 79.6125 21.2067C80.1851 20.8656 80.8269 20.6576 81.4906 20.5979C82.1544 20.5382 82.823 20.6284 83.4472 20.8618C84.1755 21.139 84.8126 21.6126 85.288 22.2301C85.7659 22.8547 86.0669 23.5965 86.1593 24.3776C86.3491 25.7624 86.136 27.1726 85.5457 28.4395L85.4843 28.4948ZM131.166 18.6774C128.282 18.6774 126.975 19.7819 126.011 21.2299C126.011 20.9477 126.011 19.5794 125.011 19.1376C124.179 18.8735 123.295 18.8125 122.434 18.9597V20.5795C122.636 20.5316 122.846 20.5316 123.048 20.5795C123.253 20.6293 123.442 20.7283 123.6 20.8679C123.754 21.0104 123.875 21.1841 123.956 21.3772C124.033 21.5719 124.061 21.7828 124.036 21.9908V39.4472H126.269V31.1884C127.552 32.0244 129.035 32.505 130.564 32.5812C131.834 32.6026 133.082 32.2536 134.157 31.5769C135.231 30.9002 136.085 29.9251 136.614 28.7709C137.069 27.6309 137.276 26.407 137.221 25.1808C137.166 23.9545 136.85 22.7541 136.295 21.6595C135.795 20.7317 135.05 19.9591 134.141 19.426C133.234 18.9163 132.206 18.6579 131.166 18.6774ZM134.375 28.4948C133.961 29.1857 133.374 29.7571 132.673 30.1529C131.972 30.5488 131.179 30.7555 130.374 30.7527C128.941 30.6723 127.561 30.1825 126.398 29.3415L126.306 29.2801V25.0464C126.318 24.8254 126.349 24.6058 126.398 24.3899C126.558 23.2569 127.125 22.221 127.993 21.4754C128.606 21.0336 129.317 20.7471 130.065 20.6402C130.813 20.5334 131.576 20.6094 132.288 20.8618C133.017 21.139 133.654 21.6126 134.129 22.2301C134.607 22.8547 134.908 23.5965 135 24.3776C135.185 25.7624 134.973 27.1712 134.387 28.4395L134.375 28.4948ZM90.9943 18.1498V32.3971H93.148V23.58L97.9953 29.2495L102.873 23.58V32.3971H105.027V18.1498L98.0259 26.3165L90.9943 18.1498ZM120.483 31.1454C119.734 31.0779 119.704 29.9183 119.704 29.9183V22.8989C119.704 20.101 116.943 18.7511 113.752 18.7511C112.031 18.6778 110.318 19.0209 108.757 19.7512L109.218 21.4754C111.141 20.463 113.373 20.2048 115.476 20.7514C116.046 20.8184 116.577 21.0732 116.986 21.4754C117.403 21.8785 117.668 22.4142 117.734 22.9909V25.2305C117.222 24.9744 116.685 24.7689 116.133 24.6169C115.225 24.3469 112.052 23.8745 109.936 24.9973C109.214 25.393 108.624 25.9899 108.236 26.7154C107.844 27.4439 107.677 28.2726 107.757 29.0961C107.757 29.949 108.463 32.6978 112.666 32.6978C116.869 32.6978 118.066 30.0349 118.066 30.0349C118.066 30.0349 118.066 31.8265 118.925 32.3481C119.729 32.6595 120.604 32.7423 121.453 32.5874V31.127C121.122 31.1639 120.789 31.1639 120.459 31.127L120.483 31.1454ZM117.691 27.8996C117.566 28.4325 117.313 28.9272 116.955 29.3415C115.797 30.3697 114.294 30.9259 112.746 30.9C110.807 30.9 109.936 29.8999 109.936 28.5807C109.936 27.4087 110.856 26.1263 113.292 26.0466C114.816 25.9804 116.331 26.308 117.691 26.9976V27.9119V27.8996ZM166.631 31.1454C165.87 31.0779 165.851 29.9183 165.851 29.9183V22.8989C165.851 20.101 163.103 18.7511 159.924 18.7511C158.201 18.6711 156.484 19.0145 154.923 19.7512L155.353 21.4815C157.271 20.4726 159.495 20.2145 161.593 20.7575C162.175 20.8094 162.72 21.0634 163.133 21.4754C163.549 21.8846 163.813 22.4236 163.882 23.0032V25.2428C163.38 24.9816 162.851 24.7759 162.305 24.6292C161.391 24.3592 158.225 23.8868 156.114 25.0096C155.391 25.4068 154.799 26.006 154.412 26.7338C154.024 27.4617 153.856 28.2868 153.929 29.1083C153.929 29.9612 154.641 32.7101 158.838 32.7101C163.035 32.7101 164.238 30.0471 164.238 30.0471C164.238 30.0471 164.238 31.8388 165.078 32.3603C165.881 32.6719 166.753 32.7547 167.6 32.5996V31.127C167.284 31.1578 166.965 31.1578 166.649 31.127L166.631 31.1454ZM163.827 27.8996C163.713 28.4331 163.466 28.9291 163.109 29.3415C161.957 30.3696 160.461 30.9261 158.918 30.9C156.979 30.9 156.108 29.8999 156.108 28.5807C156.108 27.4087 157.016 26.1263 159.446 26.0466C160.964 25.9786 162.473 26.3063 163.827 26.9976V27.9119V27.8996ZM63.6469 12.8852C61.7664 12.736 59.8951 13.2697 58.3762 14.3885C57.6641 14.9378 57.0949 15.6507 56.7168 16.4667C56.3387 17.2827 56.1629 18.1779 56.2042 19.0763C56.1468 19.9401 56.2986 20.805 56.6468 21.5976C56.9951 22.3902 57.5294 23.087 58.2044 23.6291C59.1993 24.4351 60.3846 24.9717 61.6466 25.1876L59.9961 27.6419C57.9283 30.765 56.8484 30.7098 56.4864 30.6423C55.9625 30.6047 55.4533 30.4517 54.9954 30.1944L53.8173 32.0045C54.5998 32.4753 55.4832 32.7529 56.3944 32.8144H56.6153C58.3885 32.8144 60.0145 31.5872 61.8368 28.8138C62.9167 27.1878 63.6285 26.0957 64.0457 25.4575H68.5556V32.5751H71.0099V12.8852H63.6469ZM68.5556 23.3591H63.2542C62.4443 23.3591 59.5359 23.2364 58.7076 20.5243C58.3963 19.6694 58.3747 18.7359 58.6462 17.8675C58.9164 16.9985 59.4693 16.2448 60.217 15.7261C61.2551 15.1104 62.4663 14.8518 63.6653 14.9898H68.574L68.5556 23.3591Z" fill="black"/>
<path d="M21.9969 43.9999C26.349 44.0011 30.6037 42.7117 34.2229 40.2947C37.842 37.8777 40.6632 34.4417 42.3295 30.4213C43.9958 26.4009 44.4324 21.9766 43.5841 17.708C42.7358 13.4394 40.6407 9.51829 37.5638 6.44049C34.4868 3.36269 30.5663 1.26649 26.2979 0.417001C22.0296 -0.43249 17.6052 0.00288601 13.5843 1.66807C9.56338 3.33325 6.12661 6.15343 3.70861 9.77195C1.29061 13.3905 1.69217e-07 17.6448 0 21.9968C0.00162553 27.8309 2.31948 33.4255 6.44418 37.5514C10.5689 41.6772 16.1629 43.9967 21.9969 43.9999Z" fill="url(#paint0_linear)"/>
<path d="M34.1704 25.2612L39.9994 21.9969L34.1704 18.7388L37.5881 13.0018L30.9061 13.0877L30.9982 6.41194L25.2612 9.81732L21.9969 3.98829L18.7388 9.81732L13.0018 6.39967L13.0877 13.0754L6.41193 12.9895L9.81732 18.7388L3.98828 21.9969L9.81732 25.2612L6.39966 30.9982L13.0754 30.9062L12.9895 37.5881L18.7265 34.1704L21.9847 39.9995L25.2489 34.1704L30.9859 37.5881L30.8939 30.9062L37.5758 30.9982L34.1704 25.2612ZM29.8201 35.5387L24.8194 32.5199L21.9969 37.6187L19.1683 32.5812L14.1676 35.5878L14.2474 29.7894L8.44903 29.8692L11.4494 24.8685L6.35671 22.0092L11.431 19.1806L8.43062 14.1799L14.229 14.2597L14.1492 8.46131L19.1499 11.4617L21.9969 6.36899L24.8317 11.431L29.8262 8.43063L29.7465 14.229L35.551 14.1124L32.5505 19.1131L37.6371 21.9724L32.5812 24.8317L35.5878 29.8263L29.7894 29.7465L29.8201 35.5387ZM30.9982 20.2912C30.5003 20.1261 30.0685 19.8058 29.7659 19.3774C29.4634 18.949 29.306 18.4349 29.317 17.9105C29.3297 17.5617 29.4199 17.2201 29.5808 16.9103C29.8099 16.5737 29.9531 16.1861 29.998 15.7813C30.0264 15.392 29.9568 15.0018 29.7956 14.6462C29.3661 13.9713 28.4211 13.8792 27.2001 14.4621C26.8501 14.6324 26.4665 14.7225 26.0773 14.726C25.556 14.7243 25.0488 14.5566 24.6292 14.2474C24.1957 13.9507 23.8722 13.5194 23.7088 13.0202C23.1995 11.5906 22.4817 11.2899 21.9969 11.2899C21.5122 11.2899 20.7698 11.5906 20.2912 13.0202C20.1364 13.5104 19.8317 13.9397 19.4199 14.2474C19.0573 14.5134 18.6287 14.6746 18.1807 14.7136C17.7327 14.7526 17.2827 14.6677 16.8796 14.4683C15.6525 13.8854 14.7076 13.9897 14.2781 14.6585C14.1322 15.0094 14.0753 15.3909 14.1124 15.7691C14.1504 16.1582 14.2808 16.5327 14.4928 16.8613C14.7299 17.3401 14.8042 17.8832 14.7046 18.4081C14.6049 18.933 14.3367 19.411 13.9406 19.7696C13.6807 20.0092 13.3704 20.1875 13.0325 20.2912C11.6028 20.8005 11.3022 21.5183 11.3022 21.9969C11.3022 22.4755 11.6028 23.2241 13.0325 23.7088C13.3663 23.8184 13.6727 23.9983 13.931 24.2365C14.1893 24.4747 14.3934 24.7655 14.5296 25.0894C14.653 25.4081 14.7134 25.7478 14.7076 26.0895C14.6963 26.4378 14.6083 26.7793 14.4499 27.0897C14.2074 27.4243 14.0533 27.8147 14.0019 28.2248C13.9714 28.6117 14.0389 29 14.1983 29.3538C14.6278 30.0349 15.5789 30.1269 16.7999 29.544C17.1731 29.3665 17.5832 29.2803 17.9964 29.2924C18.5099 29.3011 19.0078 29.4706 19.4199 29.7772C19.8317 30.0849 20.1364 30.5141 20.2912 31.0043C20.8004 32.434 21.5183 32.7346 21.9969 32.7346C22.4755 32.7346 23.2241 32.434 23.7088 31.0043C23.8638 30.5157 24.1678 30.0879 24.5783 29.7809C24.9887 29.4739 25.485 29.3031 25.9975 29.2924C26.387 29.2938 26.771 29.384 27.1203 29.5563C28.3475 30.133 29.2863 30.0349 29.7158 29.3661C29.879 29.009 29.9487 28.6162 29.9183 28.2248C29.8832 27.835 29.7525 27.4599 29.5379 27.1326C29.3775 26.8183 29.2868 26.473 29.272 26.1204C29.2571 25.7678 29.3185 25.4161 29.452 25.0894C29.5893 24.761 29.7974 24.467 30.0615 24.2283C30.3256 23.9897 30.6392 23.8123 30.9798 23.7088C32.4094 23.1996 32.7101 22.4817 32.7101 21.9969C32.7101 21.5122 32.391 20.8005 30.9982 20.2912ZM30.5994 22.5798C30.1074 22.7449 29.6573 23.015 29.2802 23.3714C28.9027 23.7138 28.6016 24.1319 28.3966 24.5985C28.2062 25.0827 28.1144 25.6001 28.1266 26.1202C28.147 26.6385 28.2766 27.1466 28.507 27.6112C28.8506 28.323 28.7893 28.6114 28.7586 28.685H28.6113C28.2879 28.667 27.9729 28.5746 27.691 28.415C27.1623 28.1656 26.5817 28.0457 25.9975 28.0653C25.2436 28.0691 24.5095 28.3074 23.8971 28.7472C23.2847 29.187 22.8243 29.8064 22.5798 30.5196C22.316 31.2498 22.046 31.44 21.9969 31.4522C21.9478 31.4645 21.6779 31.2498 21.4202 30.5196C21.2553 30.0286 20.987 29.5788 20.6335 29.2003C20.2799 28.8219 19.8492 28.5238 19.3706 28.326C18.8919 28.1283 18.3764 28.0355 17.8588 28.0541C17.3412 28.0726 16.8337 28.202 16.3704 28.4334C16.0885 28.5931 15.7735 28.6854 15.45 28.7034H15.2966C15.2688 28.3282 15.3565 27.9534 15.5482 27.6296C15.7844 27.1812 15.9225 26.6875 15.9531 26.1816C15.9718 25.661 15.8798 25.1423 15.6832 24.6599C15.485 24.1804 15.1857 23.7492 14.8057 23.3959C14.4261 23.0443 13.9766 22.7767 13.4865 22.6105C12.7441 22.3467 12.5539 22.0767 12.5539 21.9969C12.5539 21.9172 12.7441 21.6779 13.4865 21.4202C13.9778 21.2537 14.4277 20.9838 14.8057 20.6286C15.1868 20.2786 15.4863 19.8493 15.6832 19.3708C15.8756 18.8979 15.9675 18.3901 15.9531 17.8798C15.9352 17.3612 15.8055 16.8526 15.5727 16.3888C15.2352 15.677 15.2966 15.3887 15.3211 15.3212H15.4745C15.7968 15.3459 16.1104 15.4378 16.3949 15.5911C16.899 15.849 17.4549 15.9895 18.0209 16.0022C18.7755 15.9979 19.51 15.7594 20.1233 15.3198C20.7366 14.8802 21.1983 14.2611 21.4447 13.5479C21.7024 12.8055 21.9724 12.6153 22.0215 12.6153C22.0706 12.6153 22.3405 12.8055 22.6044 13.5479C22.8521 14.2503 23.3161 14.8561 23.9297 15.2782C24.5335 15.7098 25.2553 15.9455 25.9975 15.9531C26.5571 15.943 27.1078 15.8111 27.6112 15.5666C27.8954 15.4124 28.2091 15.3204 28.5316 15.2966H28.6788C28.71 15.6721 28.6219 16.0478 28.4273 16.3704C28.1992 16.8359 28.072 17.3444 28.054 17.8625C28.036 18.3806 28.1277 18.8967 28.323 19.3769C28.5211 19.8565 28.8204 20.2876 29.2004 20.6409C29.58 20.9925 30.0295 21.2601 30.5196 21.4263C31.262 21.6901 31.4522 21.9601 31.4522 22.0092C31.4522 22.0583 31.2804 22.3467 30.538 22.6228L30.5994 22.5798ZM22.0092 16.4072C20.9033 16.4059 19.8221 16.7337 18.9032 17.3488C17.9842 17.964 17.2691 18.8388 16.849 19.8617C16.4197 20.8807 16.3085 22.0057 16.5299 23.0891C16.7473 24.1724 17.2805 25.1671 18.0623 25.9478C18.8441 26.7286 19.8396 27.2604 20.9232 27.4762C22.0067 27.6953 23.131 27.5842 24.1506 27.1572C25.343 26.6606 26.3267 25.7664 26.9344 24.6266C27.5421 23.4868 27.7362 22.1717 27.4839 20.9049C27.2315 19.6381 26.5482 18.4978 25.5502 17.6778C24.5521 16.8579 23.3009 16.4089 22.0092 16.4072ZM22.0092 26.4086C21.135 26.4074 20.2809 26.1469 19.5549 25.66C18.7061 25.0802 18.084 24.2248 17.794 23.2387C17.504 22.2526 17.5639 21.1965 17.9636 20.2495C18.3633 19.3025 19.0781 18.5229 19.987 18.0429C20.8959 17.5628 21.9428 17.4118 22.9503 17.6155C23.9578 17.8191 24.8638 18.365 25.5148 19.1604C26.1658 19.9558 26.5217 20.9519 26.5222 21.9798C26.5226 23.0077 26.1676 24.0041 25.5173 24.8001C24.867 25.5961 23.9614 26.1427 22.9541 26.3472C22.647 26.4085 22.3346 26.4393 22.0215 26.4393L22.0092 26.4086Z" fill="white"/>
<path d="M193.15 13.0016H178.939V15.1492H185.179V32.3786H187.333V15.1492H193.15V13.0016Z" fill="black"/>
<path d="M204.133 29.1512V23.5491C204.133 19.8677 201.329 18.8062 198.322 18.8062C196.681 18.8112 195.061 19.18 193.579 19.8861L194.009 21.6102C195.276 20.976 196.686 20.68 198.101 20.7512C199.819 20.7512 202.188 21.4016 202.188 23.5491V25.0586C200.778 24.378 199.237 24.0156 197.672 23.9971C194.868 23.9971 192.499 25.5065 192.499 28.5192C192.499 31.1085 194.868 32.6056 197.242 32.6056C199.181 32.6056 201.537 31.992 202.409 30.2495C202.409 32.8265 203.482 33.2499 205.642 32.8265V31.2926C204.133 31.5196 204.133 30.679 204.133 29.1512ZM202.188 28.0712C201.758 30.0102 199.39 30.8692 197.672 30.8692C196.162 30.8692 194.671 30.2556 194.671 28.5008C194.671 26.568 196.389 25.6967 198.107 25.6967C199.534 25.7548 200.931 26.1233 202.2 26.7766L202.188 28.0712Z" fill="black"/>
<path d="M213.392 19.0273L207.152 32.1579V32.3788H209.508L211.668 27.4272L213.821 22.2609L215.969 27.4272L218.129 32.3788H220.491V32.1579L214.251 19.0273H213.392Z" fill="black"/>
<path d="M233.628 29.1512V23.5491C233.628 19.8677 230.83 18.8062 227.811 18.8062C226.173 18.811 224.558 19.1798 223.08 19.8861L223.51 21.6102C224.775 20.9759 226.183 20.68 227.596 20.7512C229.32 20.7512 231.689 21.4016 231.689 23.5491V25.0586C230.277 24.3773 228.734 24.0149 227.167 23.9971C224.369 23.9971 222 25.5065 222 28.5192C222 31.1085 224.369 32.6056 226.737 32.6056C228.676 32.6056 231.032 31.992 231.91 30.2495C231.91 32.8265 232.977 33.2499 235.137 32.8265V31.2926C233.628 31.5196 233.628 30.679 233.628 29.1512ZM231.48 26.7766V28.0712C231.038 30.0102 228.676 30.8692 226.946 30.8692C225.449 30.8692 223.951 30.2556 223.951 28.5008C223.951 26.568 225.669 25.6967 227.387 25.6967C228.831 25.6196 230.262 25.9973 231.48 26.7766Z" fill="black"/>
<path d="M267.522 25.6967C267.522 34.9557 281.524 34.9557 281.524 25.6967C281.524 16.4378 267.522 16.45 267.522 25.6967ZM269.676 25.6967C269.676 19.0271 279.364 19.0271 279.364 25.6967C279.454 26.9751 279.036 28.2372 278.199 29.2084C277.363 30.1797 276.178 30.7813 274.9 30.8825C273.623 30.9836 272.357 30.576 271.378 29.7484C270.4 28.9209 269.788 27.7403 269.676 26.4637C269.651 26.2088 269.645 25.9525 269.657 25.6967H269.676Z" fill="black"/>
<path d="M293.385 25.4514C293.925 25.1767 294.366 24.7397 294.646 24.2015C294.925 23.6634 295.029 23.0512 294.943 22.4509C294.943 18.9412 291.127 18.9412 289.286 18.9412H284.285V32.8389H289.734C291.243 32.8389 295.827 32.8389 295.827 28.8997C295.865 28.1343 295.645 27.3783 295.202 26.7529C294.76 26.1275 294.119 25.6691 293.385 25.4514ZM293.955 28.7156C293.955 30.8509 292.114 31.0166 289.715 31.0166H286.335V26.4208H289.494C291.937 26.4208 293.955 26.5865 293.955 28.7156ZM293.096 22.7025C293.096 24.6292 291.366 24.7887 289.286 24.7887H286.114V20.5979H289.286C291.918 20.5979 293.096 21.2483 293.096 22.6902V22.7025Z" fill="black"/>
<path d="M204.869 7.87223H205.796V9.39392H206.655V10.1486H205.796V13.689C205.787 13.7642 205.8 13.8403 205.832 13.9086C205.865 13.9769 205.916 14.0348 205.98 14.0756C206.097 14.1 206.218 14.1 206.336 14.0756H206.655V14.7996L206.336 14.8671H205.967C205.807 14.8862 205.645 14.8673 205.494 14.8118C205.342 14.7564 205.206 14.666 205.096 14.548C204.937 14.2906 204.858 13.9915 204.869 13.689V10.1486H204.133V9.39392H204.869V7.87223Z" fill="#807E79"/>
<path d="M210.539 11.5475C210.626 11.5454 210.712 11.5198 210.786 11.4734C210.861 11.427 210.921 11.3615 210.962 11.2837C210.993 11.167 210.993 11.0444 210.962 10.9278C210.974 10.7957 210.949 10.663 210.891 10.544C210.832 10.4249 210.742 10.3242 210.631 10.2529C210.341 10.0924 210.01 10.0199 209.68 10.0442C209.492 10.0217 209.301 10.0445 209.124 10.1107C208.947 10.1768 208.788 10.2845 208.661 10.4247C208.541 10.6096 208.466 10.8195 208.44 11.0382H207.593C207.573 10.7689 207.622 10.4988 207.736 10.2538C207.85 10.0088 208.025 9.79723 208.244 9.63928C208.679 9.3677 209.185 9.2291 209.698 9.24045C210.242 9.21644 210.782 9.34615 211.256 9.61474C211.454 9.72831 211.616 9.89466 211.724 10.0951C211.833 10.2956 211.883 10.5223 211.87 10.7499V13.8853C211.846 13.9569 211.846 14.0345 211.87 14.1062C211.899 14.1431 211.939 14.1712 211.983 14.1874C212.027 14.2037 212.075 14.2074 212.122 14.1982H212.422V14.8731C212.315 14.9086 212.204 14.9312 212.091 14.9406H211.79C211.655 14.9508 211.52 14.9242 211.399 14.8637C211.278 14.8032 211.176 14.7111 211.103 14.597C211.023 14.4392 210.969 14.2692 210.944 14.0939C210.732 14.3581 210.461 14.5684 210.152 14.7075C209.792 14.8949 209.392 14.9917 208.986 14.9897C208.532 15.0029 208.09 14.8352 207.759 14.5234C207.601 14.3772 207.476 14.1995 207.392 14.0019C207.307 13.8042 207.265 13.591 207.268 13.376C207.255 13.1564 207.292 12.9367 207.374 12.7329C207.457 12.5291 207.584 12.3463 207.747 12.1979C208.095 11.9067 208.522 11.7271 208.974 11.6825L210.539 11.5475ZM208.624 14.0019C208.818 14.15 209.055 14.2298 209.299 14.2289C209.625 14.2244 209.946 14.1468 210.238 14.0019C210.471 13.8937 210.667 13.7201 210.804 13.5022C210.94 13.2843 211.01 13.0316 211.005 12.7747V12.0752C210.867 12.1493 210.721 12.2069 210.569 12.247C210.4 12.2955 210.228 12.3324 210.054 12.3575L209.495 12.4188C209.239 12.4469 208.99 12.5196 208.759 12.6336C208.621 12.7028 208.507 12.8116 208.432 12.9461C208.357 13.0806 208.323 13.2346 208.336 13.3883C208.33 13.5084 208.353 13.6281 208.402 13.7379C208.451 13.8477 208.525 13.9444 208.618 14.0203L208.624 14.0019Z" fill="#807E79"/>
<path d="M213.435 7.36299H214.361V14.8426H213.435V7.36299Z" fill="#807E79"/>
<path d="M219.092 9.55351C219.427 9.70413 219.712 9.9467 219.914 10.253C220.104 10.5387 220.226 10.864 220.27 11.204C220.335 11.6097 220.362 12.0206 220.35 12.4312H216.386C216.378 12.9011 216.51 13.3627 216.767 13.7565C216.9 13.9264 217.074 14.0607 217.272 14.1474C217.47 14.2341 217.686 14.2705 217.902 14.2535C218.112 14.2637 218.322 14.2265 218.517 14.1447C218.711 14.063 218.885 13.9387 219.025 13.7811C219.186 13.6054 219.305 13.3957 219.374 13.1675H220.276C220.24 13.4017 220.159 13.6268 220.037 13.8302C219.92 14.0567 219.769 14.2637 219.589 14.4438C219.305 14.7144 218.953 14.9031 218.57 14.9898C218.323 15.0443 218.07 15.0711 217.816 15.0696C217.495 15.0757 217.176 15.0126 216.882 14.8844C216.588 14.7563 216.324 14.5663 216.11 14.3272C215.619 13.7561 215.369 13.0173 215.411 12.2655C215.378 11.4945 215.627 10.7379 216.11 10.1364C216.339 9.87465 216.623 9.66564 216.94 9.52371C217.258 9.38178 217.603 9.31031 217.951 9.31421C218.345 9.30113 218.736 9.38321 219.092 9.55351ZM219.411 11.6826C219.399 11.3509 219.313 11.026 219.16 10.7316C219.037 10.5175 218.858 10.342 218.641 10.2248C218.424 10.1077 218.178 10.0537 217.932 10.0689C217.734 10.0631 217.537 10.1014 217.356 10.181C217.175 10.2606 217.013 10.3795 216.883 10.5291C216.594 10.8437 216.434 11.2555 216.435 11.6826H219.411Z" fill="#807E79"/>
<path d="M221.503 9.39377H222.375V10.173C222.59 9.88365 222.869 9.64835 223.191 9.48581C223.485 9.33802 223.812 9.2663 224.142 9.27719C224.455 9.23802 224.772 9.29369 225.054 9.43698C225.335 9.58028 225.566 9.80461 225.719 10.081C225.895 10.4971 225.971 10.9492 225.94 11.4002V14.8915H225.001V11.4554C225.019 11.184 224.97 10.9123 224.86 10.6639C224.783 10.4965 224.656 10.357 224.497 10.2646C224.337 10.1723 224.153 10.1317 223.97 10.1485C223.792 10.1432 223.614 10.166 223.442 10.216C223.18 10.2935 222.949 10.4499 222.78 10.6639C222.643 10.8257 222.541 11.0136 222.479 11.2161C222.429 11.4872 222.406 11.7627 222.411 12.0383V14.8915H221.503V9.39377Z" fill="#807E79"/>
<path d="M227.486 7.87223H228.412V9.39392H229.271V10.1486H228.412V13.689C228.412 13.8853 228.412 14.0081 228.596 14.0756C228.714 14.1 228.835 14.1 228.952 14.0756H229.271V14.7996L228.952 14.8671H228.584C228.424 14.8888 228.261 14.871 228.109 14.8154C227.957 14.7598 227.821 14.668 227.713 14.548C227.548 14.293 227.468 13.9922 227.486 13.689V10.1486H226.75V9.39392H227.486V7.87223Z" fill="#807E79"/>
<path d="M230.738 13.1369C230.751 13.3859 230.829 13.627 230.965 13.8364C231.123 13.9967 231.316 14.1192 231.528 14.1946C231.741 14.27 231.968 14.2965 232.192 14.272C232.512 14.2837 232.829 14.205 233.106 14.045C233.231 13.9833 233.335 13.8866 233.406 13.7668C233.477 13.6469 233.511 13.5091 233.505 13.37C233.505 13.2597 233.476 13.1513 233.42 13.0562C233.363 12.9612 233.283 12.8831 233.186 12.8301C232.931 12.7196 232.666 12.6353 232.394 12.5785L231.652 12.3945C231.289 12.3148 230.938 12.1868 230.609 12.014C230.422 11.9135 230.266 11.7637 230.158 11.581C230.05 11.3982 229.993 11.1894 229.995 10.9771C229.988 10.7441 230.035 10.5126 230.13 10.3C230.226 10.0874 230.369 9.89933 230.547 9.74991C230.977 9.40463 231.519 9.22986 232.069 9.25905C232.405 9.2316 232.743 9.28337 233.055 9.41019C233.367 9.537 233.645 9.73533 233.867 9.98921C234.087 10.2707 234.204 10.6195 234.198 10.9771H233.339C233.335 10.7816 233.273 10.5917 233.161 10.431C233.013 10.2949 232.837 10.1927 232.645 10.1312C232.453 10.0698 232.251 10.0506 232.051 10.0751C231.768 10.0499 231.486 10.119 231.247 10.2715C231.162 10.3276 231.092 10.4042 231.044 10.4942C230.995 10.5842 230.97 10.6848 230.971 10.7869C230.969 10.9053 231.002 11.0216 231.065 11.1217C231.128 11.2219 231.219 11.3016 231.327 11.3514C231.517 11.4608 231.724 11.5376 231.94 11.5784L232.554 11.7256C233.016 11.814 233.462 11.9691 233.879 12.1858C234.057 12.3082 234.2 12.4753 234.292 12.6703C234.385 12.8653 234.424 13.0812 234.407 13.2964C234.407 13.5334 234.357 13.7678 234.261 13.9844C234.165 14.201 234.024 14.3951 233.849 14.5543C233.369 14.9425 232.758 15.1314 232.143 15.0819C231.832 15.1147 231.517 15.0825 231.22 14.9875C230.922 14.8924 230.647 14.7365 230.412 14.5297C230.076 14.1684 229.88 13.6981 229.86 13.2044L230.738 13.1369Z" fill="#807E79"/>
<path d="M235.616 13.732H236.677V14.8426H235.616V13.732Z" fill="#807E79"/>
<path d="M238.315 7.36299H239.242V14.8426H238.328L238.315 7.36299Z" fill="#807E79"/>
<path d="M240.561 7.36299H241.488V8.41222H240.561V7.36299ZM240.561 9.41236H241.488V14.8364H240.561V9.41236Z" fill="#807E79"/>
<path d="M243.365 9.39374L244.819 13.8238L246.335 9.39374H247.341L245.292 14.8424H244.316L242.304 9.39374H243.365Z" fill="#807E79"/>
<path d="M251.465 9.55352C251.802 9.70557 252.09 9.94759 252.299 10.253C252.484 10.5412 252.605 10.8654 252.655 11.2041C252.72 11.6097 252.746 12.0206 252.735 12.4312H248.771C248.762 12.9011 248.895 13.3628 249.151 13.7566C249.285 13.9238 249.456 14.0564 249.652 14.1429C249.847 14.2295 250.061 14.2674 250.274 14.2536C250.488 14.2651 250.701 14.2287 250.898 14.1469C251.096 14.0652 251.273 13.9402 251.415 13.7811C251.569 13.6029 251.682 13.3936 251.747 13.1675H252.655C252.619 13.4018 252.537 13.6268 252.416 13.8302C252.299 14.0567 252.148 14.2637 251.968 14.4438C251.681 14.7169 251.324 14.9058 250.937 14.9899C250.695 15.044 250.448 15.0707 250.201 15.0696C249.876 15.0688 249.556 14.997 249.262 14.8592C248.969 14.7214 248.709 14.521 248.501 14.272C248.252 13.9924 248.062 13.6661 247.941 13.3122C247.82 12.9582 247.77 12.5836 247.795 12.2103C247.765 11.4386 248.016 10.6821 248.501 10.0812C248.728 9.81617 249.01 9.60489 249.329 9.46268C249.647 9.32047 249.993 9.25089 250.342 9.259C250.734 9.26352 251.12 9.36467 251.465 9.55352ZM251.796 11.6826C251.777 11.3519 251.691 11.0284 251.544 10.7316C251.422 10.5175 251.242 10.342 251.025 10.2248C250.809 10.1077 250.563 10.0537 250.317 10.0689C250.118 10.0651 249.92 10.1042 249.736 10.1836C249.553 10.263 249.389 10.3808 249.256 10.5291C248.978 10.8504 248.819 11.258 248.808 11.6826H251.796Z" fill="#807E79"/>
<path d="M253.901 9.39383H254.796V10.1731C254.976 9.94481 255.182 9.73881 255.41 9.55949C255.721 9.37628 256.08 9.28878 256.441 9.30793C256.741 9.2779 257.044 9.34515 257.303 9.49978C257.563 9.65441 257.766 9.88827 257.883 10.1669C258.071 9.89664 258.321 9.67565 258.613 9.52268C258.897 9.3753 259.213 9.30147 259.533 9.30793C259.833 9.27833 260.135 9.3376 260.401 9.47836C260.667 9.61911 260.886 9.83512 261.03 10.0994C261.184 10.4638 261.256 10.8578 261.239 11.253V14.8731H260.288V11.0444C260.305 10.9066 260.289 10.7666 260.241 10.6363C260.193 10.5061 260.115 10.3892 260.012 10.2958C259.82 10.1561 259.586 10.0848 259.349 10.0933C259.006 10.0881 258.674 10.2156 258.423 10.4492C258.276 10.6152 258.166 10.8104 258.101 11.0219C258.035 11.2335 258.015 11.4565 258.042 11.6764V14.8547H257.091V11.2959C257.112 11.021 257.065 10.7453 256.956 10.4921C256.88 10.3602 256.766 10.2534 256.63 10.1847C256.494 10.1161 256.341 10.0886 256.189 10.1056C256.011 10.106 255.835 10.1427 255.671 10.2134C255.508 10.284 255.36 10.3872 255.238 10.5167C254.912 10.9225 254.76 11.4409 254.815 11.9586V14.8547H253.901V9.39383Z" fill="#807E79"/>
<path d="M265.479 11.5476C265.566 11.5448 265.652 11.519 265.726 11.4727C265.8 11.4263 265.861 11.3612 265.902 11.2838C265.949 11.1711 265.972 11.0499 265.97 10.9279C265.979 10.7962 265.953 10.6643 265.895 10.5458C265.837 10.4273 265.748 10.3262 265.638 10.2529C265.348 10.0932 265.018 10.0207 264.687 10.0443C264.499 10.0218 264.309 10.0445 264.132 10.1107C263.954 10.1769 263.796 10.2846 263.669 10.4248C263.545 10.6081 263.467 10.8186 263.442 11.0383H262.613C262.594 10.7755 262.64 10.512 262.747 10.2712C262.854 10.0303 263.019 9.81964 263.227 9.65777C263.662 9.38619 264.168 9.24759 264.681 9.25894C265.225 9.23359 265.766 9.36339 266.24 9.63323C266.437 9.7468 266.599 9.91315 266.708 10.1136C266.816 10.3141 266.866 10.5408 266.853 10.7684V13.9038C266.829 13.9754 266.829 14.053 266.853 14.1247C266.883 14.1611 266.922 14.1888 266.966 14.205C267.011 14.2212 267.058 14.2252 267.105 14.2167H267.411V14.8916C267.304 14.9258 267.193 14.9485 267.08 14.9591H266.773C266.638 14.9693 266.503 14.9427 266.382 14.8822C266.261 14.8217 266.159 14.7295 266.086 14.6155C265.999 14.4604 265.945 14.2892 265.927 14.1124C265.713 14.3801 265.437 14.5909 265.123 14.726C264.769 14.9167 264.372 15.0139 263.969 15.0082C263.515 15.0213 263.073 14.8536 262.742 14.5419C262.584 14.3957 262.459 14.218 262.375 14.0204C262.29 13.8227 262.248 13.6095 262.251 13.3945C262.24 13.175 262.277 12.9557 262.359 12.7521C262.442 12.5485 262.568 12.3656 262.73 12.2164C263.078 11.9252 263.505 11.7456 263.957 11.701L265.479 11.5476ZM263.564 14.0019C263.756 14.1492 263.991 14.229 264.233 14.229C264.559 14.2258 264.88 14.1481 265.172 14.0019C265.405 13.8937 265.601 13.7201 265.738 13.5023C265.874 13.2844 265.944 13.0316 265.939 12.7748V12.0753C265.801 12.1488 265.654 12.2064 265.503 12.2471C265.334 12.2968 265.162 12.3338 264.988 12.3575L264.436 12.4189C264.178 12.447 263.926 12.5197 263.693 12.6336C263.557 12.7054 263.445 12.8147 263.37 12.9486C263.295 13.0825 263.26 13.2352 263.27 13.3884C263.264 13.5096 263.288 13.6304 263.34 13.7404C263.391 13.8504 263.468 13.9464 263.564 14.0203V14.0019Z" fill="#807E79"/>
<path d="M268.902 13.1369C268.91 13.3869 268.989 13.6296 269.129 13.8364C269.288 13.9967 269.481 14.1192 269.693 14.1946C269.906 14.27 270.132 14.2965 270.357 14.272C270.677 14.283 270.993 14.2044 271.271 14.045C271.395 13.983 271.498 13.8861 271.568 13.7662C271.638 13.6463 271.671 13.5086 271.663 13.37C271.664 13.2603 271.636 13.1523 271.581 13.0573C271.526 12.9623 271.446 12.8839 271.351 12.8301C271.094 12.7187 270.827 12.6344 270.553 12.5785L269.817 12.3945C269.452 12.3148 269.099 12.1868 268.767 12.014C268.582 11.9114 268.428 11.7612 268.32 11.5789C268.212 11.3966 268.155 11.1889 268.154 10.9771C268.15 10.7438 268.197 10.5126 268.294 10.3003C268.391 10.0879 268.534 9.8999 268.712 9.74991C269.142 9.40463 269.684 9.22986 270.234 9.25905C270.57 9.2316 270.907 9.28337 271.22 9.41019C271.532 9.537 271.81 9.73533 272.032 9.98921C272.252 10.2707 272.369 10.6195 272.363 10.9771H271.504C271.486 10.7705 271.407 10.574 271.277 10.4126C271.125 10.2779 270.947 10.1766 270.753 10.1153C270.56 10.054 270.356 10.034 270.154 10.0567C269.876 10.0338 269.598 10.1028 269.363 10.253C269.276 10.3085 269.205 10.3847 269.156 10.4748C269.106 10.5648 269.081 10.6658 269.08 10.7685C269.079 10.8869 269.112 11.0032 269.175 11.1033C269.238 11.2035 269.329 11.2832 269.436 11.333C269.627 11.4418 269.834 11.5185 270.05 11.56L270.663 11.7072C271.122 11.7985 271.566 11.9534 271.983 12.1674C272.16 12.2898 272.303 12.4569 272.396 12.6519C272.488 12.8469 272.528 13.0628 272.51 13.278C272.512 13.5148 272.464 13.7493 272.369 13.9661C272.274 14.183 272.134 14.3771 271.958 14.5359C271.478 14.923 270.867 15.1118 270.252 15.0635C269.939 15.0962 269.623 15.064 269.323 14.969C269.024 14.8739 268.747 14.7182 268.51 14.5113C268.18 14.1457 267.987 13.6775 267.964 13.186L268.902 13.1369Z" fill="#807E79"/>
<path d="M273.738 7.87223H274.664V9.39392H275.499V10.1486H274.639V13.689C274.631 13.7642 274.644 13.8403 274.676 13.9086C274.709 13.9769 274.76 14.0348 274.824 14.0755C274.943 14.1 275.066 14.1 275.186 14.0755H275.499V14.7996L275.186 14.8671H274.811C274.651 14.8852 274.489 14.8658 274.338 14.8104C274.187 14.755 274.05 14.6652 273.94 14.548C273.783 14.2895 273.704 13.9912 273.713 13.689V10.1486H272.977V9.39392H273.713L273.738 7.87223Z" fill="#807E79"/>
<path d="M279.794 9.55322C280.128 9.70385 280.414 9.94642 280.616 10.2527C280.804 10.5405 280.929 10.8645 280.984 11.2038C281.049 11.6094 281.075 12.0203 281.064 12.4309H277.1C277.096 12.902 277.233 13.3635 277.493 13.7563C277.627 13.924 277.8 14.0568 277.996 14.1434C278.193 14.2299 278.407 14.2676 278.622 14.2533C278.834 14.2626 279.046 14.2251 279.242 14.1435C279.438 14.0618 279.614 13.938 279.757 13.7808C279.91 13.6026 280.023 13.3933 280.088 13.1672H281.021C280.984 13.4015 280.903 13.6265 280.781 13.8299C280.638 14.119 280.432 14.3726 280.178 14.5721C279.925 14.7717 279.63 14.9122 279.315 14.9834C279.073 15.0376 278.826 15.0643 278.579 15.0632C278.256 15.0699 277.935 15.007 277.639 14.8789C277.343 14.7508 277.077 14.5605 276.861 14.3208C276.602 14.0364 276.402 13.7033 276.274 13.3409C276.145 12.9784 276.09 12.594 276.112 12.21C276.08 11.4359 276.335 10.6773 276.83 10.0809C277.055 9.81383 277.337 9.60112 277.656 9.45872C277.975 9.31633 278.322 9.24795 278.671 9.2587C279.064 9.26323 279.449 9.36438 279.794 9.55322ZM280.125 11.6824C280.102 11.3507 280.013 11.0272 279.861 10.7313C279.739 10.5172 279.559 10.3417 279.342 10.2245C279.125 10.1074 278.88 10.0534 278.634 10.0686C278.436 10.0628 278.239 10.1011 278.058 10.1807C277.876 10.2603 277.715 10.3792 277.585 10.5288C277.296 10.8434 277.136 11.2552 277.137 11.6824H280.125Z" fill="#807E79"/>
<path d="M282.248 9.39387H283.119V10.3327C283.247 10.0774 283.427 9.85171 283.647 9.66998C283.771 9.54415 283.919 9.44455 284.083 9.37709C284.246 9.30963 284.421 9.27569 284.598 9.27729H284.905V10.2406H284.598C284.4 10.2319 284.202 10.2677 284.02 10.3452C283.837 10.4227 283.674 10.54 283.543 10.6885C283.298 10.9708 283.167 11.3337 283.174 11.7071V14.8425H282.248V9.39387Z" fill="#807E79"/>
<path d="M285.347 13.732H286.402V14.8426H285.347V13.732Z" fill="#807E79"/>
<path d="M288.04 9.39374H288.918V10.3325C289.039 10.0766 289.215 9.85045 289.433 9.66985C289.558 9.54222 289.708 9.44156 289.874 9.37403C290.04 9.3065 290.217 9.27354 290.396 9.27715H290.685V10.2405H290.396C290.195 10.2285 289.994 10.2627 289.808 10.3403C289.622 10.4179 289.456 10.537 289.323 10.6884C289.087 10.9756 288.957 11.3352 288.954 11.7069V14.8423H288.046L288.04 9.39374Z" fill="#807E79"/>
<path d="M292.39 9.39374V13.0016C292.388 13.2375 292.434 13.4713 292.525 13.6888C292.606 13.8501 292.734 13.9832 292.891 14.0708C293.049 14.1583 293.229 14.1963 293.409 14.1797C293.693 14.1977 293.975 14.1238 294.214 13.9692C294.452 13.8145 294.635 13.5871 294.734 13.3207C294.869 12.9154 294.931 12.4897 294.918 12.0628V9.41828H295.826V14.8669H294.967V14.057C294.867 14.264 294.723 14.4462 294.544 14.5908C294.195 14.8665 293.762 15.0158 293.317 15.0142C293.011 15.0455 292.702 14.9882 292.428 14.8489C292.154 14.7096 291.926 14.4943 291.771 14.2288C291.601 13.8843 291.523 13.5017 291.544 13.1182V9.43669L292.39 9.39374Z" fill="#807E79"/>
<path d="M241.064 26.6907V32.8265H238.874V22.3159C238.874 21.2237 238.904 20.5488 238.874 18.7694H241.009C241.009 20.5119 241.009 24.7211 241.009 24.7211H248.501V18.7571H250.661V32.8143H248.501V26.9177H241.052L241.064 26.6907Z" fill="black"/>
<path d="M253.864 20.8862H258.901V32.8081H261.055V20.8862H266.197V18.8307H253.864V20.8862Z" fill="black"/>
<defs>
<linearGradient id="paint0_linear" x1="21.9969" y1="43.8649" x2="21.9969" y2="-0.128949" gradientUnits="userSpaceOnUse">
<stop stop-color="#2A52BE"/>
<stop offset="0.22" stop-color="#2955BF"/>
<stop offset="0.39" stop-color="#285FC2"/>
<stop offset="0.54" stop-color="#2570C6"/>
<stop offset="0.69" stop-color="#2187CD"/>
<stop offset="0.83" stop-color="#1CA5D5"/>
<stop offset="0.96" stop-color="#16CAE0"/>
<stop offset="1" stop-color="#14D6E3"/>
</linearGradient>
</defs>
</svg>
