<svg width="95" height="33" viewBox="0 0 95 33" fill="none" xmlns="http://www.w3.org/2000/svg">
<path d="M84.8043 6.38784C86.4179 5.51608 86.3037 3.19562 86.3037 3.19562H85.2228C85.2457 3.86207 85.0797 4.52142 84.7441 5.09764C84.5291 5.39847 84.2496 5.64741 83.926 5.82622C83.6024 6.00504 83.2429 6.1092 82.8738 6.13107C82.1288 6.16277 81.6279 6.13107 81.406 6.13107V3.19562H80.2522V10.1697H81.406V7.05989H82.1637C82.5099 7.06278 82.8557 7.0352 83.1971 6.97747L85.3781 10.1855H86.7539L84.2686 6.6573L84.8043 6.38784ZM50.5109 2.99908C49.0179 2.99908 48.3458 3.56652 47.8513 4.31781C47.8513 4.17199 47.8513 3.46508 47.3346 3.23683C46.903 3.10662 46.4464 3.08162 46.0032 3.16392V4.00081C46.1091 3.97461 46.2198 3.97448 46.3258 4.00043C46.4318 4.02638 46.53 4.07763 46.6118 4.1498C46.6946 4.22233 46.7587 4.31364 46.7988 4.41609C46.836 4.51738 46.85 4.62567 46.8401 4.73309V13.7296H47.9908V9.46277C48.6534 9.8951 49.4195 10.1424 50.2098 10.1792C50.8616 10.1861 51.5014 10.0038 52.0517 9.65436C52.602 9.30495 53.0391 8.80344 53.3101 8.21061C53.5463 7.62245 53.6539 6.9905 53.6254 6.3573C53.597 5.7241 53.4333 5.10434 53.1452 4.53972C52.8885 4.05828 52.502 3.65851 52.0294 3.38583C51.5686 3.11928 51.0431 2.98543 50.5109 2.99908ZM52.1689 8.07113C51.9558 8.42804 51.6535 8.72331 51.2916 8.92786C50.9298 9.13242 50.5209 9.2392 50.1052 9.2377C49.3611 9.2031 48.643 8.9531 48.0383 8.5181L47.9971 8.48957V6.30225C48.0028 6.18836 48.0166 6.07501 48.0383 5.96306C48.1303 5.37349 48.4347 4.83791 48.8942 4.4573C49.2118 4.23604 49.5764 4.0917 49.9594 4.03568C50.3434 3.98118 50.7349 4.02033 51.1006 4.1498C51.4768 4.29301 51.806 4.53771 52.0516 4.85672C52.2985 5.17944 52.454 5.56269 52.5017 5.96623C52.5973 6.68166 52.4873 7.40951 52.1847 8.06479L52.1689 8.07113ZM75.7634 2.99908C74.2735 2.99908 73.5983 3.56652 73.1037 4.31781C73.1037 4.17199 73.1037 3.46508 72.587 3.23683C72.1557 3.10086 71.6983 3.06935 71.2524 3.1449V3.98179C71.3567 3.95699 71.4652 3.95699 71.5695 3.98179C71.6758 4.00609 71.7741 4.0574 71.8548 4.13078C71.9347 4.20381 71.9975 4.29367 72.0386 4.39389C72.0785 4.49448 72.0927 4.60345 72.0798 4.7109V13.7296H73.2337V9.46277C73.8963 9.8951 74.6624 10.1424 75.4527 10.1792C76.1153 10.199 76.769 10.0227 77.3318 9.67251C77.8946 9.3223 78.3415 8.81375 78.6164 8.21061C78.8527 7.62245 78.9602 6.9905 78.9318 6.3573C78.9033 5.7241 78.7396 5.10434 78.4516 4.53972C78.1952 4.05911 77.8099 3.65951 77.3389 3.38583C76.8594 3.1143 76.3142 2.98047 75.7634 2.99908ZM77.4213 8.07113C77.2075 8.42808 76.9046 8.7233 76.5422 8.92782C76.1799 9.13234 75.7706 9.23912 75.3545 9.2377C74.6104 9.20273 73.8925 8.95278 73.2876 8.5181L73.2432 8.48957V6.30225C73.2469 6.18801 73.2617 6.0744 73.2876 5.96306C73.3735 5.36904 73.6734 4.82682 74.1308 4.43828C74.4484 4.21702 74.813 4.07268 75.196 4.01666C75.58 3.96216 75.9715 4.00131 76.3372 4.13078C76.7134 4.27399 77.0426 4.51869 77.2882 4.8377C77.5351 5.16042 77.6906 5.54367 77.7383 5.94721C77.8339 6.66264 77.7239 7.39049 77.4213 8.04577V8.07113ZM55.0156 2.72646V10.0873H56.1282V5.53194L58.6326 8.46104L61.1527 5.53194V10.0873H62.2654V2.72646L58.6452 6.94577L55.0156 2.72646ZM70.2507 9.44058C69.864 9.40571 69.8481 8.80657 69.8481 8.80657V5.18006C69.8481 3.73136 68.4216 3.03395 66.7764 3.03395C65.8864 2.99893 65.0008 3.17604 64.1928 3.55067L64.4147 4.44462C65.4087 3.92263 66.5617 3.79037 67.6481 4.07372C67.9465 4.10354 68.2264 4.2318 68.4438 4.43828C68.6592 4.64814 68.7957 4.92575 68.8305 5.22444V6.3815C68.566 6.24864 68.2888 6.14244 68.0032 6.0645C67.534 5.92502 65.8951 5.68093 64.8014 6.26104C64.4288 6.46546 64.1237 6.77386 63.9233 7.14865C63.7208 7.52506 63.6347 7.95318 63.6761 8.37862C63.6761 8.81608 64.0406 10.2394 66.2121 10.2394C68.3836 10.2394 69.0017 8.86364 69.0017 8.86364C69.0017 8.86364 69.0017 9.78928 69.4455 10.0587C69.8622 10.2197 70.3153 10.2625 70.7548 10.1824V9.43107C70.5829 9.44693 70.4099 9.44693 70.238 9.43107L70.2507 9.44058ZM68.8115 7.76364C68.744 8.03771 68.6126 8.29191 68.428 8.50542C67.8298 9.03753 67.0538 9.32598 66.2533 9.31378C65.2516 9.31378 64.8014 8.79706 64.8014 8.11234C64.8014 7.51003 65.2769 6.84433 66.5386 6.80629C67.3252 6.77201 68.1075 6.93894 68.8115 7.2913V7.76681V7.76364ZM94.0925 9.44058C93.6994 9.40571 93.6899 8.80657 93.6899 8.80657V5.18006C93.6899 3.73136 92.2697 3.03395 90.6277 3.03395C89.7374 2.99584 88.8512 3.1731 88.0441 3.55067L88.266 4.44462C89.2571 3.92445 90.4065 3.79221 91.4899 4.07372C91.79 4.09695 92.072 4.22617 92.2856 4.43828C92.5016 4.64896 92.6382 4.92779 92.6723 5.22761V6.38467C92.4133 6.24921 92.1401 6.14289 91.8576 6.06767C91.3853 5.92819 89.7496 5.6841 88.6591 6.26421C88.2851 6.46862 87.9792 6.77812 87.7792 7.15445C87.5792 7.53079 87.4939 7.95748 87.5337 8.38179C87.5337 8.81925 87.8983 10.2426 90.0697 10.2426C92.2412 10.2426 92.8594 8.86681 92.8594 8.86681C92.8594 8.86681 92.8594 9.79245 93.2937 10.0619C93.7082 10.2227 94.1592 10.2655 94.5965 10.1855V9.43107C94.4331 9.44697 94.2686 9.44697 94.1052 9.43107L94.0925 9.44058ZM92.6533 7.76364C92.5919 8.03804 92.4634 8.29292 92.2793 8.50542C91.6842 9.03848 90.9098 9.32718 90.111 9.31378C89.1092 9.31378 88.6591 8.79706 88.6591 8.11234C88.6591 7.51003 89.1282 6.84433 90.3836 6.80629C91.1694 6.76884 91.9514 6.93595 92.6533 7.2913V7.76681V7.76364ZM40.8931 0.000234717C39.9214 -0.0785808 38.954 0.19733 38.17 0.776892C37.8025 1.06085 37.5089 1.42926 37.3141 1.85088C37.1193 2.27249 37.029 2.73487 37.051 3.19879C37.0197 3.6448 37.0974 4.09173 37.2775 4.50098C37.4575 4.91023 37.7345 5.26951 38.0844 5.54779C38.5974 5.96449 39.2086 6.24279 39.8597 6.35614L39.0069 7.62415C37.9386 9.2377 37.3807 9.20917 37.1937 9.1743C36.923 9.15486 36.6599 9.07583 36.4233 8.94289L35.8147 9.89389C36.2199 10.1376 36.6775 10.2811 37.1493 10.3123H37.2602C38.1764 10.3123 39.0196 9.67833 39.9579 8.24548C40.5159 7.40225 40.8836 6.84116 41.0991 6.5083H43.4291V10.176H44.6971V0.0192549H40.8931V0.000234717ZM43.4291 5.4083H40.6902C40.2718 5.4083 38.7692 5.34807 38.3412 3.94692C38.1804 3.50524 38.1692 3.02293 38.3095 2.5743C38.4491 2.12534 38.7347 1.73592 39.121 1.46796C39.6569 1.15801 40.2779 1.02802 40.8931 1.09706H43.4291V5.4083Z" fill="black"/>
<path d="M16.4493 33.0004C19.7026 33.0004 22.8829 32.0357 25.588 30.2282C28.2931 28.4208 30.4014 25.8517 31.6464 22.846C32.8914 19.8403 33.2172 16.5329 32.5825 13.3421C31.9478 10.1512 30.3812 7.22025 28.0807 4.91977C25.7802 2.6193 22.8492 1.05266 19.6584 0.417959C16.4675 -0.21674 13.1601 0.10901 10.1544 1.35402C7.1487 2.59902 4.57967 4.70737 2.7722 7.41244C0.964733 10.1175 0 13.2978 0 16.5512C0 20.9138 1.73304 25.0977 4.81788 28.1826C7.90272 31.2674 12.0867 33.0004 16.4493 33.0004Z" fill="url(#paint0_linear)"/>
<path d="M25.5475 18.9886L29.9063 16.5509L25.5475 14.1163L28.1025 9.82724L23.1097 9.89064L23.1763 4.89785L18.8841 7.45289L16.4495 3.0941L14.0118 7.45289L9.71953 4.89785L9.78611 9.89064L4.79331 9.82724L7.34835 14.1195L2.98956 16.5509L7.34835 18.9886L4.79331 23.2808L9.78611 23.2143L9.71953 28.2134L14.0118 25.652L16.4495 30.0108L18.8841 25.652L23.1763 28.2134L23.1097 23.2143L28.1025 23.2808L25.5475 18.9886ZM22.295 26.6759L18.5576 24.4316L16.4495 28.2356L14.3319 24.4633L10.5945 26.7045L10.6547 22.3679L6.31809 22.4281L8.5593 18.7033L4.75527 16.5509L8.5593 14.4365L6.30224 10.699L10.6388 10.7592L10.5786 6.42263L14.3161 8.66384L16.4495 4.85981L18.5639 8.64165L22.3014 6.40044L22.2412 10.737L26.5777 10.6768L24.3365 14.4143L28.1406 16.5509L24.3587 18.6685L26.5999 22.4059L22.2633 22.3457L22.295 26.6759ZM23.1763 15.2638C22.9273 15.1808 22.6985 15.0461 22.5052 14.8686C22.3118 14.691 22.1581 14.4747 22.0541 14.2336C21.9612 13.9953 21.9159 13.7411 21.921 13.4855C21.9307 13.2251 21.9967 12.9698 22.1143 12.7373C22.2899 12.4865 22.399 12.1953 22.4314 11.8909C22.4538 11.6018 22.4025 11.3117 22.2824 11.0477C21.9654 10.5405 21.2521 10.4708 20.3391 10.9051C20.0786 11.0325 19.7923 11.0986 19.5022 11.0984C19.1119 11.0978 18.732 10.9722 18.4181 10.7402C18.0934 10.5204 17.8504 10.1994 17.727 9.82724C17.3466 8.75894 16.8204 8.53387 16.459 8.53387C16.0976 8.53387 15.5619 8.75894 15.191 9.82724C15.0764 10.1944 14.849 10.5161 14.5411 10.7466C14.2247 10.9725 13.8458 11.0943 13.457 11.0953C13.1669 11.0955 12.8807 11.0293 12.6201 10.9019C11.7071 10.4676 10.9971 10.5437 10.6769 11.0445C10.5567 11.3085 10.5055 11.5986 10.5279 11.8878C10.5552 12.178 10.652 12.4575 10.81 12.7025C10.9975 13.0616 11.0592 13.4732 10.985 13.8715C10.9109 14.2698 10.7053 14.6317 10.4011 14.8993C10.2064 15.0793 9.97337 15.2126 9.71953 15.2892C8.65124 15.6696 8.42616 16.1927 8.42616 16.5572C8.42616 16.9218 8.65124 17.4543 9.71953 17.8252C9.96973 17.9068 10.1991 18.042 10.3916 18.2215C10.5845 18.3989 10.7378 18.6149 10.8417 18.8555C10.9349 19.0937 10.9802 19.3479 10.9749 19.6036C10.965 19.8664 10.898 20.1239 10.7783 20.3581C10.6033 20.6079 10.4942 20.898 10.4613 21.2013C10.4389 21.4915 10.4901 21.7826 10.6103 22.0477C10.9273 22.5549 11.6406 22.6215 12.5535 22.1904C12.8329 22.0558 13.1408 21.9916 13.4507 22.0033C13.8332 22.0101 14.2041 22.1353 14.5126 22.3615C14.8205 22.592 15.0479 22.9137 15.1625 23.2808C15.546 24.3491 16.0691 24.5742 16.4305 24.5742C16.7919 24.5742 17.3276 24.3491 17.6985 23.2808C17.8088 22.9158 18.0305 22.5944 18.3325 22.3615C18.641 22.1353 19.012 22.0101 19.3945 22.0033C19.7032 21.9921 20.01 22.0563 20.2884 22.1904C21.2014 22.6246 21.9115 22.5486 22.2316 22.0477C22.3518 21.7837 22.4031 21.4936 22.3806 21.2045C22.3533 20.9142 22.2566 20.6348 22.0985 20.3898C21.9797 20.153 21.9134 19.8933 21.9041 19.6285C21.8948 19.3637 21.9427 19.1001 22.0446 18.8555C22.1507 18.6145 22.3062 18.3985 22.5011 18.2215C22.6991 18.0435 22.934 17.9114 23.189 17.8347C24.2573 17.4512 24.4824 16.9281 24.4824 16.5667C24.4824 16.2053 24.2161 15.6538 23.1763 15.2734V15.2638ZM22.8783 16.9757C22.5108 17.1004 22.1738 17.3013 21.8893 17.5653C21.6051 17.8318 21.3814 18.156 21.2331 18.5163C21.0865 18.8772 21.0173 19.265 21.0302 19.6543C21.0452 20.0423 21.1425 20.4226 21.3155 20.7702C21.5691 21.2996 21.5247 21.5151 21.5025 21.569H21.3884C21.1467 21.5543 20.9115 21.4849 20.7005 21.3661C20.3486 21.2052 19.9673 21.1188 19.5804 21.1122C19.1936 21.1056 18.8095 21.179 18.4523 21.3278C18.0952 21.4767 17.7726 21.6977 17.5049 21.977C17.2371 22.2564 17.03 22.588 16.8965 22.9512C16.7031 23.4964 16.5002 23.6391 16.4654 23.6486C16.4305 23.6581 16.2244 23.4964 16.0311 22.9512C15.8496 22.4157 15.5057 21.9501 15.0471 21.6194C14.5885 21.2887 14.0382 21.1093 13.4728 21.1062C13.051 21.1069 12.6347 21.2034 12.2556 21.3883C12.0446 21.5071 11.8094 21.5765 11.5677 21.5912C11.5299 21.5975 11.4913 21.5975 11.4535 21.5912C11.4317 21.312 11.4971 21.0329 11.6406 20.7924C11.8136 20.4448 11.9108 20.0645 11.9259 19.6765C11.938 19.2882 11.8689 18.9017 11.723 18.5417C11.5771 18.1801 11.353 17.8554 11.0668 17.5906C10.7833 17.3246 10.446 17.1225 10.0777 16.9978C9.51031 16.8013 9.36766 16.6111 9.36766 16.5731C9.36766 16.535 9.51031 16.3353 10.0619 16.1419C10.4302 16.0173 10.7674 15.8152 11.0509 15.5491C11.3364 15.2838 11.5604 14.9592 11.7071 14.5981C11.8531 14.2381 11.9222 13.8516 11.91 13.4633C11.895 13.0753 11.7977 12.695 11.6247 12.3474C11.3711 11.818 11.4155 11.5993 11.4377 11.5486H11.5518C11.793 11.5664 12.0275 11.6356 12.2397 11.7514C12.6156 11.9496 13.0322 12.0581 13.457 12.0685C14.0224 12.0654 14.5727 11.886 15.0313 11.5552C15.4898 11.2245 15.8338 10.759 16.0152 10.2235C16.2086 9.66874 16.4115 9.52609 16.4495 9.52609C16.4875 9.52609 16.6873 9.66874 16.8806 10.2235C17.0683 10.7515 17.4151 11.2082 17.8733 11.5307C18.3315 11.8532 18.8785 12.0256 19.4388 12.0241C19.86 12.0231 20.2757 11.9289 20.6561 11.7483C20.8671 11.6295 21.1023 11.5601 21.344 11.5454H21.4582C21.4796 11.8256 21.4143 12.1056 21.2711 12.3474C21.0978 12.6937 21.0005 13.0731 20.9858 13.4601C20.9749 13.8442 21.044 14.2263 21.1887 14.5823C21.3358 14.9432 21.5597 15.2677 21.8449 15.5333C22.1263 15.7972 22.4601 15.9992 22.8244 16.1261C23.376 16.3195 23.5187 16.5223 23.5187 16.5604C23.5187 16.5984 23.3919 16.814 22.8371 17.0074L22.8783 16.9757ZM16.4495 12.3633C15.6225 12.36 14.8134 12.6039 14.126 13.0636C13.4386 13.5234 12.9043 14.1781 12.5916 14.9437C12.2714 15.7091 12.1918 16.5538 12.3633 17.3656C12.5237 18.1742 12.9195 18.9174 13.501 19.5017C14.0825 20.0861 14.8238 20.4855 15.6316 20.6497C16.4427 20.8154 17.2849 20.7314 18.0472 20.4088C18.9378 20.0385 19.6729 19.3715 20.1277 18.5209C20.5825 17.6704 20.729 16.6886 20.5424 15.7423C20.3558 14.796 19.8474 13.9434 19.1037 13.3293C18.36 12.7151 17.414 12.3676 16.4495 12.3633ZM16.4495 19.8731C15.7916 19.8755 15.148 19.6463 14.6014 19.2803C14.1957 19.0055 13.8557 18.6446 13.6055 18.2233C13.3553 17.802 13.201 17.3307 13.1538 16.843C13.1066 16.3553 13.1675 15.8632 13.3322 15.4018C13.497 14.9403 13.7615 14.5209 14.1069 14.1734C14.5753 13.7127 15.168 13.3987 15.8123 13.2699C16.2459 13.1703 16.695 13.1585 17.1332 13.2352C17.5715 13.3118 17.9899 13.4754 18.364 13.7162C18.738 13.957 19.0601 14.2703 19.3112 14.6374C19.5624 15.0046 19.7375 15.4184 19.8264 15.8543C19.9152 16.2902 19.9159 16.7395 19.8285 17.1756C19.741 17.6118 19.5672 18.0261 19.3172 18.3941C19.0673 18.7621 18.7462 19.0764 18.3729 19.3184C17.9996 19.5604 17.5817 19.7253 17.1437 19.8033C16.9153 19.8502 16.6827 19.8736 16.4495 19.8731Z" fill="white"/>
<path d="M36.4202 28.2579H37.0098V29.2279H37.5582V29.7097H37.0098V31.97C37.0054 32.0175 37.014 32.0653 37.0347 32.1083C37.0553 32.1513 37.0873 32.1878 37.1271 32.2141C37.2024 32.2299 37.2801 32.2299 37.3554 32.2141H37.5582V32.6769L37.3554 32.7181H37.1208C37.0186 32.7312 36.9148 32.7199 36.8179 32.6852C36.7209 32.6505 36.6335 32.5933 36.5629 32.5184C36.4628 32.3534 36.4133 32.1628 36.4202 31.97V29.7097H35.9479V29.2279H36.4202V28.2579Z" fill="#807E79"/>
<path d="M40.0373 30.6034C40.0939 30.6018 40.149 30.585 40.197 30.5549C40.2449 30.5248 40.2839 30.4824 40.31 30.4322C40.3258 30.358 40.3258 30.2813 40.31 30.2071C40.3157 30.1229 40.2991 30.0387 40.2618 29.963C40.2245 29.8872 40.1678 29.8227 40.0976 29.776C39.9115 29.6744 39.7006 29.6272 39.4889 29.6397C39.3715 29.6279 39.253 29.6439 39.1429 29.6863C39.0328 29.7287 38.9342 29.7963 38.8549 29.8838C38.7745 30.0054 38.7245 30.1445 38.7091 30.2895H38.1702C38.1577 30.1178 38.1889 29.9457 38.261 29.7894C38.333 29.6331 38.4436 29.4976 38.5823 29.3956C38.8613 29.2241 39.1836 29.1361 39.5111 29.142C39.8587 29.1258 40.2038 29.2082 40.5065 29.3797C40.6308 29.4538 40.7321 29.5608 40.7993 29.6889C40.8664 29.8171 40.8967 29.9613 40.8869 30.1057V32.1028C40.871 32.149 40.871 32.1992 40.8869 32.2454C40.9056 32.2686 40.9301 32.2864 40.958 32.297C40.9858 32.3076 41.016 32.3106 41.0454 32.3057H41.2419V32.7368C41.1729 32.7584 41.1017 32.7722 41.0295 32.778H40.8362C40.7499 32.7841 40.6635 32.7671 40.5861 32.7286C40.5086 32.6902 40.4428 32.6317 40.3955 32.5593C40.3461 32.4595 40.3129 32.3525 40.2973 32.2423C40.1613 32.4144 39.9879 32.5532 39.7901 32.648C39.5607 32.7656 39.3061 32.8254 39.0483 32.8224C38.9042 32.8283 38.7604 32.8053 38.6253 32.7547C38.4903 32.704 38.3668 32.6268 38.2621 32.5276C38.1604 32.435 38.0795 32.3218 38.0248 32.1955C37.9702 32.0693 37.943 31.9328 37.9451 31.7953C37.939 31.6544 37.9642 31.5139 38.019 31.3839C38.0738 31.254 38.1569 31.1379 38.2621 31.044C38.4889 30.8618 38.7648 30.7514 39.0546 30.727L40.0373 30.6034ZM38.8169 32.1884C38.9387 32.284 39.09 32.3345 39.2448 32.331C39.4531 32.332 39.6585 32.2831 39.844 32.1884C39.9917 32.1197 40.1166 32.0099 40.2037 31.8722C40.2908 31.7345 40.3365 31.5747 40.3353 31.4117V30.9394C40.2469 30.9869 40.1533 31.0241 40.0564 31.0503C39.952 31.0784 39.8462 31.1006 39.7394 31.1169L39.3843 31.1581C39.2202 31.1762 39.0605 31.2223 38.912 31.2944C38.8253 31.3393 38.7537 31.4085 38.7058 31.4935C38.6579 31.5786 38.6359 31.6757 38.6425 31.7731C38.6379 31.8496 38.6513 31.9262 38.6815 31.9967C38.7118 32.0671 38.7582 32.1295 38.8169 32.1789V32.1884Z" fill="#807E79"/>
<path d="M41.8857 27.9375H42.4785V32.6926H41.8888L41.8857 27.9375Z" fill="#807E79"/>
<path d="M45.4962 29.329C45.7095 29.4254 45.8909 29.5804 46.0193 29.776C46.1403 29.9579 46.2184 30.1649 46.2475 30.3815C46.2883 30.6361 46.3053 30.894 46.2983 31.1518H43.7622C43.7565 31.4511 43.8416 31.7451 44.0063 31.995C44.0925 32.1029 44.2036 32.1881 44.3301 32.2433C44.4566 32.2985 44.5946 32.3221 44.7323 32.312C44.8676 32.3148 45.0019 32.2878 45.1257 32.2331C45.2494 32.1783 45.3597 32.097 45.4487 31.995C45.5507 31.8776 45.6254 31.739 45.6674 31.5893H46.2412C46.2164 31.7378 46.1648 31.8807 46.089 32.0109C46.0134 32.1549 45.9161 32.2864 45.8006 32.4008C45.6235 32.57 45.4047 32.6892 45.1665 32.7463C45.0082 32.7806 44.8467 32.7976 44.6847 32.797C44.4801 32.8015 44.277 32.7616 44.0893 32.68C43.9016 32.5985 43.7338 32.4773 43.5974 32.3247C43.2818 31.9617 43.1213 31.4893 43.1504 31.0091C43.1277 30.5164 43.2868 30.0324 43.5974 29.6492C43.7434 29.4806 43.9247 29.3463 44.1286 29.2559C44.3324 29.1655 44.5537 29.1212 44.7766 29.1262C45.0294 29.1347 45.2763 29.2043 45.4962 29.329ZM45.6991 30.6858C45.6905 30.4745 45.6353 30.2678 45.5374 30.0803C45.459 29.942 45.3429 29.8289 45.2025 29.7543C45.0622 29.6796 44.9034 29.6465 44.7449 29.6587C44.6189 29.6541 44.4934 29.6782 44.3781 29.7293C44.2627 29.7804 44.1605 29.8571 44.0792 29.9535C43.8923 30.1511 43.7899 30.4139 43.7939 30.6858H45.6991Z" fill="#807E79"/>
<path d="M47.0403 29.228H47.5983V29.7257C47.7347 29.5389 47.9141 29.3878 48.1213 29.2851C48.3093 29.1921 48.5172 29.1464 48.7268 29.1519C48.9263 29.1284 49.1283 29.1646 49.3073 29.256C49.4862 29.3475 49.6339 29.49 49.7317 29.6655C49.8436 29.9318 49.8924 30.2204 49.8743 30.5087V32.7277H49.2752V30.5436C49.2847 30.3696 49.2532 30.1959 49.1833 30.0364C49.1335 29.9317 49.0525 29.8451 48.9515 29.7883C48.8504 29.7315 48.7343 29.7074 48.619 29.7193C48.5045 29.7156 48.3901 29.7295 48.2798 29.7606C48.1137 29.8109 47.9667 29.9103 47.8582 30.0459C47.7696 30.1494 47.7037 30.2703 47.6648 30.4009C47.6337 30.5734 47.6199 30.7487 47.6236 30.924V32.7467H47.0403V29.228Z" fill="#807E79"/>
<path d="M50.8537 28.2579H51.4433V29.2279H51.9886V29.7097H51.4401V31.97C51.4401 32.0968 51.4401 32.1729 51.5574 32.2141C51.6327 32.2299 51.7104 32.2299 51.7857 32.2141H51.9886V32.6769L51.7857 32.7181H51.5511C51.4489 32.7328 51.3446 32.7223 51.2474 32.6874C51.1501 32.6526 51.0629 32.5946 50.9932 32.5184C50.8884 32.3554 50.8385 32.1633 50.8505 31.97V29.7097H50.3782V29.2279H50.8505L50.8537 28.2579Z" fill="#807E79"/>
<path d="M52.9396 31.615C52.9477 31.7743 52.998 31.9285 53.0854 32.062C53.1863 32.1647 53.3091 32.2432 53.4448 32.2915C53.5804 32.3399 53.7253 32.3567 53.8684 32.3409C54.0725 32.3469 54.2744 32.2965 54.4517 32.1951C54.5307 32.1561 54.5966 32.0948 54.6411 32.0187C54.6856 31.9427 54.7068 31.8552 54.7021 31.7672C54.7052 31.6965 54.688 31.6265 54.6527 31.5652C54.6173 31.504 54.5651 31.4542 54.5024 31.4216C54.3398 31.3493 54.1697 31.295 53.9952 31.26L53.5228 31.1427C53.2909 31.0918 53.067 31.0097 52.8571 30.8986C52.7403 30.833 52.6433 30.7372 52.5763 30.6211C52.5094 30.5051 52.475 30.3732 52.4767 30.2392C52.472 30.0888 52.5014 29.9393 52.5629 29.802C52.6245 29.6647 52.7164 29.5432 52.8318 29.4467C53.105 29.225 53.4504 29.1121 53.8018 29.1297C54.016 29.1108 54.2317 29.143 54.4311 29.2234C54.6306 29.3038 54.8081 29.4303 54.9493 29.5925C55.0905 29.7732 55.1644 29.9973 55.1586 30.2265H54.6102C54.5996 30.0946 54.5499 29.9687 54.4675 29.8651C54.372 29.7791 54.2593 29.7143 54.1369 29.6749C54.0145 29.6356 53.8852 29.6226 53.7574 29.6369C53.5772 29.6243 53.3975 29.6687 53.2439 29.7637C53.191 29.7984 53.1472 29.8453 53.1163 29.9005C53.0854 29.9557 53.0683 30.0175 53.0664 30.0807C53.0663 30.1564 53.0877 30.2305 53.1281 30.2945C53.1685 30.3585 53.2262 30.4097 53.2946 30.4421C53.4151 30.5105 53.5456 30.5597 53.6813 30.5879L54.0808 30.6798C54.3746 30.7369 54.6586 30.8362 54.924 30.9747C55.0373 31.0524 55.1281 31.1588 55.1871 31.2829C55.2461 31.407 55.2713 31.5446 55.26 31.6816C55.261 31.8328 55.2298 31.9824 55.1686 32.1207C55.1074 32.259 55.0175 32.3826 54.905 32.4836C54.5989 32.7308 54.21 32.8521 53.8177 32.8228C53.6187 32.8436 53.4176 32.8227 53.2271 32.7616C53.0367 32.7005 52.861 32.6004 52.7113 32.4677C52.498 32.2371 52.3733 31.9384 52.3594 31.6245L52.9396 31.615Z" fill="#807E79"/>
<path d="M56.0396 31.9953H56.7148V32.7022H56.0396V31.9953Z" fill="#807E79"/>
<path d="M57.7611 27.9375H58.3507V32.6926H57.7706L57.7611 27.9375Z" fill="#807E79"/>
<path d="M59.1936 27.9375H59.7864V28.6033H59.1936V27.9375ZM59.1936 29.2436H59.7864V32.7021H59.1936V29.2436Z" fill="#807E79"/>
<path d="M60.985 29.2282L61.9043 32.0527L62.8743 29.2282H63.5084L62.1991 32.7153H61.5651L60.2971 29.2282H60.985Z" fill="#807E79"/>
<path d="M66.155 29.3292C66.3707 29.4244 66.5544 29.5795 66.6844 29.7762C66.8037 29.959 66.8816 30.1656 66.9127 30.3817C66.9534 30.6363 66.9704 30.8942 66.9634 31.152H64.4274C64.4216 31.4513 64.5067 31.7453 64.6715 31.9952C64.7565 32.1019 64.866 32.1864 64.9908 32.2416C65.1155 32.2968 65.2518 32.321 65.3879 32.3122C65.5249 32.3171 65.6613 32.2911 65.7869 32.2362C65.9125 32.1814 66.0243 32.099 66.1138 31.9952C66.2127 31.8766 66.2851 31.7383 66.3262 31.5894H66.9063C66.883 31.7384 66.8313 31.8815 66.7542 32.0111C66.6788 32.1544 66.5826 32.2858 66.4689 32.401C66.284 32.5731 66.0563 32.6924 65.8095 32.7465C65.6544 32.7808 65.496 32.7978 65.3372 32.7972C65.1344 32.8015 64.9331 32.7625 64.7466 32.6827C64.5602 32.6028 64.393 32.4841 64.2562 32.3344C64.0984 32.1556 63.9777 31.9472 63.9009 31.7214C63.8242 31.4956 63.793 31.2568 63.8092 31.0188C63.7865 30.5261 63.9456 30.0421 64.2562 29.6589C64.4016 29.4896 64.5828 29.3549 64.7868 29.2644C64.9908 29.1739 65.2124 29.13 65.4354 29.1358C65.6875 29.1405 65.9346 29.2069 66.155 29.3292ZM66.3643 30.686C66.3518 30.4757 66.2979 30.2699 66.2058 30.0805C66.1273 29.9422 66.0112 29.8291 65.8708 29.7545C65.7305 29.6798 65.5718 29.6466 65.4132 29.6589C65.2861 29.6562 65.1598 29.6812 65.0432 29.7321C64.9266 29.783 64.8225 29.8586 64.738 29.9537C64.5581 30.1559 64.4558 30.4154 64.4496 30.686H66.3643Z" fill="#807E79"/>
<path d="M67.7054 29.2278H68.2792V29.7254C68.3896 29.5833 68.5174 29.4555 68.6596 29.345C68.8589 29.2283 69.0883 29.1731 69.3189 29.1865C69.5104 29.1663 69.7034 29.2084 69.869 29.3066C70.0347 29.4049 70.1642 29.554 70.2382 29.7318C70.3584 29.5603 70.5169 29.4192 70.7011 29.3197C70.8834 29.2268 71.0861 29.1811 71.2907 29.1865C71.4813 29.1669 71.6735 29.2043 71.8428 29.294C72.0121 29.3837 72.151 29.5218 72.2417 29.6906C72.3412 29.9225 72.3867 30.174 72.3748 30.426V32.737H71.7694V30.2897C71.78 30.2011 71.7694 30.1112 71.7386 30.0274C71.7077 29.9437 71.6574 29.8684 71.5918 29.8079C71.4684 29.7221 71.3204 29.6787 71.1702 29.6842C70.9517 29.6784 70.7397 29.7593 70.5806 29.9093C70.4884 30.0137 70.4189 30.136 70.3763 30.2686C70.3337 30.4012 70.3191 30.5411 70.3333 30.6796V32.7021H69.7405V30.4324C69.7504 30.257 69.7212 30.0815 69.6549 29.9188C69.6059 29.8353 69.5337 29.7678 69.447 29.7244C69.3604 29.6811 69.263 29.6638 69.1668 29.6747C69.053 29.6748 68.9405 29.6978 68.8359 29.7425C68.7313 29.7872 68.6368 29.8525 68.5581 29.9347C68.3516 30.1941 68.2548 30.5241 68.2887 30.854V32.7021H67.7054V29.2278Z" fill="#807E79"/>
<path d="M75.0949 30.6034C75.151 30.6012 75.2054 30.5842 75.2528 30.5542C75.3001 30.5241 75.3386 30.482 75.3644 30.4322C75.3964 30.3616 75.4116 30.2845 75.4088 30.2071C75.4145 30.1229 75.3979 30.0387 75.3606 29.963C75.3233 29.8872 75.2666 29.8227 75.1964 29.776C75.0114 29.6744 74.8015 29.6271 74.5909 29.6397C74.471 29.6259 74.3495 29.6408 74.2365 29.6833C74.1235 29.7257 74.0222 29.7944 73.941 29.8838C73.862 30.0061 73.8121 30.1449 73.7952 30.2895H73.2563C73.2435 30.1175 73.275 29.945 73.3477 29.7885C73.4203 29.6321 73.5319 29.4968 73.6716 29.3956C73.9494 29.2238 74.2707 29.1358 74.5972 29.142C74.9448 29.1258 75.2899 29.2082 75.5926 29.3797C75.7169 29.4538 75.8182 29.5608 75.8854 29.6889C75.9525 29.8171 75.9829 29.9613 75.973 30.1057V32.1028C75.9571 32.149 75.9571 32.1992 75.973 32.2454C75.9926 32.2684 76.0178 32.286 76.0461 32.2965C76.0743 32.307 76.1049 32.3102 76.1347 32.3057H76.3281V32.7368C76.259 32.7584 76.1878 32.7722 76.1157 32.778H75.9223C75.8364 32.7846 75.7503 32.7677 75.6733 32.7292C75.5962 32.6907 75.5311 32.6319 75.4848 32.5593C75.4284 32.4622 75.3938 32.354 75.3834 32.2423C75.2464 32.4172 75.0691 32.5564 74.8667 32.648C74.6408 32.7658 74.3892 32.8257 74.1344 32.8224C73.9903 32.8283 73.8465 32.8053 73.7114 32.7547C73.5764 32.704 73.4529 32.6268 73.3482 32.5276C73.2465 32.435 73.1656 32.3218 73.111 32.1955C73.0563 32.0693 73.0291 31.9328 73.0312 31.7953C73.0251 31.6544 73.0503 31.5139 73.1051 31.3839C73.16 31.254 73.243 31.1379 73.3482 31.044C73.575 30.8618 73.8509 30.7514 74.1408 30.727L75.0949 30.6034ZM73.8713 32.1884C73.9946 32.2836 74.1467 32.3339 74.3024 32.331C74.5106 32.3317 74.716 32.2828 74.9016 32.1884C75.0495 32.1202 75.1743 32.0104 75.261 31.8726C75.3477 31.7347 75.3924 31.5746 75.3897 31.4117V30.9394C75.3068 30.9888 75.2198 31.0312 75.1298 31.0662C75.0255 31.0943 74.9196 31.1165 74.8128 31.1327L74.4578 31.174C74.2937 31.1921 74.1339 31.2382 73.9854 31.3103C73.9111 31.3546 73.8483 31.4157 73.802 31.4888C73.7558 31.5618 73.7273 31.6448 73.719 31.7308C73.7106 31.8169 73.7227 31.9038 73.7541 31.9843C73.7855 32.0649 73.8354 32.137 73.8998 32.1947L73.8713 32.1884Z" fill="#807E79"/>
<path d="M77.279 31.615C77.2857 31.7745 77.3362 31.9291 77.4248 32.062C77.5257 32.1647 77.6486 32.2432 77.7842 32.2915C77.9198 32.3399 78.0647 32.3567 78.2078 32.3409C78.4119 32.3469 78.6138 32.2965 78.7911 32.1951C78.8702 32.1559 78.9363 32.0947 78.9813 32.0187C79.0263 31.9428 79.0483 31.8554 79.0447 31.7672C79.0464 31.6964 79.0283 31.6266 78.9924 31.5655C78.9566 31.5045 78.9044 31.4546 78.8418 31.4216C78.6792 31.3493 78.5091 31.295 78.3346 31.26L77.8623 31.1427C77.6303 31.0918 77.4064 31.0097 77.1966 30.8986C77.0797 30.833 76.9827 30.7372 76.9158 30.6211C76.8488 30.5051 76.8144 30.3732 76.8162 30.2392C76.8114 30.0888 76.8409 29.9393 76.9024 29.802C76.9639 29.6647 77.0558 29.5432 77.1712 29.4467C77.4444 29.225 77.7899 29.1121 78.1412 29.1297C78.3555 29.1108 78.5711 29.143 78.7706 29.2234C78.97 29.3038 79.1476 29.4303 79.2888 29.5925C79.4299 29.7732 79.5039 29.9973 79.498 30.2265H78.9496C78.941 30.0941 78.8911 29.9677 78.8069 29.8651C78.7093 29.7804 78.5954 29.7165 78.4722 29.6772C78.3491 29.638 78.2192 29.6243 78.0905 29.6369C77.9123 29.6244 77.7347 29.6688 77.5833 29.7637C77.5304 29.7984 77.4866 29.8453 77.4557 29.9005C77.4248 29.9557 77.4077 30.0175 77.4058 30.0807C77.4064 30.1562 77.4281 30.23 77.4685 30.2939C77.5088 30.3577 77.5661 30.4091 77.634 30.4421C77.7554 30.5111 77.8871 30.5603 78.0239 30.5879L78.4202 30.6798C78.7132 30.7398 78.9969 30.839 79.2634 30.9747C79.3798 31.054 79.4724 31.1634 79.5316 31.2913C79.5908 31.4191 79.6142 31.5605 79.5994 31.7006C79.6004 31.8518 79.5692 32.0015 79.508 32.1397C79.4468 32.278 79.357 32.4017 79.2444 32.5026C78.9383 32.7498 78.5495 32.8711 78.1571 32.8418C77.9572 32.8619 77.7553 32.8408 77.5639 32.7797C77.3725 32.7187 77.1957 32.6189 77.0444 32.4868C76.8403 32.251 76.7238 31.952 76.7147 31.6404L77.279 31.615Z" fill="#807E79"/>
<path d="M80.3666 28.2579H80.9593V29.2279H81.5078V29.7097H80.9593V31.97C80.9542 32.0176 80.9625 32.0656 80.9832 32.1087C81.0039 32.1519 81.0363 32.1884 81.0766 32.2141C81.1519 32.2299 81.2296 32.2299 81.3049 32.2141H81.5078V32.6769L81.3049 32.7181H81.0671C80.9655 32.7309 80.8622 32.7195 80.7658 32.6848C80.6694 32.6501 80.5825 32.5931 80.5124 32.5184C80.4112 32.3538 80.3605 32.1631 80.3666 31.97V29.7097H79.8847V29.2279H80.357L80.3666 28.2579Z" fill="#807E79"/>
<path d="M84.2402 29.3293C84.4535 29.4256 84.6349 29.5806 84.7633 29.7762C84.8832 29.9593 84.9631 30.1656 84.9979 30.3817C85.0386 30.6364 85.0556 30.8942 85.0486 31.152H82.5126C82.5102 31.4522 82.5986 31.7462 82.7662 31.9953C82.851 32.1021 82.9606 32.1868 83.0853 32.242C83.2101 32.2972 83.3465 32.3213 83.4826 32.3123C83.6193 32.3147 83.7549 32.2876 83.8801 32.2329C84.0054 32.1782 84.1174 32.0972 84.2085 31.9953C84.3077 31.8773 84.3791 31.7387 84.4178 31.5895H84.9915C84.9682 31.7384 84.9165 31.8816 84.8394 32.0111C84.767 32.1563 84.6705 32.2881 84.5541 32.401C84.3728 32.5729 84.1481 32.6924 83.9042 32.7466C83.7491 32.7808 83.5907 32.7978 83.4319 32.7973C83.2261 32.8006 83.0219 32.7602 82.8328 32.6788C82.6437 32.5974 82.4741 32.4768 82.3351 32.3249C82.0209 31.9611 81.8606 31.4893 81.8881 31.0094C81.8654 30.515 82.0282 30.03 82.3446 29.6494C82.4884 29.48 82.6685 29.345 82.8715 29.2544C83.0745 29.1639 83.2953 29.1201 83.5175 29.1264C83.7715 29.1332 84.0198 29.203 84.2402 29.3293ZM84.4495 30.686C84.4356 30.4748 84.3784 30.2687 84.2814 30.0806C84.203 29.9423 84.0869 29.8292 83.9465 29.7545C83.8062 29.6798 83.6474 29.6467 83.4889 29.6589C83.3628 29.6538 83.2372 29.6777 83.1218 29.7289C83.0064 29.78 82.9042 29.8569 82.8232 29.9538C82.6368 30.1519 82.5336 30.414 82.5348 30.686H84.4495Z" fill="#807E79"/>
<path d="M85.7997 29.2282H86.3576V29.8274C86.4375 29.664 86.5522 29.5201 86.6936 29.4057C86.7724 29.3242 86.867 29.2596 86.9717 29.216C87.0764 29.1723 87.1889 29.1506 87.3023 29.1521H87.4925V29.7671H87.2991C87.1721 29.7612 87.0454 29.7841 86.9285 29.834C86.8115 29.884 86.7074 29.9597 86.6239 30.0556C86.4695 30.2306 86.3849 30.4563 86.3861 30.6896V32.6899H85.7965L85.7997 29.2282Z" fill="#807E79"/>
<path d="M87.7748 31.9953H88.4437V32.7022H87.7685L87.7748 31.9953Z" fill="#807E79"/>
<path d="M89.4929 29.2282H90.0508V29.8274C90.1247 29.6655 90.2329 29.5216 90.3678 29.4058C90.4479 29.3241 90.5437 29.2596 90.6494 29.216C90.7551 29.1724 90.8685 29.1507 90.9828 29.1522H91.1699V29.7671H90.9828C90.8547 29.7597 90.7266 29.7819 90.6084 29.8319C90.4902 29.882 90.3851 29.9585 90.3013 30.0556C90.1515 30.2333 90.0676 30.4572 90.0635 30.6896V32.6899H89.4834L89.4929 29.2282Z" fill="#807E79"/>
<path d="M92.2699 29.2282V31.5297C92.2664 31.681 92.2956 31.8313 92.3555 31.9703C92.4064 32.0741 92.4876 32.1599 92.5884 32.2165C92.6891 32.2731 92.8047 32.2978 92.9198 32.2873C93.1005 32.2981 93.2799 32.2507 93.4317 32.1519C93.5835 32.0532 93.6996 31.9085 93.763 31.7389C93.851 31.481 93.8908 31.2091 93.8803 30.9369V29.2441H94.4668V32.7311H93.9183V32.2176C93.8515 32.3471 93.7599 32.4623 93.6489 32.5568C93.4212 32.7374 93.1375 32.8327 92.8469 32.8262C92.6521 32.847 92.4554 32.811 92.2805 32.7227C92.1057 32.6345 91.96 32.4976 91.861 32.3285C91.7531 32.108 91.703 31.8636 91.7152 31.6184V29.2441L92.2699 29.2282Z" fill="#807E79"/>
<path d="M42.9857 14.411H35.8626V15.4888H38.9914V24.1271H40.0661V15.4888H42.9857V14.411Z" fill="black"/>
<path d="M48.5012 22.5076V19.699C48.5012 17.8667 47.1 17.3246 45.5911 17.3246C44.7679 17.3238 43.9551 17.5092 43.2136 17.8667L43.4291 18.729C44.0642 18.4109 44.7708 18.2624 45.4802 18.2978C46.3424 18.2978 47.5312 18.6148 47.5312 19.699V20.4566C46.8241 20.1146 46.05 19.9338 45.2646 19.9272C43.8603 19.9272 42.6715 20.6817 42.6715 22.1906C42.6715 23.4903 43.8603 24.2416 45.049 24.2416C46.0222 24.2416 47.2078 23.9246 47.6389 23.0592C47.6389 24.3526 48.1779 24.5618 49.2588 24.3526V23.5854C48.5012 23.6964 48.5012 23.2653 48.5012 22.5076ZM47.5312 21.9656C47.3156 22.9388 46.1268 23.3699 45.2646 23.3699C44.507 23.3699 43.7588 23.0529 43.7588 22.1811C43.7588 21.2301 44.6211 20.7768 45.4833 20.7768C46.1983 20.8059 46.8983 20.9909 47.5343 21.3189L47.5312 21.9656Z" fill="black"/>
<path d="M53.1327 17.4351L50.0038 24.0161V24.1271H51.1863L52.2704 21.6449L53.3482 19.0518L54.426 21.6449L55.507 24.1271H56.6926V24.0161L53.5638 17.4351H53.1327Z" fill="black"/>
<path d="M63.2803 22.5076V19.699C63.2803 17.8667 61.876 17.3246 60.3607 17.3246C59.5397 17.3258 58.7294 17.511 57.9895 17.8667L58.2051 18.729C58.8405 18.4118 59.5468 18.2634 60.2561 18.2978C61.1183 18.2978 62.3071 18.6148 62.3071 19.699V20.4566C61.6002 20.1142 60.826 19.9334 60.0405 19.9272C58.6362 19.9272 57.4474 20.6817 57.4474 22.1906C57.4474 23.4903 58.6362 24.2416 59.825 24.2416C60.7982 24.2416 61.9806 23.9246 62.4181 23.0592C62.4181 24.3526 62.9538 24.5618 64.0348 24.3526V23.5854C63.2803 23.6964 63.2803 23.2653 63.2803 22.5076ZM62.2025 21.3189V21.9529C61.9806 22.9261 60.7982 23.3572 59.9296 23.3572C59.1783 23.3572 58.427 23.0402 58.427 22.1684C58.427 21.2174 59.2892 20.7641 60.1515 20.7641C60.909 20.7255 61.6608 20.9143 62.3103 21.3062L62.2025 21.3189Z" fill="black"/>
<path d="M80.2617 20.7765C80.2617 25.4206 87.2801 25.4206 87.2801 20.7765C87.2801 16.1325 80.2617 16.142 80.2617 20.7765ZM81.3395 20.7765C81.3395 17.4353 86.1991 17.4353 86.1991 20.7765C86.2302 21.0987 86.1968 21.4239 86.1008 21.7331C86.0049 22.0422 85.8484 22.3292 85.6403 22.5772C85.4323 22.8252 85.177 23.0293 84.8893 23.1775C84.6015 23.3258 84.2871 23.4153 83.9644 23.4407C83.6417 23.4662 83.3172 23.4272 83.0098 23.3259C82.7023 23.2246 82.4182 23.0631 82.1738 22.8508C81.9295 22.6385 81.7298 22.3796 81.5866 22.0894C81.4433 21.7991 81.3593 21.4832 81.3395 21.1601C81.3299 21.0324 81.3299 20.9042 81.3395 20.7765Z" fill="black"/>
<path d="M93.2365 20.653C93.5072 20.5144 93.7281 20.295 93.8684 20.0251C94.0087 19.7553 94.0615 19.4485 94.0195 19.1473C94.0195 17.3879 92.1175 17.3879 91.1824 17.3879H88.6749V24.362H91.4074C92.1651 24.362 94.4602 24.362 94.4602 22.3839C94.4802 21.9999 94.3705 21.6203 94.1485 21.3063C93.9265 20.9923 93.6053 20.7622 93.2365 20.653ZM93.5218 22.2919C93.5218 23.3602 92.5994 23.4458 91.3979 23.4458H89.7115V21.138H91.2965C92.5106 21.138 93.5218 21.2395 93.5218 22.2919ZM93.0907 19.2836C93.0907 20.2504 92.2253 20.3329 91.1887 20.3329H89.6037V18.2216H91.1887C92.5074 18.2216 93.0907 18.5386 93.0907 19.2677V19.2836Z" fill="black"/>
<path d="M67.005 21.2745V24.34H65.9113V19.0841C65.9113 18.5356 65.9113 18.1964 65.9113 17.3025H66.9828C66.9828 18.1774 66.9828 20.2887 66.9828 20.2887H70.7266V17.2993H71.8107V24.3431H70.7298V21.3823H67.005V21.2745Z" fill="black"/>
<path d="M73.4241 18.3642H75.9475V24.3397H77.0316V18.3642H79.6057V17.3339H73.4241V18.3642Z" fill="black"/>
<defs>
<linearGradient id="paint0_linear" x1="16.4493" y1="32.9022" x2="16.4493" y2="0.00679008" gradientUnits="userSpaceOnUse">
<stop stop-color="#2A52BE"/>
<stop offset="0.22" stop-color="#2955BF"/>
<stop offset="0.39" stop-color="#285FC2"/>
<stop offset="0.54" stop-color="#2570C6"/>
<stop offset="0.69" stop-color="#2187CD"/>
<stop offset="0.83" stop-color="#1CA5D5"/>
<stop offset="0.96" stop-color="#16CAE0"/>
<stop offset="1" stop-color="#14D6E3"/>
</linearGradient>
</defs>
</svg>
