<svg width="46" height="75" viewBox="0 0 46 75" fill="none" xmlns="http://www.w3.org/2000/svg">
<path d="M40.9763 75H8.40431C5.97198 75 4 73.028 4 70.597V4.40302C4 1.97198 5.97198 0 8.40431 0H40.9763C43.4086 0 45.3793 1.97198 45.3793 4.40302V70.5957C45.3793 73.028 43.4086 75 40.9763 75Z" fill="#D6DADA"/>
<path d="M37.7868 75H5.21486C2.78253 75 0.810547 73.028 0.810547 70.597V4.40302C0.810547 1.97198 2.78253 0 5.21486 0H37.7868C40.2192 0 42.1899 1.97198 42.1899 4.40302V70.5957C42.1899 73.028 40.2192 75 37.7868 75Z" fill="#424A60"/>
<path d="M41 8H2V59H41V8Z" fill="#A4E869"/>
<path d="M21.5004 71.1209C23.6429 71.1209 25.3797 69.3841 25.3797 67.2416C25.3797 65.0991 23.6429 63.3623 21.5004 63.3623C19.3579 63.3623 17.6211 65.0991 17.6211 67.2416C17.6211 69.3841 19.3579 71.1209 21.5004 71.1209Z" fill="#262B35"/>
<path d="M21.4997 5.17263H16.3273C15.6122 5.17263 15.0342 4.59462 15.0342 3.87953C15.0342 3.16444 15.6122 2.58643 16.3273 2.58643H21.4997C22.2148 2.58643 22.7928 3.16444 22.7928 3.87953C22.7928 4.59462 22.2148 5.17263 21.4997 5.17263Z" fill="#262B35"/>
<path d="M26.6721 5.17263H25.379C24.664 5.17263 24.0859 4.59462 24.0859 3.87953C24.0859 3.16444 24.664 2.58643 25.379 2.58643H26.6721C27.3872 2.58643 27.9652 3.16444 27.9652 3.87953C27.9652 4.59462 27.3872 5.17263 26.6721 5.17263Z" fill="#262B35"/>
</svg>
