<?xml version="1.0" encoding="utf-8"?>
<!-- (c) Livemaster LLC - https://livemaster.ru -->
<!DOCTYPE svg PUBLIC "-//W3C//DTD SVG 1.1//EN" "http://www.w3.org/Graphics/SVG/1.1/DTD/svg11.dtd">
<svg viewBox="0 0 23 20" fill="none" xmlns="http://www.w3.org/2000/svg">
	<path d="M22.8946 6.15087C22.8883 5.98807 22.8325 5.83108 22.7346 5.70087L19.4946 0.320866C19.4364 0.224075 19.3544 0.143828 19.2563 0.0878009C19.1583 0.031774 19.0475 0.00184126 18.9346 0.000865957H4.00458C3.88495 -0.00526798 3.7659 0.0212743 3.6602 0.0776472C3.5545 0.13402 3.46614 0.218098 3.40458 0.320866L0.104583 5.84087C0.0497311 5.92506 0.0154734 6.02098 0.00458251 6.12087C-0.0412972 7.03343 0.258661 7.92974 0.844582 8.63087C1.13967 8.95646 1.5058 9.20967 1.91458 9.37087V18.5909C1.91458 18.7659 1.98412 18.9338 2.10789 19.0576C2.23167 19.1813 2.39954 19.2509 2.57458 19.2509H20.4146C20.5896 19.2509 20.7575 19.1813 20.8813 19.0576C21.005 18.9338 21.0746 18.7659 21.0746 18.5909V9.42087C21.4573 9.26756 21.7995 9.02802 22.0746 8.72087C22.3774 8.36984 22.6061 7.96124 22.747 7.5196C22.8879 7.07796 22.9381 6.61239 22.8946 6.15087ZM4.34458 1.32087H18.5646L21.0946 5.51087H1.83458L4.34458 1.32087ZM16.1846 6.84087C16.0567 7.27101 15.7925 7.64794 15.4318 7.91488C15.071 8.18182 14.6333 8.3243 14.1846 8.32087H14.1346C13.6995 8.29508 13.2819 8.14064 12.9347 7.87714C12.5875 7.61365 12.3265 7.25297 12.1846 6.84087H16.1846ZM10.7446 6.84087C10.6331 7.28276 10.3741 7.67335 10.0104 7.94795C9.64669 8.22255 9.20011 8.3647 8.74458 8.35087C8.29712 8.34593 7.86331 8.19612 7.50815 7.92389C7.15299 7.65166 6.89561 7.27168 6.77458 6.84087H10.7446ZM1.38458 6.84087H5.27458C5.14624 7.2508 4.89528 7.61152 4.55553 7.87438C4.21579 8.13723 3.80361 8.28958 3.37458 8.31087C3.09618 8.3287 2.81712 8.28808 2.55535 8.19164C2.29358 8.0952 2.05487 7.94506 1.85458 7.75087C1.61799 7.49598 1.45548 7.18133 1.38458 6.84087ZM9.61458 17.9409H6.15458V12.6809C6.15457 12.5697 6.17663 12.4597 6.21947 12.3571C6.2623 12.2545 6.32507 12.1615 6.40414 12.0833C6.4832 12.0052 6.57699 11.9435 6.68006 11.9019C6.78313 11.8603 6.89343 11.8395 7.00458 11.8409H8.77458C8.99736 11.8409 9.21102 11.9294 9.36855 12.0869C9.52608 12.2444 9.61458 12.4581 9.61458 12.6809V17.9409ZM10.9346 17.9409V12.6809C10.9346 12.108 10.707 11.5586 10.3019 11.1535C9.89685 10.7484 9.34745 10.5209 8.77458 10.5209H7.00458C6.43172 10.5209 5.88231 10.7484 5.47723 11.1535C5.07215 11.5586 4.84458 12.108 4.84458 12.6809V17.9309H3.23458V9.62087H3.31458C3.8433 9.6255 4.36507 9.50028 4.83409 9.25618C5.30311 9.01208 5.70504 8.65657 6.00458 8.22087C6.29814 8.66379 6.69613 9.02772 7.16349 9.28058C7.63084 9.53344 8.15322 9.66747 8.68458 9.67087H8.78458C9.32017 9.68485 9.85057 9.56286 10.3262 9.31628C10.8019 9.06971 11.2073 8.7066 11.5046 8.26087C11.8174 8.69111 12.2281 9.04069 12.7029 9.28066C13.1776 9.52063 13.7027 9.64411 14.2346 9.64087C14.7605 9.64183 15.279 9.51709 15.7469 9.27704C16.2148 9.03699 16.6186 8.68859 16.9246 8.26087C17.2482 8.70717 17.6763 9.06728 18.1714 9.30962C18.6666 9.55196 19.2136 9.66913 19.7646 9.65087V17.9409H10.9346ZM19.8746 8.33087C19.3884 8.3757 18.9016 8.25216 18.4956 7.98091C18.0897 7.70967 17.7892 7.30719 17.6446 6.84087H21.5846C21.5307 7.20961 21.3748 7.55597 21.1346 7.84087C20.9698 8.00457 20.7726 8.13187 20.5555 8.21456C20.3385 8.29724 20.1065 8.33346 19.8746 8.32087V8.33087Z" fill="#a4a1a1"/>
</svg>
