<?xml version="1.0" encoding="utf-8"?>
<!-- (c) Livemaster LLC - https://livemaster.ru -->
<!DOCTYPE svg PUBLIC "-//W3C//DTD SVG 1.1//EN" "http://www.w3.org/Graphics/SVG/1.1/DTD/svg11.dtd">
<svg viewBox="0 0 28 23" fill="none" xmlns="http://www.w3.org/2000/svg">
	<path d="M20.37 22.802C21.6955 22.802 22.77 21.6917 22.77 20.322C22.77 18.9524 21.6955 17.842 20.37 17.842C19.0445 17.842 17.97 18.9524 17.97 20.322C17.97 21.6917 19.0445 22.802 20.37 22.802Z" fill="#e76d00"/>
	<path d="M27.14 5.61209C27.0479 5.47768 26.9243 5.36783 26.78 5.29209C26.6415 5.21723 26.4874 5.17611 26.33 5.17209H6.62V5.10209L4.92 0.672086C4.84929 0.477665 4.72002 0.309961 4.55 0.192086C4.38841 0.0791902 4.19707 0.0165674 4 0.0120862H0.71C0.620721 -0.00402874 0.529279 -0.00402874 0.44 0.0120862C0.349383 0.0607747 0.2708 0.129108 0.21 0.212086C0.145708 0.27842 0.0947822 0.356507 0.06 0.442086C0.0232088 0.527516 0.00285334 0.619115 0 0.712086L0 1.52209H3.76L3.82 1.67209L9 15.2421C9.07249 15.4328 9.2016 15.5968 9.37 15.7121C9.53159 15.825 9.72293 15.8876 9.92 15.8921H23.32C23.525 15.8887 23.724 15.8224 23.89 15.7021C24.0617 15.5816 24.1911 15.4102 24.26 15.2121L27.36 6.57209C27.3975 6.41091 27.3975 6.24326 27.36 6.08209C27.3315 5.91485 27.2628 5.75701 27.16 5.62209L27.14 5.61209ZM25.68 6.73209L22.9 14.4621H10.12L7.12 6.59209H25.73L25.68 6.73209Z" fill="#e76d00"/>
	<path d="M12.68 22.802C14.0055 22.802 15.08 21.6917 15.08 20.322C15.08 18.9524 14.0055 17.842 12.68 17.842C11.3545 17.842 10.28 18.9524 10.28 20.322C10.28 21.6917 11.3545 22.802 12.68 22.802Z" fill="#e76d00"/>
</svg>
