<?xml version="1.0" encoding="utf-8"?>
<!-- (c) Livemaster LLC - https://livemaster.ru -->
<!DOCTYPE svg PUBLIC "-//W3C//DTD SVG 1.1//EN" "http://www.w3.org/Graphics/SVG/1.1/DTD/svg11.dtd">
<svg viewBox="0 0 28 19" fill="none" xmlns="http://www.w3.org/2000/svg">
	<path d="M27.4139 0.77C27.2914 0.468056 27.054 0.227087 26.754 0.1C26.609 0.0358459 26.4525 0.00182403 26.294 0L1.22395 0C1.06303 0.000322199 0.903852 0.0332777 0.756035 0.0968736C0.608217 0.160469 0.474834 0.253384 0.36395 0.37C0.133914 0.609301 0.00497527 0.928066 0.00394955 1.26V17.57C-0.00935685 17.739 0.0110378 17.909 0.0639495 18.07C0.115839 18.2243 0.197365 18.367 0.30395 18.49C0.408907 18.6125 0.537286 18.7127 0.681539 18.7848C0.825793 18.8569 0.983011 18.8995 1.14395 18.91H26.284C26.4418 18.9111 26.5982 18.8805 26.7439 18.82C26.8939 18.7575 27.0299 18.6657 27.1439 18.55C27.2564 18.4315 27.3447 18.2922 27.4039 18.14C27.4647 17.9873 27.4953 17.8243 27.4939 17.66V1.26C27.4998 1.09299 27.4726 0.926479 27.4139 0.77ZM8.93395 9.1L1.35395 16.1V2.86C4.86395 5.7 6.74395 7.27 8.00395 8.31L8.93395 9.1ZM15.1139 10.28C14.9527 10.4581 14.7559 10.6004 14.5363 10.6978C14.3167 10.7952 14.0792 10.8455 13.8389 10.8455C13.5987 10.8455 13.3611 10.7952 13.1416 10.6978C12.922 10.6004 12.7252 10.4581 12.5639 10.28C11.0639 9.11 10.2439 8.43 8.89395 7.28C7.47395 6.08 5.55395 4.48 1.75395 1.4H25.704C24.664 2.27 16.6839 9 15.1139 10.27V10.28ZM10.0039 10L11.7039 11.35C12.3048 11.876 13.0663 12.1827 13.8639 12.22C14.643 12.188 15.3862 11.8837 15.9639 11.36L17.9639 9.66L26.034 17.5H1.86395L10.0039 10ZM26.1539 2.82V15.62L19.094 8.76L26.1539 2.82Z" fill="#a4a1a1"/>
</svg>
