<?xml version="1.0" encoding="utf-8"?>
<!-- (c) Livemaster LLC - https://livemaster.ru -->
<!DOCTYPE svg PUBLIC "-//W3C//DTD SVG 1.1//EN" "http://www.w3.org/Graphics/SVG/1.1/DTD/svg11.dtd">
<svg viewBox="0 0 20 20" fill="none" xmlns="http://www.w3.org/2000/svg">
	<path d="M7.43665 15.0747C5.96582 15.0747 4.52802 14.6327 3.30507 13.8045C2.08212 12.9763 1.12895 11.7991 0.566085 10.4218C0.00322222 9.04453 -0.144048 7.52901 0.142897 6.06691C0.429841 4.6048 1.13811 3.26177 2.17815 2.20765C3.21818 1.15353 4.54327 0.435663 5.98584 0.144832C7.4284 -0.145999 8.92367 0.00326582 10.2825 0.573752C11.6414 1.14424 12.8029 2.11032 13.62 3.34984C14.4372 4.58935 14.8733 6.04662 14.8733 7.53737C14.8702 9.53545 14.0857 11.4508 12.6918 12.8637C11.2978 14.2765 9.40803 15.0716 7.43665 15.0747ZM7.43665 1.88435C6.33633 1.88667 5.26137 2.21951 4.3476 2.84079C3.43382 3.46207 2.72224 4.34393 2.30275 5.37493C1.88327 6.40594 1.7747 7.53983 1.99077 8.63335C2.20684 9.72687 2.73786 10.7309 3.51672 11.5187C4.29558 12.3065 5.28734 12.8426 6.36669 13.0593C7.44605 13.276 8.56456 13.1636 9.58091 12.7363C10.5973 12.309 11.4659 11.5859 12.0769 10.6585C12.688 9.73104 13.0141 8.64083 13.0141 7.5256C13.0111 6.02836 12.4221 4.59352 11.3764 3.53591C10.3308 2.47831 8.91389 1.88434 7.43665 1.88435Z" fill="#e76d00"/>
	<path fill-rule="evenodd" clip-rule="evenodd" d="M19.4748 16.6531L15.0476 12.166L12.2705 14.9808L16.6976 19.4678C16.9504 19.7699 17.3103 19.959 17.6995 19.9942C18.0887 20.0295 18.476 19.9081 18.7776 19.6563L19.6607 18.7612C19.9091 18.4555 20.0289 18.063 19.9941 17.6685C19.9593 17.274 19.7728 16.9093 19.4748 16.6531Z" fill="#e76d00"/>
</svg>
