<?xml version="1.0" encoding="utf-8"?>
<!-- (c) Livemaster LLC - https://livemaster.ru -->
<!DOCTYPE svg PUBLIC "-//W3C//DTD SVG 1.1//EN" "http://www.w3.org/Graphics/SVG/1.1/DTD/svg11.dtd">
<svg viewBox="0 0 17 19" fill="none" xmlns="http://www.w3.org/2000/svg">
	<path fill="#E56F00" d="M0 0.7C0 0.313401 0.313401 0 0.7 0H16.3C16.6866 0 17 0.313401 17 0.7V0.928571C17 1.31517 16.6866 1.62857 16.3 1.62857H0.7C0.313401 1.62857 0 1.31517 0 0.928571V0.7Z" transform="translate(0 17.3714)"/>
	<path fill="#E56F00" d="M5.03868 14.8921C5.51083 15.3835 6.08973 15.1124 6.26627 14.8921L11.0822 9.54532C11.3983 9.19367 11.3778 8.64714 11.037 8.32091C10.6963 7.99468 10.1666 8.01587 9.8546 8.36751L6.49208 12.1001V0.86429C6.49208 0.385541 6.11847 0 5.65453 0C5.19059 0 4.81698 0.385541 4.81698 0.86429V12.1043L1.45446 8.37175C1.13832 8.0201 0.608693 8.00316 0.267925 8.32515C-0.0728436 8.65137 -0.0892664 9.19791 0.222762 9.54956L5.03868 14.8921Z" transform="translate(3)"/>
</svg>
