<svg width="23" height="22" viewBox="0 0 23 22" fill="none" xmlns="http://www.w3.org/2000/svg">
<path d="M19.1563 13.037L22.8556 11.0407L19.1563 9.05259L21.3156 5.54074L17.0704 5.59778L17.1274 1.5237L13.4852 3.56074L11.4319 0L9.34593 3.56074L5.7037 1.48296L5.76074 5.55704L1.53185 5.50815L3.69111 9.02L0 11L3.69926 13.037L1.53185 16.5L5.76889 16.443L5.71185 20.517L9.36222 18.4393L11.4319 22L13.5015 18.4393L17.1437 20.5252L17.0867 16.4511L21.3319 16.5L19.1563 13.037ZM16.3941 19.3193L13.2244 17.4941L11.4319 20.5985L9.61481 17.5022L6.42074 19.2785L6.46963 15.7341L2.78667 15.783L4.70963 12.7356L1.53185 11L4.70963 9.27259L2.81926 6.22519L6.50222 6.27407V2.72963L9.67185 4.54667L11.4726 1.45037L13.2652 4.54667L16.4348 2.72963L16.3859 6.27407L20.0689 6.22519L18.1785 9.27259L21.397 11L18.1785 12.7274L20.0689 15.7748L16.3859 15.7341L16.3941 19.3193ZM17.1193 9.99778C16.9136 9.93544 16.7232 9.83073 16.5604 9.6904C16.3976 9.55007 16.266 9.37722 16.1741 9.18296C16.091 8.98457 16.0521 8.77049 16.06 8.55556C16.0687 8.34234 16.1243 8.13368 16.223 7.94444C16.3716 7.7404 16.4609 7.49922 16.4811 7.24757C16.5012 6.99592 16.4514 6.7436 16.337 6.51852C16.0681 6.11111 15.457 6.05407 14.7074 6.40444C14.4844 6.50473 14.243 6.55745 13.9985 6.55926C13.6772 6.5611 13.3634 6.46128 13.1022 6.27407C12.8386 6.09881 12.6408 5.84082 12.54 5.54074C12.2141 4.66074 11.7741 4.48148 11.4563 4.48148C11.1385 4.48148 10.6904 4.66889 10.3807 5.54074C10.2742 5.83775 10.0777 6.09411 9.81852 6.27407C9.55429 6.46141 9.23797 6.56115 8.91407 6.55926C8.66577 6.56028 8.42051 6.50454 8.19704 6.3963C7.38222 6.03778 6.82 6.09481 6.56741 6.51037C6.46804 6.72791 6.42634 6.96736 6.44632 7.20567C6.4663 7.44399 6.54729 7.67316 6.68148 7.87111C6.78363 8.05896 6.83949 8.26846 6.84444 8.48222C6.85085 8.69704 6.81199 8.91081 6.73037 9.10963C6.63798 9.3036 6.50624 9.47621 6.34351 9.61649C6.18079 9.75677 5.99065 9.86165 5.78519 9.92444C4.88074 10.2341 4.68518 10.6578 4.68518 10.9593C4.68518 11.2607 4.88074 11.7007 5.78519 12.0022C5.99664 12.0683 6.19124 12.1795 6.35556 12.3281C6.51651 12.4698 6.64446 12.645 6.73037 12.8415C6.81199 13.0403 6.85085 13.2541 6.84444 13.4689C6.83949 13.6827 6.78363 13.8922 6.68148 14.08C6.53203 14.278 6.43814 14.5122 6.40949 14.7586C6.38084 15.005 6.41848 15.2545 6.51852 15.4815C6.79556 15.8889 7.39852 15.9541 8.14815 15.5956C8.37113 15.4953 8.61255 15.4425 8.85704 15.4407C9.18076 15.4399 9.49677 15.5396 9.76148 15.7259C10.021 15.9072 10.2152 16.1672 10.3156 16.4674C10.6415 17.3393 11.0815 17.5185 11.3993 17.5185C11.717 17.5185 12.1652 17.3311 12.483 16.4674C12.5833 16.1672 12.7776 15.9072 13.037 15.7259C13.3036 15.5433 13.6184 15.444 13.9415 15.4407C14.186 15.4425 14.4274 15.4953 14.6504 15.5956C15.4244 15.9541 16.0274 15.8889 16.28 15.4815C16.3895 15.2653 16.4397 15.0239 16.4254 14.7819C16.4111 14.54 16.3328 14.3062 16.1985 14.1044C16.0999 13.9152 16.0443 13.7065 16.0356 13.4933C16.028 13.2776 16.0698 13.063 16.1578 12.8659C16.2407 12.6678 16.3691 12.4919 16.5326 12.3526C16.6969 12.204 16.8915 12.0928 17.103 12.0267C18.0074 11.717 18.1948 11.2852 18.1948 10.9837C18.1948 10.6822 18.0156 10.2667 17.1111 9.95704L17.1193 9.99778ZM16.8667 11.3993C16.5658 11.5037 16.2888 11.6672 16.0519 11.88C15.815 12.0932 15.6268 12.3549 15.5003 12.6474C15.3737 12.9399 15.3117 13.2562 15.3185 13.5748C15.3342 13.8929 15.4175 14.204 15.563 14.4874C15.7748 14.9274 15.7341 15.123 15.7178 15.1474H15.62C15.4173 15.1318 15.2201 15.0735 15.0415 14.9763C14.7182 14.8232 14.3644 14.7452 14.0067 14.7481C13.5304 14.7463 13.0657 14.8945 12.6785 15.1719C12.2984 15.4371 12.0129 15.8167 11.8637 16.2556C11.6926 16.7037 11.5296 16.8178 11.4889 16.8259C11.4481 16.8341 11.2852 16.7037 11.1222 16.2556C10.9715 15.8153 10.6865 15.4335 10.3074 15.1637C9.96239 14.9295 9.56237 14.789 9.14666 14.7562C8.73094 14.7233 8.31382 14.7992 7.9363 14.9763C7.75578 15.0748 7.55507 15.1305 7.34963 15.1393C7.31812 15.1511 7.28336 15.1511 7.25185 15.1393C7.25185 15.1393 7.19482 14.9193 7.41481 14.4874C7.55764 14.2035 7.6382 13.8924 7.65111 13.5748C7.65597 13.2537 7.59152 12.9354 7.46216 12.6415C7.33279 12.3476 7.14155 12.0851 6.90148 11.8719C6.66461 11.6609 6.38742 11.5001 6.08667 11.3993C5.62222 11.2363 5.5 11.0733 5.5 11.0407C5.5 11.0081 5.62222 10.8452 6.08667 10.6822C6.39058 10.5844 6.66892 10.4202 6.90148 10.2015C7.14836 9.97612 7.34063 9.69746 7.4637 9.38667C7.58755 9.0949 7.6459 8.77952 7.63464 8.46276C7.62338 8.146 7.54278 7.83557 7.39852 7.55333C7.17852 7.12148 7.21926 6.92593 7.23556 6.90148C7.26706 6.8896 7.30182 6.8896 7.33333 6.90148C7.53739 6.91846 7.73642 6.97375 7.92 7.06444C8.24358 7.21679 8.59717 7.29474 8.95481 7.29259C9.43342 7.29346 9.90044 7.14538 10.2911 6.86889C10.6685 6.60086 10.9532 6.22215 11.1059 5.78519C11.2689 5.32889 11.44 5.21481 11.4726 5.21481C11.5052 5.21481 11.6763 5.32889 11.8393 5.78519C11.992 6.22215 12.2767 6.60086 12.6541 6.86889C13.0447 7.14538 13.5118 7.29346 13.9904 7.29259C14.3588 7.29797 14.7237 7.21998 15.0578 7.06444C15.2414 6.97375 15.4404 6.91846 15.6444 6.90148C15.676 6.8896 15.7107 6.8896 15.7422 6.90148C15.7422 6.90148 15.7993 7.12148 15.5874 7.55333C15.4383 7.83525 15.3547 8.14721 15.343 8.46593C15.3343 8.78149 15.3926 9.0953 15.5141 9.38667C15.6371 9.69746 15.8294 9.97612 16.0763 10.2015C16.3089 10.4202 16.5872 10.5844 16.8911 10.6822C17.3474 10.8533 17.4696 11.0081 17.4696 11.0407C17.4696 11.0733 17.3474 11.2363 16.883 11.3993H16.8667ZM11.4319 7.62667C10.7309 7.62362 10.0438 7.82156 9.45185 8.19704C8.87438 8.56995 8.42064 9.10594 8.14815 9.73704C7.87716 10.3572 7.80596 11.0464 7.94444 11.7089C8.0853 12.3766 8.42304 12.9868 8.91407 13.4607C9.42376 13.9365 10.0575 14.2586 10.7423 14.3898C11.4271 14.5209 12.135 14.4559 12.7844 14.2022C13.4408 13.952 14.008 13.5124 14.4141 12.9393C14.8731 12.2886 15.0814 11.4939 15.0006 10.7017C14.9197 9.90958 14.5551 9.17337 13.9741 8.62889C13.2984 7.98319 12.399 7.62404 11.4644 7.62667H11.4319ZM11.4319 13.7541C10.8746 13.7571 10.3284 13.5986 9.85926 13.2978C9.40901 12.9857 9.06272 12.5458 8.86518 12.0348C8.65266 11.5421 8.5958 10.9963 8.70222 10.4704C8.80904 9.93905 9.07976 9.4546 9.4763 9.08519C9.87358 8.69992 10.3749 8.43934 10.9185 8.33556C11.4656 8.23545 12.0297 8.28904 12.5481 8.49037C13.0363 8.70445 13.4543 9.05181 13.7541 9.49259C14.1193 10.009 14.2851 10.6402 14.2207 11.2694C14.1563 11.8986 13.866 12.4832 13.4037 12.9148C12.8721 13.4345 12.159 13.7268 11.4156 13.7296L11.4319 13.7541Z" fill="#8F8F8F"/>
</svg>
