<svg width="22" height="19" viewBox="0 0 22 19" fill="none" xmlns="http://www.w3.org/2000/svg">
<path d="M15.58 0C14.5784 0.012688 13.5978 0.288153 12.7361 0.798836C11.8744 1.30952 11.162 2.03752 10.67 2.91C10.1788 2.03685 9.4665 1.3083 8.60466 0.79751C7.74282 0.286723 6.76175 0.0116803 5.75999 0C4.18968 0.0625225 2.70658 0.738655 1.62949 1.88306C0.552401 3.02747 -0.032689 4.54878 -1.3706e-05 6.12C0.0115341 6.59258 0.0923962 7.06091 0.239986 7.51C0.70648 8.97218 1.51958 10.2999 2.60999 11.38L8.92999 17.79C9.15635 18.022 9.42701 18.2062 9.72591 18.3316C10.0248 18.457 10.3458 18.5211 10.67 18.52V18.52C10.9955 18.5201 11.3178 18.4557 11.6181 18.3304C11.9185 18.2051 12.1911 18.0214 12.42 17.79L18.8 11.3C19.873 10.2347 20.6694 8.92332 21.12 7.48C21.2591 7.03947 21.3365 6.58178 21.35 6.12C21.3826 4.54712 20.7961 3.02435 19.7169 1.87967C18.6377 0.734986 17.1521 0.0599688 15.58 0V0ZM19.68 7.05C19.3008 8.25978 18.6313 9.3584 17.73 10.25L11.35 16.73C11.1656 16.8987 10.9248 16.9922 10.675 16.9922C10.4251 16.9922 10.1843 16.8987 9.99999 16.73L3.67999 10.33C2.76508 9.41664 2.07968 8.29944 1.67999 7.07C1.57654 6.74633 1.51931 6.40967 1.50999 6.07C1.47735 4.90304 1.90459 3.76999 2.6996 2.91511C3.49462 2.06024 4.59373 1.55201 5.75999 1.5C6.72539 1.52437 7.6548 1.87151 8.39979 2.48599C9.14478 3.10048 9.6624 3.94686 9.86999 4.89C9.91595 5.06812 10.0191 5.22623 10.1636 5.34004C10.3082 5.45385 10.4861 5.51708 10.67 5.52C10.8518 5.50944 11.0259 5.44337 11.169 5.33072C11.312 5.21806 11.4171 5.06424 11.47 4.89C11.6808 3.94848 12.1993 3.10405 12.9436 2.49014C13.6879 1.87622 14.6156 1.52782 15.58 1.5C16.7578 1.54942 17.8682 2.06316 18.6683 2.92889C19.4685 3.79462 19.8933 4.94193 19.85 6.12C19.8368 6.43639 19.7796 6.7494 19.68 7.05Z" fill="#E76D00"/>
</svg>
