<svg width="24" height="23" viewBox="0 0 24 23" fill="none" xmlns="http://www.w3.org/2000/svg">
<path d="M17.3183 6.17343V6.92343H18.0683H21.7051C21.8711 6.92391 22.035 6.96053 22.1854 7.03073C22.3361 7.10104 22.4696 7.20335 22.5767 7.33053L23.1503 6.84759L22.5772 7.33116C22.6835 7.45711 22.761 7.60474 22.8044 7.76374C22.8474 7.9215 22.8558 8.08668 22.8289 8.24795L21.043 18.0542L21.0429 18.0542L21.0407 18.068C20.8939 18.9684 20.4315 19.7871 19.736 20.3776C19.0406 20.968 18.1577 21.2916 17.2455 21.2903H17.2444H6.44897V21.2903L6.44047 21.2904C5.51915 21.3008 4.62445 20.9815 3.91798 20.39C3.2115 19.7985 2.7398 18.9739 2.58808 18.0651L2.5882 18.0651L2.58573 18.0518L0.767725 8.25602C0.767603 8.25534 0.767481 8.25466 0.767361 8.25398C0.738423 8.09058 0.745729 7.92281 0.788772 7.76253C0.831994 7.60158 0.910188 7.45215 1.01778 7.32488C1.12537 7.19761 1.25971 7.09565 1.41123 7.02625C1.56274 6.95685 1.7277 6.92173 1.89434 6.92339L1.89434 6.92343H1.90181H5.55024H6.30024V6.17343V5.02935C6.30287 3.89522 6.75457 2.80827 7.55654 2.0063C8.35853 1.2043 9.44552 0.752605 10.5797 0.75H13.0388C14.173 0.752605 15.26 1.2043 16.062 2.0063C16.864 2.80827 17.3157 3.89522 17.3183 5.02935C17.3183 5.02964 17.3183 5.02992 17.3183 5.03021L17.3183 6.17343ZM13.042 0.854878H13.0397H10.5789C9.47191 0.854878 8.4103 1.29461 7.62757 2.07734C6.84485 2.86007 6.40512 3.92167 6.40512 5.02862V6.17343V6.92343H7.15512H16.4634H17.2134V6.17343L17.2134 5.02862L17.2134 5.02629C17.21 3.92102 16.7694 2.862 15.9878 2.08046C15.2063 1.29891 14.1473 0.85832 13.042 0.854878Z" fill="#FFC5A4" stroke="#E87331" stroke-width="1.5"/>
</svg>
