<svg width="23" height="19" viewBox="0 0 23 19" fill="none" xmlns="http://www.w3.org/2000/svg">
<path d="M21.83 1.62C21.4903 1.13836 21.0414 0.74406 20.5199 0.469421C19.9984 0.194783 19.4193 0.0476225 18.83 0.0400009H3.83C3.24068 0.0476225 2.66156 0.194783 2.14009 0.469421C1.61863 0.74406 1.16967 1.13836 0.83 1.62V1.62C0.33663 2.22529 0.0462485 2.97048 0 3.75L0 14.75C0 15.2425 0.0969966 15.7301 0.285452 16.1851C0.473907 16.64 0.75013 17.0534 1.09835 17.4017C1.80161 18.1049 2.75544 18.5 3.75 18.5H18.75C19.2425 18.5 19.7301 18.403 20.1851 18.2145C20.64 18.0261 21.0534 17.7499 21.4017 17.4017C21.7499 17.0534 22.0261 16.64 22.2145 16.1851C22.403 15.7301 22.5 15.2425 22.5 14.75V3.75C22.5 2.98814 22.2662 2.24464 21.83 1.62V1.62ZM18.75 1.5C19.2565 1.5047 19.7465 1.68096 20.14 2L11.8 8.8C11.6464 8.93036 11.4515 9.00193 11.25 9.00193C11.0485 9.00193 10.8536 8.93036 10.7 8.8L2.36 2C2.75347 1.68096 3.24346 1.5047 3.75 1.5H18.75ZM21 14.75C21 15.3467 20.7629 15.919 20.341 16.341C19.919 16.7629 19.3467 17 18.75 17H3.75C3.15326 17 2.58097 16.7629 2.15901 16.341C1.73705 15.919 1.5 15.3467 1.5 14.75V3.75C1.50181 3.5888 1.51855 3.42811 1.55 3.27L9.75 10C10.1749 10.3425 10.7042 10.5293 11.25 10.5293C11.7958 10.5293 12.3251 10.3425 12.75 10L21 3.27C21.0315 3.42811 21.0482 3.5888 21.05 3.75L21 14.75Z" fill="#E76D00"/>
</svg>
