<svg width="25" height="25" viewBox="0 0 25 25" fill="none" xmlns="http://www.w3.org/2000/svg">
<path d="M23.755 16.3565L20.1988 15.8393L18.6106 12.6208C18.5217 12.4398 18.3374 12.3252 18.1358 12.3252C17.9342 12.3252 17.75 12.4398 17.6609 12.6208L16.0727 15.8393L15.7404 15.8869C14.1011 14.3582 11.9403 13.5126 9.69895 13.523H9.68311C7.26662 13.5283 5.02415 14.4675 3.36202 16.177C1.67893 17.9076 0.75565 20.2662 0.760763 22.8253C0.761753 22.9651 0.816685 23.0993 0.913846 23.1999C1.01299 23.299 1.14809 23.3543 1.28847 23.3528L14.189 23.3264C14.1624 23.5181 14.2436 23.7088 14.4001 23.8226C14.5626 23.9382 14.7758 23.9544 14.9541 23.8645L18.1304 22.192L21.3068 23.8645C21.4867 23.9551 21.7018 23.9391 21.8661 23.8226C22.029 23.7042 22.1109 23.5039 22.0772 23.3055L21.4703 19.7649L24.0399 17.2587C24.1836 17.1173 24.2347 16.9068 24.1719 16.7151C24.1126 16.5259 23.951 16.3869 23.755 16.3565ZM14.3685 22.2712L1.82657 22.2975C1.93742 20.2238 2.73946 18.3298 4.11654 16.921C5.57809 15.4172 7.55678 14.5889 9.68311 14.5889H9.69895C11.3664 14.5832 12.9917 15.112 14.3368 16.0978L12.5165 16.3616C12.3172 16.3897 12.1512 16.529 12.0891 16.7206C12.027 16.9119 12.0778 17.1222 12.2209 17.2639L14.7906 19.7702L14.3685 22.2712ZM20.5365 19.2004C20.4116 19.3223 20.3545 19.4978 20.3836 19.6699L20.8585 22.4295L18.3785 21.1262C18.3019 21.0867 18.2168 21.0666 18.1304 21.0681C18.0444 21.0691 17.96 21.0889 17.8824 21.1262L15.4026 22.4295L15.8775 19.6699C15.9082 19.4978 15.8508 19.3213 15.7246 19.2004L13.7195 17.2481L16.4895 16.8471C16.6619 16.8233 16.8107 16.7143 16.8853 16.5569L18.1253 14.0454L19.3651 16.5569C19.4421 16.7123 19.5896 16.8205 19.7608 16.8471L22.531 17.2481L20.5365 19.2004Z" fill="#A4A1A1" stroke="#A4A1A1" stroke-width="0.25"/>
<path d="M9.69334 12.2723C12.7733 12.2723 15.2703 9.77526 15.2703 6.69513C15.2703 3.61516 12.7733 1.11816 9.69334 1.11816C6.61321 1.11816 4.11621 3.61516 4.11621 6.69513C4.11918 9.7741 6.61436 12.2693 9.69334 12.2723ZM9.69334 2.17341C12.1907 2.17341 14.2151 4.1978 14.2151 6.69513C14.2151 9.19262 12.1907 11.2168 9.69334 11.2168C7.19585 11.2168 5.17162 9.19262 5.17162 6.69513C5.17443 4.19895 7.19717 2.17622 9.69334 2.17341Z" fill="#A4A1A1" stroke="#A4A1A1" stroke-width="0.25"/>
</svg>
