<svg viewBox="0 0 17 17" fill="none"
	xmlns="http://www.w3.org/2000/svg">
	<circle cx="8.5" cy="8.5" r="8.5" fill="url(#paint0_linear)"/>
	<g clip-path="url(#clip0)">
		<path d="M8.5 15C6.76379 15 5.1315 14.3239 3.90379 13.0962C2.67613 11.8685 2 10.2362 2 8.5C2 6.76379 2.67613 5.1315 3.90379 3.90379C5.1315 2.67613 6.76379 2 8.5 2C10.2362 2 11.8685 2.67613 13.0962 3.90379C14.3239 5.1315 15 6.76379 15 8.5C15 10.2362 14.3239 11.8685 13.0962 13.0962C11.8685 14.3239 10.2362 15 8.5 15ZM8.5 3.01562C5.4759 3.01562 3.01562 5.4759 3.01562 8.5C3.01562 11.5241 5.4759 13.9844 8.5 13.9844C11.5241 13.9844 13.9844 11.5241 13.9844 8.5C13.9844 5.4759 11.5241 3.01562 8.5 3.01562ZM10.7931 10.834C10.9914 10.6357 10.9914 10.3142 10.7931 10.1159C10.5948 9.91753 10.2732 9.91756 10.075 10.1159C9.18395 11.0068 7.73424 11.0069 6.84324 10.1159C6.41165 9.68424 6.17394 9.11039 6.17394 8.5C6.17394 7.88961 6.41165 7.31576 6.84324 6.88414C7.73424 5.99313 9.18395 5.99318 10.075 6.88414C10.2733 7.08247 10.5948 7.08247 10.7931 6.88414C10.9914 6.68581 10.9914 6.36429 10.7931 6.16599C9.5061 4.87902 7.41204 4.87904 6.12509 6.16599C5.50162 6.78943 5.15829 7.61834 5.15829 8.5C5.15829 9.38166 5.50162 10.2106 6.12509 10.834C6.76856 11.4775 7.61382 11.7992 8.4591 11.7992C9.30438 11.7992 10.1496 11.4775 10.7931 10.834Z" fill="white"/>
	</g>
	<defs>
		<linearGradient id="paint0_linear" x1="-2.85111e-07" y1="4" x2="18" y2="24.5" gradientUnits="userSpaceOnUse">
			<stop stop-color="#47E9FF"/>
			<stop offset="1" stop-color="#1153EB"/>
		</linearGradient>
		<clipPath id="clip0">
			<rect width="13" height="13" fill="white" transform="translate(2 2)"/>
		</clipPath>
	</defs>
</svg>
