<svg width="27" height="22" viewBox="0 0 27 22" fill="none" xmlns="http://www.w3.org/2000/svg">
<path d="M26.1641 7.02924C26.1569 6.8432 26.0931 6.66379 25.9812 6.51498L22.2785 0.366687C22.212 0.256074 22.1183 0.164367 22.0062 0.100339C21.8942 0.0363115 21.7676 0.00210421 21.6385 0.000989621H4.57646C4.43974 -0.00602027 4.30369 0.0243124 4.1829 0.0887357C4.0621 0.153159 3.96112 0.249243 3.89078 0.366687L0.119517 6.67497C0.056833 6.77119 0.0176831 6.88081 0.00523692 6.99496C-0.0471947 8.03785 0.295599 9.06215 0.965194 9.8634C1.30242 10.2355 1.72084 10.5249 2.188 10.7091V21.2457C2.188 21.4458 2.26746 21.6376 2.40891 21.7791C2.55036 21.9205 2.74221 22 2.94225 22H23.3299C23.5299 22 23.7218 21.9205 23.8632 21.7791C24.0047 21.6376 24.0842 21.4458 24.0842 21.2457V10.7662C24.5216 10.591 24.9126 10.3173 25.227 9.96626C25.573 9.5651 25.8344 9.09815 25.9954 8.59344C26.1565 8.08873 26.2138 7.55668 26.1641 7.02924ZM4.96501 1.50949H21.2157L24.107 6.29785H2.09657L4.96501 1.50949ZM18.4958 7.81778C18.3497 8.30935 18.0477 8.74011 17.6355 9.04517C17.2233 9.35023 16.723 9.51306 16.2102 9.50913H16.1531C15.6559 9.47966 15.1786 9.30317 14.7819 9.00204C14.3851 8.70092 14.0867 8.28874 13.9246 7.81778H18.4958ZM12.279 7.81778C12.1516 8.32278 11.8556 8.76914 11.4399 9.08296C11.0243 9.39678 10.5139 9.55923 9.99336 9.54342C9.482 9.53777 8.98624 9.36657 8.58036 9.05547C8.17448 8.74436 7.88035 8.31011 7.74203 7.81778H12.279ZM1.58231 7.81778H6.02782C5.88116 8.28626 5.59435 8.69849 5.20609 8.99888C4.81783 9.29927 4.34679 9.47338 3.85649 9.49771C3.53833 9.51808 3.21942 9.47167 2.92027 9.36145C2.62111 9.25124 2.34832 9.07966 2.11943 8.85773C1.84905 8.56645 1.66333 8.20687 1.58231 7.81778ZM10.9876 20.5029H7.03349V14.4918C7.03348 14.3647 7.05869 14.239 7.10764 14.1217C7.1566 14.0045 7.22833 13.8982 7.31869 13.8089C7.40904 13.7196 7.51622 13.6491 7.63401 13.6016C7.7518 13.554 7.87785 13.5303 8.00488 13.5318H10.0276C10.2822 13.5318 10.5264 13.6329 10.7064 13.813C10.8865 13.993 10.9876 14.2372 10.9876 14.4918V20.5029ZM12.4961 20.5029V14.4918C12.4961 13.8371 12.236 13.2092 11.7731 12.7463C11.3102 12.2834 10.6823 12.0233 10.0276 12.0233H8.00488C7.3502 12.0233 6.72234 12.2834 6.25941 12.7463C5.79649 13.2092 5.53642 13.8371 5.53642 14.4918V20.4915H3.6965V10.9948H3.78792C4.39215 11.0001 4.98843 10.857 5.52443 10.578C6.06043 10.2991 6.51975 9.89278 6.86207 9.39485C7.19755 9.90103 7.65238 10.3169 8.18647 10.6059C8.72057 10.8949 9.31754 11.048 9.92479 11.0519H10.0391C10.6511 11.0679 11.2573 10.9285 11.8009 10.6467C12.3445 10.3649 12.8078 9.94995 13.1475 9.44057C13.505 9.93225 13.9744 10.3317 14.5169 10.606C15.0594 10.8802 15.6595 11.0213 16.2674 11.0176C16.8684 11.0187 17.4609 10.8762 17.9957 10.6019C18.5304 10.3275 18.9918 9.92937 19.3415 9.44057C19.7113 9.9506 20.2006 10.3621 20.7664 10.6391C21.3323 10.916 21.9574 11.0499 22.5871 11.0291V20.5029H12.4961ZM22.7128 9.52056C22.1572 9.5718 21.6008 9.43061 21.1369 9.12063C20.673 8.81065 20.3296 8.3507 20.1643 7.81778H24.667C24.6054 8.23919 24.4273 8.635 24.1527 8.96059C23.9644 9.14767 23.739 9.29315 23.491 9.38764C23.2429 9.48213 22.9778 9.52352 22.7128 9.50913V9.52056Z" fill="#666666"/>
</svg>
