<svg width="10" height="17" viewBox="0 0 10 17" fill="none" xmlns="http://www.w3.org/2000/svg">
<path d="M7.82513 8.5366C7.80277 8.23768 7.55374 7.99083 7.26998 7.98623L5.3919 7.95581C5.28281 7.95406 5.17223 7.8526 5.15529 7.73874L4.74149 4.95962C4.72649 4.85895 4.63764 4.44849 4.15256 4.44849L1.81707 4.55592C1.5094 4.57005 1.25927 4.72808 1.25927 5.17161C1.25927 5.17161 1.24944 11.3486 1.23748 11.5725L1.15577 13.1008C1.14484 13.3049 1.06956 13.6353 0.991388 13.8222L0.0460715 16.0826C-0.0163271 16.2317 -0.0153012 16.3966 0.0489014 16.5349C0.113104 16.6732 0.235814 16.7751 0.385655 16.8144L0.700372 16.8969C0.747206 16.9092 0.796234 16.9154 0.846039 16.9154C1.10009 16.9154 1.34311 16.7597 1.45078 16.5278L2.34937 14.5929C2.44863 14.3792 2.57215 14.017 2.62479 13.7855L3.13183 11.5541L4.35889 13.5365C4.46006 13.7 4.56703 14.0136 4.58779 14.2077L4.82501 16.4271C4.85876 16.743 5.13113 17 5.43216 17L5.79105 16.9987C5.94503 16.9982 6.08504 16.9333 6.18529 16.8159C6.2855 16.6985 6.33237 16.5448 6.31716 16.383L6.06941 13.7443C6.04656 13.5009 5.96382 13.1314 5.88104 12.903L4.78153 9.86913L4.77474 9.22957L7.33015 9.12964C7.47281 9.12407 7.60316 9.05954 7.69718 8.94795C7.7912 8.83641 7.8368 8.69216 7.82555 8.54164L7.82513 8.5366ZM5.43216 16.8131V16.8132V16.8131Z" fill="#7685B4"/>
<path d="M2.5634 3.65942C2.76001 3.65942 2.95442 3.62399 3.14123 3.55408C3.57727 3.39107 3.92708 3.05842 4.12623 2.61739C4.26705 2.30555 4.32018 1.96594 4.28492 1.63093L4.86525 1.56176C5.06748 1.53765 5.27275 1.36725 5.34272 1.16538L5.53709 0.60459C5.57859 0.484786 5.56766 0.363561 5.50706 0.271933C5.44799 0.182622 5.34845 0.131389 5.23398 0.131389C5.22071 0.131389 5.20699 0.132061 5.19291 0.133481L3.51487 0.30209C3.23826 0.109603 2.90928 0 2.56323 0C2.36669 0 2.17235 0.0353883 1.98548 0.105231C1.54947 0.268346 1.19966 0.60104 1.00047 1.04207C0.801285 1.48309 0.77663 1.97961 0.931034 2.44015C1.1755 3.16944 1.8315 3.65942 2.5634 3.65942Z" fill="#7685B4"/>
<path d="M9.99858 6.52164L9.83162 3.98643C9.81177 3.68535 9.56324 3.44043 9.27657 3.44043L6.0686 3.44633C5.92498 3.4466 5.79297 3.5068 5.69686 3.61584C5.60079 3.72484 5.55331 3.86823 5.56333 4.01961L5.73029 6.55483C5.75013 6.85591 5.99867 7.10082 6.28438 7.10082L9.49331 7.09492C9.63692 7.09466 9.76893 7.03449 9.86504 6.92545C9.96112 6.81641 10.0086 6.67299 9.99858 6.52164Z" fill="#7685B4"/>
</svg>
