<svg width="22" height="19" viewBox="0 0 22 19" fill="none" xmlns="http://www.w3.org/2000/svg">
<path d="M21.7584 0.244457C21.5973 0.0816661 21.4059 0 21.1855 0H8.14829C7.92764 0 7.73656 0.0816661 7.5754 0.244457C7.4142 0.407474 7.33353 0.600598 7.33353 0.823602V3.29423H5.29638C5.06717 3.29423 4.81878 3.34998 4.55145 3.46148C4.28407 3.57316 4.0698 3.71017 3.90859 3.87319L1.38765 6.42102C1.27737 6.53252 1.18199 6.66111 1.10118 6.80704C1.0206 6.95262 0.961161 7.08377 0.922945 7.19937C0.884818 7.31529 0.857081 7.4738 0.840269 7.67558C0.823413 7.87726 0.812621 8.02523 0.808385 8.11965C0.804327 8.21393 0.804327 8.377 0.808385 8.60865C0.812666 8.8404 0.814807 8.99039 0.814807 9.05912V13.1767C0.594204 13.1767 0.403256 13.2581 0.241918 13.4213C0.0806691 13.584 0 13.7772 0 14.0002C0 14.1287 0.0168562 14.2425 0.0508362 14.3411C0.0848608 14.4398 0.142074 14.519 0.222877 14.5792C0.303457 14.6394 0.373512 14.6885 0.432866 14.7273C0.492398 14.7658 0.592108 14.7914 0.732131 14.8044C0.872153 14.8173 0.967583 14.826 1.01855 14.8303C1.06952 14.8343 1.17766 14.8343 1.34315 14.8303C1.50881 14.826 1.60424 14.8238 1.62975 14.8238H2.44451C2.44451 15.7329 2.76286 16.5093 3.39929 17.1527C4.03595 17.796 4.80402 18.1178 5.70378 18.1178C6.60345 18.1178 7.37161 17.796 8.00813 17.1527C8.64479 16.5093 8.96292 15.7329 8.96292 14.8238H13.852C13.852 15.7329 14.1703 16.5093 14.8068 17.1527C15.4432 17.796 16.2114 18.1178 17.1112 18.1178C18.0111 18.1178 18.7788 17.796 19.4155 17.1527C20.0522 16.5093 20.3703 15.7329 20.3703 14.8238C20.3957 14.8238 20.4912 14.826 20.6566 14.8303C20.8222 14.8343 20.9304 14.8343 20.9814 14.8303C21.0324 14.826 21.128 14.8173 21.268 14.8044C21.4079 14.7914 21.5076 14.7658 21.5671 14.7273C21.6266 14.6887 21.6965 14.6394 21.7771 14.5792C21.8578 14.519 21.9152 14.4398 21.949 14.3411C21.9834 14.2425 22 14.1287 22 14.0002V0.823737C22.0002 0.600688 21.9196 0.40779 21.7584 0.244457ZM6.84938 15.9819C6.52701 16.3077 6.14494 16.471 5.7036 16.471C5.26222 16.471 4.88023 16.3079 4.55769 15.9819C4.23515 15.6561 4.07394 15.2699 4.07394 14.8239C4.07394 14.3778 4.23533 13.9915 4.55769 13.6656C4.88019 13.3398 5.26217 13.1766 5.7036 13.1766C6.14494 13.1766 6.52697 13.3397 6.84938 13.6656C7.17205 13.9915 7.33335 14.3778 7.33335 14.8239C7.33335 15.2699 7.17205 15.6561 6.84938 15.9819ZM7.33335 8.23543H2.44433V7.84955C2.44433 7.738 2.48246 7.64362 2.55885 7.56637L5.04153 5.05726C5.11787 4.98001 5.21138 4.94152 5.3217 4.94152H7.33335V8.23543ZM18.2569 15.9819C17.9345 16.3077 17.5525 16.471 17.1112 16.471C16.6697 16.471 16.2875 16.3079 15.9651 15.9819C15.6427 15.6561 15.4813 15.2699 15.4813 14.8239C15.4813 14.3778 15.6426 13.9915 15.9651 13.6656C16.2875 13.3398 16.6697 13.1766 17.1112 13.1766C17.5525 13.1766 17.9345 13.3397 18.2569 13.6656C18.5793 13.9916 18.7408 14.3778 18.7408 14.8239C18.7408 15.2699 18.5797 15.6561 18.2569 15.9819Z" fill="#7685B4"/>
</svg>
