<?xml version="1.0" encoding="utf-8"?>
<!-- (c) Livemaster LLC - https://livemaster.ru -->
<!DOCTYPE svg PUBLIC "-//W3C//DTD SVG 1.1//EN" "http://www.w3.org/Graphics/SVG/1.1/DTD/svg11.dtd">
<svg xmlns="http://www.w3.org/2000/svg" viewBox="0 0 18 14.4">
    <title>Bank card icon</title>
    <path fill="#cfcfcf" d="M17.56.44A1.44,1.44,0,0,0,16.5,0H1.5A1.44,1.44,0,0,0,.44.44,1.44,1.44,0,0,0,0,1.5V12.9A1.44,1.44,0,0,0,.44,14a1.44,1.44,0,0,0,1.06.44h15A1.5,1.5,0,0,0,18,12.9V1.5A1.44,1.44,0,0,0,17.56.44ZM16.8,12.9a.3.3,0,0,1-.3.3H1.5a.3.3,0,0,1-.3-.3V7.2H16.8Zm0-9.3H1.2V1.5a.3.3,0,0,1,.3-.3h15a.3.3,0,0,1,.3.3Zm0,0"/>
</svg>
