<svg width="19" height="19" viewBox="0 0 19 19" fill="none" xmlns="http://www.w3.org/2000/svg">
<g clip-path="url(#clip0)">
<path d="M9.49937 18.9993C14.7457 18.9993 18.9987 14.7463 18.9987 9.49998C18.9987 4.25362 14.7457 0.000610352 9.49937 0.000610352C4.25301 0.000610352 0 4.25362 0 9.49998C0 14.7463 4.25301 18.9993 9.49937 18.9993Z" fill="#65B1EF"/>
<path d="M4.88278 17.4714C4.88099 17.475 4.87861 17.4774 4.87683 17.4809C4.8911 17.4845 4.90478 17.4893 4.91905 17.4922L4.88278 17.4714Z" fill="#E9EFF4"/>
<path d="M4.28526 4.0827L4.26624 4.04405C4.42499 4.02027 4.4357 3.90849 4.5564 3.86746C4.69375 3.82227 4.64678 3.87162 4.78176 3.86746C4.89116 3.8627 4.95776 3.94238 5.08262 3.88411C5.0523 3.93762 5.00295 3.97449 4.9536 4.01076C4.85073 4.08389 4.74548 4.15881 4.623 4.18735C4.50051 4.2153 4.35661 4.18557 4.28526 4.0827Z" fill="#E9EFF4"/>
<path d="M6.18559 12.5497C6.18321 12.6336 6.13386 12.7067 6.09105 12.7775C5.90018 13.089 5.78423 13.45 5.75867 13.8156C5.7331 14.1659 5.74856 14.5975 5.44353 14.77C5.26931 14.8669 5.02433 14.8497 4.90838 15.0132C4.87211 15.0625 4.85487 15.125 4.83763 15.1832C4.76271 15.4562 4.68719 15.7291 4.61227 16.002C4.51535 15.9937 4.41665 15.983 4.32032 15.9723C4.43449 16.0085 4.51357 16.1631 4.44519 16.269C4.33578 16.2113 4.19189 16.2797 4.13124 16.3897C4.07356 16.4991 4.08189 16.6323 4.114 16.753C4.21329 17.1097 4.51832 17.3975 4.87746 17.4832C4.81503 17.6015 4.62416 17.5497 4.50762 17.4707C3.67577 16.9082 3.04787 16.0513 2.76127 15.0887C2.66019 14.7492 2.59538 14.3882 2.39738 14.0963C2.23208 13.8495 1.98235 13.6688 1.81705 13.422C1.58515 13.0676 1.54174 12.608 1.27298 12.2839C1.12255 12.099 0.890061 11.8719 1.02325 11.6739C1.07677 11.5924 1.19093 11.5151 1.14574 11.4289C1.13087 11.401 1.10055 11.3837 1.07677 11.3599C0.986386 11.263 1.04882 11.1108 1.09401 10.9859C1.16893 10.7689 1.16893 10.537 1.13682 10.3051C0.910872 10.1029 0.732491 9.85202 0.620706 9.57018C0.55411 9.39834 0.465515 9.18369 0.281188 9.18131C0.23362 9.04812 0.184268 8.91493 0.136699 8.78174C0.119456 8.82931 0.0724824 8.85904 0.020752 8.86558C0.163457 6.68874 1.04109 4.71347 2.40689 3.18296C2.43722 3.16988 2.46695 3.15264 2.49727 3.13539C2.82133 2.94631 3.07939 2.66269 3.39274 2.45636C3.45696 2.41355 3.5301 2.37252 3.60977 2.38084C3.68707 2.38738 3.76021 2.46647 3.73226 2.5396C3.72156 2.56993 3.69599 2.59371 3.66983 2.61274C3.30296 2.92491 2.90101 3.19783 2.47349 3.42378C2.42235 3.44934 2.36824 3.47967 2.34505 3.5314C2.30165 3.6194 2.37478 3.72881 2.46754 3.76092C2.5597 3.79302 2.66317 3.774 2.75771 3.75259C2.67803 3.86616 2.65425 4.01897 2.69527 4.15216C2.78327 4.16049 2.81122 4.04038 2.83738 3.95654C2.94441 3.62356 3.47539 3.48799 3.44091 3.13718C3.5848 3.2121 3.73107 3.04442 3.81907 2.90707C3.90707 2.76734 4.1027 2.62998 4.21032 2.75247C4.21627 2.82085 4.22459 2.88982 4.23113 2.9588C4.42022 2.91123 4.61168 2.86188 4.80076 2.81431C4.69314 2.88982 4.65687 3.05096 4.71871 3.16691C4.78114 3.28286 4.93574 3.34113 5.05822 3.29356C5.05644 3.39464 4.96606 3.47194 4.88401 3.53199C4.67589 3.68897 4.45232 3.85011 4.20973 3.9274L4.26562 4.04335C4.25967 4.04573 4.25313 4.04811 4.24659 4.04811C4.09199 4.06297 3.92848 3.95178 3.76318 3.97319C3.6621 3.98627 3.53783 3.98627 3.47955 4.08914C3.47123 4.10222 3.43496 4.28238 3.46053 4.26752C3.55091 4.21579 3.64069 4.16406 3.72929 4.11292C3.75664 4.18606 3.76318 4.26752 3.74831 4.34719C3.85772 4.33649 3.97188 4.35968 4.06881 4.41795C3.96772 4.65223 3.70788 4.8092 3.4522 4.78958C3.44982 4.71228 3.44566 4.63498 3.44328 4.55768C3.23279 4.54044 3.06095 4.7212 2.95571 4.90196C2.84868 5.0845 2.76722 5.29321 2.59062 5.40915C2.4836 5.48229 2.35219 5.51024 2.23624 5.57029C2.12267 5.63273 2.01743 5.75105 2.04121 5.8777C2.05191 5.93776 2.09056 5.99365 2.08878 6.05608C2.08224 6.17203 1.94726 6.22614 1.85688 6.30106C1.70229 6.43009 1.66364 6.66674 1.49834 6.78031C1.37823 6.86415 1.21888 6.86236 1.07914 6.90517C0.939413 6.94799 0.799681 7.08772 0.856168 7.22329C0.787194 7.24707 0.703356 7.19534 0.696815 7.1222C0.450055 7.60799 0.287134 8.1366 0.220538 8.67828C0.343026 8.7639 0.467298 8.56828 0.491082 8.42022C0.51665 8.27216 0.645679 8.07832 0.765789 8.16633C0.737842 8.37919 0.709896 8.58968 0.682544 8.80255C0.676004 8.84358 0.671842 8.88639 0.691463 8.92266C0.715248 8.96785 0.766383 8.98688 0.805627 9.01899C0.915034 9.11353 0.900169 9.28121 0.90671 9.4251C0.91325 9.6011 0.971521 9.77294 1.06368 9.92338C1.05477 9.89305 1.04882 9.86332 1.04228 9.833C1.20996 9.8544 1.38418 9.80029 1.51083 9.68851C1.57742 9.62845 1.63331 9.55115 1.71715 9.52083C1.80337 9.48872 1.89791 9.51191 1.98591 9.53569C2.25884 9.61061 2.549 9.69445 2.73154 9.9091C2.82371 10.0185 2.88198 10.1565 2.99198 10.2462C3.24112 10.4567 3.66269 10.364 3.89042 10.5982C4.07297 10.7873 4.03907 11.0924 3.98972 11.3522C3.86486 11.2838 3.69777 11.4557 3.77091 11.5782C3.8375 11.505 3.9148 11.4277 4.01172 11.4277C4.11043 11.4253 4.19664 11.5609 4.12351 11.6233C4.29535 11.4039 4.71633 11.4943 4.78292 11.7672C5.02374 11.7845 5.26633 11.8011 5.50715 11.8208C5.46077 12.1739 6.20045 12.1948 6.18559 12.5497Z" fill="#E9EFF4"/>
<path d="M4.72114 2.60852C4.62838 2.6543 4.50054 2.60257 4.46605 2.50506C4.43097 2.40755 4.49697 2.28684 4.59805 2.26365C4.66168 2.24879 4.75027 2.25592 4.7699 2.19349C4.77584 2.17446 4.77227 2.15365 4.77227 2.13403C4.7699 2.0163 4.87514 1.91879 4.98871 1.88906C5.10228 1.85992 5.22239 1.88251 5.33775 1.90511C5.37877 1.99014 5.39066 2.08884 5.37104 2.181C5.29196 2.18457 5.21288 2.18754 5.13379 2.19111C5.14093 2.32252 5.12785 2.48782 5.00595 2.53657C4.89655 2.57998 4.75384 2.49911 4.66287 2.57284" fill="#E9EFF4"/>
<path d="M5.95251 1.2963C6.16836 1.19284 6.3509 1.02992 6.56377 0.92051C6.93004 0.732615 7.35756 0.715967 7.76903 0.702885C8.70552 0.67375 9.64202 0.644614 10.5785 0.615479C10.3615 0.734399 10.1445 0.853915 9.92684 0.972835C9.74965 1.07035 9.54808 1.17024 9.35364 1.11495C9.34948 1.27133 9.49159 1.41641 9.64856 1.41522C9.26386 1.65306 8.7299 1.40987 8.32379 1.60966C8.15373 1.69349 8.01638 1.85166 7.82908 1.88139C7.72086 1.89863 7.60848 1.8695 7.50086 1.89328C7.32069 1.93253 7.20713 2.10318 7.07394 2.23042C6.92053 2.37729 6.69517 2.47778 6.49479 2.40761C6.29441 2.33745 6.18976 2.03955 6.3503 1.90042C6.42939 1.83204 6.54236 1.82074 6.63571 1.77258C6.72907 1.72501 6.8028 1.59717 6.73263 1.51928C6.70231 1.48538 6.65236 1.4723 6.62442 1.43603C6.59409 1.39679 6.59706 1.34089 6.57209 1.29808C6.47695 1.131 6.21236 1.35576 6.03219 1.28857" fill="#E9EFF4"/>
<path d="M8.79639 2.08649C8.92304 2.05735 9.03304 1.98243 9.15137 1.92773C9.2697 1.87303 9.41062 1.84092 9.52657 1.89859C9.56106 1.98481 9.46176 2.0633 9.37435 2.09422C9.20667 2.15308 9.02472 2.16914 8.84931 2.14" fill="#E9EFF4"/>
<path d="M16.4533 3.03131C16.4188 3.03548 16.3825 3.03369 16.3457 3.02477C16.1845 2.99029 16.062 2.86601 15.9241 2.77563C15.606 2.56515 15.1719 2.53779 14.8282 2.70963C14.9097 2.59131 14.9507 2.44504 14.9418 2.30114L14.8924 2.31839C14.3294 1.99195 13.6693 1.65303 13.0551 1.87243C12.913 1.92416 12.7846 2.00146 12.6407 2.05081C12.4879 2.10433 12.3184 2.12633 12.1876 2.22087C12.0544 2.31541 11.9837 2.52412 12.0978 2.63769C12.1947 2.73461 12.3493 2.70844 12.4849 2.72153C12.6181 2.73461 12.7709 2.8672 12.6978 2.98137C12.1091 3.25667 11.5187 3.53435 10.93 3.81203C11.2006 3.90003 11.3795 4.20684 11.3213 4.48631C11.1233 4.52079 10.9324 4.40068 10.7326 4.3876C10.4424 4.37274 10.1654 4.62842 10.1594 4.91858C10.1511 5.20875 10.4175 5.47691 10.7076 5.47275C10.9247 5.47037 11.1375 5.33956 11.348 5.39486C11.3563 5.19686 11.4919 5.02918 11.6311 4.88766C11.9016 4.61652 12.2881 4.37155 12.6496 4.50474C12.7679 4.54755 12.869 4.62723 12.9677 4.70631C13.1847 4.87815 13.4018 5.05177 13.6194 5.22599C13.6884 5.15523 13.7568 5.08388 13.8257 5.0155C13.9441 5.14037 14.0624 5.26464 14.1825 5.39129C14.2425 5.35026 14.305 5.31161 14.365 5.27059C14.4078 5.38237 14.453 5.49178 14.4964 5.60356C14.5137 5.48108 14.5286 5.36097 14.5434 5.24026C14.6855 5.24442 14.836 5.24859 14.9644 5.18437C15.0934 5.12194 15.188 4.96734 15.1339 4.83415C15.1059 4.76339 15.0393 4.7075 15.0262 4.63198C14.9983 4.48155 15.2129 4.37868 15.3527 4.44706C15.49 4.51366 15.559 4.67063 15.6173 4.81453C15.6494 4.66825 15.6791 4.52436 15.7118 4.37809C15.8462 4.73128 16.04 5.06188 16.2808 5.35205C15.8402 5.26821 15.3759 5.31637 14.9638 5.48583C15.0952 5.67075 15.3206 5.78016 15.5465 5.77124C15.6476 5.76886 15.7594 5.74567 15.8367 5.80989C15.8949 5.85924 15.9098 5.93892 15.9205 6.01206C15.955 6.21838 15.9895 6.42233 16.0216 6.62628C15.7891 6.43541 15.4543 6.45682 15.1511 6.45087C14.8479 6.44255 14.4935 6.35871 14.3817 6.07746C14.2616 6.21303 14.2081 6.40628 14.2425 6.58704C13.9286 6.51212 13.5677 6.39201 13.4773 6.08222C13.2323 6.1726 12.9273 6.01622 12.8607 5.7647C12.8369 5.6767 12.8304 5.56908 12.7531 5.5221C12.7061 5.49416 12.6454 5.49832 12.5896 5.50486C12.1234 5.55897 11.659 5.6107 11.1952 5.66481C10.9419 5.69513 10.6797 5.72546 10.4561 5.84973C10.2325 5.97222 10.0548 6.21303 10.0803 6.46693C9.65281 6.72082 9.2901 7.08829 9.04513 7.52056C8.96783 7.65375 8.90123 7.80657 8.93156 7.957C8.95296 8.07295 9.03026 8.17165 9.05405 8.28582C9.09507 8.48144 8.98329 8.67052 8.93632 8.86377C8.80313 9.41378 9.22054 9.93168 9.60762 10.3479C9.79017 10.5411 10.0012 10.7516 10.2676 10.7623C10.4329 10.7689 10.5899 10.6957 10.7445 10.6351C11.1869 10.4609 11.6685 10.3812 12.143 10.4002C12.0354 10.4841 12.1472 10.6666 12.281 10.6946C12.4141 10.7225 12.558 10.6791 12.6871 10.7243C12.9814 10.8295 12.941 11.2612 12.8078 11.543C12.8744 11.53 12.9433 11.5169 13.0117 11.5044C12.9754 11.5989 12.9386 11.6935 12.9023 11.7856C13.306 11.8368 13.4589 12.3678 13.3649 12.765C13.2727 13.1627 13.0367 13.5278 13.0302 13.9363C13.0284 14.1599 13.0967 14.3769 13.1657 14.5892C13.3382 15.1285 13.51 15.6678 13.6824 16.2089C14.1641 16.2666 14.4405 15.6541 14.8877 15.4627C15.0554 15.3895 15.2528 15.3747 15.3842 15.2498C15.5108 15.1297 15.4698 14.8478 15.3069 14.8478C15.5281 14.8241 15.7172 14.6219 15.7237 14.3983C15.7261 14.3359 15.7172 14.2735 15.7255 14.2116C15.7404 14.1236 15.7962 14.0463 15.8498 13.9708C16.1911 13.4809 16.4123 12.9196 16.6334 12.3654C16.6911 12.2167 16.7494 12.0711 16.8071 11.9224C17.0259 11.37 17.2429 10.82 17.4617 10.2676C17.5473 10.0506 17.6336 9.83594 17.7192 9.61832C17.6009 9.81394 17.2917 9.78838 17.1151 9.6421C16.9367 9.49643 16.8439 9.27464 16.7042 9.0921C16.5859 8.93512 16.4265 8.79598 16.3706 8.60452C16.3385 8.49512 16.3445 8.37679 16.3254 8.26263C16.282 8.01527 16.1191 7.80954 16.0073 7.58597C15.8955 7.3624 15.8373 7.07283 15.9942 6.87661C16.4461 7.66505 16.857 8.47668 17.2286 9.30853C17.2697 9.1795 17.3642 9.06772 17.4843 9.00528C17.5723 8.95772 17.671 8.93869 17.7638 8.90004C18.0088 8.79242 18.1782 8.53258 18.1782 8.26619C18.1758 7.99981 18.0064 7.73997 17.759 7.63473C17.6365 7.583 17.4968 7.56635 17.3809 7.49499C17.2649 7.42662 17.1811 7.26964 17.2542 7.15548C17.3226 7.04785 17.4885 7.05023 17.602 7.11029C17.7162 7.17272 17.8001 7.27796 17.9071 7.34872C17.9844 7.40045 18.0748 7.43434 18.1586 7.48191C18.6123 7.74175 18.7241 8.33279 18.8192 8.84831C18.8709 9.12539 18.9292 9.4007 18.9982 9.67124C19.0006 9.61297 19 9.55291 19 9.49524C18.9976 6.99672 18.0314 4.72593 16.4533 3.03131ZM17.3232 6.15298C17.2607 6.14881 17.2031 6.10779 17.1531 6.06914C17.0717 6.00492 16.9896 5.92941 16.9658 5.82832C16.9379 5.70821 16.9956 5.57027 16.9313 5.46324C16.901 5.41151 16.8475 5.3794 16.8023 5.34313C16.684 5.24859 16.5978 5.11302 16.5657 4.96734C16.5377 4.83831 16.5781 4.66647 16.7096 4.64506C16.772 4.63436 16.8404 4.66885 16.8683 4.72653L16.7803 4.77409C16.9284 4.79134 16.9973 5.01491 16.8838 5.11123C16.8689 5.1261 16.8493 5.13918 16.8493 5.16059C16.8493 5.17367 16.8576 5.18615 16.8689 5.19507C16.9611 5.29615 17.099 5.33242 17.2191 5.39664C17.3392 5.45908 17.4576 5.57502 17.4385 5.70821C17.3999 5.72308 17.3636 5.73616 17.325 5.75103C17.2839 5.79205 17.3166 5.86519 17.3595 5.90562C17.4023 5.94605 17.4582 5.98708 17.4605 6.04714C17.4605 6.11195 17.3874 6.15714 17.3232 6.15298Z" fill="#E9EFF4"/>
<path d="M17.3849 12.7638L17.2297 12.8738C17.2838 13.0641 17.1756 13.287 16.9918 13.3614C16.8949 13.4006 16.7659 13.4179 16.7332 13.5172C16.7058 13.6016 16.7712 13.6872 16.7802 13.7752C16.7944 13.9215 16.6577 14.0309 16.559 14.1397C16.4603 14.2485 16.4079 14.4531 16.5393 14.5185C16.5697 14.5339 16.6047 14.5369 16.6386 14.5399C16.7813 14.5524 16.9377 14.5565 17.0543 14.4733C17.3884 14.2349 17.0709 13.5879 17.4009 13.3429C17.4479 13.3085 17.5067 13.2835 17.5323 13.2312C17.6102 13.0772 17.323 12.9243 17.3849 12.7638Z" fill="#E9EFF4"/>
</g>
<defs>
<clipPath id="clip0">
<rect width="19" height="19" fill="white"/>
</clipPath>
</defs>
</svg>
