<svg width="35" height="35" viewBox="0 0 35 35" fill="none" xmlns="http://www.w3.org/2000/svg">
<circle cx="17.5" cy="17.5" r="17.5" fill="#EDECED"/>
<g clip-path="url(#clip0)">
<path d="M27.721 13.0517C27.1635 12.4541 24.9037 12.6567 24.2013 12.6837L23.7999 12.7141C24.4094 12.4575 24.8591 11.9476 25.0115 11.0258C25.2123 9.86766 24.5395 9.1417 23.2238 9.12823C21.7111 9.10797 20.4958 10.1108 19.2878 10.8165C19.1864 10.7261 19.0756 10.6447 18.957 10.5734C18.678 10.3807 18.3532 10.2498 18.0087 10.1912C17.6641 10.1326 17.3093 10.1478 16.9723 10.2357C16.5983 10.3626 16.2577 10.5593 15.9726 10.8131C14.5788 9.0945 11.5348 8.02077 10.1262 10.2965C9.43496 11.4141 9.85491 12.1232 10.7172 12.5419H9.68021C9.10041 12.5419 8.69902 12.5419 8.23442 12.8795C6.95219 13.7642 7.07485 15.9048 7.00049 17.1508C7.05126 17.1258 7.10674 17.1098 7.16402 17.1035C7.11571 17.2824 7.10456 17.4411 7.16402 17.4411H8.76589C8.82164 19.4907 8.86624 21.5402 8.91084 23.5898C8.93314 24.6027 8.53917 26.3585 9.92922 26.7299C10.6726 26.9291 11.7652 26.7738 12.5309 26.7907L15.7793 26.8447C17.8309 26.8751 19.8676 26.9426 21.9341 26.9122C23.0974 26.8953 25.3534 27.1587 26.1748 26.2842C26.9182 25.4975 26.5465 24.0591 26.5465 23.1677C26.5167 21.2274 26.4895 19.2858 26.4647 17.3432L27.4459 17.3635C27.6987 17.3635 27.8808 16.8199 27.8808 16.6477C27.8585 15.8981 28.2525 13.6291 27.721 13.0517L27.721 13.0517ZM18.8343 14.48C18.8082 15.1553 18.7785 15.8103 18.7599 16.4755V17.3162V18.5284C18.8008 20.9797 19.0313 23.4243 19.2691 25.8656C18.3734 25.9568 17.0168 26.1627 16.6229 25.4604C16.385 25.035 16.7232 23.7384 16.7418 23.2387C16.7716 22.4914 16.7914 21.7452 16.8013 21.0001C16.8013 19.7778 16.8013 18.5589 16.7307 17.3399C16.7307 17.0597 16.7047 16.7828 16.6898 16.5026C16.6303 15.4525 16.5448 14.399 16.437 13.3489V13.1835C16.9119 13.1394 17.3913 13.1576 17.8605 13.2375C18.0948 13.2924 18.3256 13.3589 18.5518 13.4367C19.1056 13.6562 18.8603 13.825 18.8343 14.48V14.48ZM19.7114 12.4709C20.0608 12.5554 20.4325 12.6465 20.8264 12.7208L19.5999 12.7141C19.645 12.6362 19.6823 12.5548 19.7114 12.4709ZM19.6371 10.857C20.4912 10.1472 21.6129 9.76282 22.7703 9.78324C23.5508 9.82713 24.8404 10.3505 24.5543 11.2993C24.0339 13.0348 21.016 11.9273 19.756 11.6099C19.7103 11.3611 19.5923 11.128 19.4141 10.9346C19.4951 10.9289 19.5726 10.9019 19.6371 10.8569V10.857ZM17.8679 10.9414C18.1663 11.0398 18.4386 11.1941 18.6671 11.3942C18.8957 11.5942 19.0754 11.8357 19.1948 12.1029C18.0315 12.0623 16.8682 12.0387 15.7048 12.0117C15.6959 11.817 15.7388 11.6232 15.8301 11.4468C15.9213 11.2704 16.0581 11.1167 16.2289 10.9988C16.4689 10.8574 16.7465 10.7775 17.0323 10.7674C17.3182 10.7573 17.6017 10.8174 17.8531 10.9413H17.8679V10.9414ZM10.3456 10.9144C10.2044 9.40845 12.3675 9.5064 13.319 9.82717C14.1887 10.1209 14.7611 10.695 15.4635 11.2116H15.5973C15.3279 11.5395 15.146 11.9198 15.0658 12.3224C13.4342 12.5385 10.5203 12.4676 10.3456 10.9144V10.9144ZM7.6696 16.6139C7.6696 15.7664 7.5804 14.48 7.9595 13.8148C8.48726 12.9031 9.7844 13.3016 10.7173 13.2914C12.4753 13.2678 14.2035 13.2712 15.9467 13.3286V13.3455C16.0767 14.3989 16.1696 15.4524 16.2365 16.5092C13.3673 16.5531 10.5166 16.6105 7.66976 16.6139L7.6696 16.6139ZM15.6607 26.0881C14.0626 26.0645 12.063 26.3278 10.502 25.9936C8.82948 25.6357 9.42792 22.9041 9.42044 21.6581V17.4342C11.7062 17.4139 13.992 17.3767 16.2776 17.3464C16.4125 20.2623 16.3728 23.1828 16.1587 26.095L15.6606 26.0882L15.6607 26.0881ZM26.06 22.5057C26.06 23.3228 26.231 24.3121 26.06 25.1123C26.2756 25.5625 26.174 25.8338 25.7552 25.9261C25.2969 25.9868 24.8372 26.0341 24.3763 26.0679C22.8271 26.1766 21.2728 26.2138 19.7193 26.1793C19.7455 26.0959 19.7581 26.0094 19.7565 25.9227C19.5521 23.809 19.3477 21.6919 19.251 19.5718C19.2176 18.8492 19.173 18.0895 19.147 17.3197C21.4365 17.2994 23.726 17.2994 26.0115 17.3399C26.0376 19.0552 26.0524 20.7772 26.0599 22.506L26.06 22.5057ZM19.143 16.4718C19.1231 15.4632 19.2152 14.4553 19.418 13.4634C20.8675 13.4871 22.3096 13.4634 23.7777 13.3993C24.7552 13.3655 26.7511 13.1123 27.2937 14.0374C27.6059 14.581 27.4907 15.6918 27.4312 16.5529C24.6734 16.4516 21.9082 16.4279 19.143 16.4718V16.4718Z" fill="#8F8F8F"/>
</g>
<defs>
<clipPath id="clip0">
<rect width="21" height="18" fill="white" transform="translate(7 9)"/>
</clipPath>
</defs>
</svg>
