<svg width="35" height="35" viewBox="0 0 35 35" fill="none" xmlns="http://www.w3.org/2000/svg">
<circle cx="17.5" cy="17.5" r="17.5" fill="#EDECED"/>
<circle cx="17.5" cy="17.5" r="17.5" fill="url(#paint0_linear)"/>
<path d="M21.2812 27H13.7188C13.2629 27 12.8257 26.8119 12.5034 26.477C12.1811 26.1421 12 25.6879 12 25.2143V8.78571C12 8.31211 12.1811 7.85791 12.5034 7.52302C12.8257 7.18814 13.2629 7 13.7188 7H21.2812C21.7371 7 22.1743 7.18814 22.4966 7.52302C22.8189 7.85791 23 8.31211 23 8.78571V25.2143C23 25.6879 22.8189 26.1421 22.4966 26.477C22.1743 26.8119 21.7371 27 21.2812 27V27ZM13.7188 7.71429C13.4452 7.71429 13.1829 7.82717 12.9895 8.0281C12.7961 8.22903 12.6875 8.50155 12.6875 8.78571V25.2143C12.6875 25.4984 12.7961 25.771 12.9895 25.9719C13.1829 26.1728 13.4452 26.2857 13.7188 26.2857H21.2812C21.5548 26.2857 21.8171 26.1728 22.0105 25.9719C22.2039 25.771 22.3125 25.4984 22.3125 25.2143V8.78571C22.3125 8.50155 22.2039 8.22903 22.0105 8.0281C21.8171 7.82717 21.5548 7.71429 21.2812 7.71429H13.7188Z" fill="white"/>
<path d="M22.4844 9.08923H12.5156V9.78923H22.4844V9.08923Z" fill="white"/>
<path d="M22.4844 21.7999H12.5156V22.4999H22.4844V21.7999Z" fill="white"/>
<path d="M17.5001 25.7713C17.2291 25.7671 16.9653 25.6797 16.7419 25.5202C16.5185 25.3607 16.3455 25.1361 16.2446 24.8747C16.1437 24.6133 16.1194 24.3268 16.1747 24.0511C16.2301 23.7754 16.3627 23.5229 16.5557 23.3252C16.7488 23.1276 16.9939 22.9936 17.26 22.9402C17.5261 22.8868 17.8015 22.9163 18.0516 23.0251C18.3016 23.1338 18.5152 23.3169 18.6654 23.5513C18.8156 23.7858 18.8957 24.0611 18.8958 24.3427C18.8958 24.5321 18.8595 24.7197 18.7891 24.8944C18.7188 25.0691 18.6156 25.2276 18.4858 25.3605C18.3559 25.4935 18.2019 25.5982 18.0327 25.6688C17.8634 25.7393 17.6824 25.7741 17.5001 25.7713V25.7713ZM17.5001 23.6284C17.3651 23.6326 17.2343 23.6781 17.124 23.7591C17.0136 23.8401 16.9287 23.9531 16.8799 24.0839C16.831 24.2147 16.8203 24.3576 16.8491 24.4947C16.8779 24.6319 16.9449 24.7571 17.0419 24.8549C17.1388 24.9526 17.2613 25.0186 17.394 25.0444C17.5268 25.0703 17.664 25.055 17.7884 25.0003C17.9128 24.9457 18.019 24.8542 18.0937 24.7372C18.1683 24.6203 18.2082 24.4831 18.2083 24.3427C18.2088 24.2468 18.1907 24.1517 18.155 24.0632C18.1194 23.9747 18.067 23.8946 18.0009 23.8276C17.9348 23.7606 17.8564 23.7081 17.7704 23.6733C17.6843 23.6384 17.5924 23.622 17.5001 23.6249V23.6284Z" fill="white"/>
<path d="M17.6581 8.14624H16.2899C16.252 8.14624 16.2212 8.17822 16.2212 8.21767V8.59981C16.2212 8.63926 16.252 8.67124 16.2899 8.67124H17.6581C17.696 8.67124 17.7268 8.63926 17.7268 8.59981V8.21767C17.7268 8.17822 17.696 8.14624 17.6581 8.14624Z" fill="white"/>
<path d="M18.7101 8.14624H18.3319C18.294 8.14624 18.2632 8.17822 18.2632 8.21767V8.59981C18.2632 8.63926 18.294 8.67124 18.3319 8.67124H18.7101C18.748 8.67124 18.7788 8.63926 18.7788 8.59981V8.21767C18.7788 8.17822 18.748 8.14624 18.7101 8.14624Z" fill="white"/>
<defs>
<linearGradient id="paint0_linear" x1="18" y1="35" x2="18" y2="-6.30903e-08" gradientUnits="userSpaceOnUse">
<stop stop-color="#FC5530"/>
<stop offset="1" stop-color="#FB822C"/>
</linearGradient>
</defs>
</svg>
