<svg width="35" height="35" viewBox="0 0 35 35" fill="none" xmlns="http://www.w3.org/2000/svg">
<circle cx="17.5" cy="17.5" r="17.5" fill="#EDECED"/>
<path d="M28.4939 13.2255C28.9919 11.9269 29.2537 10.5505 29.2672 9.16083V9.10876H29.2189C29.1464 9.10876 28.6792 9.54928 28.6752 9.78557C28.6575 11.0601 28.4162 12.3219 27.9623 13.514C27.9311 13.5785 27.9055 13.6455 27.8858 13.7143C27.0211 15.7739 25.6484 17.5837 23.8946 18.9764C23.7657 19.0004 23.5885 19.1926 23.512 19.2847C20.9706 21.2431 18.6507 21.7877 15.5418 21.155C13.1527 20.7373 10.9858 19.5019 9.416 17.6628C8.4537 16.5859 7.71753 15.3286 7.25068 13.9649C6.78382 12.6011 6.59576 11.1583 6.69749 9.72128H6.61695V9.68523L6.47196 9.71728C6.19003 9.76934 5.98865 9.81339 5.98462 9.92953C5.93174 11.2048 6.07987 12.4803 6.42361 13.7101C6.34104 13.721 6.26451 13.7591 6.20613 13.8182C6.1135 13.9303 6.02086 14.0385 5.92421 14.1466C5.4409 14.6872 4.94151 15.2519 5.00594 16.0849C5.03142 16.3916 5.12479 16.6888 5.27936 16.9554C5.43394 17.2219 5.64589 17.4512 5.90005 17.6268C6.01536 17.6887 6.14361 17.723 6.2746 17.7269C6.2746 17.7629 6.23433 17.799 6.21822 17.831C5.81547 18.7481 6.03295 20.0256 6.48 20.8146C6.60622 21.0898 6.80824 21.3239 7.0627 21.4897C7.31715 21.6556 7.61363 21.7464 7.91782 21.7517H7.95005C8.36476 21.7277 8.76662 21.5996 9.11799 21.3792C9.00824 21.7425 8.97938 22.1251 9.03343 22.5006C9.08561 23.2177 9.39545 23.8923 9.90638 24.4011C10.4173 24.9099 11.0952 25.219 11.8164 25.2719H12.0178C12.4713 25.2919 12.9242 25.2183 13.3477 25.0556C13.7713 24.893 14.1563 24.6448 14.4786 24.3268C14.3289 25.233 14.3783 26.1606 14.6236 27.046C15.0263 28.4878 16.2345 29.7973 17.6723 29.7973C17.847 29.7973 18.0212 29.7785 18.1919 29.7413C19.4001 29.4809 19.9277 28.0793 20.1814 26.9379C20.3366 26.2174 20.3544 25.4743 20.2338 24.7472C20.5962 25.1356 21.0725 25.4005 21.595 25.5042C21.7282 25.526 21.8629 25.5367 21.9978 25.5362C22.5152 25.518 23.024 25.3983 23.4946 25.1838C23.9654 24.9694 24.3888 24.6645 24.7405 24.2867C25.2536 23.68 25.5485 22.9203 25.5782 22.1281C25.7333 22.19 25.8985 22.2226 26.0655 22.2243C26.1406 22.2295 26.216 22.2295 26.2911 22.2243C27.2738 22.0841 28.3491 21.0588 28.7075 20.2218C28.8767 19.8232 28.9638 19.395 28.9638 18.9624C28.9638 18.5297 28.8767 18.1014 28.7075 17.7028V17.6668C29.185 17.3198 29.5492 16.8406 29.7547 16.2891C30.2219 15.0717 29.7789 13.9704 28.4941 13.2255L28.4939 13.2255ZM15.5335 22.5928C15.6249 22.4285 15.7314 22.273 15.8516 22.1282C16.3269 22.1914 16.8059 22.2235 17.2854 22.2243C17.6891 22.2229 18.0924 22.2002 18.4936 22.1562C18.4779 22.222 18.485 22.2912 18.5138 22.3525C19.1199 23.2954 19.5307 24.3493 19.722 25.4522C19.863 26.5014 19.6374 27.9231 18.8078 28.5639C18.561 28.7438 18.2688 28.8521 17.9638 28.8769C17.6588 28.9016 17.3529 28.8418 17.08 28.7041C16.045 28.3036 15.2878 27.1542 15.0662 25.6684C14.9293 24.8437 14.997 23.9982 15.2636 23.2055C15.3603 23.0052 15.4489 22.801 15.5335 22.5928ZM14.8166 23.1254C14.4926 23.5909 14.0527 23.9648 13.5399 24.2107C13.134 24.4158 12.6821 24.5143 12.2273 24.4965C11.7723 24.4788 11.3296 24.3455 10.9411 24.1094C10.5527 23.8733 10.2315 23.5423 10.0082 23.1478C9.78491 22.7533 9.66689 22.3086 9.66544 21.8559C9.65709 21.4977 9.72862 21.1421 9.87487 20.8146C10.159 20.5528 10.4093 20.2569 10.62 19.9335C11.9904 21.0021 13.6 21.7261 15.3119 22.0441C15.2882 22.1498 15.2586 22.254 15.2233 22.3565C15.0641 22.5998 14.928 22.8572 14.8165 23.1254H14.8166ZM7.64358 16.5617C7.59253 16.5793 7.54774 16.6113 7.5147 16.6538L7.42207 16.6899C7.32316 16.7156 7.22925 16.7576 7.14418 16.814C7.05366 16.8673 6.96747 16.9275 6.88642 16.9942C6.67575 16.9701 6.474 16.896 6.29807 16.7782C6.12215 16.6605 5.97726 16.5024 5.87553 16.3174C5.37614 15.3683 5.81109 14.5353 6.50783 13.9826C6.78345 14.8836 7.16465 15.7492 7.64356 16.5617H7.64358ZM7.78455 16.802C8.35797 17.7264 9.0558 18.5685 9.85866 19.305C10.0278 19.4572 10.197 19.6053 10.3742 19.7455V19.7695C10.2968 19.7819 10.2244 19.8151 10.1647 19.8657C9.9268 20.0906 9.71225 20.3388 9.52438 20.6065C9.19527 20.7901 8.82225 20.8814 8.44503 20.8708C8.13128 20.8737 7.8235 20.7855 7.55951 20.6169C7.29551 20.4482 7.08676 20.2066 6.9589 19.9217C6.74034 19.4434 6.62378 18.9252 6.61657 18.3999C6.64476 17.5188 7.14818 17.2065 7.78455 16.806V16.802H7.78455ZM19.2749 22.0362C20.8513 21.6271 22.3093 20.8563 23.5317 19.7855C24.1851 20.3063 24.6766 21.0006 24.9494 21.7879C25.0559 22.1874 25.0601 22.6071 24.9616 23.0086C24.8631 23.4102 24.6651 23.7808 24.3856 24.0867C24.0593 24.411 23.3465 24.5632 22.8753 24.6673H22.8511C21.2119 25.0078 20.2695 23.526 19.5043 22.1163C19.5043 22.0923 19.472 22.0562 19.3029 22.1163L19.2747 22.0362H19.2749ZM24.2406 19.1768C24.8259 18.6401 25.3812 18.0719 25.9039 17.4747C26.1295 17.2184 26.3389 16.9581 26.5403 16.6938C26.5081 16.806 26.496 16.9101 26.5725 16.9501C27.2451 17.2865 28.3768 18.0394 28.4211 19.2809C28.3634 19.9239 28.1026 20.5323 27.676 21.019C27.4652 21.1762 27.2259 21.2918 26.9712 21.3594C26.5429 21.527 26.0665 21.527 25.6381 21.3594C25.6064 21.3514 25.5732 21.3514 25.5415 21.3594C25.3985 20.4944 24.9324 19.7149 24.2366 19.1768H24.2406ZM27.0276 16.1131C27.0091 16.1084 26.9897 16.1084 26.9712 16.1131C27.407 15.4864 27.7896 14.8246 28.115 14.1348C28.4963 14.3444 28.8318 14.6276 29.1018 14.9677C29.2601 15.2295 29.3519 15.5255 29.3695 15.8304C29.387 16.1353 29.3297 16.4399 29.2024 16.7178C29.1329 16.8627 29.0272 16.9874 28.8953 17.08C28.7634 17.1725 28.6099 17.2299 28.4493 17.2465C28.1091 16.7259 27.6091 16.3285 27.0236 16.1131H27.0276Z" fill="#8F8F8F"/>
<path d="M7.8248 19.7856H7.86105C7.96838 19.7714 8.07066 19.7316 8.15908 19.6694L8.22754 19.6454C8.33081 19.5943 8.42583 19.5282 8.50947 19.4492H8.73098L8.5578 19.3931L8.76723 19.285L8.59002 19.321C8.61054 19.2545 8.61054 19.1833 8.59002 19.1168C8.58244 19.0859 8.56695 19.0575 8.54508 19.0344C8.5232 19.0112 8.49567 18.9941 8.46517 18.9846H8.41281C8.32385 18.9885 8.23759 19.0162 8.1631 19.0647H8.13894L8.09061 19.0887H7.9859C7.84494 19.1128 7.72814 19.1408 7.69995 19.2089C7.64404 19.3656 7.64404 19.5367 7.69995 19.6935C7.7121 19.7174 7.72972 19.7382 7.7514 19.7542C7.77307 19.7702 7.79821 19.781 7.8248 19.7856L7.8248 19.7856Z" fill="#8F8F8F"/>
<path d="M26.0655 19.9215C26.1029 19.9483 26.1482 19.9624 26.1943 19.9615C26.2344 19.9605 26.2739 19.9523 26.3111 19.9375C26.4787 19.8626 26.6293 19.7551 26.7542 19.6211C26.8411 19.5473 26.9019 19.4476 26.9273 19.3368C26.9371 19.2779 26.9315 19.2175 26.911 19.1614C26.8906 19.1053 26.856 19.0554 26.8105 19.0164C26.7702 18.9852 26.7206 18.9683 26.6696 18.9683V18.9403L26.6454 18.9683C26.6163 18.9705 26.5878 18.9773 26.5608 18.9884C26.4324 19.0479 26.3163 19.1307 26.2185 19.2327C26.0816 19.2807 25.9406 19.3408 25.9084 19.4049L25.8238 19.4369L25.9003 19.4649C25.9205 19.5971 25.9487 19.8334 26.0655 19.9215L26.0655 19.9215Z" fill="#8F8F8F"/>
<path d="M13.4632 22.3567C13.4089 22.381 13.3522 22.3998 13.2941 22.4128C13.0887 22.4689 12.851 22.5329 12.839 22.6811C12.8269 22.8293 12.7584 22.9654 12.6456 23.0055C12.5179 23.016 12.3896 22.996 12.2712 22.9472C12.1528 22.8985 12.0478 22.8224 11.965 22.7252C11.7188 22.4393 11.5424 22.1008 11.4495 21.736C11.4495 21.6879 11.385 21.6879 11.232 21.712C10.7407 21.7961 10.7446 21.8641 10.7487 21.8962C10.7716 22.1753 10.8516 22.4468 10.9839 22.6941C11.1162 22.9413 11.2979 23.159 11.5179 23.3339C11.6373 23.4182 11.7748 23.4737 11.9195 23.4959C12.0642 23.5182 12.2122 23.5066 12.3516 23.4621C12.7543 23.3419 13.4873 22.9654 13.5598 22.3888H13.4591C13.4569 22.3835 13.4561 22.3778 13.4568 22.3722C13.4575 22.3666 13.4597 22.3612 13.4632 22.3567L13.4632 22.3567Z" fill="#8F8F8F"/>
<path d="M16.9349 28.36C17.0479 28.428 17.1774 28.4639 17.3095 28.4641C17.4243 28.4627 17.5377 28.4396 17.6438 28.396C18.256 28.1517 18.5419 27.4108 18.7473 26.8702L18.7795 26.7901L18.699 26.766V26.73C18.664 26.7499 18.6277 26.7673 18.5902 26.7821C18.405 26.8622 18.1271 26.9823 18.1069 27.1825C18.0626 27.531 17.9619 27.7272 17.821 27.7592C17.5833 27.8113 17.2168 27.3988 17.0799 27.1665C16.8697 26.7858 16.7485 26.3628 16.7255 25.929C16.6611 25.2082 16.7255 23.5782 17.3296 23.4381C17.456 23.3928 17.5764 23.3323 17.688 23.2579C17.7458 23.2199 17.8064 23.1864 17.8693 23.1577V23.0576C17.6453 23.0612 17.4248 23.1131 17.2232 23.21C17.0215 23.3068 16.8434 23.4461 16.7013 23.6183C16.065 24.3672 15.9844 25.7168 16.1092 26.6419C16.1858 27.2546 16.4516 28.0796 16.9349 28.3599L16.9349 28.36Z" fill="#8F8F8F"/>
<path d="M21.5184 23.2576C21.6955 23.3918 21.9118 23.4649 22.1346 23.4658C22.2467 23.4654 22.3581 23.4478 22.4648 23.4137C22.7721 23.2956 23.0471 23.1071 23.2675 22.8635C23.4879 22.62 23.6475 22.3283 23.7335 22.0121C23.7371 21.999 23.7367 21.9852 23.7324 21.9724C23.7281 21.9595 23.7201 21.9483 23.7093 21.94C23.6892 21.94 23.6408 21.8959 23.4072 22.0441H23.379C23.1817 22.1643 23.0488 22.2644 23.0448 22.3645C23.0448 22.6649 22.8837 22.829 22.642 22.829C22.4144 22.8102 22.1997 22.7159 22.0325 22.5612C21.8652 22.4065 21.7551 22.2004 21.7197 21.976H21.6634V21.928H21.5868C21.1559 21.9961 21.027 22.0441 21.023 22.1322C21.0101 22.3454 21.0483 22.5586 21.1345 22.7542C21.2206 22.9498 21.3522 23.1223 21.5184 23.2576L21.5184 23.2576Z" fill="#8F8F8F"/>
</svg>
