<svg width="35" height="35" viewBox="0 0 35 35" fill="none" xmlns="http://www.w3.org/2000/svg">
<circle cx="17.5" cy="17.5" r="17.5" fill="#EDECED"/>
<path d="M31.8098 14.5138L17.566 10.0106C17.5218 9.99648 17.4745 9.99648 17.4304 10.0106L3.18651 14.5138C3.13249 14.5333 3.08569 14.5692 3.05248 14.6166C3.01926 14.664 3.00122 14.7206 3.0008 14.7787C2.99647 14.8374 3.00981 14.896 3.03903 14.9469C3.06826 14.9977 3.11202 15.0384 3.16452 15.0635L10.0873 18.0425L9.84293 20.218C9.8136 20.4534 9.8499 20.6924 9.94772 20.9079C10.0455 21.1235 10.201 21.307 10.3964 21.4376C11.6964 22.3377 15.8298 24.5602 17.0614 24.8896C17.402 24.9966 17.7666 24.9966 18.1072 24.8896C19.34 24.5602 23.4746 22.3377 24.7734 21.4376C24.9691 21.3071 25.1248 21.1237 25.2228 20.9081C25.3208 20.6926 25.3573 20.4535 25.3281 20.218L25.074 17.9732L26.7308 17.26V24.0774L26.688 24.091C26.4425 24.1775 26.2307 24.3411 26.0833 24.558C25.9359 24.7748 25.8605 25.0337 25.8682 25.2969C25.8657 25.4864 25.9043 25.6742 25.9814 25.8468C26.0585 26.0195 26.1721 26.1729 26.3141 26.2961L26.3422 26.3197L26.3349 26.3556C26.2616 26.7159 26.1834 27.0725 26.1003 27.4154C26.0828 27.4545 26.0724 27.4965 26.0698 27.5393C25.9036 28.2215 25.7142 28.8889 25.5065 29.5352C25.4931 29.5771 25.4884 29.6214 25.4926 29.6653C25.4968 29.7092 25.5099 29.7517 25.5309 29.7903C25.5495 29.8258 25.5762 29.8563 25.6087 29.8793C25.6412 29.9023 25.6786 29.9172 25.7179 29.9227C26.5591 30.0258 27.4095 30.0258 28.2507 29.9227C28.2901 29.9177 28.3278 29.903 28.3604 29.88C28.3929 29.8569 28.4195 29.8261 28.4376 29.7903C28.4587 29.7517 28.4718 29.7092 28.476 29.6653C28.4802 29.6214 28.4754 29.5771 28.4621 29.5352C28.1281 28.4937 27.8516 27.4343 27.6337 26.3618L27.6264 26.3259L27.6545 26.3023C27.7965 26.1791 27.9101 26.0257 27.9872 25.853C28.0642 25.6804 28.1029 25.4926 28.1004 25.3031C28.1081 25.0399 28.0327 24.781 27.8853 24.5642C27.7379 24.3473 27.526 24.1837 27.2806 24.0972L27.2378 24.0835V17.0421L27.2745 17.026L31.8355 15.0635C31.888 15.0384 31.9317 14.9977 31.961 14.9469C31.9902 14.896 32.0035 14.8374 31.9992 14.7787C31.9983 14.7202 31.9797 14.6633 31.9458 14.6159C31.9119 14.5685 31.8644 14.5328 31.8098 14.5138ZM24.5193 20.9349C23.1423 21.8895 19.0774 24.039 17.9851 24.3275C17.8534 24.3696 17.7162 24.3913 17.5782 24.3918C17.4456 24.3918 17.3138 24.3714 17.1872 24.3312C16.0876 24.039 12.019 21.8908 10.6518 20.9411C10.5665 20.8877 10.4944 20.8154 10.4408 20.7296C10.3872 20.6438 10.3537 20.5467 10.3426 20.4458L10.3304 20.3406L11.4178 20.8086C11.4496 20.8208 11.4835 20.8264 11.5175 20.8249C11.5515 20.8234 11.5848 20.815 11.6154 20.8C11.6461 20.7851 11.6734 20.764 11.6957 20.738C11.718 20.712 11.7349 20.6817 11.7453 20.6489C11.77 20.5795 11.7687 20.5034 11.7417 20.4349C11.7147 20.3664 11.6638 20.3104 11.5987 20.2774L10.4037 19.7636L10.4612 19.251L12.9451 20.3208C12.9771 20.3325 13.011 20.3375 13.045 20.3355C13.0789 20.3335 13.1121 20.3246 13.1425 20.3092C13.1729 20.2938 13.1999 20.2722 13.2218 20.2459C13.2438 20.2196 13.2602 20.189 13.2701 20.1561C13.2948 20.0867 13.2936 20.0106 13.2665 19.9421C13.2395 19.8736 13.1886 19.8176 13.1235 19.7846L10.5271 18.6703L10.576 18.2518L17.412 21.1949C17.4403 21.207 17.4706 21.2132 17.5012 21.2132C17.5319 21.2132 17.5622 21.207 17.5904 21.1949L24.5853 18.1837L24.6305 18.5824L21.8741 19.7685C21.809 19.8015 21.7581 19.8575 21.731 19.926C21.704 19.9945 21.7027 20.0706 21.7275 20.14C21.7374 20.1729 21.7538 20.2035 21.7757 20.2298C21.7977 20.2561 21.8246 20.2777 21.8551 20.2931C21.8855 20.3085 21.9186 20.3175 21.9526 20.3194C21.9865 20.3214 22.0205 20.3164 22.0525 20.3047L24.6965 19.1668L24.7551 19.6794L23.4001 20.2626C23.335 20.2955 23.2841 20.3515 23.2571 20.42C23.23 20.4885 23.2288 20.5646 23.2535 20.634C23.2626 20.6675 23.2785 20.6987 23.3003 20.7255C23.3221 20.7523 23.3491 20.7742 23.3798 20.7897C23.4104 20.8053 23.444 20.8141 23.4782 20.8156C23.5124 20.8172 23.5466 20.8114 23.5785 20.7987L24.8247 20.2774V20.3703C24.8247 20.4828 24.7967 20.5935 24.7434 20.6922C24.69 20.7909 24.6129 20.8744 24.5193 20.9349ZM27.8487 29.3024L27.8707 29.3767H27.795C27.5249 29.399 27.2525 29.4101 26.98 29.4101C26.7075 29.4101 26.4363 29.399 26.1651 29.3767H26.0893L26.1113 29.3024C26.2506 28.8431 26.3825 28.3688 26.5035 27.8934L26.5157 27.8463H27.4431L27.4553 27.8934C27.5775 28.3688 27.7094 28.8431 27.8487 29.3024ZM26.6562 27.2681L26.6733 27.1926C26.719 26.9928 26.7625 26.7931 26.8041 26.5933L26.8151 26.5388H26.8701C26.9436 26.5467 27.0177 26.5467 27.0912 26.5388H27.1462L27.1572 26.5933C27.1987 26.7931 27.2423 26.9928 27.2879 27.1926L27.305 27.2681H26.6562ZM27.5897 25.2969C27.5793 25.4165 27.5348 25.5304 27.4616 25.6248C27.3885 25.7192 27.2899 25.79 27.1777 25.8286C27.0656 25.8672 26.9448 25.872 26.83 25.8423C26.7153 25.8126 26.6115 25.7498 26.5314 25.6614C26.4512 25.573 26.3982 25.463 26.3786 25.3446C26.3591 25.2262 26.3739 25.1046 26.4213 24.9947C26.4687 24.8847 26.5467 24.791 26.6456 24.7251C26.7446 24.6592 26.8604 24.6238 26.9788 24.6234C27.148 24.6308 27.3074 24.7058 27.4221 24.8321C27.5368 24.9583 27.5975 25.1255 27.5909 25.2969H27.5897ZM26.7466 16.6298L17.5464 14.5063C17.5162 14.4995 17.4849 14.499 17.4545 14.5047C17.424 14.5104 17.395 14.5224 17.3693 14.5398C17.3241 14.5719 17.2887 14.6161 17.2669 14.6675C17.2451 14.7188 17.2378 14.7753 17.2458 14.8306C17.2537 14.8859 17.2767 14.9379 17.3121 14.9807C17.3475 15.0236 17.3939 15.0557 17.4462 15.0734L25.8535 17.0149L17.4963 20.613L4.0711 14.8295L17.4976 10.59H17.5159L30.9252 14.8295L26.7466 16.6298Z" fill="#8F8F8F"/>
</svg>
