<svg width="35" height="35" viewBox="0 0 35 35" fill="none" xmlns="http://www.w3.org/2000/svg">
<circle cx="17.5" cy="17.5" r="17.5" fill="#EDECED"/>
<path d="M7.07992 24.7209C7.09103 24.7953 7.12826 24.8631 7.18473 24.9118C7.24121 24.9605 7.31314 24.9869 7.38725 24.9861H7.43028C7.58395 24.9611 7.68844 24.9549 7.78371 24.9486C8.21706 24.9175 8.50288 24.8956 11.4717 23.8725C14.8524 22.7184 16.26 24.4527 16.3184 24.5275C16.3699 24.5873 16.442 24.6248 16.5198 24.6325C16.5977 24.6402 16.6755 24.6174 16.7374 24.5689C16.7994 24.5204 16.8407 24.4497 16.8531 24.3714C16.8654 24.293 16.8479 24.2127 16.804 24.147C16.7364 24.0565 15.1075 21.9635 11.272 23.2799C8.37994 24.2842 8.11256 24.2842 7.73761 24.3217H7.69459V11.221C8.2499 11.1056 8.79247 10.9343 9.31424 10.7095C11.6776 9.80492 15.2489 8.43559 17.1851 11.6452C17.2051 11.689 17.2369 11.726 17.2769 11.752C17.317 11.7779 17.3634 11.7917 17.411 11.7917C17.4585 11.7917 17.505 11.7779 17.545 11.752C17.585 11.726 17.6169 11.689 17.6369 11.6452V11.6234C19.6007 8.43559 23.1474 9.79556 25.5046 10.7001C26.0261 10.9281 26.5686 11.1026 27.1243 11.221V24.3217H27.0812C26.7063 24.2842 26.4389 24.2842 23.5377 23.2768C19.7052 21.9729 18.0763 24.0534 18.0057 24.1439C17.9811 24.1764 17.963 24.2136 17.9525 24.2533C17.942 24.2929 17.9394 24.3343 17.9447 24.375C17.9499 24.4156 17.963 24.4549 17.9833 24.4904C18.0035 24.526 18.0304 24.5571 18.0625 24.5821C18.0946 24.6071 18.1312 24.6254 18.1703 24.6361C18.2094 24.6467 18.2501 24.6494 18.2902 24.644C18.3303 24.6387 18.369 24.6254 18.404 24.6048C18.439 24.5843 18.4697 24.557 18.4943 24.5244C18.4943 24.5057 19.9204 22.7059 23.341 23.8694C26.3129 24.8893 26.5987 24.9112 27.029 24.9455C27.1243 24.9455 27.2288 24.9455 27.3824 24.9861H27.4285C27.5027 24.9869 27.5746 24.9605 27.631 24.9118C27.6875 24.8631 27.7247 24.7953 27.7359 24.7209C27.7399 24.692 27.7399 24.6625 27.7359 24.6336V10.5192L27.3609 10.6034C27.1304 10.6565 26.4143 10.3788 25.7198 10.1137C23.427 9.23722 19.653 7.79615 17.4033 10.8717C15.1536 7.81174 11.3887 9.2497 9.09603 10.1262C8.40146 10.3913 7.68229 10.6658 7.45487 10.6159L7.07992 10.5317V24.6461C7.07696 24.6709 7.07696 24.6961 7.07992 24.7209Z" fill="#8F8F8F"/>
<path d="M17.4094 12.45C17.3328 12.45 17.2593 12.4808 17.2052 12.5358C17.151 12.5908 17.1205 12.6654 17.1205 12.7432V22.9367C17.1205 23.0145 17.151 23.0891 17.2052 23.144C17.2593 23.199 17.3328 23.2299 17.4094 23.2299C17.4861 23.2299 17.5595 23.199 17.6137 23.144C17.6679 23.0891 17.6983 23.0145 17.6983 22.9367V12.7432C17.6983 12.6654 17.6679 12.5908 17.6137 12.5358C17.5595 12.4808 17.4861 12.45 17.4094 12.45Z" fill="#8F8F8F"/>
<path d="M27.9879 26.084C27.973 26.0279 27.9429 25.9771 27.9011 25.9374C27.8592 25.8978 27.8074 25.8707 27.7512 25.8594C27.6857 25.8461 27.6177 25.8549 27.5576 25.8843C27.3855 25.8843 26.5649 25.8438 23.7959 24.8581C20.701 23.7539 19.1643 24.8862 18.5097 25.3697L18.3161 25.51C18.0917 25.5481 17.864 25.5617 17.6369 25.5506H17.517H17.4771H17.3571C17.1374 25.5621 16.917 25.5506 16.6995 25.5163C16.6247 25.4722 16.5528 25.4232 16.4843 25.3697C15.8297 24.8862 14.293 23.7539 11.1982 24.8581C8.42603 25.8438 7.61467 25.8906 7.43334 25.8843C7.37319 25.8549 7.30522 25.8461 7.23972 25.8594L7 26.084L7.08913 26.3959C7.20536 26.476 7.34594 26.5114 7.48559 26.4957C8.12484 26.4957 9.43409 26.1432 11.401 25.4414C14.1947 24.4464 15.4978 25.4071 16.1217 25.8687C16.2481 25.9823 16.3969 26.0674 16.5581 26.1183C16.8299 26.1663 17.1061 26.1841 17.3818 26.1713H17.4955H17.6092C17.8848 26.1839 18.161 26.1662 18.4328 26.1183C18.5941 26.0674 18.7428 25.9823 18.8693 25.8687C19.4839 25.4071 20.7993 24.4464 23.5899 25.4414C25.5569 26.1557 26.8661 26.4988 27.5053 26.4988C27.6436 26.5147 27.783 26.4804 27.8987 26.4021C27.9415 26.3629 27.9725 26.3123 27.9883 26.256C28.004 26.1998 28.0039 26.1401 27.9879 26.084Z" fill="#8F8F8F"/>
</svg>
