<svg width="35" height="35" viewBox="0 0 35 35" fill="none" xmlns="http://www.w3.org/2000/svg">
<circle cx="17.5" cy="17.5" r="17.5" fill="#EDECED"/>
<path d="M27.4409 10.5338C26.4013 9.5111 24.9651 8.99994 23.1316 8.99994C22.6242 8.99994 22.1063 9.08858 21.5785 9.26579C21.0505 9.44312 20.5594 9.68236 20.1055 9.98335C19.6511 10.2842 19.2606 10.5668 18.933 10.8306C18.6057 11.0945 18.2946 11.375 18 11.6718C17.7053 11.375 17.3943 11.0945 17.067 10.8306C16.7395 10.5668 16.3488 10.2844 15.8945 9.98335C15.4402 9.68224 14.9491 9.44316 14.4212 9.26579C13.8934 9.08863 13.3756 8.99994 12.8682 8.99994C11.0348 8.99994 9.59855 9.51123 8.55915 10.5338C7.51974 11.5564 7 12.9747 7 14.7889C7 15.3415 7.09632 15.9107 7.28857 16.4959C7.48083 17.0814 7.69991 17.5804 7.9454 17.9926C8.19085 18.4048 8.46919 18.8068 8.78021 19.1985C9.09123 19.5903 9.31853 19.8602 9.46159 20.0087C9.60478 20.1571 9.71736 20.2644 9.79919 20.3304L17.4598 27.7771C17.6072 27.9255 17.7872 27.9999 18 27.9999C18.2127 27.9999 18.3929 27.9255 18.5402 27.7771L26.1886 20.3549C28.0629 18.4668 29 16.6113 29 14.7888C29 12.9744 28.4803 11.5562 27.4409 10.5338ZM25.1205 19.1924L18 26.107L10.8674 19.1799C9.33681 17.6381 8.57166 16.1742 8.57166 14.7888C8.57166 14.1209 8.65964 13.5312 8.83551 13.02C9.01151 12.5088 9.23657 12.1025 9.51074 11.8015C9.78495 11.5004 10.1184 11.2553 10.5113 11.0655C10.9043 10.8759 11.289 10.748 11.6654 10.6821C12.0418 10.6162 12.4428 10.5832 12.8685 10.5832C13.294 10.5832 13.7524 10.6883 14.2435 10.8986C14.7345 11.1089 15.1866 11.3728 15.5999 11.6902C16.0133 12.0079 16.3673 12.3047 16.662 12.5809C16.9566 12.8573 17.2021 13.1107 17.3985 13.3416C17.5458 13.5231 17.7464 13.6138 18.0001 13.6138C18.2538 13.6138 18.4542 13.5231 18.6016 13.3416C18.7981 13.1107 19.0437 12.8572 19.3383 12.5809C19.6329 12.3047 19.9869 12.008 20.4001 11.6902C20.8135 11.3728 21.2657 11.1089 21.7569 10.8986C22.2478 10.6883 22.7064 10.5832 23.1319 10.5832C23.5575 10.5832 23.9583 10.6162 24.3349 10.6821C24.7115 10.748 25.0961 10.8759 25.4891 11.0655C25.882 11.2553 26.2154 11.5006 26.4896 11.8015C26.7637 12.1025 26.9889 12.5088 27.1649 13.02C27.3406 13.5312 27.4286 14.1209 27.4286 14.7888C27.4285 16.1742 26.6593 17.6422 25.1205 19.1924Z" fill="#8F8F8F" stroke="#EDECED" stroke-width="0.6"/>
</svg>
