<?xml version="1.0" encoding="utf-8"?>
<!-- Generator: Adobe Illustrator 19.2.0, SVG Export Plug-In . SVG Version: 6.00 Build 0)  -->
<svg version="1.1" xmlns="http://www.w3.org/2000/svg" xmlns:xlink="http://www.w3.org/1999/xlink" x="0px" y="0px"
	 viewBox="0 0 257 300.7" style="enable-background:new 0 0 257 300.7;" xml:space="preserve">
<style type="text/css">
	.st0{display:none;}
	.st1{display:inline;}
	.st2{display:inline;opacity:0.99;enable-background:new    ;}
	.st3{fill:#1C68AC;}
	.st4{display:inline;fill:#1C68AC;}
</style>
<g id="Layer_1" class="st0">
	<g id="Capa_1">
		<g class="st1">
			<g>
				<path d="M1.3,246.9H48v40c0,1.9,0.6,3.5,1.9,4.8c1.3,1.3,2.8,1.9,4.8,1.9h34.8c1.8,0,3.4-0.6,4.7-1.9c1.3-1.2,2-2.8,2-4.8v-40
					h105.3c1.9,0,3.5-0.6,4.8-1.9s1.9-2.8,1.9-4.8v-26.7c0-1.9-0.6-3.5-1.9-4.8s-2.9-1.9-4.8-1.9H96.2v-24.6h70.9
					c27.8,0,50.5-8.5,68.1-25.4c17.6-17,26.4-38.8,26.4-65.7c0-26.8-8.8-48.7-26.4-65.7S194.9,0,167.1,0H54.7
					c-1.9,0-3.5,0.6-4.8,1.9S48,4.8,48,6.7v131.2H1.3c-1.9,0-3.5,0.7-4.8,2s-1.9,2.9-1.9,4.7v31.1c0,1.9,0.6,3.5,1.9,4.8
					s2.8,1.9,4.8,1.9H48V207H1.3c-1.9,0-3.5,0.6-4.8,1.9c-1.3,1.2-1.9,2.8-1.9,4.8v26.7c0,1.9,0.6,3.5,1.9,4.8
					C-2.3,246.3-0.7,246.9,1.3,246.9z M96.2,44.4h66.7c14.7,0,26.6,4.3,35.7,12.9c9,8.6,13.6,19.9,13.6,33.8
					c0,13.9-4.5,25.2-13.6,33.8c-9,8.6-20.9,12.9-35.7,12.9H96.2V44.4z"/>
			</g>
		</g>
	</g>
	<g class="st2">
		<path class="st3" d="M50.9,300.4V0H163c19.7,0,34.8,1,45.2,2.9c14.6,2.5,26.8,7.1,36.7,14c9.9,6.9,17.8,16.6,23.8,29
			c6,12.4,9,26.1,9,41c0,25.5-8,47.2-24.1,64.9c-16.1,17.7-45.2,26.5-87.2,26.5H90.2v122.1H50.9z M90.2,142.8h76.9
			c25.4,0,43.5-4.8,54.1-14.3c10.7-9.6,16-23,16-40.4c0-12.6-3.1-23.3-9.4-32.3c-6.3-8.9-14.6-14.9-24.8-17.7
			c-6.6-1.8-18.9-2.7-36.7-2.7h-76V142.8z"/>
	</g>
	
		<image style="display:inline;overflow:visible;" width="109" height="36" xlink:href="D75630FD.png"  transform="matrix(1 0 0 1 -4 142.0634)">
	</image>
	<rect x="-4.1" y="211.5" class="st4" width="204.4" height="35"/>
</g>
<g id="Layer_2_1_" class="st0">
	<g class="st1">
		<path class="st3" d="M218.7,282.1c-15.4,10.4-45.8,18.6-73.7,18.6C77,300.7,44,261.8,44,216.8c0-42.8,24.8-66.6,73.7-85.7
			c39.8-15.6,57.4-29,57.4-56.3c0-19.9-15-43.7-54.4-43.7c-26.1,0-45.4,8.7-54.8,13.8L55.5,14.3C68.4,6.9,89.8,0,119.4,0
			c56.1,0,93.4,33.8,93.4,79.2c0,41.1-29.1,65.8-76.2,82.6c-39,15.1-54.4,30.7-54.4,58c0,29.4,22.3,49.8,60.4,49.8
			c25.7,0,50.1-8.7,66.8-19L218.7,282.1z"/>
	</g>
	<rect x="22.7" y="162" class="st4" width="208.8" height="33.6"/>
	<rect x="22.7" y="107.3" class="st4" width="208.8" height="33.6"/>
</g>
<g id="Layer_3">
	<g>
		<path class="st3" d="M15.4,0.3h222.8v35H15.4V0.3z M235.6,240.4c-23.6,22.1-35.8,25-38.6,25c-0.1-3.7-0.2-6.2-0.2-9.6V100.8h41.5
			v-35H15.4v35h55c5.7,100-39.8,134.6-60.5,145.1c-5.4,2.7-9.1,3.8-9.8,4l8.8,33.8c1-0.2,6.6-1.8,14.7-5.7
			c28.6-13.8,88-57,81.8-177.3h56.4v154.8c-0.1,3.2,0.1,31.9,22.4,41.8c4.5,2,9.2,2.9,13.9,2.9c21.8,0,42.4-16.6,58.9-32.1
			L235.6,240.4z"/>
	</g>
</g>
<g id="Layer_4" class="st0">
	<g class="st1">
		<rect x="15.4" y="0.3" class="st3" width="222.8" height="35"/>
	</g>
	<rect x="15.4" y="65.8" class="st4" width="222.8" height="35"/>
	<rect x="107.1" y="100.8" class="st4" width="39.5" height="202.2"/>
</g>
</svg>
