<?xml version="1.0" encoding="utf-8"?>
<!-- Generator: Adobe Illustrator 19.2.0, SVG Export Plug-In . SVG Version: 6.00 Build 0)  -->
<svg version="1.1" id="Layer_1" xmlns="http://www.w3.org/2000/svg" xmlns:xlink="http://www.w3.org/1999/xlink" x="0px" y="0px"
	 viewBox="0 0 282.2 300.7" style="enable-background:new 0 0 282.2 300.7;" xml:space="preserve">
<style type="text/css">
	.st0{display:none;}
	.st1{display:inline;}
	.st2{fill:#1C68AC;}
	.st3{display:inline;fill:#1C68AC;}
</style>
<g id="Capa_1" class="st0">
	<g class="st1">
		<g>
			<path d="M5,246.9h46.7v40c0,1.9,0.6,3.5,1.9,4.8c1.3,1.3,2.8,1.9,4.8,1.9h34.8c1.8,0,3.4-0.6,4.7-1.9c1.3-1.2,2-2.8,2-4.8v-40
				h105.3c1.9,0,3.5-0.6,4.8-1.9s1.9-2.8,1.9-4.8v-26.7c0-1.9-0.6-3.5-1.9-4.8s-2.9-1.9-4.8-1.9H99.9v-24.6h70.9
				c27.8,0,50.5-8.5,68.1-25.4c17.6-17,26.4-38.8,26.4-65.7c0-26.8-8.8-48.7-26.4-65.7S198.6,0,170.8,0H58.4c-1.9,0-3.5,0.6-4.8,1.9
				s-1.9,2.9-1.9,4.8v131.2H5c-1.9,0-3.5,0.7-4.8,2s-1.9,2.9-1.9,4.7v31.1c0,1.9,0.6,3.5,1.9,4.8s2.8,1.9,4.8,1.9h46.7V207H5
				c-1.9,0-3.5,0.6-4.8,1.9c-1.3,1.2-1.9,2.8-1.9,4.8v26.7c0,1.9,0.6,3.5,1.9,4.8C1.4,246.3,3,246.9,5,246.9z M99.9,44.4h66.7
				c14.7,0,26.6,4.3,35.7,12.9c9,8.6,13.6,19.9,13.6,33.8s-4.5,25.2-13.6,33.8c-9,8.6-20.9,12.9-35.7,12.9H99.9V44.4z"/>
		</g>
	</g>
</g>
<path class="st2" d="M272.4,45.9c-6-12.4-13.9-22.1-23.8-29c-9.9-6.9-22.1-11.5-36.7-14C201.5,1,186.4,0,166.7,0H54.6v142.8h-55v35
	h55v33.7h-55v35h55v53.9h39.3v-53.9H204v-35H93.9v-33.2h76.2c42,0,71.1-8.8,87.2-26.5c16.1-17.7,24.1-39.4,24.1-64.9
	C281.4,72,278.4,58.3,272.4,45.9z M224.9,128.5c-10.6,9.5-28.7,14.3-54.1,14.3H94V35.4h76c17.8,0,30.1,0.9,36.7,2.7
	c10.2,2.8,18.5,8.8,24.8,17.7c6.3,9,9.4,19.7,9.4,32.3C240.9,105.5,235.6,118.9,224.9,128.5z"/>
<g id="Layer_2_1_" class="st0">
	<g class="st1">
		<path class="st2" d="M222.4,282.1c-15.4,10.4-45.8,18.6-73.7,18.6c-68.1,0-101.1-38.9-101.1-83.9c0-42.8,24.8-66.6,73.7-85.7
			c39.8-15.6,57.4-29,57.4-56.3c0-19.9-15-43.7-54.4-43.7c-26.1,0-45.4,8.7-54.8,13.8L59.2,14.3C72.1,6.9,93.5,0,123.1,0
			c56.1,0,93.4,33.8,93.4,79.2c0,41.1-29.1,65.8-76.2,82.6c-39,15.1-54.4,30.7-54.4,58c0,29.4,22.3,49.8,60.4,49.8
			c25.7,0,50.1-8.7,66.8-19L222.4,282.1z"/>
	</g>
	<rect x="26.4" y="162" class="st3" width="208.8" height="33.6"/>
	<rect x="26.4" y="107.3" class="st3" width="208.8" height="33.6"/>
</g>
<g id="Layer_3" class="st0">
	<g class="st1">
		<path class="st2" d="M19.1,0.3h222.8v35H19.1V0.3z M239.3,240.4c-23.6,22.1-35.8,25-38.6,25c-0.1-3.7-0.2-6.2-0.2-9.6v-155H242
			v-35H19.1v35h55c5.7,100-39.8,134.6-60.5,145.1c-5.4,2.7-9.1,3.8-9.8,4l8.8,33.8c1-0.2,6.6-1.8,14.7-5.7
			c28.6-13.8,88-57,81.8-177.3h56.4v154.8c-0.1,3.2,0.1,31.9,22.4,41.8c4.5,2,9.2,2.9,13.9,2.9c21.8,0,42.4-16.6,58.9-32.1
			L239.3,240.4z"/>
	</g>
</g>
<g id="Layer_4" class="st0">
	<g class="st1">
		<rect x="19.1" y="0.3" class="st2" width="222.8" height="35"/>
	</g>
	<rect x="19.1" y="65.8" class="st3" width="222.8" height="35"/>
	<rect x="110.8" y="100.8" class="st3" width="39.5" height="202.2"/>
</g>
</svg>
