<?xml version="1.0" encoding="utf-8"?>
<!-- Generator: Adobe Illustrator 19.2.0, SVG Export Plug-In . SVG Version: 6.00 Build 0)  -->
<svg version="1.1" id="Layer_1" xmlns="http://www.w3.org/2000/svg" xmlns:xlink="http://www.w3.org/1999/xlink" x="0px" y="0px"
	 viewBox="0 0 194.2 300" style="enable-background:new 0 0 194.2 300;" xml:space="preserve">
<style type="text/css">
	.st0{display:none;}
	.st1{display:inline;}
	.st2{opacity:0.99;fill:#1C68AC;enable-background:new    ;}
	.st3{font-family:'ArialMT';}
	.st4{font-size:419.6631px;}
	.st5{fill:#1C68AC;}
	.st6{display:inline;fill:#1C68AC;}
	.st7{font-size:432.6919px;}
</style>
<g id="Layer_1_1_" class="st0">
	<g id="Capa_1" class="st1">
		<g>
			<g>
				<path d="M-74.9,230h46.7v40c0,1.9,0.6,3.5,1.9,4.8c1.3,1.3,2.8,1.9,4.8,1.9h34.8c1.8,0,3.4-0.6,4.7-1.9c1.3-1.2,2-2.8,2-4.8v-40
					h105.3c1.9,0,3.5-0.6,4.8-1.9s1.9-2.8,1.9-4.8v-26.7c0-1.9-0.6-3.5-1.9-4.8s-2.9-1.9-4.8-1.9H20v-24.6h70.9
					c27.8,0,50.5-8.5,68.1-25.4c17.6-17,26.4-38.8,26.4-65.7c0-26.8-8.8-48.7-26.4-65.7s-40.3-25.4-68.1-25.4H-21.5
					c-1.9,0-3.5,0.6-4.8,1.9s-1.9,2.9-1.9,4.8V121h-46.7c-1.9,0-3.5,0.7-4.8,2s-1.9,2.9-1.9,4.7v31.1c0,1.9,0.6,3.5,1.9,4.8
					s2.8,1.9,4.8,1.9h46.7v24.6h-46.7c-1.9,0-3.5,0.6-4.8,1.9c-1.3,1.2-1.9,2.8-1.9,4.8v26.7c0,1.9,0.6,3.5,1.9,4.8
					C-78.5,229.4-76.9,230-74.9,230z M20,27.5h66.7c14.7,0,26.6,4.3,35.7,12.9c9,8.6,13.6,19.9,13.6,33.8c0,13.9-4.5,25.2-13.6,33.8
					c-9,8.6-20.9,12.9-35.7,12.9H20V27.5z"/>
			</g>
		</g>
	</g>
	<g id="Layer_2" class="st1">
		<text transform="matrix(0.9896 0 0 1 -57.338 282.142)" class="st2 st3 st4">ла</text>
		
			<image style="overflow:visible;enable-background:new    ;" width="109" height="36" xlink:href="62A393B8.png"  transform="matrix(1 0 0 1 -80.1672 124.2)">
		</image>
		<rect x="-80.3" y="193.6" class="st5" width="204.4" height="35"/>
	</g>
</g>
<g id="Layer_2_1_" class="st0">
	<text transform="matrix(-0.9897 0 0 1 160.5233 279.5316)" class="st6 st3 st7">S</text>
	<rect x="-53.5" y="145.1" class="st6" width="208.8" height="33.6"/>
	<rect x="-53.5" y="90.5" class="st6" width="208.8" height="33.6"/>
</g>
<g id="Layer_3">
	<path id="XMLID_441_" class="st5" d="M167,150.4c0,7.9-0.7,15.6-2.2,23c-10,52.1-53.1,92.7-106.7,98.7V139l63.2-21V89.3l-63.2,21
		V84.6l63.2-21V34.9L58.1,56V0H30.9v65L0,75.4L0.2,104l30.7-10.2v25.8l-30.7,11v28l30.7-10.2v135.1v3c0,7.5,6.1,13.6,13.6,13.6
		c79,0,143.9-61.6,149.3-139.2c0.3-3.4,0.4-6.9,0.4-10.4H167z"/>
</g>
</svg>
