<svg xmlns="http://www.w3.org/2000/svg" viewBox="0 0 73.46 21.61"><defs><style>.cls-1{fill:#cfcfcf;}.cls-2{fill:#9b9b9b;}</style></defs><title>Ресурс 45</title><g id="Слой_2" data-name="Слой 2"><g id="иконки"><path class="cls-1" d="M60.63,3.81a21.34,21.34,0,0,0-4.7.76L55.54,7.5a16.65,16.65,0,0,1,3.94-.89c1.53,0,2.41.25,2.16,1.65-4.58,0-7.63.89-8.26,3.94-.89,5.08,4.7,5.21,6.86,2.92L60,16.52h4.07l1.78-8.26C66.47,4.83,63.42,3.69,60.63,3.81Zm.25,8.52c-.25,1-1.14,1.4-2.16,1.53s-1.65-.51-1.14-1.53c.51-.76,1.65-.76,2.54-.76h1C61,11.44,60.88,11.95,60.88,12.33Z"/><polygon class="cls-1" points="69.27 0 65.96 16.52 70.03 16.52 73.46 0 69.27 0"/><path class="cls-1" d="M50.33,0h-7.5l-3.3,16.52H44l1.14-5.08H48.3a6,6,0,0,0,6.23-5C55.16,2.8,52.49,0,50.33,0ZM50.2,5.72a2.59,2.59,0,0,1-2.54,1.91h-2l.89-3.81h2.16A1.44,1.44,0,0,1,50.2,5.72Z"/><path class="cls-2" d="M21,3.81a18.89,18.89,0,0,0-4.58.76L16,7.5A15.2,15.2,0,0,1,20,6.61c1.53,0,2.41.25,2.16,1.65-4.45,0-7.5.89-8.13,3.94-.89,5.08,4.58,5.21,6.74,2.92l-.25,1.4h4.07l1.78-8.26C26.94,4.83,23.77,3.69,21,3.81Zm.38,8.52c-.25,1-1.14,1.4-2.16,1.53s-1.65-.51-1-1.53c.51-.76,1.65-.76,2.41-.76h1C21.48,11.44,21.35,11.95,21.35,12.33Z"/><polygon class="cls-2" points="27.96 3.81 32.03 3.81 32.66 10.93 36.73 3.81 40.93 3.81 31.27 21.61 26.69 21.61 29.61 16.27 27.96 3.81"/><path class="cls-2" d="M10.93,0H3.3L0,16.52H4.45l1.14-5.08H8.77a6,6,0,0,0,6.23-5C15.76,2.8,13.09,0,10.93,0ZM10.8,5.72A2.59,2.59,0,0,1,8.26,7.63h-2l.89-3.81H9.28A1.44,1.44,0,0,1,10.8,5.72Z"/></g></g></svg>