<?xml version="1.0" encoding="utf-8"?>
<!-- Generator: Adobe Illustrator 21.1.0, SVG Export Plug-In . SVG Version: 6.00 Build 0)  -->
<svg version="1.1" id="Слой_1" xmlns="http://www.w3.org/2000/svg" xmlns:xlink="http://www.w3.org/1999/xlink" x="0px" y="0px"
	 viewBox="0 0 25 30" style="enable-background:new 0 0 25 30;" xml:space="preserve">
<style type="text/css">
	.st0{fill:#CFCFCF;}
	.st1{fill:#9B9B9B;}
	.st2{fill:none;}
	.st3{fill:#FFFFFF;}
</style>
<title>PayPal</title>
<g id="_x36_ca5f6bf-4ff6-4dd6-9c49-01d50faa289d">
	<g id="_x39_d5b5d6d-1989-4d2c-9204-036baae94955">
		<path class="st0" d="M22.7,8.2c-0.6,5-4.8,8.7-9.9,8.8H9.9c-0.7,0-1.2,0.4-1.4,1.1L6.7,28.6c-0.1,0.7,0.3,1.3,1,1.4
			c0.1,0,0.1,0,0.2,0h3.4c0.6,0,1.1-0.4,1.2-1l1-5.7c0.1-1,1-1.7,2-1.7h0.9c4.8,0,8.7-4,8.7-8.8l0,0C25,11,24.1,9.3,22.7,8.2z"/>
		<path class="st1" d="M6.6,24.8v-0.1l0,0l1.2-7.3c0.2-0.6,0.8-1.1,1.4-1.1h2.9c5,0,9.2-3.8,9.8-8.8c0.1-0.4,0.1-0.8,0.1-1.2
			c0-3.5-2.8-6.3-6.3-6.3H5.3C4.6,0,4,0.5,3.9,1.1L0,24.4c-0.1,0.7,0.3,1.5,1.1,1.6c0.1,0,0.2,0,0.3,0h3.9C5.9,26,6.5,25.5,6.6,24.8
			z"/>
	</g>
</g>
<g>
	<path class="st2" d="M13.1,5.2H11L10.1,9h2c1.2,0,2.2-0.8,2.5-1.9c0.1-0.2,0.1-0.4,0.1-0.6C14.6,5.6,13.9,5.1,13.1,5.2z"/>
</g>
<path class="st3" d="M9.8,5.1l-1,5.2c0,0,3.4,0.1,4-0.4s0.9-0.6,1.3-1.1c0.4-0.5,0.6-1.3,0.6-1.5c0-0.2,0-0.7-0.1-1
	C14.5,6,14.1,5.6,14,5.5s-0.7-0.4-0.7-0.4c-0.1,0-0.5,0-0.7,0C12.4,5.1,9.8,5.1,9.8,5.1z"/>
</svg>
