<svg xmlns="http://www.w3.org/2000/svg" viewBox="0 0 16 16"><defs><style>.cls-1{fill:#ffffff;}</style></defs><title>Ресурс 1</title><g id="Слой_2" data-name="Слой 2"><g id="Слой_1-2" data-name="Слой 1"><g id="_41e4ccd6-604f-46a8-9832-a7a3069abde6" data-name="41e4ccd6-604f-46a8-9832-a7a3069abde6"><g id="_4ffd3f2d-9b71-4528-8d57-22bd2ecd9157" data-name="4ffd3f2d-9b71-4528-8d57-22bd2ecd9157"><path class="cls-1" d="M9.68,8l6-6A1.18,1.18,0,0,0,14,.34l-6,6-6-6A1.18,1.18,0,0,0,.33.34h0A1.18,1.18,0,0,0,.35,2l6,6-6,6a1.18,1.18,0,0,0,0,1.67h0a1.18,1.18,0,0,0,1.67,0l6-6,6,6A1.18,1.18,0,0,0,15.69,14Z"/></g></g></g></g></svg>