<?xml version="1.0" encoding="utf-8"?>
<!-- (c) Livemaster LLC - https://livemaster.ru -->
<!DOCTYPE svg PUBLIC "-//W3C//DTD SVG 1.1//EN" "http://www.w3.org/Graphics/SVG/1.1/DTD/svg11.dtd">
<svg xmlns="http://www.w3.org/2000/svg" viewBox="0 0 31 43">
  <path id="Forma_1" data-name="Forma 1" fill="#fff" fill-rule="evenodd"  d="M1960.84,81.529v-2.9a21.061,21.061,0,0,0,1.01-7.326,36.989,36.989,0,0,1,1.07-7.018l0.22-.911L1958.2,62l-0.17.858a7.923,7.923,0,0,1-1.06,2.477,5.1,5.1,0,0,1-4.47,2.483c-4.46,0-5.49-4.76-5.53-4.959L1946.8,62l-4.93,1.375,0.22,0.911a37.2,37.2,0,0,1,1.06,7.018,20.986,20.986,0,0,0,1.02,7.326v2.883L1937,101.1l0.42,0.432c0.13,0.142,3.48,3.468,15.08,3.468s14.95-3.326,15.08-3.468l0.42-.432Zm-15.2-.719V79.543h13.72v1.266h-13.72Zm0.13-16.692a10.119,10.119,0,0,0,1.11,2.325,6.586,6.586,0,0,0,11.25,0,10.024,10.024,0,0,0,1.1-2.325l2.06,0.574a33.084,33.084,0,0,0-.91,6.687,19.326,19.326,0,0,1-.84,6.38h-14.07a19.139,19.139,0,0,1-.85-6.38,32.389,32.389,0,0,0-.91-6.687Zm17.94,37.571a41.937,41.937,0,0,1-22.42,0,11.536,11.536,0,0,1-2.47-1.173l6.56-17.922h2.74l-1.45,7.777,1.44,0.392,1.52-8.17h5.68l1.52,8.17,1.44-.392-1.45-7.777h2.8l6.56,17.923A11.536,11.536,0,0,1,1963.71,101.689Z" transform="translate(-1937 -62)"/>
</svg>
