<svg viewBox="0 0 53 53" fill="none" xmlns="http://www.w3.org/2000/svg">
<g filter="url(#filter0_d)">
<circle cx="26.5" cy="22.5" r="22.5" fill="url(#paint0_linear)"/>
</g>
<path d="M21.9765 17.18V14H19.9765V17.18C19.3973 17.3902 18.8969 17.7736 18.5433 18.2782C18.1897 18.7827 18 19.3839 18 20C18 20.6161 18.1897 21.2173 18.5433 21.7218C18.8969 22.2264 19.3973 22.6098 19.9765 22.82V31H21.9765V22.82C22.5556 22.6098 23.056 22.2264 23.4096 21.7218C23.7633 21.2173 23.953 20.6161 23.953 20C23.953 19.3839 23.7633 18.7827 23.4096 18.2782C23.056 17.7736 22.5556 17.3902 21.9765 17.18ZM21.9765 21.11C21.7035 21.3602 21.3467 21.4989 20.9765 21.4989C20.6062 21.4989 20.2494 21.3602 19.9765 21.11C19.753 20.9069 19.596 20.641 19.5261 20.3472C19.4562 20.0534 19.4766 19.7453 19.5846 19.4633C19.6927 19.1813 19.8834 18.9384 20.1317 18.7666C20.38 18.5947 20.6745 18.5018 20.9765 18.5C21.2809 18.4964 21.5792 18.5862 21.831 18.7573C22.0829 18.9284 22.2763 19.1725 22.3853 19.4568C22.4942 19.7411 22.5134 20.052 22.4403 20.3476C22.3672 20.6431 22.2054 20.9092 21.9765 21.11Z" fill="white"/>
<path d="M33.9765 17.18V14H31.9765V17.18C31.3973 17.3902 30.8969 17.7736 30.5433 18.2782C30.1897 18.7827 30 19.3839 30 20C30 20.6161 30.1897 21.2173 30.5433 21.7218C30.8969 22.2264 31.3973 22.6098 31.9765 22.82V31H33.9765V22.82C34.5556 22.6098 35.056 22.2264 35.4096 21.7218C35.7633 21.2173 35.953 20.6161 35.953 20C35.953 19.3839 35.7633 18.7827 35.4096 18.2782C35.056 17.7736 34.5556 17.3902 33.9765 17.18ZM33.9765 21.11C33.6821 21.3752 33.2944 21.5126 32.8987 21.492C32.503 21.4714 32.1317 21.2944 31.8665 21C31.6013 20.7056 31.4639 20.3179 31.4845 19.9222C31.5051 19.5265 31.6821 19.1552 31.9765 18.89C32.2709 18.6248 32.6586 18.4874 33.0543 18.508C33.45 18.5286 33.8213 18.7056 34.0865 19C34.3517 19.2944 34.4891 19.6821 34.4685 20.0778C34.4478 20.4735 34.2709 20.8448 33.9765 21.11Z" fill="white"/>
<path d="M27.9765 22.18V14H25.9765V22.18C25.3973 22.3902 24.8969 22.7736 24.5433 23.2782C24.1897 23.7827 24 24.3839 24 25C24 25.6161 24.1897 26.2173 24.5433 26.7218C24.8969 27.2264 25.3973 27.6098 25.9765 27.82V31H27.9765V27.82C28.5556 27.6098 29.056 27.2264 29.4096 26.7218C29.7633 26.2173 29.953 25.6161 29.953 25C29.953 24.3839 29.7633 23.7827 29.4096 23.2782C29.056 22.7736 28.5556 22.3902 27.9765 22.18ZM27.9765 26.11C27.7229 26.3341 27.4001 26.4645 27.062 26.4795C26.7239 26.4945 26.3908 26.3931 26.1184 26.1923C25.8459 25.9915 25.6506 25.7034 25.5648 25.376C25.479 25.0486 25.5081 24.7017 25.6471 24.3931C25.7861 24.0845 26.0266 23.8329 26.3287 23.6802C26.6307 23.5275 26.976 23.4829 27.3069 23.5539C27.6378 23.6248 27.9344 23.8071 28.1472 24.0703C28.3601 24.3334 28.4763 24.6616 28.4765 25C28.4773 25.21 28.433 25.4177 28.3468 25.6092C28.2605 25.8007 28.1343 25.9714 27.9765 26.11Z" fill="white"/>
<defs>
<filter id="filter0_d" x="0" y="0" width="53" height="53" filterUnits="userSpaceOnUse" color-interpolation-filters="sRGB">
<feFlood flood-opacity="0" result="BackgroundImageFix"/>
<feColorMatrix in="SourceAlpha" type="matrix" values="0 0 0 0 0 0 0 0 0 0 0 0 0 0 0 0 0 0 127 0"/>
<feOffset dy="4"/>
<feGaussianBlur stdDeviation="2"/>
<feColorMatrix type="matrix" values="0 0 0 0 0 0 0 0 0 0 0 0 0 0 0 0 0 0 0.25 0"/>
<feBlend mode="normal" in2="BackgroundImageFix" result="effect1_dropShadow"/>
<feBlend mode="normal" in="SourceGraphic" in2="effect1_dropShadow" result="shape"/>
</filter>
<linearGradient id="paint0_linear" x1="26.5" y1="0" x2="26.5" y2="45" gradientUnits="userSpaceOnUse">
<stop stop-color="#F88E2F"/>
<stop offset="1" stop-color="#FD7801"/>
</linearGradient>
</defs>
</svg>
