<svg xmlns="http://www.w3.org/2000/svg" viewBox="0 0 65.51 66.1"><defs><style>.cls-1{fill:#ffd15c;}.cls-2{fill:#f4ae3d;}</style></defs><title>звезда4</title><g id="Слой_2" data-name="Слой 2"><g id="Слой_1-2" data-name="Слой 1"><polygon class="cls-1" points="32.75 0 42.87 20.51 65.5 23.8 49.13 39.76 52.99 62.3 32.75 51.66 12.51 62.3 16.38 39.76 0 23.8 22.63 20.51 32.75 0"/><path class="cls-2" d="M62,49a1.58,1.58,0,0,1-.91-.28l-5.6-3.9a1.59,1.59,0,0,1,1.81-2.61l5.6,3.9A1.59,1.59,0,0,1,62,49Z"/><path class="cls-2" d="M32.75,66.1a1.59,1.59,0,0,1-1.59-1.59V57.68a1.59,1.59,0,0,1,3.18,0v6.83A1.59,1.59,0,0,1,32.75,66.1Z"/><path class="cls-2" d="M15.87,17A1.58,1.58,0,0,1,15,16.7L9.5,12.9a1.59,1.59,0,0,1,1.81-2.61l5.46,3.8A1.59,1.59,0,0,1,15.87,17Z"/><path class="cls-2" d="M47.38,15.57a1.59,1.59,0,0,1-1.12-2.71L51.09,8a1.59,1.59,0,1,1,2.25,2.25L48.5,15.11A1.58,1.58,0,0,1,47.38,15.57Z"/><path class="cls-2" d="M4.44,49.82a1.59,1.59,0,0,1-1.12-2.71l5.6-5.61a1.59,1.59,0,1,1,2.25,2.25l-5.6,5.61A1.58,1.58,0,0,1,4.44,49.82Z"/></g></g></svg>