<svg width="247" height="40" viewBox="0 0 247 40" fill="none" xmlns="http://www.w3.org/2000/svg">
<rect width="40" height="40" rx="7" fill="#F44169"/>
<path d="M31.4939 22.4883L37 19.5L31.4939 16.5117L34.7239 11.25L28.415 11.3325L28.5 5.20917L23.0789 8.34417L20 3L16.9211 8.34417L11.5 5.20917L11.585 11.3325L5.27611 11.25L8.50611 16.5117L3 19.5L8.50611 22.4883L5.27611 27.75L11.585 27.6675L11.5 33.7908L16.9211 30.6558L20 36L23.0789 30.6558L28.5 33.7908L28.415 27.6675L34.7239 27.75L31.4939 22.4883ZM27.3856 31.9117L22.6633 29.1617L20 33.8367L17.3272 29.1983L12.605 31.9483L12.6806 26.6317L7.20278 26.705L10.0361 22.1217L5.22889 19.5L10.0172 16.9058L7.18389 12.3225L12.6617 12.3958L12.5861 7.07917L17.3083 9.82917L20 5.16333L22.6728 9.80167L27.395 7.05167L27.3194 12.3683L32.7972 12.295L29.9639 16.8783L34.7711 19.5L29.9922 22.0942L32.8256 26.6775L27.3478 26.6042L27.3856 31.9117ZM28.5 17.9325C28.1842 17.8324 27.8945 17.6672 27.6507 17.4483C27.4069 17.2293 27.2147 16.9618 27.0873 16.6641C26.9599 16.3663 26.9004 16.0454 26.9127 15.7232C26.9251 15.401 27.0091 15.0852 27.1589 14.7975C27.3616 14.4997 27.4836 14.157 27.5133 13.8012C27.543 13.4454 27.4796 13.0881 27.3289 12.7625C26.9228 12.1392 26.0256 12.0567 24.8733 12.5883C24.5436 12.7437 24.1821 12.8251 23.8156 12.8267C23.3234 12.8264 22.8442 12.6732 22.4482 12.3895C22.0522 12.1058 21.7602 11.7064 21.615 11.25C21.1333 9.93917 20.4722 9.66417 20 9.66417C19.5278 9.66417 18.8667 9.93917 18.385 11.25C18.2401 11.6988 17.9531 12.0918 17.5648 12.3733C17.1765 12.6547 16.7067 12.8101 16.2222 12.8175C15.8556 12.8163 15.4941 12.7348 15.1644 12.5792C14.0122 12.0475 13.115 12.1392 12.7089 12.7533C12.5582 13.0789 12.4948 13.4362 12.5245 13.792C12.5542 14.1478 12.6761 14.4905 12.8789 14.7883C13.0298 15.0789 13.1135 15.3978 13.1243 15.723C13.1351 16.0482 13.0727 16.3717 12.9414 16.6711C12.8102 16.9705 12.6132 17.2384 12.3642 17.4563C12.1153 17.6741 11.8203 17.8367 11.5 17.9325C10.1494 18.4 9.86611 19.0417 9.86611 19.5C9.86611 19.9583 10.1494 20.6 11.5 21.0675C11.8157 21.1676 12.1055 21.3328 12.3493 21.5517C12.5931 21.7707 12.7853 22.0382 12.9127 22.3359C13.0401 22.6337 13.0996 22.9546 13.0873 23.2768C13.0749 23.599 12.9909 23.9148 12.8411 24.2025C12.6384 24.5003 12.5164 24.843 12.4867 25.1988C12.457 25.5546 12.5204 25.9119 12.6711 26.2375C13.0772 26.8608 13.9744 26.9433 15.1267 26.4117C15.4688 26.2543 15.8437 26.1759 16.2222 26.1825C16.7067 26.1899 17.1765 26.3453 17.5648 26.6267C17.9531 26.9082 18.2401 27.3012 18.385 27.75C18.8667 29.0608 19.5278 29.3358 20 29.3358C20.4722 29.3358 21.1333 29.0608 21.615 27.75C21.7599 27.3012 22.0469 26.9082 22.4352 26.6267C22.8235 26.3453 23.2933 26.1899 23.7778 26.1825C24.1443 26.1843 24.5057 26.2658 24.8356 26.4208C25.9878 26.9525 26.885 26.8608 27.2911 26.2467C27.4418 25.9211 27.5052 25.5638 27.4755 25.208C27.4458 24.8522 27.3239 24.5095 27.1211 24.2117C26.9702 23.9211 26.8865 23.6022 26.8757 23.277C26.8649 22.9518 26.9273 22.6283 27.0586 22.3289C27.1898 22.0296 27.3868 21.7616 27.6358 21.5437C27.8847 21.3259 28.1797 21.1633 28.5 21.0675C29.8506 20.6 30.1339 19.9583 30.1339 19.5C30.1339 19.0417 29.8128 18.4 28.5 17.9325ZM28.1222 20.0317C27.6579 20.1834 27.2324 20.4301 26.8746 20.7549C26.5167 21.0798 26.2348 21.4753 26.0477 21.9148C25.8607 22.3544 25.7729 22.8277 25.7902 23.303C25.8076 23.7783 25.9297 24.2444 26.1483 24.67C26.4694 25.3208 26.4128 25.5867 26.3844 25.6508C26.3379 25.6621 26.2893 25.6621 26.2428 25.6508C25.9381 25.6302 25.6417 25.5457 25.3739 25.4033C24.8745 25.1784 24.3282 25.0686 23.7778 25.0825C23.0631 25.0849 22.3672 25.3046 21.7878 25.7107C21.2085 26.1168 20.7748 26.689 20.5478 27.3467C20.3022 28.0158 20.0472 28.19 20 28.1992C19.9528 28.2083 19.6978 28.0158 19.4522 27.3467C19.2252 26.689 18.7915 26.1168 18.2122 25.7107C17.6328 25.3046 16.9369 25.0849 16.2222 25.0825C15.6887 25.0855 15.1627 25.2045 14.6828 25.4308C14.4149 25.5732 14.1185 25.6577 13.8139 25.6783C13.7673 25.6889 13.7188 25.6889 13.6722 25.6783C13.6722 25.6783 13.5872 25.3483 13.9083 24.6975C14.127 24.2719 14.2491 23.8058 14.2664 23.3305C14.2838 22.8552 14.196 22.3819 14.0089 21.9423C13.8219 21.5028 13.5399 21.1073 13.1821 20.7824C12.8242 20.4576 12.3988 20.2109 11.9344 20.0592C11.2356 19.8208 11.0561 19.5733 11.0561 19.5275C11.0561 19.4817 11.2356 19.2342 11.9344 18.9958C12.3988 18.8441 12.8242 18.5974 13.1821 18.2726C13.5399 17.9477 13.8219 17.5522 14.0089 17.1127C14.196 16.6731 14.2838 16.1998 14.2664 15.7245C14.2491 15.2492 14.127 14.7831 13.9083 14.3575C13.5872 13.7067 13.6439 13.4408 13.6722 13.3767C13.7188 13.3658 13.7673 13.3658 13.8139 13.3767C14.1184 13.3979 14.4147 13.4823 14.6828 13.6242C15.1627 13.8505 15.6887 13.9695 16.2222 13.9725C16.9369 13.9701 17.6328 13.7504 18.2122 13.3443C18.7915 12.9382 19.2252 12.366 19.4522 11.7083C19.6978 11.03 19.9528 10.8558 20 10.8558C20.0472 10.8558 20.3022 11.03 20.5478 11.7083C20.7843 12.3558 21.2221 12.916 21.8007 13.3117C22.3792 13.7074 23.07 13.9191 23.7778 13.9175C24.3106 13.9177 24.8367 13.8018 25.3172 13.5783C25.5852 13.4362 25.8815 13.3518 26.1861 13.3308C26.2327 13.3199 26.2812 13.3199 26.3278 13.3308C26.3278 13.3308 26.4128 13.6608 26.0917 14.3117C25.873 14.7373 25.7509 15.2034 25.7335 15.6787C25.7162 16.1539 25.804 16.6273 25.9911 17.0668C26.1781 17.5064 26.4601 17.9019 26.8179 18.2267C27.1758 18.5516 27.6012 18.7982 28.0656 18.95C28.7644 19.1883 28.9439 19.4358 28.9439 19.4817C28.9439 19.5275 28.7833 19.7933 28.0844 20.0317H28.1222ZM20 14.3758C18.9558 14.3758 17.9351 14.6764 17.0669 15.2394C16.1987 15.8025 15.522 16.6027 15.1224 17.5391C14.7228 18.4754 14.6183 19.5057 14.822 20.4997C15.0257 21.4937 15.5285 22.4067 16.2669 23.1233C17.0052 23.84 17.9459 24.328 18.97 24.5257C19.9941 24.7234 21.0557 24.6219 22.0204 24.2341C22.985 23.8463 23.8096 23.1895 24.3897 22.3468C24.9698 21.5042 25.2794 20.5135 25.2794 19.5C25.2769 18.1417 24.7199 16.8398 23.7304 15.8793C22.7408 14.9189 21.3994 14.3783 20 14.3758ZM20 23.5425C19.1694 23.5425 18.3576 23.3031 17.6674 22.8546C16.9772 22.4062 16.4398 21.7689 16.1232 21.0236C15.8067 20.2783 15.7253 19.4586 15.8894 18.6683C16.0535 17.8781 16.4557 17.1529 17.045 16.5848C17.6343 16.0167 18.3841 15.6313 19.1994 15.4774C20.0147 15.3235 20.8587 15.408 21.6244 15.7203C22.3902 16.0325 23.0431 16.5585 23.5004 17.2314C23.9578 17.9043 24.1989 18.6939 24.1933 19.5C24.1908 20.5787 23.7482 21.6125 22.9624 22.3752C22.1765 23.138 21.1114 23.5676 20 23.57V23.5425Z" fill="white"/>
<path d="M58.2305 13.4863L59.5566 13.8213C59.2786 14.9105 58.7773 15.7422 58.0527 16.3164C57.3327 16.8861 56.4508 17.1709 55.4072 17.1709C54.3271 17.1709 53.4476 16.9521 52.7686 16.5146C52.0941 16.0726 51.5791 15.4346 51.2236 14.6006C50.8727 13.7666 50.6973 12.8711 50.6973 11.9141C50.6973 10.8704 50.8955 9.96126 51.292 9.18652C51.693 8.40723 52.2604 7.81706 52.9941 7.41602C53.7324 7.01042 54.5436 6.80762 55.4277 6.80762C56.4303 6.80762 57.2734 7.06283 57.957 7.57324C58.6406 8.08366 59.1169 8.80143 59.3857 9.72656L58.0801 10.0342C57.8477 9.30501 57.5104 8.77409 57.0684 8.44141C56.6263 8.10872 56.0703 7.94238 55.4004 7.94238C54.6302 7.94238 53.9854 8.12695 53.4658 8.49609C52.9508 8.86523 52.5885 9.36198 52.3789 9.98633C52.1693 10.6061 52.0645 11.2464 52.0645 11.9072C52.0645 12.7594 52.1875 13.5046 52.4336 14.1426C52.6842 14.776 53.0716 15.25 53.5957 15.5645C54.1198 15.8789 54.6872 16.0361 55.2979 16.0361C56.0407 16.0361 56.6696 15.8219 57.1846 15.3936C57.6995 14.9652 58.0482 14.3294 58.2305 13.4863ZM61.0742 9.74023H62.9883L64.8955 15.5508L67.0146 9.74023H68.7852V17H67.5547V11.1553L65.4082 17H64.3076L62.2773 10.875V17H61.0742V9.74023ZM70.207 13.3701C70.207 12.0257 70.5807 11.0299 71.3281 10.3828C71.9525 9.84505 72.7135 9.57617 73.6113 9.57617C74.6094 9.57617 75.4251 9.9043 76.0586 10.5605C76.6921 11.2122 77.0088 12.1146 77.0088 13.2676C77.0088 14.2018 76.8675 14.9378 76.585 15.4756C76.307 16.0088 75.8991 16.4235 75.3613 16.7197C74.8281 17.016 74.2448 17.1641 73.6113 17.1641C72.5951 17.1641 71.7725 16.8382 71.1436 16.1865C70.5192 15.5348 70.207 14.596 70.207 13.3701ZM71.4717 13.3701C71.4717 14.2998 71.6745 14.9971 72.0801 15.4619C72.4857 15.9222 72.9961 16.1523 73.6113 16.1523C74.222 16.1523 74.7301 15.9199 75.1357 15.4551C75.5413 14.9902 75.7441 14.2816 75.7441 13.3291C75.7441 12.4313 75.5391 11.7523 75.1289 11.292C74.7233 10.8271 74.2174 10.5947 73.6113 10.5947C72.9961 10.5947 72.4857 10.8249 72.0801 11.2852C71.6745 11.7454 71.4717 12.4404 71.4717 13.3701ZM77.4805 9.74023H83.3799V10.7588H81.042V17H79.8184V10.7588H77.4805V9.74023ZM84.5557 19.7822V9.74023H85.6768V10.6836C85.9411 10.3145 86.2396 10.0387 86.5723 9.85645C86.9049 9.6696 87.3083 9.57617 87.7822 9.57617C88.402 9.57617 88.9489 9.73568 89.4229 10.0547C89.8968 10.3737 90.2546 10.8249 90.4961 11.4082C90.7376 11.987 90.8584 12.6227 90.8584 13.3154C90.8584 14.0583 90.724 14.7282 90.4551 15.3252C90.1908 15.9176 89.8034 16.3734 89.293 16.6924C88.7871 17.0068 88.2539 17.1641 87.6934 17.1641C87.2832 17.1641 86.9141 17.0775 86.5859 16.9043C86.2624 16.7311 85.9958 16.5124 85.7861 16.248V19.7822H84.5557ZM85.6699 13.4111C85.6699 14.3454 85.859 15.0358 86.2373 15.4824C86.6156 15.929 87.0736 16.1523 87.6113 16.1523C88.1582 16.1523 88.6253 15.9222 89.0127 15.4619C89.4046 14.9971 89.6006 14.2793 89.6006 13.3086C89.6006 12.3835 89.4092 11.6908 89.0264 11.2305C88.6481 10.7702 88.1947 10.54 87.666 10.54C87.1419 10.54 86.6771 10.7861 86.2715 11.2783C85.8704 11.766 85.6699 12.4769 85.6699 13.4111ZM92.3486 9.74023H93.5791V15.2773L96.9902 9.74023H98.3164V17H97.0859V11.4971L93.6748 17H92.3486V9.74023ZM104.065 9.74023H105.296V15.2773L108.707 9.74023H110.033V17H108.803V11.4971L105.392 17H104.065V9.74023ZM115.331 9.74023H116.562V11.1143C116.562 11.7067 116.596 12.1374 116.664 12.4062C116.737 12.6706 116.908 12.903 117.177 13.1035C117.446 13.2995 117.783 13.3975 118.188 13.3975C118.653 13.3975 119.255 13.2744 119.993 13.0283V9.74023H121.224V17H119.993V14.0742C119.237 14.3112 118.53 14.4297 117.874 14.4297C117.323 14.4297 116.835 14.2907 116.411 14.0127C115.992 13.7301 115.707 13.3861 115.557 12.9805C115.406 12.5749 115.331 12.1283 115.331 11.6406V9.74023ZM123.083 9.74023H124.313V15.2773L127.725 9.74023H129.051V17H127.82V11.4971L124.409 17H123.083V9.74023ZM130.24 9.74023H136.14V10.7588H133.802V17H132.578V10.7588H130.24V9.74023ZM141.889 16.1045C141.433 16.4919 140.993 16.7653 140.569 16.9248C140.15 17.0843 139.699 17.1641 139.216 17.1641C138.418 17.1641 137.805 16.9704 137.377 16.583C136.949 16.1911 136.734 15.6921 136.734 15.0859C136.734 14.7305 136.814 14.4069 136.974 14.1152C137.138 13.819 137.35 13.582 137.609 13.4043C137.874 13.2266 138.17 13.0921 138.498 13.001C138.74 12.9372 139.104 12.8757 139.592 12.8164C140.585 12.6979 141.317 12.5566 141.786 12.3926C141.791 12.224 141.793 12.1169 141.793 12.0713C141.793 11.57 141.677 11.2168 141.444 11.0117C141.13 10.7337 140.663 10.5947 140.043 10.5947C139.464 10.5947 139.036 10.6973 138.758 10.9023C138.484 11.1029 138.282 11.4606 138.149 11.9756L136.946 11.8115C137.056 11.2965 137.236 10.8818 137.486 10.5674C137.737 10.2484 138.099 10.0046 138.573 9.83594C139.047 9.66276 139.596 9.57617 140.221 9.57617C140.84 9.57617 141.344 9.64909 141.731 9.79492C142.119 9.94076 142.404 10.1253 142.586 10.3486C142.768 10.5674 142.896 10.8454 142.969 11.1826C143.01 11.3923 143.03 11.7705 143.03 12.3174V13.958C143.03 15.1019 143.055 15.8265 143.105 16.1318C143.16 16.4326 143.265 16.722 143.42 17H142.135C142.007 16.7448 141.925 16.4463 141.889 16.1045ZM141.786 13.3564C141.34 13.5387 140.67 13.6937 139.776 13.8213C139.271 13.8942 138.913 13.9762 138.703 14.0674C138.493 14.1585 138.332 14.293 138.218 14.4707C138.104 14.6439 138.047 14.8376 138.047 15.0518C138.047 15.3799 138.17 15.6533 138.416 15.8721C138.667 16.0908 139.031 16.2002 139.51 16.2002C139.984 16.2002 140.405 16.0977 140.774 15.8926C141.144 15.6829 141.415 15.3981 141.588 15.0381C141.72 14.7601 141.786 14.3499 141.786 13.8076V13.3564ZM144.944 9.74023H146.175V15.2773L149.586 9.74023H150.912V17H149.682V11.4971L146.271 17H144.944V9.74023ZM149.217 6.99219H150.058C149.989 7.56185 149.78 7.99935 149.429 8.30469C149.082 8.61003 148.62 8.7627 148.041 8.7627C147.458 8.7627 146.991 8.6123 146.64 8.31152C146.293 8.00618 146.086 7.56641 146.018 6.99219H146.858C146.922 7.30208 147.048 7.53451 147.234 7.68945C147.426 7.83984 147.681 7.91504 148 7.91504C148.369 7.91504 148.647 7.84212 148.834 7.69629C149.025 7.5459 149.153 7.3112 149.217 6.99219ZM156.668 9.74023H159.505C160.202 9.74023 160.719 9.79948 161.057 9.91797C161.398 10.0319 161.69 10.2438 161.932 10.5537C162.178 10.8636 162.301 11.235 162.301 11.668C162.301 12.0143 162.228 12.3174 162.082 12.5771C161.941 12.8324 161.727 13.0465 161.439 13.2197C161.781 13.3337 162.064 13.5479 162.287 13.8623C162.515 14.1722 162.629 14.5413 162.629 14.9697C162.583 15.6579 162.337 16.1683 161.891 16.501C161.444 16.8337 160.795 17 159.942 17H156.668V9.74023ZM157.898 12.7959H159.211C159.735 12.7959 160.095 12.7686 160.291 12.7139C160.487 12.6592 160.662 12.5498 160.817 12.3857C160.972 12.2171 161.05 12.0166 161.05 11.7842C161.05 11.4014 160.913 11.1348 160.64 10.9844C160.371 10.834 159.908 10.7588 159.252 10.7588H157.898V12.7959ZM157.898 15.9883H159.519C160.216 15.9883 160.694 15.9085 160.954 15.749C161.214 15.585 161.351 15.3047 161.364 14.9082C161.364 14.6758 161.289 14.4616 161.139 14.2656C160.988 14.0651 160.792 13.9398 160.551 13.8896C160.309 13.835 159.922 13.8076 159.389 13.8076H157.898V15.9883ZM168.002 9.74023H173.73V17H172.5V10.7588H169.232V17H168.002V9.74023ZM175.583 19.7822V9.74023H176.704V10.6836C176.968 10.3145 177.267 10.0387 177.6 9.85645C177.932 9.6696 178.336 9.57617 178.81 9.57617C179.429 9.57617 179.976 9.73568 180.45 10.0547C180.924 10.3737 181.282 10.8249 181.523 11.4082C181.765 11.987 181.886 12.6227 181.886 13.3154C181.886 14.0583 181.751 14.7282 181.482 15.3252C181.218 15.9176 180.831 16.3734 180.32 16.6924C179.814 17.0068 179.281 17.1641 178.721 17.1641C178.311 17.1641 177.941 17.0775 177.613 16.9043C177.29 16.7311 177.023 16.5124 176.813 16.248V19.7822H175.583ZM176.697 13.4111C176.697 14.3454 176.886 15.0358 177.265 15.4824C177.643 15.929 178.101 16.1523 178.639 16.1523C179.186 16.1523 179.653 15.9222 180.04 15.4619C180.432 14.9971 180.628 14.2793 180.628 13.3086C180.628 12.3835 180.437 11.6908 180.054 11.2305C179.675 10.7702 179.222 10.54 178.693 10.54C178.169 10.54 177.704 10.7861 177.299 11.2783C176.898 11.766 176.697 12.4769 176.697 13.4111ZM183.376 9.74023H184.606V15.2773L188.018 9.74023H189.344V17H188.113V11.4971L184.702 17H183.376V9.74023ZM191.798 9.74023H197.513V17H196.289V10.7588H193.028V14.375C193.028 15.2181 193.001 15.7741 192.946 16.043C192.892 16.3118 192.741 16.5465 192.495 16.7471C192.249 16.9476 191.894 17.0479 191.429 17.0479C191.142 17.0479 190.811 17.0296 190.438 16.9932V15.9678H190.978C191.233 15.9678 191.415 15.9427 191.524 15.8926C191.634 15.8379 191.707 15.7536 191.743 15.6396C191.78 15.5257 191.798 15.1543 191.798 14.5254V9.74023ZM199.078 13.3701C199.078 12.0257 199.452 11.0299 200.199 10.3828C200.824 9.84505 201.585 9.57617 202.482 9.57617C203.48 9.57617 204.296 9.9043 204.93 10.5605C205.563 11.2122 205.88 12.1146 205.88 13.2676C205.88 14.2018 205.739 14.9378 205.456 15.4756C205.178 16.0088 204.77 16.4235 204.232 16.7197C203.699 17.016 203.116 17.1641 202.482 17.1641C201.466 17.1641 200.644 16.8382 200.015 16.1865C199.39 15.5348 199.078 14.596 199.078 13.3701ZM200.343 13.3701C200.343 14.2998 200.546 14.9971 200.951 15.4619C201.357 15.9222 201.867 16.1523 202.482 16.1523C203.093 16.1523 203.601 15.9199 204.007 15.4551C204.412 14.9902 204.615 14.2816 204.615 13.3291C204.615 12.4313 204.41 11.7523 204 11.292C203.594 10.8271 203.089 10.5947 202.482 10.5947C201.867 10.5947 201.357 10.8249 200.951 11.2852C200.546 11.7454 200.343 12.4404 200.343 13.3701ZM211.554 9.74023V12.8779C211.946 12.8779 212.221 12.8027 212.381 12.6523C212.54 12.502 212.773 12.0645 213.078 11.3398C213.365 10.6517 213.623 10.2119 213.851 10.0205C214.074 9.83366 214.429 9.74023 214.917 9.74023H215.368V10.7588L215.033 10.752C214.705 10.752 214.495 10.7998 214.404 10.8955C214.309 10.9958 214.163 11.2943 213.967 11.791C213.785 12.265 213.616 12.5931 213.461 12.7754C213.306 12.9577 213.064 13.124 212.736 13.2744C213.27 13.4157 213.789 13.9079 214.295 14.751L215.648 17H214.295L212.976 14.751C212.707 14.2952 212.472 13.9967 212.271 13.8555C212.071 13.7142 211.832 13.6436 211.554 13.6436V17H210.296V13.6436C210.022 13.6436 209.785 13.7142 209.585 13.8555C209.384 13.9922 209.15 14.2907 208.881 14.751L207.562 17H206.208L207.555 14.751C208.065 13.9079 208.587 13.4157 209.12 13.2744C208.756 13.1058 208.5 12.9235 208.354 12.7275C208.209 12.527 207.99 12.0531 207.698 11.3057C207.598 11.055 207.491 10.9001 207.377 10.8408C207.258 10.7816 207.083 10.752 206.851 10.752C206.791 10.752 206.671 10.7542 206.488 10.7588V9.74023H206.659C207.133 9.74023 207.466 9.76986 207.657 9.8291C207.853 9.88379 208.026 10.0046 208.177 10.1914C208.332 10.3737 208.532 10.7565 208.778 11.3398C209.079 12.0553 209.307 12.4906 209.462 12.6455C209.621 12.8005 209.899 12.8779 210.296 12.8779V9.74023H211.554ZM221.5 14.6621L222.771 14.8193C222.571 15.5622 222.2 16.1387 221.657 16.5488C221.115 16.959 220.422 17.1641 219.579 17.1641C218.517 17.1641 217.674 16.8382 217.05 16.1865C216.43 15.5303 216.12 14.612 216.12 13.4316C216.12 12.2103 216.435 11.2624 217.063 10.5879C217.692 9.91341 218.508 9.57617 219.511 9.57617C220.481 9.57617 221.274 9.90658 221.89 10.5674C222.505 11.2282 222.812 12.1579 222.812 13.3564C222.812 13.4294 222.81 13.5387 222.806 13.6846H217.392C217.437 14.4821 217.663 15.0928 218.068 15.5166C218.474 15.9404 218.98 16.1523 219.586 16.1523C220.037 16.1523 220.422 16.0339 220.741 15.7969C221.06 15.5599 221.313 15.1816 221.5 14.6621ZM217.46 12.6729H221.514C221.459 12.0622 221.304 11.6042 221.049 11.2988C220.657 10.8249 220.149 10.5879 219.524 10.5879C218.959 10.5879 218.483 10.777 218.096 11.1553C217.713 11.5335 217.501 12.0394 217.46 12.6729ZM224.33 9.74023H225.561V12.7617H228.972V9.74023H230.202V17H228.972V13.7803H225.561V17H224.33V9.74023ZM232.062 9.74023H233.292V15.2773L236.703 9.74023H238.029V17H236.799V11.4971L233.388 17H232.062V9.74023ZM239.882 9.74023H241.112V15.2773L244.523 9.74023H245.85V17H244.619V11.4971L241.208 17H239.882V9.74023Z" fill="#333333"/>
<path d="M57.1436 22.9785V27.3672C57.7952 27.3672 58.2419 27.2487 58.4834 27.0117C58.7295 26.7702 59.0417 26.2074 59.4199 25.3232C59.6979 24.667 59.9258 24.2044 60.1035 23.9355C60.2858 23.6621 60.5433 23.4342 60.876 23.252C61.2087 23.0651 61.5732 22.9717 61.9697 22.9717C62.4027 22.9717 62.6715 22.9762 62.7764 22.9854V24.1338C62.7354 24.1338 62.6488 24.1315 62.5166 24.127C62.3708 24.1224 62.2819 24.1201 62.25 24.1201C61.8262 24.1201 61.5117 24.2227 61.3066 24.4277C61.097 24.6328 60.8577 25.0703 60.5889 25.7402C60.2972 26.4648 60.0443 26.9593 59.8301 27.2236C59.6159 27.4834 59.306 27.6999 58.9004 27.873C59.5566 28.0553 60.1924 28.6523 60.8076 29.6641L62.8721 33H61.2314L59.5566 30.2793C59.11 29.5592 58.734 29.0511 58.4287 28.7549C58.1234 28.4587 57.695 28.3105 57.1436 28.3105V33H55.7832V28.3105C55.3457 28.3105 54.9583 28.4268 54.6211 28.6592C54.2884 28.887 53.8988 29.3815 53.4521 30.1426L53.3701 30.2793L51.6953 33H50.0479L52.1123 29.6641C52.7412 28.6478 53.3792 28.0508 54.0264 27.873C53.6663 27.7272 53.3724 27.5335 53.1445 27.292C52.9167 27.0459 52.6455 26.5286 52.3311 25.7402C52.0439 25.0247 51.7979 24.5758 51.5928 24.3936C51.3877 24.2113 51.0824 24.1201 50.6768 24.1201L50.1436 24.1338V22.9854C50.1937 22.9762 50.4489 22.9717 50.9092 22.9717C51.3467 22.9717 51.7249 23.0628 52.0439 23.2451C52.3675 23.4229 52.6204 23.6484 52.8027 23.9219C52.985 24.1908 53.2197 24.6579 53.5068 25.3232C53.8896 26.221 54.1995 26.7839 54.4365 27.0117C54.6781 27.2396 55.127 27.3581 55.7832 27.3672V22.9785H57.1436ZM63.6377 35.7959L63.501 34.6406C63.7699 34.7135 64.0046 34.75 64.2051 34.75C64.4785 34.75 64.6973 34.7044 64.8613 34.6133C65.0254 34.5221 65.1598 34.3945 65.2646 34.2305C65.3421 34.1074 65.4674 33.8021 65.6406 33.3145C65.6634 33.2461 65.6999 33.1458 65.75 33.0137L62.9951 25.7402H64.3213L65.832 29.9443C66.028 30.4775 66.2035 31.0381 66.3584 31.626C66.4997 31.0609 66.6683 30.5094 66.8643 29.9717L68.416 25.7402H69.6465L66.8848 33.123C66.5885 33.9206 66.3584 34.4697 66.1943 34.7705C65.9756 35.1761 65.7249 35.4723 65.4424 35.6592C65.1598 35.8506 64.8226 35.9463 64.4307 35.9463C64.1937 35.9463 63.9294 35.8962 63.6377 35.7959ZM70.5283 35.7822V25.7402H71.6494V26.6836C71.9137 26.3145 72.2122 26.0387 72.5449 25.8564C72.8776 25.6696 73.2809 25.5762 73.7549 25.5762C74.3747 25.5762 74.9215 25.7357 75.3955 26.0547C75.8695 26.3737 76.2272 26.8249 76.4688 27.4082C76.7103 27.987 76.8311 28.6227 76.8311 29.3154C76.8311 30.0583 76.6966 30.7282 76.4277 31.3252C76.1634 31.9176 75.776 32.3734 75.2656 32.6924C74.7598 33.0068 74.2266 33.1641 73.666 33.1641C73.2559 33.1641 72.8867 33.0775 72.5586 32.9043C72.235 32.7311 71.9684 32.5124 71.7588 32.248V35.7822H70.5283ZM71.6426 29.4111C71.6426 30.3454 71.8317 31.0358 72.21 31.4824C72.5882 31.929 73.0462 32.1523 73.584 32.1523C74.1309 32.1523 74.598 31.9222 74.9854 31.4619C75.3773 30.9971 75.5732 30.2793 75.5732 29.3086C75.5732 28.3835 75.3818 27.6908 74.999 27.2305C74.6208 26.7702 74.1673 26.54 73.6387 26.54C73.1146 26.54 72.6497 26.7861 72.2441 27.2783C71.8431 27.766 71.6426 28.4769 71.6426 29.4111ZM78.3281 25.7402H79.5586V28.7617H82.9697V25.7402H84.2002V33H82.9697V29.7803H79.5586V33H78.3281V25.7402ZM90.7969 32.1045C90.3411 32.4919 89.9014 32.7653 89.4775 32.9248C89.0583 33.0843 88.6071 33.1641 88.124 33.1641C87.3265 33.1641 86.7135 32.9704 86.2852 32.583C85.8568 32.1911 85.6426 31.6921 85.6426 31.0859C85.6426 30.7305 85.7223 30.4069 85.8818 30.1152C86.0459 29.819 86.2578 29.582 86.5176 29.4043C86.7819 29.2266 87.0781 29.0921 87.4062 29.001C87.6478 28.9372 88.0124 28.8757 88.5 28.8164C89.4935 28.6979 90.2249 28.5566 90.6943 28.3926C90.6989 28.224 90.7012 28.1169 90.7012 28.0713C90.7012 27.57 90.585 27.2168 90.3525 27.0117C90.0381 26.7337 89.571 26.5947 88.9512 26.5947C88.3724 26.5947 87.944 26.6973 87.666 26.9023C87.3926 27.1029 87.1898 27.4606 87.0576 27.9756L85.8545 27.8115C85.9639 27.2965 86.1439 26.8818 86.3945 26.5674C86.6452 26.2484 87.0075 26.0046 87.4814 25.8359C87.9554 25.6628 88.5046 25.5762 89.1289 25.5762C89.7487 25.5762 90.2523 25.6491 90.6396 25.7949C91.027 25.9408 91.3118 26.1253 91.4941 26.3486C91.6764 26.5674 91.804 26.8454 91.877 27.1826C91.918 27.3923 91.9385 27.7705 91.9385 28.3174V29.958C91.9385 31.1019 91.9635 31.8265 92.0137 32.1318C92.0684 32.4326 92.1732 32.722 92.3281 33H91.043C90.9154 32.7448 90.8333 32.4463 90.7969 32.1045ZM90.6943 29.3564C90.2477 29.5387 89.5778 29.6937 88.6846 29.8213C88.1787 29.8942 87.821 29.9762 87.6113 30.0674C87.4017 30.1585 87.2399 30.293 87.126 30.4707C87.012 30.6439 86.9551 30.8376 86.9551 31.0518C86.9551 31.3799 87.0781 31.6533 87.3242 31.8721C87.5749 32.0908 87.9395 32.2002 88.418 32.2002C88.8919 32.2002 89.3135 32.0977 89.6826 31.8926C90.0518 31.6829 90.3229 31.3981 90.4961 31.0381C90.6283 30.7601 90.6943 30.3499 90.6943 29.8076V29.3564ZM94.4541 25.7402H100.169V33H98.9453V26.7588H95.6846V30.375C95.6846 31.2181 95.6572 31.7741 95.6025 32.043C95.5479 32.3118 95.3975 32.5465 95.1514 32.7471C94.9053 32.9476 94.5498 33.0479 94.085 33.0479C93.7979 33.0479 93.4674 33.0296 93.0938 32.9932V31.9678H93.6338C93.889 31.9678 94.0713 31.9427 94.1807 31.8926C94.29 31.8379 94.363 31.7536 94.3994 31.6396C94.4359 31.5257 94.4541 31.1543 94.4541 30.5254V25.7402ZM102.377 33V31.5986H103.778V33H102.377ZM117.908 33V22.9785H113.465C112.572 22.9785 111.893 23.0697 111.428 23.252C110.963 23.4297 110.591 23.7464 110.313 24.2021C110.035 24.6579 109.896 25.1615 109.896 25.7129C109.896 26.4238 110.127 27.0231 110.587 27.5107C111.047 27.9984 111.758 28.3083 112.72 28.4404C112.369 28.609 112.102 28.7754 111.92 28.9395C111.533 29.2949 111.166 29.7393 110.819 30.2725L109.076 33H110.744L112.07 30.915C112.458 30.3135 112.777 29.8532 113.027 29.5342C113.278 29.2152 113.501 28.9919 113.697 28.8643C113.898 28.7367 114.101 28.6478 114.306 28.5977C114.456 28.5658 114.702 28.5498 115.044 28.5498H116.582V33H117.908ZM116.582 27.4014H113.731C113.125 27.4014 112.651 27.3398 112.31 27.2168C111.968 27.0892 111.708 26.8887 111.53 26.6152C111.353 26.3372 111.264 26.0365 111.264 25.7129C111.264 25.2389 111.435 24.8493 111.776 24.5439C112.123 24.2386 112.667 24.0859 113.41 24.0859H116.582V27.4014ZM119.938 35.7822V25.7402H121.06V26.6836C121.324 26.3145 121.622 26.0387 121.955 25.8564C122.288 25.6696 122.691 25.5762 123.165 25.5762C123.785 25.5762 124.332 25.7357 124.806 26.0547C125.28 26.3737 125.637 26.8249 125.879 27.4082C126.12 27.987 126.241 28.6227 126.241 29.3154C126.241 30.0583 126.107 30.7282 125.838 31.3252C125.574 31.9176 125.186 32.3734 124.676 32.6924C124.17 33.0068 123.637 33.1641 123.076 33.1641C122.666 33.1641 122.297 33.0775 121.969 32.9043C121.645 32.7311 121.379 32.5124 121.169 32.248V35.7822H119.938ZM121.053 29.4111C121.053 30.3454 121.242 31.0358 121.62 31.4824C121.998 31.929 122.456 32.1523 122.994 32.1523C123.541 32.1523 124.008 31.9222 124.396 31.4619C124.787 30.9971 124.983 30.2793 124.983 29.3086C124.983 28.3835 124.792 27.6908 124.409 27.2305C124.031 26.7702 123.577 26.54 123.049 26.54C122.525 26.54 122.06 26.7861 121.654 27.2783C121.253 27.766 121.053 28.4769 121.053 29.4111ZM127.766 25.7402H129.68L131.587 31.5508L133.706 25.7402H135.477V33H134.246V27.1553L132.1 33H130.999L128.969 26.875V33H127.766V25.7402ZM142.094 32.1045C141.638 32.4919 141.198 32.7653 140.774 32.9248C140.355 33.0843 139.904 33.1641 139.421 33.1641C138.623 33.1641 138.01 32.9704 137.582 32.583C137.154 32.1911 136.939 31.6921 136.939 31.0859C136.939 30.7305 137.019 30.4069 137.179 30.1152C137.343 29.819 137.555 29.582 137.814 29.4043C138.079 29.2266 138.375 29.0921 138.703 29.001C138.945 28.9372 139.309 28.8757 139.797 28.8164C140.79 28.6979 141.522 28.5566 141.991 28.3926C141.996 28.224 141.998 28.1169 141.998 28.0713C141.998 27.57 141.882 27.2168 141.649 27.0117C141.335 26.7337 140.868 26.5947 140.248 26.5947C139.669 26.5947 139.241 26.6973 138.963 26.9023C138.689 27.1029 138.487 27.4606 138.354 27.9756L137.151 27.8115C137.261 27.2965 137.441 26.8818 137.691 26.5674C137.942 26.2484 138.304 26.0046 138.778 25.8359C139.252 25.6628 139.801 25.5762 140.426 25.5762C141.046 25.5762 141.549 25.6491 141.937 25.7949C142.324 25.9408 142.609 26.1253 142.791 26.3486C142.973 26.5674 143.101 26.8454 143.174 27.1826C143.215 27.3923 143.235 27.7705 143.235 28.3174V29.958C143.235 31.1019 143.26 31.8265 143.311 32.1318C143.365 32.4326 143.47 32.722 143.625 33H142.34C142.212 32.7448 142.13 32.4463 142.094 32.1045ZM141.991 29.3564C141.545 29.5387 140.875 29.6937 139.981 29.8213C139.476 29.8942 139.118 29.9762 138.908 30.0674C138.699 30.1585 138.537 30.293 138.423 30.4707C138.309 30.6439 138.252 30.8376 138.252 31.0518C138.252 31.3799 138.375 31.6533 138.621 31.8721C138.872 32.0908 139.236 32.2002 139.715 32.2002C140.189 32.2002 140.61 32.0977 140.979 31.8926C141.349 31.6829 141.62 31.3981 141.793 31.0381C141.925 30.7601 141.991 30.3499 141.991 29.8076V29.3564ZM145.149 35.7822V25.7402H146.271V26.6836C146.535 26.3145 146.833 26.0387 147.166 25.8564C147.499 25.6696 147.902 25.5762 148.376 25.5762C148.996 25.5762 149.543 25.7357 150.017 26.0547C150.491 26.3737 150.848 26.8249 151.09 27.4082C151.331 27.987 151.452 28.6227 151.452 29.3154C151.452 30.0583 151.318 30.7282 151.049 31.3252C150.785 31.9176 150.397 32.3734 149.887 32.6924C149.381 33.0068 148.848 33.1641 148.287 33.1641C147.877 33.1641 147.508 33.0775 147.18 32.9043C146.856 32.7311 146.59 32.5124 146.38 32.248V35.7822H145.149ZM146.264 29.4111C146.264 30.3454 146.453 31.0358 146.831 31.4824C147.209 31.929 147.667 32.1523 148.205 32.1523C148.752 32.1523 149.219 31.9222 149.606 31.4619C149.998 30.9971 150.194 30.2793 150.194 29.3086C150.194 28.3835 150.003 27.6908 149.62 27.2305C149.242 26.7702 148.788 26.54 148.26 26.54C147.736 26.54 147.271 26.7861 146.865 27.2783C146.464 27.766 146.264 28.4769 146.264 29.4111ZM152.936 25.7402H154.166V28.8779C154.558 28.8779 154.831 28.8027 154.986 28.6523C155.146 28.502 155.378 28.0645 155.684 27.3398C155.925 26.7656 156.121 26.3874 156.271 26.2051C156.422 26.0228 156.595 25.8997 156.791 25.8359C156.987 25.7721 157.301 25.7402 157.734 25.7402H157.98V26.7588L157.639 26.752C157.315 26.752 157.108 26.7998 157.017 26.8955C156.921 26.9958 156.775 27.2943 156.579 27.791C156.392 28.265 156.221 28.5931 156.066 28.7754C155.911 28.9577 155.672 29.124 155.349 29.2744C155.877 29.4157 156.397 29.9079 156.907 30.751L158.254 33H156.9L155.588 30.751C155.319 30.2998 155.084 30.0036 154.884 29.8623C154.683 29.7165 154.444 29.6436 154.166 29.6436V33H152.936V25.7402ZM164.119 32.1045C163.663 32.4919 163.224 32.7653 162.8 32.9248C162.381 33.0843 161.929 33.1641 161.446 33.1641C160.649 33.1641 160.036 32.9704 159.607 32.583C159.179 32.1911 158.965 31.6921 158.965 31.0859C158.965 30.7305 159.045 30.4069 159.204 30.1152C159.368 29.819 159.58 29.582 159.84 29.4043C160.104 29.2266 160.4 29.0921 160.729 29.001C160.97 28.9372 161.335 28.8757 161.822 28.8164C162.816 28.6979 163.547 28.5566 164.017 28.3926C164.021 28.224 164.023 28.1169 164.023 28.0713C164.023 27.57 163.907 27.2168 163.675 27.0117C163.36 26.7337 162.893 26.5947 162.273 26.5947C161.695 26.5947 161.266 26.6973 160.988 26.9023C160.715 27.1029 160.512 27.4606 160.38 27.9756L159.177 27.8115C159.286 27.2965 159.466 26.8818 159.717 26.5674C159.967 26.2484 160.33 26.0046 160.804 25.8359C161.278 25.6628 161.827 25.5762 162.451 25.5762C163.071 25.5762 163.575 25.6491 163.962 25.7949C164.349 25.9408 164.634 26.1253 164.816 26.3486C164.999 26.5674 165.126 26.8454 165.199 27.1826C165.24 27.3923 165.261 27.7705 165.261 28.3174V29.958C165.261 31.1019 165.286 31.8265 165.336 32.1318C165.391 32.4326 165.495 32.722 165.65 33H164.365C164.238 32.7448 164.156 32.4463 164.119 32.1045ZM164.017 29.3564C163.57 29.5387 162.9 29.6937 162.007 29.8213C161.501 29.8942 161.143 29.9762 160.934 30.0674C160.724 30.1585 160.562 30.293 160.448 30.4707C160.334 30.6439 160.277 30.8376 160.277 31.0518C160.277 31.3799 160.4 31.6533 160.646 31.8721C160.897 32.0908 161.262 32.2002 161.74 32.2002C162.214 32.2002 162.636 32.0977 163.005 31.8926C163.374 31.6829 163.645 31.3981 163.818 31.0381C163.951 30.7601 164.017 30.3499 164.017 29.8076V29.3564ZM171.188 33V22.9785H173.184L175.556 30.0742C175.774 30.735 175.934 31.2295 176.034 31.5576C176.148 31.193 176.326 30.6576 176.567 29.9512L178.967 22.9785H180.751V33H179.473V24.6123L176.561 33H175.364L172.466 24.4688V33H171.188ZM187.635 32.1045C187.179 32.4919 186.739 32.7653 186.315 32.9248C185.896 33.0843 185.445 33.1641 184.962 33.1641C184.164 33.1641 183.551 32.9704 183.123 32.583C182.695 32.1911 182.48 31.6921 182.48 31.0859C182.48 30.7305 182.56 30.4069 182.72 30.1152C182.884 29.819 183.096 29.582 183.355 29.4043C183.62 29.2266 183.916 29.0921 184.244 29.001C184.486 28.9372 184.85 28.8757 185.338 28.8164C186.331 28.6979 187.063 28.5566 187.532 28.3926C187.537 28.224 187.539 28.1169 187.539 28.0713C187.539 27.57 187.423 27.2168 187.19 27.0117C186.876 26.7337 186.409 26.5947 185.789 26.5947C185.21 26.5947 184.782 26.6973 184.504 26.9023C184.23 27.1029 184.028 27.4606 183.896 27.9756L182.692 27.8115C182.802 27.2965 182.982 26.8818 183.232 26.5674C183.483 26.2484 183.845 26.0046 184.319 25.8359C184.793 25.6628 185.342 25.5762 185.967 25.5762C186.587 25.5762 187.09 25.6491 187.478 25.7949C187.865 25.9408 188.15 26.1253 188.332 26.3486C188.514 26.5674 188.642 26.8454 188.715 27.1826C188.756 27.3923 188.776 27.7705 188.776 28.3174V29.958C188.776 31.1019 188.801 31.8265 188.852 32.1318C188.906 32.4326 189.011 32.722 189.166 33H187.881C187.753 32.7448 187.671 32.4463 187.635 32.1045ZM187.532 29.3564C187.086 29.5387 186.416 29.6937 185.522 29.8213C185.017 29.8942 184.659 29.9762 184.449 30.0674C184.24 30.1585 184.078 30.293 183.964 30.4707C183.85 30.6439 183.793 30.8376 183.793 31.0518C183.793 31.3799 183.916 31.6533 184.162 31.8721C184.413 32.0908 184.777 32.2002 185.256 32.2002C185.73 32.2002 186.151 32.0977 186.521 31.8926C186.89 31.6829 187.161 31.3981 187.334 31.0381C187.466 30.7601 187.532 30.3499 187.532 29.8076V29.3564ZM195.428 30.3408L196.638 30.498C196.506 31.332 196.166 31.986 195.619 32.46C195.077 32.9294 194.409 33.1641 193.616 33.1641C192.623 33.1641 191.823 32.8405 191.217 32.1934C190.615 31.5417 190.314 30.6097 190.314 29.3975C190.314 28.6136 190.444 27.9277 190.704 27.3398C190.964 26.752 191.358 26.3122 191.887 26.0205C192.42 25.7243 192.999 25.5762 193.623 25.5762C194.411 25.5762 195.056 25.7767 195.558 26.1777C196.059 26.5742 196.38 27.1393 196.521 27.873L195.325 28.0576C195.211 27.57 195.008 27.2031 194.717 26.957C194.43 26.7109 194.081 26.5879 193.671 26.5879C193.051 26.5879 192.548 26.8112 192.16 27.2578C191.773 27.6999 191.579 28.4017 191.579 29.3633C191.579 30.3385 191.766 31.0472 192.14 31.4893C192.513 31.9313 193.001 32.1523 193.603 32.1523C194.086 32.1523 194.489 32.0042 194.812 31.708C195.136 31.4118 195.341 30.9561 195.428 30.3408ZM197.027 25.7402H202.927V26.7588H200.589V33H199.365V26.7588H197.027V25.7402ZM208.908 30.6621L210.18 30.8193C209.979 31.5622 209.608 32.1387 209.065 32.5488C208.523 32.959 207.83 33.1641 206.987 33.1641C205.925 33.1641 205.082 32.8382 204.458 32.1865C203.838 31.5303 203.528 30.612 203.528 29.4316C203.528 28.2103 203.843 27.2624 204.472 26.5879C205.101 25.9134 205.916 25.5762 206.919 25.5762C207.89 25.5762 208.683 25.9066 209.298 26.5674C209.913 27.2282 210.221 28.1579 210.221 29.3564C210.221 29.4294 210.218 29.5387 210.214 29.6846H204.8C204.845 30.4821 205.071 31.0928 205.477 31.5166C205.882 31.9404 206.388 32.1523 206.994 32.1523C207.445 32.1523 207.83 32.0339 208.149 31.7969C208.468 31.5599 208.721 31.1816 208.908 30.6621ZM204.868 28.6729H208.922C208.867 28.0622 208.712 27.6042 208.457 27.2988C208.065 26.8249 207.557 26.5879 206.933 26.5879C206.368 26.5879 205.891 26.777 205.504 27.1553C205.121 27.5335 204.909 28.0394 204.868 28.6729ZM211.731 35.7822V25.7402H212.853V26.6836C213.117 26.3145 213.415 26.0387 213.748 25.8564C214.081 25.6696 214.484 25.5762 214.958 25.5762C215.578 25.5762 216.125 25.7357 216.599 26.0547C217.073 26.3737 217.43 26.8249 217.672 27.4082C217.913 27.987 218.034 28.6227 218.034 29.3154C218.034 30.0583 217.9 30.7282 217.631 31.3252C217.367 31.9176 216.979 32.3734 216.469 32.6924C215.963 33.0068 215.43 33.1641 214.869 33.1641C214.459 33.1641 214.09 33.0775 213.762 32.9043C213.438 32.7311 213.172 32.5124 212.962 32.248V35.7822H211.731ZM212.846 29.4111C212.846 30.3454 213.035 31.0358 213.413 31.4824C213.791 31.929 214.249 32.1523 214.787 32.1523C215.334 32.1523 215.801 31.9222 216.188 31.4619C216.58 30.9971 216.776 30.2793 216.776 29.3086C216.776 28.3835 216.585 27.6908 216.202 27.2305C215.824 26.7702 215.37 26.54 214.842 26.54C214.318 26.54 213.853 26.7861 213.447 27.2783C213.046 27.766 212.846 28.4769 212.846 29.4111ZM219.066 29.3701C219.066 28.0257 219.44 27.0299 220.188 26.3828C220.812 25.8451 221.573 25.5762 222.471 25.5762C223.469 25.5762 224.285 25.9043 224.918 26.5605C225.551 27.2122 225.868 28.1146 225.868 29.2676C225.868 30.2018 225.727 30.9378 225.444 31.4756C225.166 32.0088 224.758 32.4235 224.221 32.7197C223.688 33.016 223.104 33.1641 222.471 33.1641C221.454 33.1641 220.632 32.8382 220.003 32.1865C219.379 31.5348 219.066 30.596 219.066 29.3701ZM220.331 29.3701C220.331 30.2998 220.534 30.9971 220.939 31.4619C221.345 31.9222 221.855 32.1523 222.471 32.1523C223.081 32.1523 223.59 31.9199 223.995 31.4551C224.401 30.9902 224.604 30.2816 224.604 29.3291C224.604 28.4313 224.398 27.7523 223.988 27.292C223.583 26.8271 223.077 26.5947 222.471 26.5947C221.855 26.5947 221.345 26.8249 220.939 27.2852C220.534 27.7454 220.331 28.4404 220.331 29.3701ZM227.324 25.7402H230.161C230.858 25.7402 231.376 25.7995 231.713 25.918C232.055 26.0319 232.346 26.2438 232.588 26.5537C232.834 26.8636 232.957 27.235 232.957 27.668C232.957 28.0143 232.884 28.3174 232.738 28.5771C232.597 28.8324 232.383 29.0465 232.096 29.2197C232.438 29.3337 232.72 29.5479 232.943 29.8623C233.171 30.1722 233.285 30.5413 233.285 30.9697C233.24 31.6579 232.993 32.1683 232.547 32.501C232.1 32.8337 231.451 33 230.599 33H227.324V25.7402ZM228.555 28.7959H229.867C230.391 28.7959 230.751 28.7686 230.947 28.7139C231.143 28.6592 231.319 28.5498 231.474 28.3857C231.629 28.2171 231.706 28.0166 231.706 27.7842C231.706 27.4014 231.569 27.1348 231.296 26.9844C231.027 26.834 230.564 26.7588 229.908 26.7588H228.555V28.7959ZM228.555 31.9883H230.175C230.872 31.9883 231.351 31.9085 231.61 31.749C231.87 31.585 232.007 31.3047 232.021 30.9082C232.021 30.6758 231.945 30.4616 231.795 30.2656C231.645 30.0651 231.449 29.9398 231.207 29.8896C230.965 29.835 230.578 29.8076 230.045 29.8076H228.555V31.9883Z" fill="#8B8B8B"/>
</svg>
