<svg width="277" height="40" viewBox="0 0 277 40" fill="none" xmlns="http://www.w3.org/2000/svg">
<rect width="40" height="40" rx="7" fill="url(#paint0_linear)"/>
<path d="M30.8178 22.8978L36 20L30.8178 17.1022L33.8578 12L27.92 12.08L28 6.14222L22.8978 9.18222L20 4L17.1022 9.18222L12 6.14222L12.08 12.08L6.14222 12L9.18222 17.1022L4 20L9.18222 22.8978L6.14222 28L12.08 27.92L12 33.8578L17.1022 30.8178L20 36L22.8978 30.8178L28 33.8578L27.92 27.92L33.8578 28L30.8178 22.8978ZM26.9511 32.0356L22.5067 29.3689L20 33.9022L17.4844 29.4044L13.04 32.0711L13.1111 26.9156L7.95556 26.9867L10.6222 22.5422L6.09778 20L10.6044 17.4844L7.93778 13.04L13.0933 13.1111L13.0222 7.95556L17.4667 10.6222L20 6.09778L22.5156 10.5956L26.96 7.92889L26.8889 13.0844L32.0444 13.0133L29.3778 17.4578L33.9022 20L29.4044 22.5156L32.0711 26.96L26.9156 26.8889L26.9511 32.0356ZM28 18.48C27.7028 18.3829 27.4301 18.2227 27.2007 18.0104C26.9712 17.7982 26.7903 17.5387 26.6704 17.25C26.5505 16.9613 26.4945 16.6501 26.5061 16.3376C26.5177 16.0252 26.5968 15.719 26.7378 15.44C26.9286 15.1512 27.0433 14.8189 27.0713 14.4739C27.0993 14.1289 27.0396 13.7824 26.8978 13.4667C26.5156 12.8622 25.6711 12.7822 24.5867 13.2978C24.2763 13.4484 23.9361 13.5274 23.5911 13.5289C23.1279 13.5286 22.6769 13.3801 22.3042 13.1049C21.9315 12.8298 21.6567 12.4426 21.52 12C21.0667 10.7289 20.4444 10.4622 20 10.4622C19.5556 10.4622 18.9333 10.7289 18.48 12C18.3436 12.4352 18.0735 12.8163 17.7081 13.0892C17.3426 13.3621 16.9005 13.5128 16.4444 13.52C16.0994 13.5188 15.7591 13.4398 15.4489 13.2889C14.3644 12.7733 13.52 12.8622 13.1378 13.4578C12.996 13.7735 12.9363 14.12 12.9642 14.465C12.9922 14.81 13.1069 15.1423 13.2978 15.4311C13.4398 15.7128 13.5186 16.0221 13.5288 16.3375C13.539 16.6528 13.4802 16.9665 13.3567 17.2568C13.2331 17.5471 13.0477 17.8069 12.8134 18.0182C12.5791 18.2295 12.3015 18.3871 12 18.48C10.7289 18.9333 10.4622 19.5556 10.4622 20C10.4622 20.4444 10.7289 21.0667 12 21.52C12.2972 21.6171 12.5699 21.7773 12.7993 21.9896C13.0288 22.2018 13.2097 22.4613 13.3296 22.75C13.4495 23.0387 13.5055 23.3499 13.4939 23.6624C13.4823 23.9748 13.4032 24.281 13.2622 24.56C13.0714 24.8488 12.9567 25.1811 12.9287 25.5261C12.9007 25.8711 12.9604 26.2176 13.1022 26.5333C13.4844 27.1378 14.3289 27.2178 15.4133 26.7022C15.7353 26.5497 16.0882 26.4736 16.4444 26.48C16.9005 26.4872 17.3426 26.6379 17.7081 26.9108C18.0735 27.1837 18.3436 27.5648 18.48 28C18.9333 29.2711 19.5556 29.5378 20 29.5378C20.4444 29.5378 21.0667 29.2711 21.52 28C21.6564 27.5648 21.9265 27.1837 22.2919 26.9108C22.6574 26.6379 23.0995 26.4872 23.5556 26.48C23.9005 26.4818 24.2407 26.5607 24.5511 26.7111C25.6356 27.2267 26.48 27.1378 26.8622 26.5422C27.004 26.2265 27.0637 25.88 27.0358 25.535C27.0078 25.19 26.8931 24.8577 26.7022 24.5689C26.5602 24.2872 26.4814 23.9779 26.4712 23.6625C26.461 23.3472 26.5198 23.0335 26.6433 22.7432C26.7669 22.4529 26.9523 22.1931 27.1866 21.9818C27.4209 21.7705 27.6985 21.6129 28 21.52C29.2711 21.0667 29.5378 20.4444 29.5378 20C29.5378 19.5556 29.2356 18.9333 28 18.48ZM27.6444 20.5156C27.2074 20.6627 26.807 20.9019 26.4702 21.2169C26.1334 21.5319 25.868 21.9154 25.692 22.3417C25.5159 22.7679 25.4333 23.2269 25.4496 23.6878C25.466 24.1486 25.5809 24.6006 25.7867 25.0133C26.0889 25.6444 26.0356 25.9022 26.0089 25.9644C25.9651 25.9754 25.9193 25.9754 25.8756 25.9644C25.5888 25.9444 25.3099 25.8625 25.0578 25.7244C24.5877 25.5063 24.0736 25.3998 23.5556 25.4133C22.8829 25.4157 22.228 25.6287 21.6827 26.0225C21.1374 26.4163 20.7292 26.9711 20.5156 27.6089C20.2844 28.2578 20.0444 28.4267 20 28.4356C19.9556 28.4444 19.7156 28.2578 19.4844 27.6089C19.2708 26.9711 18.8626 26.4163 18.3173 26.0225C17.772 25.6287 17.1171 25.4157 16.4444 25.4133C15.9423 25.4162 15.4472 25.5317 14.9956 25.7511C14.7435 25.8892 14.4645 25.9711 14.1778 25.9911C14.1339 26.0013 14.0883 26.0013 14.0444 25.9911C14.0444 25.9911 13.9644 25.6711 14.2667 25.04C14.4725 24.6273 14.5874 24.1753 14.6037 23.7144C14.6201 23.2536 14.5374 22.7946 14.3614 22.3683C14.1853 21.9421 13.9199 21.5586 13.5831 21.2436C13.2463 20.9286 12.8459 20.6894 12.4089 20.5422C11.7511 20.3111 11.5822 20.0711 11.5822 20.0267C11.5822 19.9822 11.7511 19.7422 12.4089 19.5111C12.8459 19.3639 13.2463 19.1248 13.5831 18.8098C13.9199 18.4948 14.1853 18.1112 14.3614 17.685C14.5374 17.2588 14.6201 16.7998 14.6037 16.3389C14.5874 15.878 14.4725 15.426 14.2667 15.0133C13.9644 14.3822 14.0178 14.1244 14.0444 14.0622C14.0883 14.0517 14.134 14.0517 14.1778 14.0622C14.4644 14.0828 14.7433 14.1647 14.9956 14.3022C15.4472 14.5217 15.9423 14.6371 16.4444 14.64C17.1171 14.6377 17.772 14.4246 18.3173 14.0308C18.8626 13.637 19.2708 13.0822 19.4844 12.4444C19.7156 11.7867 19.9556 11.6178 20 11.6178C20.0444 11.6178 20.2844 11.7867 20.5156 12.4444C20.7382 13.0723 21.1502 13.6155 21.6947 13.9992C22.2393 14.3829 22.8894 14.5882 23.5556 14.5867C24.057 14.5868 24.5522 14.4744 25.0044 14.2578C25.2566 14.12 25.5356 14.0381 25.8222 14.0178C25.866 14.0072 25.9117 14.0072 25.9556 14.0178C25.9556 14.0178 26.0356 14.3378 25.7333 14.9689C25.5275 15.3816 25.4126 15.8336 25.3963 16.2945C25.3799 16.7553 25.4626 17.2143 25.6386 17.6406C25.8147 18.0668 26.0801 18.4503 26.4169 18.7653C26.7537 19.0803 27.1541 19.3195 27.5911 19.4667C28.2489 19.6978 28.4178 19.9378 28.4178 19.9822C28.4178 20.0267 28.2667 20.2844 27.6089 20.5156H27.6444ZM20 15.0311C19.0172 15.0311 18.0566 15.3225 17.2394 15.8685C16.4223 16.4145 15.7854 17.1905 15.4093 18.0985C15.0333 19.0064 14.9349 20.0055 15.1266 20.9694C15.3183 21.9333 15.7916 22.8186 16.4865 23.5135C17.1814 24.2084 18.0667 24.6817 19.0306 24.8734C19.9945 25.0651 20.9936 24.9667 21.9015 24.5907C22.8095 24.2146 23.5855 23.5777 24.1315 22.7606C24.6775 21.9434 24.9689 20.9828 24.9689 20C24.9665 18.6829 24.4423 17.4204 23.5109 16.4891C22.5796 15.5577 21.3171 15.0335 20 15.0311ZM20 23.92C19.2183 23.92 18.4542 23.6878 17.8046 23.253C17.155 22.8181 16.6492 22.2001 16.3513 21.4774C16.0534 20.7547 15.9768 19.9598 16.1312 19.1935C16.2857 18.4272 16.6642 17.7241 17.2189 17.1732C17.7735 16.6223 18.4792 16.2485 19.2465 16.0993C20.0138 15.95 20.8082 16.032 21.5289 16.3348C22.2496 16.6376 22.8641 17.1476 23.2945 17.8001C23.725 18.4527 23.9519 19.2183 23.9467 20C23.9443 21.046 23.5278 22.0485 22.7881 22.7881C22.0485 23.5278 21.046 23.9443 20 23.9467V23.92Z" fill="white"/>
<path d="M51.0938 6.97852H58.9756V17H57.6426V8.16113H52.4199V17H51.0938V6.97852ZM60.5273 13.3701C60.5273 12.0257 60.901 11.0299 61.6484 10.3828C62.2728 9.84505 63.0339 9.57617 63.9316 9.57617C64.9297 9.57617 65.7454 9.9043 66.3789 10.5605C67.0124 11.2122 67.3291 12.1146 67.3291 13.2676C67.3291 14.2018 67.1878 14.9378 66.9053 15.4756C66.6273 16.0088 66.2194 16.4235 65.6816 16.7197C65.1484 17.016 64.5651 17.1641 63.9316 17.1641C62.9154 17.1641 62.0928 16.8382 61.4639 16.1865C60.8395 15.5348 60.5273 14.596 60.5273 13.3701ZM61.792 13.3701C61.792 14.2998 61.9948 14.9971 62.4004 15.4619C62.806 15.9222 63.3164 16.1523 63.9316 16.1523C64.5423 16.1523 65.0505 15.9199 65.4561 15.4551C65.8617 14.9902 66.0645 14.2816 66.0645 13.3291C66.0645 12.4313 65.8594 11.7523 65.4492 11.292C65.0436 10.8271 64.5378 10.5947 63.9316 10.5947C63.3164 10.5947 62.806 10.8249 62.4004 11.2852C61.9948 11.7454 61.792 12.4404 61.792 13.3701ZM68.7715 9.74023H70.002V12.8779C70.3939 12.8779 70.6673 12.8027 70.8223 12.6523C70.9818 12.502 71.2142 12.0645 71.5195 11.3398C71.7611 10.7656 71.957 10.3874 72.1074 10.2051C72.2578 10.0228 72.431 9.89974 72.627 9.83594C72.8229 9.77214 73.1374 9.74023 73.5703 9.74023H73.8164V10.7588L73.4746 10.752C73.151 10.752 72.9437 10.7998 72.8525 10.8955C72.7568 10.9958 72.611 11.2943 72.415 11.791C72.2282 12.265 72.0573 12.5931 71.9023 12.7754C71.7474 12.9577 71.5081 13.124 71.1846 13.2744C71.7132 13.4157 72.2327 13.9079 72.7432 14.751L74.0898 17H72.7363L71.4238 14.751C71.1549 14.2998 70.9202 14.0036 70.7197 13.8623C70.5192 13.7165 70.2799 13.6436 70.002 13.6436V17H68.7715V9.74023ZM75.0127 19.7959L74.876 18.6406C75.1449 18.7135 75.3796 18.75 75.5801 18.75C75.8535 18.75 76.0723 18.7044 76.2363 18.6133C76.4004 18.5221 76.5348 18.3945 76.6396 18.2305C76.7171 18.1074 76.8424 17.8021 77.0156 17.3145C77.0384 17.2461 77.0749 17.1458 77.125 17.0137L74.3701 9.74023H75.6963L77.207 13.9443C77.403 14.4775 77.5785 15.0381 77.7334 15.626C77.8747 15.0609 78.0433 14.5094 78.2393 13.9717L79.791 9.74023H81.0215L78.2598 17.123C77.9635 17.9206 77.7334 18.4697 77.5693 18.7705C77.3506 19.1761 77.0999 19.4723 76.8174 19.6592C76.5348 19.8506 76.1976 19.9463 75.8057 19.9463C75.5687 19.9463 75.3044 19.8962 75.0127 19.7959ZM82.0742 9.74023H87.8027V17H86.5723V10.7588H83.3047V17H82.0742V9.74023ZM94.3926 16.1045C93.9368 16.4919 93.4971 16.7653 93.0732 16.9248C92.654 17.0843 92.2028 17.1641 91.7197 17.1641C90.9222 17.1641 90.3092 16.9704 89.8809 16.583C89.4525 16.1911 89.2383 15.6921 89.2383 15.0859C89.2383 14.7305 89.318 14.4069 89.4775 14.1152C89.6416 13.819 89.8535 13.582 90.1133 13.4043C90.3776 13.2266 90.6738 13.0921 91.002 13.001C91.2435 12.9372 91.6081 12.8757 92.0957 12.8164C93.0892 12.6979 93.8206 12.5566 94.29 12.3926C94.2946 12.224 94.2969 12.1169 94.2969 12.0713C94.2969 11.57 94.1807 11.2168 93.9482 11.0117C93.6338 10.7337 93.1667 10.5947 92.5469 10.5947C91.9681 10.5947 91.5397 10.6973 91.2617 10.9023C90.9883 11.1029 90.7855 11.4606 90.6533 11.9756L89.4502 11.8115C89.5596 11.2965 89.7396 10.8818 89.9902 10.5674C90.2409 10.2484 90.6032 10.0046 91.0771 9.83594C91.5511 9.66276 92.1003 9.57617 92.7246 9.57617C93.3444 9.57617 93.848 9.64909 94.2354 9.79492C94.6227 9.94076 94.9076 10.1253 95.0898 10.3486C95.2721 10.5674 95.3997 10.8454 95.4727 11.1826C95.5137 11.3923 95.5342 11.7705 95.5342 12.3174V13.958C95.5342 15.1019 95.5592 15.8265 95.6094 16.1318C95.6641 16.4326 95.7689 16.722 95.9238 17H94.6387C94.5111 16.7448 94.429 16.4463 94.3926 16.1045ZM94.29 13.3564C93.8434 13.5387 93.1735 13.6937 92.2803 13.8213C91.7744 13.8942 91.4167 13.9762 91.207 14.0674C90.9974 14.1585 90.8356 14.293 90.7217 14.4707C90.6077 14.6439 90.5508 14.8376 90.5508 15.0518C90.5508 15.3799 90.6738 15.6533 90.9199 15.8721C91.1706 16.0908 91.5352 16.2002 92.0137 16.2002C92.4876 16.2002 92.9092 16.0977 93.2783 15.8926C93.6475 15.6829 93.9186 15.3981 94.0918 15.0381C94.224 14.7601 94.29 14.3499 94.29 13.8076V13.3564ZM97.4482 9.74023H98.6787V15.2773L102.09 9.74023H103.416V17H102.186V11.4971L98.7744 17H97.4482V9.74023ZM101.721 6.99219H102.562C102.493 7.56185 102.284 7.99935 101.933 8.30469C101.586 8.61003 101.124 8.7627 100.545 8.7627C99.9616 8.7627 99.4945 8.6123 99.1436 8.31152C98.7972 8.00618 98.5898 7.56641 98.5215 6.99219H99.3623C99.4261 7.30208 99.5514 7.53451 99.7383 7.68945C99.9297 7.83984 100.185 7.91504 100.504 7.91504C100.873 7.91504 101.151 7.84212 101.338 7.69629C101.529 7.5459 101.657 7.3112 101.721 6.99219ZM109.165 9.74023H110.396V15.2773L113.807 9.74023H115.133V17H113.902V11.4971L110.491 17H109.165V9.74023ZM120.889 9.74023H126.617V17H125.387V10.7588H122.119V17H120.889V9.74023ZM128.47 19.7822V9.74023H129.591V10.6836C129.855 10.3145 130.154 10.0387 130.486 9.85645C130.819 9.6696 131.222 9.57617 131.696 9.57617C132.316 9.57617 132.863 9.73568 133.337 10.0547C133.811 10.3737 134.169 10.8249 134.41 11.4082C134.652 11.987 134.772 12.6227 134.772 13.3154C134.772 14.0583 134.638 14.7282 134.369 15.3252C134.105 15.9176 133.717 16.3734 133.207 16.6924C132.701 17.0068 132.168 17.1641 131.607 17.1641C131.197 17.1641 130.828 17.0775 130.5 16.9043C130.176 16.7311 129.91 16.5124 129.7 16.248V19.7822H128.47ZM129.584 13.4111C129.584 14.3454 129.773 15.0358 130.151 15.4824C130.53 15.929 130.988 16.1523 131.525 16.1523C132.072 16.1523 132.539 15.9222 132.927 15.4619C133.319 14.9971 133.515 14.2793 133.515 13.3086C133.515 12.3835 133.323 11.6908 132.94 11.2305C132.562 10.7702 132.109 10.54 131.58 10.54C131.056 10.54 130.591 10.7861 130.186 11.2783C129.785 11.766 129.584 12.4769 129.584 13.4111ZM135.805 13.3701C135.805 12.0257 136.178 11.0299 136.926 10.3828C137.55 9.84505 138.311 9.57617 139.209 9.57617C140.207 9.57617 141.023 9.9043 141.656 10.5605C142.29 11.2122 142.606 12.1146 142.606 13.2676C142.606 14.2018 142.465 14.9378 142.183 15.4756C141.905 16.0088 141.497 16.4235 140.959 16.7197C140.426 17.016 139.842 17.1641 139.209 17.1641C138.193 17.1641 137.37 16.8382 136.741 16.1865C136.117 15.5348 135.805 14.596 135.805 13.3701ZM137.069 13.3701C137.069 14.2998 137.272 14.9971 137.678 15.4619C138.083 15.9222 138.594 16.1523 139.209 16.1523C139.82 16.1523 140.328 15.9199 140.733 15.4551C141.139 14.9902 141.342 14.2816 141.342 13.3291C141.342 12.4313 141.137 11.7523 140.727 11.292C140.321 10.8271 139.815 10.5947 139.209 10.5947C138.594 10.5947 138.083 10.8249 137.678 11.2852C137.272 11.7454 137.069 12.4404 137.069 13.3701ZM144.712 9.74023H149.771V15.9883H150.557V19.0576H149.545V17H143.83V19.0576H142.818V15.9883H143.468C144.334 14.8125 144.748 12.7298 144.712 9.74023ZM145.737 10.7588C145.646 13.1149 145.282 14.8581 144.644 15.9883H148.547V10.7588H145.737ZM156.654 16.1045C156.199 16.4919 155.759 16.7653 155.335 16.9248C154.916 17.0843 154.465 17.1641 153.981 17.1641C153.184 17.1641 152.571 16.9704 152.143 16.583C151.714 16.1911 151.5 15.6921 151.5 15.0859C151.5 14.7305 151.58 14.4069 151.739 14.1152C151.903 13.819 152.115 13.582 152.375 13.4043C152.639 13.2266 152.936 13.0921 153.264 13.001C153.505 12.9372 153.87 12.8757 154.357 12.8164C155.351 12.6979 156.082 12.5566 156.552 12.3926C156.556 12.224 156.559 12.1169 156.559 12.0713C156.559 11.57 156.442 11.2168 156.21 11.0117C155.896 10.7337 155.428 10.5947 154.809 10.5947C154.23 10.5947 153.801 10.6973 153.523 10.9023C153.25 11.1029 153.047 11.4606 152.915 11.9756L151.712 11.8115C151.821 11.2965 152.001 10.8818 152.252 10.5674C152.503 10.2484 152.865 10.0046 153.339 9.83594C153.813 9.66276 154.362 9.57617 154.986 9.57617C155.606 9.57617 156.11 9.64909 156.497 9.79492C156.884 9.94076 157.169 10.1253 157.352 10.3486C157.534 10.5674 157.661 10.8454 157.734 11.1826C157.775 11.3923 157.796 11.7705 157.796 12.3174V13.958C157.796 15.1019 157.821 15.8265 157.871 16.1318C157.926 16.4326 158.031 16.722 158.186 17H156.9C156.773 16.7448 156.691 16.4463 156.654 16.1045ZM156.552 13.3564C156.105 13.5387 155.435 13.6937 154.542 13.8213C154.036 13.8942 153.678 13.9762 153.469 14.0674C153.259 14.1585 153.097 14.293 152.983 14.4707C152.869 14.6439 152.812 14.8376 152.812 15.0518C152.812 15.3799 152.936 15.6533 153.182 15.8721C153.432 16.0908 153.797 16.2002 154.275 16.2002C154.749 16.2002 155.171 16.0977 155.54 15.8926C155.909 15.6829 156.18 15.3981 156.354 15.0381C156.486 14.7601 156.552 14.3499 156.552 13.8076V13.3564ZM159.717 9.74023H162.554C163.251 9.74023 163.768 9.79948 164.105 9.91797C164.447 10.0319 164.739 10.2438 164.98 10.5537C165.227 10.8636 165.35 11.235 165.35 11.668C165.35 12.0143 165.277 12.3174 165.131 12.5771C164.99 12.8324 164.775 13.0465 164.488 13.2197C164.83 13.3337 165.113 13.5479 165.336 13.8623C165.564 14.1722 165.678 14.5413 165.678 14.9697C165.632 15.6579 165.386 16.1683 164.939 16.501C164.493 16.8337 163.843 17 162.991 17H159.717V9.74023ZM160.947 12.7959H162.26C162.784 12.7959 163.144 12.7686 163.34 12.7139C163.536 12.6592 163.711 12.5498 163.866 12.3857C164.021 12.2171 164.099 12.0166 164.099 11.7842C164.099 11.4014 163.962 11.1348 163.688 10.9844C163.42 10.834 162.957 10.7588 162.301 10.7588H160.947V12.7959ZM160.947 15.9883H162.567C163.265 15.9883 163.743 15.9085 164.003 15.749C164.263 15.585 164.399 15.3047 164.413 14.9082C164.413 14.6758 164.338 14.4616 164.188 14.2656C164.037 14.0651 163.841 13.9398 163.6 13.8896C163.358 13.835 162.971 13.8076 162.438 13.8076H160.947V15.9883ZM171.721 16.1045C171.265 16.4919 170.825 16.7653 170.401 16.9248C169.982 17.0843 169.531 17.1641 169.048 17.1641C168.25 17.1641 167.637 16.9704 167.209 16.583C166.781 16.1911 166.566 15.6921 166.566 15.0859C166.566 14.7305 166.646 14.4069 166.806 14.1152C166.97 13.819 167.182 13.582 167.441 13.4043C167.706 13.2266 168.002 13.0921 168.33 13.001C168.572 12.9372 168.936 12.8757 169.424 12.8164C170.417 12.6979 171.149 12.5566 171.618 12.3926C171.623 12.224 171.625 12.1169 171.625 12.0713C171.625 11.57 171.509 11.2168 171.276 11.0117C170.962 10.7337 170.495 10.5947 169.875 10.5947C169.296 10.5947 168.868 10.6973 168.59 10.9023C168.316 11.1029 168.114 11.4606 167.981 11.9756L166.778 11.8115C166.888 11.2965 167.068 10.8818 167.318 10.5674C167.569 10.2484 167.931 10.0046 168.405 9.83594C168.879 9.66276 169.428 9.57617 170.053 9.57617C170.673 9.57617 171.176 9.64909 171.563 9.79492C171.951 9.94076 172.236 10.1253 172.418 10.3486C172.6 10.5674 172.728 10.8454 172.801 11.1826C172.842 11.3923 172.862 11.7705 172.862 12.3174V13.958C172.862 15.1019 172.887 15.8265 172.938 16.1318C172.992 16.4326 173.097 16.722 173.252 17H171.967C171.839 16.7448 171.757 16.4463 171.721 16.1045ZM171.618 13.3564C171.172 13.5387 170.502 13.6937 169.608 13.8213C169.103 13.8942 168.745 13.9762 168.535 14.0674C168.326 14.1585 168.164 14.293 168.05 14.4707C167.936 14.6439 167.879 14.8376 167.879 15.0518C167.879 15.3799 168.002 15.6533 168.248 15.8721C168.499 16.0908 168.863 16.2002 169.342 16.2002C169.816 16.2002 170.237 16.0977 170.606 15.8926C170.976 15.6829 171.247 15.3981 171.42 15.0381C171.552 14.7601 171.618 14.3499 171.618 13.8076V13.3564ZM174.776 9.74023H176.007V15.2773L179.418 9.74023H180.744V17H179.514V11.4971L176.103 17H174.776V9.74023ZM179.049 6.99219H179.89C179.821 7.56185 179.612 7.99935 179.261 8.30469C178.914 8.61003 178.452 8.7627 177.873 8.7627C177.29 8.7627 176.823 8.6123 176.472 8.31152C176.125 8.00618 175.918 7.56641 175.85 6.99219H176.69C176.754 7.30208 176.88 7.53451 177.066 7.68945C177.258 7.83984 177.513 7.91504 177.832 7.91504C178.201 7.91504 178.479 7.84212 178.666 7.69629C178.857 7.5459 178.985 7.3112 179.049 6.99219ZM186.5 9.74023H189.337C190.034 9.74023 190.551 9.79948 190.889 9.91797C191.23 10.0319 191.522 10.2438 191.764 10.5537C192.01 10.8636 192.133 11.235 192.133 11.668C192.133 12.0143 192.06 12.3174 191.914 12.5771C191.773 12.8324 191.559 13.0465 191.271 13.2197C191.613 13.3337 191.896 13.5479 192.119 13.8623C192.347 14.1722 192.461 14.5413 192.461 14.9697C192.415 15.6579 192.169 16.1683 191.723 16.501C191.276 16.8337 190.627 17 189.774 17H186.5V9.74023ZM187.73 12.7959H189.043C189.567 12.7959 189.927 12.7686 190.123 12.7139C190.319 12.6592 190.494 12.5498 190.649 12.3857C190.804 12.2171 190.882 12.0166 190.882 11.7842C190.882 11.4014 190.745 11.1348 190.472 10.9844C190.203 10.834 189.74 10.7588 189.084 10.7588H187.73V12.7959ZM187.73 15.9883H189.351C190.048 15.9883 190.526 15.9085 190.786 15.749C191.046 15.585 191.183 15.3047 191.196 14.9082C191.196 14.6758 191.121 14.4616 190.971 14.2656C190.82 14.0651 190.624 13.9398 190.383 13.8896C190.141 13.835 189.754 13.8076 189.221 13.8076H187.73V15.9883ZM197.834 9.74023H203.562V17H202.332V10.7588H199.064V17H197.834V9.74023ZM205.415 19.7822V9.74023H206.536V10.6836C206.8 10.3145 207.099 10.0387 207.432 9.85645C207.764 9.6696 208.168 9.57617 208.642 9.57617C209.261 9.57617 209.808 9.73568 210.282 10.0547C210.756 10.3737 211.114 10.8249 211.355 11.4082C211.597 11.987 211.718 12.6227 211.718 13.3154C211.718 14.0583 211.583 14.7282 211.314 15.3252C211.05 15.9176 210.663 16.3734 210.152 16.6924C209.646 17.0068 209.113 17.1641 208.553 17.1641C208.143 17.1641 207.773 17.0775 207.445 16.9043C207.122 16.7311 206.855 16.5124 206.646 16.248V19.7822H205.415ZM206.529 13.4111C206.529 14.3454 206.718 15.0358 207.097 15.4824C207.475 15.929 207.933 16.1523 208.471 16.1523C209.018 16.1523 209.485 15.9222 209.872 15.4619C210.264 14.9971 210.46 14.2793 210.46 13.3086C210.46 12.3835 210.269 11.6908 209.886 11.2305C209.507 10.7702 209.054 10.54 208.525 10.54C208.001 10.54 207.536 10.7861 207.131 11.2783C206.73 11.766 206.529 12.4769 206.529 13.4111ZM213.208 9.74023H214.438V15.2773L217.85 9.74023H219.176V17H217.945V11.4971L214.534 17H213.208V9.74023ZM221.63 9.74023H227.345V17H226.121V10.7588H222.86V14.375C222.86 15.2181 222.833 15.7741 222.778 16.043C222.724 16.3118 222.573 16.5465 222.327 16.7471C222.081 16.9476 221.726 17.0479 221.261 17.0479C220.974 17.0479 220.643 17.0296 220.27 16.9932V15.9678H220.81C221.065 15.9678 221.247 15.9427 221.356 15.8926C221.466 15.8379 221.539 15.7536 221.575 15.6396C221.612 15.5257 221.63 15.1543 221.63 14.5254V9.74023ZM228.91 13.3701C228.91 12.0257 229.284 11.0299 230.031 10.3828C230.656 9.84505 231.417 9.57617 232.314 9.57617C233.312 9.57617 234.128 9.9043 234.762 10.5605C235.395 11.2122 235.712 12.1146 235.712 13.2676C235.712 14.2018 235.571 14.9378 235.288 15.4756C235.01 16.0088 234.602 16.4235 234.064 16.7197C233.531 17.016 232.948 17.1641 232.314 17.1641C231.298 17.1641 230.476 16.8382 229.847 16.1865C229.222 15.5348 228.91 14.596 228.91 13.3701ZM230.175 13.3701C230.175 14.2998 230.378 14.9971 230.783 15.4619C231.189 15.9222 231.699 16.1523 232.314 16.1523C232.925 16.1523 233.433 15.9199 233.839 15.4551C234.244 14.9902 234.447 14.2816 234.447 13.3291C234.447 12.4313 234.242 11.7523 233.832 11.292C233.426 10.8271 232.921 10.5947 232.314 10.5947C231.699 10.5947 231.189 10.8249 230.783 11.2852C230.378 11.7454 230.175 12.4404 230.175 13.3701ZM241.386 9.74023V12.8779C241.778 12.8779 242.053 12.8027 242.213 12.6523C242.372 12.502 242.605 12.0645 242.91 11.3398C243.197 10.6517 243.455 10.2119 243.683 10.0205C243.906 9.83366 244.261 9.74023 244.749 9.74023H245.2V10.7588L244.865 10.752C244.537 10.752 244.327 10.7998 244.236 10.8955C244.141 10.9958 243.995 11.2943 243.799 11.791C243.617 12.265 243.448 12.5931 243.293 12.7754C243.138 12.9577 242.896 13.124 242.568 13.2744C243.102 13.4157 243.621 13.9079 244.127 14.751L245.48 17H244.127L242.808 14.751C242.539 14.2952 242.304 13.9967 242.104 13.8555C241.903 13.7142 241.664 13.6436 241.386 13.6436V17H240.128V13.6436C239.854 13.6436 239.618 13.7142 239.417 13.8555C239.216 13.9922 238.982 14.2907 238.713 14.751L237.394 17H236.04L237.387 14.751C237.897 13.9079 238.419 13.4157 238.952 13.2744C238.588 13.1058 238.332 12.9235 238.187 12.7275C238.041 12.527 237.822 12.0531 237.53 11.3057C237.43 11.055 237.323 10.9001 237.209 10.8408C237.09 10.7816 236.915 10.752 236.683 10.752C236.623 10.752 236.503 10.7542 236.32 10.7588V9.74023H236.491C236.965 9.74023 237.298 9.76986 237.489 9.8291C237.685 9.88379 237.858 10.0046 238.009 10.1914C238.164 10.3737 238.364 10.7565 238.61 11.3398C238.911 12.0553 239.139 12.4906 239.294 12.6455C239.453 12.8005 239.731 12.8779 240.128 12.8779V9.74023H241.386ZM251.332 14.6621L252.604 14.8193C252.403 15.5622 252.032 16.1387 251.489 16.5488C250.947 16.959 250.254 17.1641 249.411 17.1641C248.349 17.1641 247.506 16.8382 246.882 16.1865C246.262 15.5303 245.952 14.612 245.952 13.4316C245.952 12.2103 246.267 11.2624 246.896 10.5879C247.524 9.91341 248.34 9.57617 249.343 9.57617C250.313 9.57617 251.106 9.90658 251.722 10.5674C252.337 11.2282 252.645 12.1579 252.645 13.3564C252.645 13.4294 252.642 13.5387 252.638 13.6846H247.224C247.269 14.4821 247.495 15.0928 247.9 15.5166C248.306 15.9404 248.812 16.1523 249.418 16.1523C249.869 16.1523 250.254 16.0339 250.573 15.7969C250.892 15.5599 251.145 15.1816 251.332 14.6621ZM247.292 12.6729H251.346C251.291 12.0622 251.136 11.6042 250.881 11.2988C250.489 10.8249 249.981 10.5879 249.356 10.5879C248.791 10.5879 248.315 10.777 247.928 11.1553C247.545 11.5335 247.333 12.0394 247.292 12.6729ZM254.162 9.74023H255.393V12.7617H258.804V9.74023H260.034V17H258.804V13.7803H255.393V17H254.162V9.74023ZM261.894 9.74023H263.124V15.2773L266.535 9.74023H267.861V17H266.631V11.4971L263.22 17H261.894V9.74023ZM269.714 9.74023H270.944V15.2773L274.355 9.74023H275.682V17H274.451V11.4971L271.04 17H269.714V9.74023Z" fill="#333333"/>
<path d="M59.0098 33V22.9785H54.5664C53.6732 22.9785 52.9941 23.0697 52.5293 23.252C52.0645 23.4297 51.693 23.7464 51.415 24.2021C51.137 24.6579 50.998 25.1615 50.998 25.7129C50.998 26.4238 51.2282 27.0231 51.6885 27.5107C52.1488 27.9984 52.8597 28.3083 53.8213 28.4404C53.4704 28.609 53.2038 28.7754 53.0215 28.9395C52.6341 29.2949 52.2673 29.7393 51.9209 30.2725L50.1777 33H51.8457L53.1719 30.915C53.5592 30.3135 53.8783 29.8532 54.1289 29.5342C54.3796 29.2152 54.6029 28.9919 54.7988 28.8643C54.9993 28.7367 55.2021 28.6478 55.4072 28.5977C55.5576 28.5658 55.8037 28.5498 56.1455 28.5498H57.6836V33H59.0098ZM57.6836 27.4014H54.833C54.2269 27.4014 53.7529 27.3398 53.4111 27.2168C53.0693 27.0892 52.8096 26.8887 52.6318 26.6152C52.4541 26.3372 52.3652 26.0365 52.3652 25.7129C52.3652 25.2389 52.5361 24.8493 52.8779 24.5439C53.2243 24.2386 53.7689 24.0859 54.5117 24.0859H57.6836V27.4014ZM61.04 35.7822V25.7402H62.1611V26.6836C62.4255 26.3145 62.724 26.0387 63.0566 25.8564C63.3893 25.6696 63.7926 25.5762 64.2666 25.5762C64.8864 25.5762 65.4333 25.7357 65.9072 26.0547C66.3812 26.3737 66.7389 26.8249 66.9805 27.4082C67.222 27.987 67.3428 28.6227 67.3428 29.3154C67.3428 30.0583 67.2083 30.7282 66.9395 31.3252C66.6751 31.9176 66.2878 32.3734 65.7773 32.6924C65.2715 33.0068 64.7383 33.1641 64.1777 33.1641C63.7676 33.1641 63.3984 33.0775 63.0703 32.9043C62.7467 32.7311 62.4801 32.5124 62.2705 32.248V35.7822H61.04ZM62.1543 29.4111C62.1543 30.3454 62.3434 31.0358 62.7217 31.4824C63.0999 31.929 63.5579 32.1523 64.0957 32.1523C64.6426 32.1523 65.1097 31.9222 65.4971 31.4619C65.889 30.9971 66.085 30.2793 66.085 29.3086C66.085 28.3835 65.8936 27.6908 65.5107 27.2305C65.1325 26.7702 64.679 26.54 64.1504 26.54C63.6263 26.54 63.1615 26.7861 62.7559 27.2783C62.3548 27.766 62.1543 28.4769 62.1543 29.4111ZM68.8672 25.7402H70.7812L72.6885 31.5508L74.8076 25.7402H76.5781V33H75.3477V27.1553L73.2012 33H72.1006L70.0703 26.875V33H68.8672V25.7402ZM83.1953 32.1045C82.7396 32.4919 82.2998 32.7653 81.876 32.9248C81.4567 33.0843 81.0055 33.1641 80.5225 33.1641C79.7249 33.1641 79.112 32.9704 78.6836 32.583C78.2552 32.1911 78.041 31.6921 78.041 31.0859C78.041 30.7305 78.1208 30.4069 78.2803 30.1152C78.4443 29.819 78.6562 29.582 78.916 29.4043C79.1803 29.2266 79.4766 29.0921 79.8047 29.001C80.0462 28.9372 80.4108 28.8757 80.8984 28.8164C81.8919 28.6979 82.6234 28.5566 83.0928 28.3926C83.0973 28.224 83.0996 28.1169 83.0996 28.0713C83.0996 27.57 82.9834 27.2168 82.751 27.0117C82.4365 26.7337 81.9694 26.5947 81.3496 26.5947C80.7708 26.5947 80.3424 26.6973 80.0645 26.9023C79.791 27.1029 79.5882 27.4606 79.4561 27.9756L78.2529 27.8115C78.3623 27.2965 78.5423 26.8818 78.793 26.5674C79.0436 26.2484 79.4059 26.0046 79.8799 25.8359C80.3538 25.6628 80.903 25.5762 81.5273 25.5762C82.1471 25.5762 82.6507 25.6491 83.0381 25.7949C83.4255 25.9408 83.7103 26.1253 83.8926 26.3486C84.0749 26.5674 84.2025 26.8454 84.2754 27.1826C84.3164 27.3923 84.3369 27.7705 84.3369 28.3174V29.958C84.3369 31.1019 84.362 31.8265 84.4121 32.1318C84.4668 32.4326 84.5716 32.722 84.7266 33H83.4414C83.3138 32.7448 83.2318 32.4463 83.1953 32.1045ZM83.0928 29.3564C82.6462 29.5387 81.9762 29.6937 81.083 29.8213C80.5771 29.8942 80.2194 29.9762 80.0098 30.0674C79.8001 30.1585 79.6383 30.293 79.5244 30.4707C79.4105 30.6439 79.3535 30.8376 79.3535 31.0518C79.3535 31.3799 79.4766 31.6533 79.7227 31.8721C79.9733 32.0908 80.3379 32.2002 80.8164 32.2002C81.2904 32.2002 81.7119 32.0977 82.0811 31.8926C82.4502 31.6829 82.7214 31.3981 82.8945 31.0381C83.0267 30.7601 83.0928 30.3499 83.0928 29.8076V29.3564ZM86.251 35.7822V25.7402H87.3721V26.6836C87.6364 26.3145 87.9349 26.0387 88.2676 25.8564C88.6003 25.6696 89.0036 25.5762 89.4775 25.5762C90.0973 25.5762 90.6442 25.7357 91.1182 26.0547C91.5921 26.3737 91.9499 26.8249 92.1914 27.4082C92.4329 27.987 92.5537 28.6227 92.5537 29.3154C92.5537 30.0583 92.4193 30.7282 92.1504 31.3252C91.8861 31.9176 91.4987 32.3734 90.9883 32.6924C90.4824 33.0068 89.9492 33.1641 89.3887 33.1641C88.9785 33.1641 88.6094 33.0775 88.2812 32.9043C87.9577 32.7311 87.6911 32.5124 87.4814 32.248V35.7822H86.251ZM87.3652 29.4111C87.3652 30.3454 87.5544 31.0358 87.9326 31.4824C88.3109 31.929 88.7689 32.1523 89.3066 32.1523C89.8535 32.1523 90.3206 31.9222 90.708 31.4619C91.0999 30.9971 91.2959 30.2793 91.2959 29.3086C91.2959 28.3835 91.1045 27.6908 90.7217 27.2305C90.3434 26.7702 89.89 26.54 89.3613 26.54C88.8372 26.54 88.3724 26.7861 87.9668 27.2783C87.5658 27.766 87.3652 28.4769 87.3652 29.4111ZM94.0371 25.7402H95.2676V28.8779C95.6595 28.8779 95.9329 28.8027 96.0879 28.6523C96.2474 28.502 96.4798 28.0645 96.7852 27.3398C97.0267 26.7656 97.2227 26.3874 97.373 26.2051C97.5234 26.0228 97.6966 25.8997 97.8926 25.8359C98.0885 25.7721 98.403 25.7402 98.8359 25.7402H99.082V26.7588L98.7402 26.752C98.4167 26.752 98.2093 26.7998 98.1182 26.8955C98.0225 26.9958 97.8766 27.2943 97.6807 27.791C97.4938 28.265 97.3229 28.5931 97.168 28.7754C97.013 28.9577 96.7738 29.124 96.4502 29.2744C96.9788 29.4157 97.4984 29.9079 98.0088 30.751L99.3555 33H98.002L96.6895 30.751C96.4206 30.2998 96.1859 30.0036 95.9854 29.8623C95.7848 29.7165 95.5456 29.6436 95.2676 29.6436V33H94.0371V25.7402ZM105.221 32.1045C104.765 32.4919 104.325 32.7653 103.901 32.9248C103.482 33.0843 103.031 33.1641 102.548 33.1641C101.75 33.1641 101.137 32.9704 100.709 32.583C100.281 32.1911 100.066 31.6921 100.066 31.0859C100.066 30.7305 100.146 30.4069 100.306 30.1152C100.47 29.819 100.682 29.582 100.941 29.4043C101.206 29.2266 101.502 29.0921 101.83 29.001C102.072 28.9372 102.436 28.8757 102.924 28.8164C103.917 28.6979 104.649 28.5566 105.118 28.3926C105.123 28.224 105.125 28.1169 105.125 28.0713C105.125 27.57 105.009 27.2168 104.776 27.0117C104.462 26.7337 103.995 26.5947 103.375 26.5947C102.796 26.5947 102.368 26.6973 102.09 26.9023C101.816 27.1029 101.614 27.4606 101.481 27.9756L100.278 27.8115C100.388 27.2965 100.568 26.8818 100.818 26.5674C101.069 26.2484 101.431 26.0046 101.905 25.8359C102.379 25.6628 102.928 25.5762 103.553 25.5762C104.173 25.5762 104.676 25.6491 105.063 25.7949C105.451 25.9408 105.736 26.1253 105.918 26.3486C106.1 26.5674 106.228 26.8454 106.301 27.1826C106.342 27.3923 106.362 27.7705 106.362 28.3174V29.958C106.362 31.1019 106.387 31.8265 106.438 32.1318C106.492 32.4326 106.597 32.722 106.752 33H105.467C105.339 32.7448 105.257 32.4463 105.221 32.1045ZM105.118 29.3564C104.672 29.5387 104.002 29.6937 103.108 29.8213C102.603 29.8942 102.245 29.9762 102.035 30.0674C101.826 30.1585 101.664 30.293 101.55 30.4707C101.436 30.6439 101.379 30.8376 101.379 31.0518C101.379 31.3799 101.502 31.6533 101.748 31.8721C101.999 32.0908 102.363 32.2002 102.842 32.2002C103.316 32.2002 103.737 32.0977 104.106 31.8926C104.476 31.6829 104.747 31.3981 104.92 31.0381C105.052 30.7601 105.118 30.3499 105.118 29.8076V29.3564ZM112.289 33V22.9785H114.285L116.657 30.0742C116.876 30.735 117.035 31.2295 117.136 31.5576C117.25 31.193 117.427 30.6576 117.669 29.9512L120.068 22.9785H121.853V33H120.574V24.6123L117.662 33H116.466L113.567 24.4688V33H112.289ZM128.736 32.1045C128.281 32.4919 127.841 32.7653 127.417 32.9248C126.998 33.0843 126.547 33.1641 126.063 33.1641C125.266 33.1641 124.653 32.9704 124.225 32.583C123.796 32.1911 123.582 31.6921 123.582 31.0859C123.582 30.7305 123.662 30.4069 123.821 30.1152C123.985 29.819 124.197 29.582 124.457 29.4043C124.721 29.2266 125.018 29.0921 125.346 29.001C125.587 28.9372 125.952 28.8757 126.439 28.8164C127.433 28.6979 128.164 28.5566 128.634 28.3926C128.638 28.224 128.641 28.1169 128.641 28.0713C128.641 27.57 128.524 27.2168 128.292 27.0117C127.978 26.7337 127.51 26.5947 126.891 26.5947C126.312 26.5947 125.883 26.6973 125.605 26.9023C125.332 27.1029 125.129 27.4606 124.997 27.9756L123.794 27.8115C123.903 27.2965 124.083 26.8818 124.334 26.5674C124.585 26.2484 124.947 26.0046 125.421 25.8359C125.895 25.6628 126.444 25.5762 127.068 25.5762C127.688 25.5762 128.192 25.6491 128.579 25.7949C128.966 25.9408 129.251 26.1253 129.434 26.3486C129.616 26.5674 129.743 26.8454 129.816 27.1826C129.857 27.3923 129.878 27.7705 129.878 28.3174V29.958C129.878 31.1019 129.903 31.8265 129.953 32.1318C130.008 32.4326 130.113 32.722 130.268 33H128.982C128.855 32.7448 128.773 32.4463 128.736 32.1045ZM128.634 29.3564C128.187 29.5387 127.517 29.6937 126.624 29.8213C126.118 29.8942 125.76 29.9762 125.551 30.0674C125.341 30.1585 125.179 30.293 125.065 30.4707C124.951 30.6439 124.895 30.8376 124.895 31.0518C124.895 31.3799 125.018 31.6533 125.264 31.8721C125.514 32.0908 125.879 32.2002 126.357 32.2002C126.831 32.2002 127.253 32.0977 127.622 31.8926C127.991 31.6829 128.262 31.3981 128.436 31.0381C128.568 30.7601 128.634 30.3499 128.634 29.8076V29.3564ZM136.529 30.3408L137.739 30.498C137.607 31.332 137.268 31.986 136.721 32.46C136.178 32.9294 135.511 33.1641 134.718 33.1641C133.724 33.1641 132.924 32.8405 132.318 32.1934C131.717 31.5417 131.416 30.6097 131.416 29.3975C131.416 28.6136 131.546 27.9277 131.806 27.3398C132.065 26.752 132.46 26.3122 132.988 26.0205C133.521 25.7243 134.1 25.5762 134.725 25.5762C135.513 25.5762 136.158 25.7767 136.659 26.1777C137.16 26.5742 137.482 27.1393 137.623 27.873L136.427 28.0576C136.313 27.57 136.11 27.2031 135.818 26.957C135.531 26.7109 135.183 26.5879 134.772 26.5879C134.153 26.5879 133.649 26.8112 133.262 27.2578C132.874 27.6999 132.681 28.4017 132.681 29.3633C132.681 30.3385 132.868 31.0472 133.241 31.4893C133.615 31.9313 134.103 32.1523 134.704 32.1523C135.187 32.1523 135.59 32.0042 135.914 31.708C136.238 31.4118 136.443 30.9561 136.529 30.3408ZM138.129 25.7402H144.028V26.7588H141.69V33H140.467V26.7588H138.129V25.7402ZM150.01 30.6621L151.281 30.8193C151.081 31.5622 150.709 32.1387 150.167 32.5488C149.625 32.959 148.932 33.1641 148.089 33.1641C147.027 33.1641 146.184 32.8382 145.56 32.1865C144.94 31.5303 144.63 30.612 144.63 29.4316C144.63 28.2103 144.944 27.2624 145.573 26.5879C146.202 25.9134 147.018 25.5762 148.021 25.5762C148.991 25.5762 149.784 25.9066 150.399 26.5674C151.015 27.2282 151.322 28.1579 151.322 29.3564C151.322 29.4294 151.32 29.5387 151.315 29.6846H145.901C145.947 30.4821 146.173 31.0928 146.578 31.5166C146.984 31.9404 147.49 32.1523 148.096 32.1523C148.547 32.1523 148.932 32.0339 149.251 31.7969C149.57 31.5599 149.823 31.1816 150.01 30.6621ZM145.97 28.6729H150.023C149.969 28.0622 149.814 27.6042 149.559 27.2988C149.167 26.8249 148.659 26.5879 148.034 26.5879C147.469 26.5879 146.993 26.777 146.605 27.1553C146.223 27.5335 146.011 28.0394 145.97 28.6729ZM152.833 35.7822V25.7402H153.954V26.6836C154.218 26.3145 154.517 26.0387 154.85 25.8564C155.182 25.6696 155.586 25.5762 156.06 25.5762C156.679 25.5762 157.226 25.7357 157.7 26.0547C158.174 26.3737 158.532 26.8249 158.773 27.4082C159.015 27.987 159.136 28.6227 159.136 29.3154C159.136 30.0583 159.001 30.7282 158.732 31.3252C158.468 31.9176 158.081 32.3734 157.57 32.6924C157.064 33.0068 156.531 33.1641 155.971 33.1641C155.561 33.1641 155.191 33.0775 154.863 32.9043C154.54 32.7311 154.273 32.5124 154.063 32.248V35.7822H152.833ZM153.947 29.4111C153.947 30.3454 154.136 31.0358 154.515 31.4824C154.893 31.929 155.351 32.1523 155.889 32.1523C156.436 32.1523 156.903 31.9222 157.29 31.4619C157.682 30.9971 157.878 30.2793 157.878 29.3086C157.878 28.3835 157.687 27.6908 157.304 27.2305C156.925 26.7702 156.472 26.54 155.943 26.54C155.419 26.54 154.954 26.7861 154.549 27.2783C154.148 27.766 153.947 28.4769 153.947 29.4111ZM160.168 29.3701C160.168 28.0257 160.542 27.0299 161.289 26.3828C161.913 25.8451 162.674 25.5762 163.572 25.5762C164.57 25.5762 165.386 25.9043 166.02 26.5605C166.653 27.2122 166.97 28.1146 166.97 29.2676C166.97 30.2018 166.828 30.9378 166.546 31.4756C166.268 32.0088 165.86 32.4235 165.322 32.7197C164.789 33.016 164.206 33.1641 163.572 33.1641C162.556 33.1641 161.733 32.8382 161.104 32.1865C160.48 31.5348 160.168 30.596 160.168 29.3701ZM161.433 29.3701C161.433 30.2998 161.635 30.9971 162.041 31.4619C162.447 31.9222 162.957 32.1523 163.572 32.1523C164.183 32.1523 164.691 31.9199 165.097 31.4551C165.502 30.9902 165.705 30.2816 165.705 29.3291C165.705 28.4313 165.5 27.7523 165.09 27.292C164.684 26.8271 164.178 26.5947 163.572 26.5947C162.957 26.5947 162.447 26.8249 162.041 27.2852C161.635 27.7454 161.433 28.4404 161.433 29.3701ZM168.426 25.7402H171.263C171.96 25.7402 172.477 25.7995 172.814 25.918C173.156 26.0319 173.448 26.2438 173.689 26.5537C173.936 26.8636 174.059 27.235 174.059 27.668C174.059 28.0143 173.986 28.3174 173.84 28.5771C173.699 28.8324 173.484 29.0465 173.197 29.2197C173.539 29.3337 173.822 29.5479 174.045 29.8623C174.273 30.1722 174.387 30.5413 174.387 30.9697C174.341 31.6579 174.095 32.1683 173.648 32.501C173.202 32.8337 172.552 33 171.7 33H168.426V25.7402ZM169.656 28.7959H170.969C171.493 28.7959 171.853 28.7686 172.049 28.7139C172.245 28.6592 172.42 28.5498 172.575 28.3857C172.73 28.2171 172.808 28.0166 172.808 27.7842C172.808 27.4014 172.671 27.1348 172.397 26.9844C172.129 26.834 171.666 26.7588 171.01 26.7588H169.656V28.7959ZM169.656 31.9883H171.276C171.974 31.9883 172.452 31.9085 172.712 31.749C172.972 31.585 173.108 31.3047 173.122 30.9082C173.122 30.6758 173.047 30.4616 172.896 30.2656C172.746 30.0651 172.55 29.9398 172.309 29.8896C172.067 29.835 171.68 29.8076 171.146 29.8076H169.656V31.9883Z" fill="#8B8B8B"/>
<defs>
<linearGradient id="paint0_linear" x1="19.9636" y1="0.118182" x2="20.0364" y2="40.1182" gradientUnits="userSpaceOnUse">
<stop stop-color="#F39440"/>
<stop offset="1" stop-color="#E7680B"/>
</linearGradient>
</defs>
</svg>
