<?xml version="1.0" encoding="utf-8"?>
<!-- Generator: Adobe Illustrator 21.1.0, SVG Export Plug-In . SVG Version: 6.00 Build 0)  -->
<svg version="1.1" id="Слой_1" xmlns="http://www.w3.org/2000/svg" xmlns:xlink="http://www.w3.org/1999/xlink" x="0px" y="0px"
	 viewBox="0 0 116.3 30.7" style="enable-background:new 0 0 116.3 30.7;" xml:space="preserve">
<style type="text/css">
	.st0{fill:#EEF6FE;}
	.st1{fill:#C6EBF4;}
</style>
<title>2</title>
<g id="Слой_2">
	<g id="OBJECTS">
		<path class="st0" d="M3.3,3.2L3.3,3.2l0.1,0.1l0,0l0.1,0.1l0,0l0.1,0l0,0h0.1l0,0h0.1l0,0H4l0,0h0.1h0.1h0.1h0.1h0.1h0.1h0.1h0.1
			h0.1h0.1h0.1h0.1l0,0H5l0,0h0.1l0,0L5.5,4l0,0h0.1h0.1v11c0,0.4,0.3,0.7,0.7,0.7s0.7-0.3,0.7-0.7l0,0V4.8c1.1,0.8,1.8,1.9,3.4,1.4
			c1.9-0.6,2.9-1.2,4.8,0c0.2,0.1,0.4,0.3,0.6,0.4v6.1c0,0.4,0.3,0.7,0.7,0.7s0.7-0.3,0.7-0.7V8.2c0.4,0.3,0.8,0.4,1.2,0.6v10.4
			c0,0.4,0.3,0.7,0.7,0.7c0.4,0,0.7-0.3,0.7-0.7V8.9c0.3,0,0.6,0,0.9,0h0.3v5.3c0,0.4,0.3,0.7,0.7,0.7c0.4,0,0.7-0.3,0.7-0.7V8.6
			C23.7,8.2,25,8,26.4,7.9c0.9,0,1.8,0.1,2.6,0.3v4.2c0,0.4,0.3,0.7,0.7,0.7c0.4,0,0.7-0.3,0.7-0.7V8.6c1,0.4,2.1,1,3.4,1.6
			c0.5,0.3,1.1,0.4,1.7,0.6v14.7c0,0.3,0.2,0.6,0.5,0.6c0.3,0,0.6-0.2,0.6-0.5c0,0,0-0.1,0-0.2V11c0.5,0,1.1,0,1.6,0v4.7
			c0,0.4,0.3,0.7,0.7,0.7c0.4,0,0.7-0.3,0.7-0.7v-4.8c1.6-0.2,3.1-0.6,4.4-0.9v11.2c0,0.4,0.3,0.7,0.7,0.7c0.4,0,0.7-0.3,0.7-0.7
			V9.6c1.1-0.3,2.2-0.8,3.3-1.2v4.4c0,0.4,0.3,0.7,0.7,0.7c0.4,0,0.7-0.3,0.7-0.7V7.9c0.5-0.2,1-0.3,1.5-0.4c2.3-0.3,4.1,0.9,6.3,1
			c2.2-0.1,4.3-0.4,6.4-0.8c2.4-0.4,4.6-0.6,7-1c2-0.3,4-0.2,6,0.2C78,7,78.6,7,79.2,7v5.8c0,0.4,0.3,0.7,0.7,0.7
			c0.4,0,0.7-0.3,0.7-0.7V7c0.9-0.1,1.8,0,2.7,0.1v11.4c0,0.4,0.3,0.7,0.7,0.7c0.4,0,0.7-0.3,0.7-0.7v-11c0.4,0.2,0.9,0.5,1.3,0.8
			v6.8c0,0.4,0.3,0.7,0.7,0.7c0.4,0,0.7-0.3,0.7-0.7c0,0,0,0,0,0v-6c0.5,0.3,1.1,0.4,1.7,0.5c1.1,0,2.2-0.1,3.2-0.3
			c0.7,0,1.3-0.1,2-0.2c1-0.3,1.2-1.1,1.9-1.6c1.1-0.7,2.5-0.4,4-0.3v11.2c0,0.4,0.3,0.7,0.7,0.7c0.4,0,0.7-0.3,0.7-0.7V7.4
			c0.7-0.1,1.4-0.2,2.1-0.4v4.7c0,0.4,0.3,0.7,0.7,0.7c0.4,0,0.7-0.3,0.7-0.7v-5c0.5-0.1,1-0.2,1.6-0.2c1.8,0,3.5-0.2,5.3-0.5
			c1.1-0.3,3.3-0.2,4.2-1c0-0.1,0-0.2,0-0.2l0,0c0-0.1,0-0.1,0-0.2l0,0c0-0.1,0-0.1,0-0.2l0,0c0-0.1,0-0.1-0.1-0.2l0,0
			c-0.8-1.7-5-1.8-6.4-1.9c-2.8-0.3-4.8,1-7.7-0.3c-3.2-1.5-6-0.5-9.2-1.3c-2.8-0.7-3.6-0.4-6.2,1c-2,1-3.6-0.2-5.7,0
			S77.3,2,75.2,1.1c-1.8-0.8-3.9-0.9-5.8-0.2c-0.7,0.4-1.4,0.6-2.2,0.5c-0.7,0-1.5,0-2.2,0c-1.8,0.3-3.1,1-5.2,0.8
			c-1.9-0.2-4-0.3-6.1-0.3H47c-1.9-0.1-3.8-0.4-5.6-0.9c-4-0.6-7,1.2-10.8,0.5C28.8,1.3,26.9,1,25.1,1c-2,0-3.4,0.6-5.2,0.9
			c-3.2,0.3-6.5,0.3-9.7,0C7.8,1.6,5.9,1.2,3.6,1C-2.1,0.5,0.7,2,3.3,3.2z"/>
		<path class="st1" d="M36,26.3c-0.5,0-0.8-0.4-0.8-0.8V11c-0.5-0.1-1.1-0.3-1.5-0.5l-1.1-0.6c-0.7-0.4-1.3-0.7-1.9-0.9v3.4
			c0,0.5-0.4,0.9-0.9,0.9c-0.5,0-0.9-0.4-0.9-0.9v-4c-0.8-0.2-1.5-0.2-2.3-0.2l0,0c-1,0-2,0.2-3,0.5l-0.6,0.2v5.4
			c0,0.5-0.4,0.9-0.9,0.9c-0.5,0-0.9-0.4-0.9-0.9V9.1h-0.1h-0.6v10c0,0.5-0.4,0.9-0.9,0.9c-0.5,0-0.9-0.4-0.9-0.9V8.9
			c-0.2-0.1-0.5-0.2-0.7-0.3v4.2c0,0.5-0.4,0.9-0.9,0.9s-0.9-0.4-0.9-0.9v-6c-0.1-0.1-0.3-0.2-0.4-0.3c-1.6-0.9-2.4-0.6-3.8-0.2
			l-0.8,0.2c-1.1,0.3-2.3-0.1-3-0.9L7.4,5.4V15c0,0.5-0.4,0.9-0.9,0.9c-0.5,0-0.9-0.4-0.9-0.9V4.2v0.1L5.3,4.2H5.3L5,4.1H4.9H4.8
			L4.8,4H4.7H4.6V3.7L4.5,4L4.3,3.9H4.3L3.7,3.7H3.6L3.2,3.5H3.2l0.1-0.2L3.2,3.5C0.2,2.1-0.1,1.5,0,1.1s0.8-0.7,3.6-0.4
			C4.8,0.8,5.9,1,6.9,1.1S9,1.5,10.1,1.5c3.2,0.3,6.5,0.3,9.7,0c0.7-0.1,1.5-0.2,2.2-0.4c1-0.3,2-0.4,3.1-0.4l0,0
			C27,0.8,28.8,1,30.7,1.4c1.8,0.3,3.6,0.2,5.3-0.2c1.8-0.4,3.6-0.5,5.5-0.3c0.7,0.1,1.3,0.2,2,0.4c1.2,0.3,2.3,0.4,3.5,0.5h6.6
			c2.3,0,4.5,0.2,6.1,0.3C60.8,2.1,62,2,63,1.6c0.6-0.2,1.2-0.3,1.8-0.4c0.5,0,1,0,1.4,0c0.3,0,0.6,0,0.8,0c0.6,0,1.1-0.1,1.6-0.3
			l0.5-0.2c2-0.7,4.1-0.6,6,0.2c1.6,0.7,3.4,0.9,5.1,0.5h0.4c0.8-0.1,1.6,0,2.4,0.2c1.1,0.3,2.2,0.2,3.2-0.2c2.7-1.4,3.6-1.8,6.4-1
			c1.3,0.3,2.6,0.4,3.9,0.4c1.8-0.1,3.6,0.2,5.2,0.8c1.5,0.6,3.1,0.7,4.6,0.4c1-0.2,2-0.2,3-0.1l0.6,0c1.8,0.1,5.2,0.4,6,2l0,0
			c0,0.1,0.1,0.1,0.1,0.2c0,0.1,0,0.2,0.1,0.2c0,0.1,0,0.2,0,0.3c0,0.1,0,0.2,0,0.3c0,0.1,0,0.1-0.1,0.2c-0.9,0.5-1.9,0.8-3,0.9
			c-0.4,0-0.9,0.1-1.3,0.2c-1.4,0.3-2.8,0.5-4.3,0.5l-1,0.1c-0.4,0-0.9,0.1-1.3,0.2v4.8c0,0.5-0.4,0.9-0.9,0.9s-0.9-0.4-0.9-0.9
			c0,0,0,0,0,0V7.3c-0.6,0.1-1.1,0.2-1.7,0.3v11c0,0.5-0.4,0.9-0.9,0.9c-0.5,0-0.9-0.4-0.9-0.9v-11h-0.4c-1.1-0.2-2.2-0.1-3.2,0.3
			c-0.2,0.2-0.5,0.4-0.6,0.6c-0.3,0.5-0.8,0.8-1.4,1c-0.5,0.1-0.9,0.2-1.4,0.2h-0.6c-0.3,0-0.7,0.1-1,0.1C90.5,10,89.7,10,88.9,10
			c-0.5,0-0.9-0.2-1.4-0.4v5.6c0,0.5-0.4,0.9-0.9,0.9s-0.9-0.4-0.9-0.9c0,0,0,0,0,0V8.5c-0.2-0.2-0.5-0.4-0.8-0.5v10.5
			c0,0.5-0.4,0.9-0.9,0.9c-0.5,0-0.9-0.4-0.9-0.9V7.3c-0.7-0.1-1.4-0.1-2.2-0.1v5.6c0,0.5-0.4,0.9-0.9,0.9s-0.9-0.4-0.9-0.9
			c0,0,0,0,0,0V7.3c-0.6,0-1.1,0-1.7-0.1c-2-0.5-4-0.5-6-0.2c-1.1,0.2-2.2,0.3-3.2,0.5c-1.2,0.2-2.5,0.3-3.7,0.6L63,8.2
			c-1.7,0.4-3.4,0.6-5.2,0.6c-0.9-0.1-1.8-0.2-2.7-0.5c-1.1-0.4-2.3-0.6-3.5-0.4c-0.4,0.1-0.9,0.2-1.3,0.3v4.6
			c0,0.5-0.4,0.9-0.9,0.9c-0.5,0-0.9-0.4-0.9-0.9v-4L47.8,9c-0.7,0.3-1.5,0.6-2.2,0.8v11.4c0,0.5-0.4,0.9-0.9,0.9
			c-0.5,0-0.9-0.4-0.9-0.9V10.3h-0.1c-1.2,0.3-2.5,0.6-3.8,0.7v4.6c0,0.5-0.4,0.9-0.9,0.9c-0.5,0-0.9-0.4-0.9-0.9v-4.4
			c-0.4,0-0.8,0-1.1,0v14.3C36.8,25.9,36.4,26.3,36,26.3z M30.3,8.4L30.3,8.4c0.8,0.3,1.6,0.7,2.4,1.1l1.1,0.6
			c0.5,0.3,1.1,0.4,1.6,0.5c0.1,0,0.2,0.1,0.2,0.2v14.7c0,0.2,0.1,0.3,0.3,0.4c0.2,0,0.3-0.1,0.4-0.3c0,0,0-0.1,0-0.1V11
			c0-0.1,0-0.1,0.1-0.2c0-0.1,0.1-0.1,0.2-0.1c0.5,0,1.1,0,1.6,0c0.1,0,0.1,0,0.2,0.1c0.1,0,0.1,0.1,0.1,0.2v4.7
			c0,0.2,0.2,0.4,0.4,0.4c0.2,0,0.4-0.2,0.4-0.4v-4.8c0-0.1,0.1-0.2,0.2-0.2c1.4-0.2,2.8-0.5,4-0.8l0.4-0.1c0.1,0,0.3,0.1,0.3,0.2
			c0,0,0,0,0,0v11.2c0,0.2,0.2,0.4,0.4,0.4c0.2,0,0.4-0.2,0.4-0.4V9.6c0-0.1,0.1-0.2,0.2-0.2c0.8-0.2,1.6-0.6,2.4-0.9l0.9-0.4
			c0.1,0,0.2,0,0.2,0c0.1,0,0.1,0.1,0.1,0.2v4.4c0,0.2,0.2,0.4,0.4,0.4c0.2,0,0.4-0.2,0.4-0.4V7.9c0-0.1,0.1-0.2,0.2-0.2
			c0.5-0.2,1-0.3,1.6-0.4c1.3-0.1,2.5,0,3.8,0.5c0.8,0.3,1.7,0.4,2.6,0.5c1.7,0,3.4-0.2,5-0.6l1.3-0.2c1.3-0.2,2.5-0.4,3.7-0.6
			c1-0.1,2.1-0.3,3.2-0.5c2-0.3,4.1-0.2,6.1,0.2c0.6,0.1,1.2,0.1,1.8,0.1l0,0c0.1,0,0.2,0.1,0.2,0.2v5.8c0,0.2,0.2,0.4,0.4,0.4
			c0.2,0,0.4-0.2,0.4-0.4c0,0,0,0,0,0V7c0-0.1,0.1-0.2,0.2-0.2c0.9-0.1,1.8,0,2.7,0.1c0.1,0,0.2,0.1,0.2,0.2v11.4
			c0,0.2,0.2,0.4,0.4,0.4c0.2,0,0.4-0.2,0.4-0.4v-11c0-0.1,0-0.2,0.1-0.2c0.1,0,0.2,0,0.2,0c0.5,0.3,0.9,0.5,1.3,0.9
			c0.1,0,0.1,0.1,0.1,0.2v6.8c0,0.2,0.2,0.4,0.4,0.4c0.2,0,0.4-0.2,0.4-0.4c0,0,0,0,0,0v-6C87,9.1,87.1,9,87.2,9c0.1,0,0.1,0,0.2,0
			c0.5,0.3,1,0.4,1.6,0.5c0.7,0,1.5,0,2.2-0.2c0.3-0.1,0.7-0.1,1-0.1h0.7c0.4,0,0.9,0,1.3-0.1c0.5-0.2,0.9-0.4,1.1-0.8
			c0.2-0.3,0.5-0.5,0.8-0.7c1.1-0.5,2.3-0.6,3.4-0.4l0.7,0.1c0.1,0,0.2,0.1,0.2,0.2v11.2c0,0.2,0.2,0.4,0.4,0.4
			c0.2,0,0.4-0.2,0.4-0.4V7.4c0-0.1,0.1-0.2,0.2-0.2c0.7-0.1,1.4-0.2,2.2-0.3c0.1,0,0.3,0.1,0.3,0.2c0,0,0,0,0,0v4.7
			c0,0.2,0.2,0.4,0.4,0.4c0.2,0,0.4-0.2,0.4-0.4c0,0,0,0,0,0v-5c0-0.1,0.1-0.2,0.2-0.2c0.5-0.1,1.1-0.2,1.6-0.2l1-0.1
			c1.4,0,2.8-0.2,4.2-0.5c0.4-0.1,0.9-0.2,1.3-0.2c0.9,0,1.9-0.3,2.7-0.7c0,0,0-0.1,0-0.1c0-0.1,0-0.1,0-0.2c0-0.1,0-0.1,0-0.2
			c0-0.1,0-0.1-0.1-0.2l0,0c-0.6-1.3-4-1.6-5.6-1.7l-0.7,0c-1-0.1-1.9,0-2.9,0.1c-1.6,0.3-3.3,0.1-4.8-0.5c-1.6-0.6-3.3-0.9-5-0.8
			c-1.4,0.1-2.7-0.1-4.1-0.4c-2.7-0.7-3.4-0.4-6,1c-1.1,0.5-2.4,0.6-3.5,0.2c-0.7-0.2-1.5-0.2-2.3-0.2h-0.4
			c-1.8,0.4-3.7,0.2-5.4-0.6c-1.8-0.8-3.8-0.9-5.7-0.2l-0.5,0.2c-0.6,0.3-1.2,0.4-1.8,0.4c-0.3,0-0.6,0-0.9,0c-0.4,0-0.9,0-1.3,0
			c-0.6,0.1-1.2,0.2-1.8,0.4c-1.1,0.4-2.3,0.5-3.5,0.4c-1.6-0.2-3.8-0.3-6-0.3H47c-1.2,0-2.5-0.2-3.7-0.5c-0.6-0.1-1.3-0.3-2-0.4
			c-1.8-0.2-3.5-0.1-5.3,0.3c-1.8,0.4-3.7,0.5-5.5,0.2c-1.8-0.4-3.6-0.6-5.5-0.7l0,0c-1,0-2,0.2-3,0.4c-0.7,0.2-1.5,0.3-2.2,0.4
			c-3.3,0.3-6.5,0.3-9.8,0C8.9,2,7.8,1.8,6.8,1.6S4.7,1.3,3.5,1.2c-2.7-0.2-3,0-3,0.1s0.2,0.4,2.9,1.6l0,0L3.4,3.2L3.5,3l0.4,0.2
			v0.3l0.1-0.2l0.5,0.2v0.3l0.1-0.2l0.2,0.1h0.1v0.3L5,3.6v0.3l0-0.3h0.1v0.3l0.1-0.2v0.3l0.1-0.2v0.3l0.1-0.2l0.3,0.1h0.1h0.1
			C6,3.8,6,3.9,6.1,4v11c0,0.2,0.2,0.4,0.4,0.4s0.4-0.2,0.4-0.4V4.8c0-0.1,0.1-0.2,0.2-0.2c0.1,0,0.1,0,0.2,0.1C7.6,4.8,7.8,5,8,5.2
			C8.8,5.8,9.4,6.3,10.6,6l0.8-0.2C12.7,5.3,13.7,5,15.5,6c0.2,0.1,0.4,0.3,0.6,0.5c0,0,0.1,0.1,0.1,0.2v6.1c0,0.2,0.2,0.4,0.4,0.4
			c0.2,0,0.4-0.2,0.4-0.4V8.2C17,8.1,17.2,8,17.3,8c0.1,0,0.1,0,0.1,0c0.3,0.2,0.7,0.4,1.1,0.5c0.1,0,0.2,0.1,0.2,0.2v10.4
			c0,0.2,0.2,0.4,0.4,0.4c0.2,0,0.4-0.2,0.4-0.4V8.9c0-0.1,0-0.1,0.1-0.2c0-0.1,0.1-0.1,0.2-0.1c0.3,0,0.6,0,0.9,0h0.3
			c0.1,0,0.1,0,0.2,0.1c0.1,0,0.1,0.1,0.1,0.2v5.3c0,0.2,0.2,0.4,0.4,0.4c0.2,0,0.4-0.2,0.4-0.4V8.6c0-0.1,0.1-0.2,0.2-0.2l0.8-0.2
			c1-0.3,2.1-0.5,3.1-0.5l0,0c0.9,0,1.8,0.1,2.6,0.3c0.1,0,0.2,0.1,0.2,0.2v4.2c0,0.2,0.2,0.4,0.4,0.4c0.2,0,0.4-0.2,0.4-0.4V8.6
			C30.1,8.5,30.2,8.4,30.3,8.4L30.3,8.4z M5.5,4.1L5.5,4.1V4V4.1z"/>
		<path class="st1" d="M0.1,1.5C1.5,2.6,3,3,4.5,4l1.1,0.1C5.8,5,5.8,5.9,5.7,6.8c0,3.2-0.1,6.3-0.2,9.5c0,0,0.1,0.8,0.1,0.7
			C6.9,16,7,14.8,7.1,13.2S6.9,9.5,7.2,7.9c0.3-2,1.5-1.5,3.4-1.8c1.2-0.1,3.7-0.5,4.7,0.3c1.3,1,0.4,3.9,0.5,5.3
			c0.1,1,0.3,2,0.8,2.9l0,0c0.9-0.9,0.7-1.4,0.8-2.5c0.1-0.9-0.2-4.1,1-2.7c1.9,2.2-2.6,9.7,1.5,10.8c0.1,0,0.2-1.1,0-1.2
			c-2.3-0.7-1.1-8.6-1.1-10.3c0-0.1,0-0.5-0.1-0.5c-0.4-0.2-0.9-0.6-1.4-0.5c-0.1,0-0.1,0.4,0,0.4c0.3,3.6-0.8,4.1-1.2,0.4
			C16,8,16.5,7,16.1,6.4c-0.2-0.5-0.9-0.7-1.4-0.8c-2.3-1-5.3-0.1-7.7-0.3c-0.1,0-0.1,0.5-0.1,0.5c0.2,1.9,0.2,3.8,0,5.8
			c-0.3,1.6-1.3,6-1.3,1.9c0-3,0-6.1,0.2-9.1c0,0,0-0.3,0-0.3C3.9,3.2,2,2.4,0.2,1.3C0.2,1.4,0.1,1.4,0.1,1.5z"/>
		<path class="st1" d="M19.9,9.1c0.1,3.3-0.5,6.5-0.1,9.7c0.1,0.8,0.2-0.4,0.2-0.6C19.6,15.2,20.2,12.1,19.9,9.1
			C19.9,9,19.9,9.1,19.9,9.1L19.9,9.1z"/>
		<path class="st1" d="M20,10.1c-0.4-2.3,1,1,1,1.8c0,0.6-0.1,1.3,0,2c0.1,0.9,0,0.9,0.4,1.6l0,0c1-0.5,1-0.9,1.3-2
			c0.2-0.8,0.1-2,0.3-2.9c0.5-2.1-0.2-1,0.7-1.6C24,9,24.6,6,25,9.9c0,0,0.1,0.4,0.1,0.2c0.2-0.9,2.1-2.5,3.1-1.6s0.2,1,0.3,1.6
			c0.1,0.8,0,1.9,0.5,2.6c1.2,1.5,1,0.6,1.4-0.4c0.1-0.2-0.1-0.5-0.1-0.7c0.4-2.5,0.6-2.1,2.4-1.6c3.3,0.8,2.5,2.1,2.6,5.2
			c0.1,4.3-0.4,8.7,0.5,12.9c0,0.2,0.1,0.2,0.2,0c1.1-5.6,0.4-11.2,0.5-16.9c0-0.5-0.2-1.3-0.2-0.4c0,1.7,0,3.4,0.1,5.1
			c0,1.1,0.1,2.3,0.2,3.5c0,1,0.2,9.1-0.7,5.6c-0.5-2-0.2-4-0.2-6c0-3-0.2-6-0.2-9c0,0,0-0.5-0.1-0.5c-1.8-0.1-3.5-0.7-5.1-1.6
			c0,0,0,0,0,0.1c-0.1,1-0.1,2-0.1,3C30,14.5,29,9.3,28.8,7.8c0,0,0-0.3-0.1-0.3c-1.1-0.2-2.2-0.2-3.2-0.1c0,0,0,0.1,0,0.1
			c-0.4,2-0.2,0.4-1.2,0l0,0c-0.5,0.5-0.8,1.1-1.5,0.8c0,0,0,0,0,0.1c-0.2,0.9-0.3,1.8-0.3,2.7c0,0-0.4,3-0.4,3
			c-1.3-0.2-0.8-2.2-0.8-3s0.4-3.4-1.3-2.5c-0.1,0,0,0.2,0,0.3c0,0.6,0,1.1,0.1,1.7C20,10.6,20,10.2,20,10.1z"/>
		<path class="st1" d="M36.7,11.2c1.8-0.2,1.3,1.1,1.3,2.5c0,0.4-0.1,2.9,0.6,3.2c1.7,0.7,1.1-5.6,1-6.2l-0.1,0.7
			c1.5,0.3,3-0.4,4.4-1.1l-0.1-0.6c-0.2,4.6-0.4,9.1,0.3,13.6c0,0.3,0.3,1,0.5,0.4c0.7-2,1.1-4.2,1-6.3c0-1.7-0.5-4,0-5.7
			c0.4-1.5,2.1-1.5,3.3-2.3l-0.3-1.2c-0.2,1.7-0.9,5,0.5,6.3h0.1c2.2-0.9,0-4.9,1.8-5.7L50.9,7l-0.3,0.2c-0.4,0.2,0,1.8,0.2,1.6
			L51,8.6c0.3-0.2,0-1.7-0.1-1.6c-0.6,0.2-1.1,0.8-1.2,1.4c-0.1,0.4,0.1,0.9,0,1.2c-0.5,1.1-0.8-0.4-0.7-0.9c0-0.1,0-1.2-0.3-1
			c-2.5,1.7-3.3,0.4-3.6,3.5c-0.3,3.8,0.5,7.6-0.9,11.2l0.5,0.4c-0.7-4.3-0.9-8.6-0.6-12.9c0,0,0-0.7-0.1-0.6
			c-1.4,0.7-2.9,1.4-4.4,1c-0.2,0-0.1,0.6-0.1,0.7c0,0.6,0,1.2,0,1.8s0.4,2.6-1.1,1.8c-0.5-0.2,0.1-2.6,0-2.9
			c-0.3-1.1,0.2-1.2-1.6-0.7C36.7,10.9,36.7,11.2,36.7,11.2L36.7,11.2z"/>
		<path class="st1" d="M35.3,25.3c-0.1,0.3-0.1,0.6-0.1,0.8c0,0.1,0.1,1,0.1,0.9s0.1-0.5,0.2-0.7s-0.1,0.5,0,0.7
			c0,1.1,0.3,2.3,0.4,3.4c0.1,0.9,0.2-0.5,0.2-0.8C35.9,28,35.9,29,36,29.4c0.1,0.3,0.2-0.4,0.2-0.5c0-0.5-0.1-1.5,0.1-1.8
			c0.1-0.2,0-0.6,0.2,0c0.1,0.3,0.2-0.4,0.2-0.4c0-1.2,0-2.4-0.1-3.6s-0.2-0.1-0.2,0.4c0,1,0.1,1.9,0.1,2.9l0.2-0.4l-0.2-0.6
			c-0.1-0.2-0.1,0-0.1,0.1c-0.2,1-0.3,2.1-0.3,3.1l0.2-0.5l-0.1-0.6c0-0.4-0.2-0.4-0.2,0c0,0.9,0,1.9,0.1,2.8l0.2-0.8
			c-0.2-1.4-0.4-2.9-0.6-4.3c-0.1-0.4-0.1,0.3-0.1,0.4l-0.1,0.4l0.1,0.7c0-0.4,0-0.8,0-1.2C35.4,25.6,35.4,25.1,35.3,25.3L35.3,25.3
			z"/>
		<path class="st1" d="M38.1,15.1c0,0.6,0,1.2,0.1,1.8c0,0,0,0.2,0.1,0.2c0.2-0.2,0.3-0.4,0.3-0.7l-0.1,0.1c0.2,0.5,0.2,1,0.2,1.5
			c-0.1,0.4-0.1,0.9,0,1.3c0.1,0.3,0.2,0.4,0.2,0c0.1-0.8,0.2-1.6,0.3-2.4L39,16.8l0.1,0.5c0,0,0.1,0.5,0.2,0.4
			c0.2-0.7,0.4-1.4,0.4-2.2c0.1-0.4,0-0.8-0.1-1.2c-0.2-0.3-0.2,0.2-0.2,0.3c0,0.5-0.1,0.9-0.3,1.4l0.2,0.4l-0.1-0.6
			c0-0.2-0.1-0.7-0.2-0.2c-0.1,0.8-0.2,1.6-0.3,2.3l0.2,1.3c0.2-1.4,0.1-2.9-0.4-4.2c-0.1-0.2-0.1,0-0.1,0.1c0,0.3-0.2,0.2-0.2,0
			S38.2,14.6,38.1,15.1L38.1,15.1z"/>
		<path class="st1" d="M39.7,11.6c0.3,0.4,0.5-0.3,0.7,0.2c0.1,0.2,0.1,0.3,0.2,0.4l0,0c0.1-0.1,0.3-0.4,0.5-0.4s0.1,0.6,0.1,0.6
			c0,0.2-0.1,0.8,0.1,1s0.1-0.3,0.1-0.4s0-0.9,0.2-1s0.1,0.1,0.2,0c0.2-0.3,0.6-0.5,0.9-0.5c0.2,0,0.1-1.7,0-1.7
			c-0.2,0-0.4,0.1-0.6,0.2c-0.1,0.1-0.3,0.5-0.5,0.2c-0.1-0.1-0.1,0.1-0.1,0.1c-0.2,0.6-0.3,1.2-0.3,1.9l0.2,0.7
			c0-0.9-0.1-1.8-0.3-2.7c0,0,0-0.1-0.1-0.1c-0.1,0.1-0.2,0.3-0.3,0.4s-0.2,0.2-0.3,0l0,0C40,10.7,39.7,11.1,39.7,11.6
			C39.7,11.6,39.7,11.7,39.7,11.6L39.7,11.6z"/>
		<path class="st1" d="M43.9,10.4c-0.2,4.4-0.1,8.8-0.1,13.2c0,0.1,0.2,1.1,0.2,1c0.4-1.1,0.4,1.5,0.5,1.5c0.1,1.2,0.3-0.6,0.3-1
			c-0.2-1.4,0.7-2.9,0.8-4.3c0-0.3-0.2-2.1-0.2-1.3c-0.2,1.6-1,3.1-1,4.8c0,1.8,0.1-1.3,0.1-1.9c0,0-0.1-0.6-0.2-0.4l-0.3,0.8
			l0.2,1.2C44.1,19.4,44.1,14.9,43.9,10.4C43.9,10.3,43.8,10.1,43.9,10.4L43.9,10.4z"/>
		<path class="st1" d="M45.6,11.5c0,0,0.6-0.5,0.7-0.5l-0.1-0.5v0.2V9.8c-0.1,0.5-0.1,0.9-0.1,1.4c0,0.2,0,0.5,0.1,0.7
			c0,0.2,0.2,0.4,0.2,0.5v-1.2v0.1l0.2,0.3c0-0.2,0-0.4,0.1-0.6l0.1-0.2v0.1c0.1,0.1,0.1,0.4,0.3,0.2s0.3-0.4,0.4-0.6
			s0.6-0.3,0.8-0.5c0.2-0.5,0.2-1,0-1.5c-0.4-0.3-0.8,0.2-1.1,0.5c-0.4,0.6-0.3,0-0.6-0.2l0,0c-0.3,1.2-0.4,2.4-0.2,3.6
			c0,0,0.1,0.7,0.2,0.3c0.2-0.7,0.1-1.5-0.2-2.2c-0.1-0.3-0.1-0.2,0,0.3s0.1,0.6,0,0.3c0-0.2,0-0.3,0-0.5c0-0.4,0-0.8-0.1-1.1
			c0,0,0-0.1-0.1-0.1c-0.4,0.4-0.6,0.9-0.7,1.4C45.6,11.1,45.6,11.4,45.6,11.5L45.6,11.5z"/>
		<path class="st1" d="M48.3,10.5c-0.1,2.3,0.1,4.7,0.6,7c0.1,0.7,0.2-0.2,0.2-0.4c0-0.5,0-1.1,0.1-1.6c0.1-0.4-0.1-0.8,0.1,0
			c0,0.1,0.1,0.4,0.2,0.1s0.2-1.3,0.4-0.5c0,0.1,0.1,0.1,0.1,0c0.4-1.7,0.6-3.5,0.5-5.3c0-0.6-0.2-1.8-0.2-0.5
			c0,0.9-0.1,1.8-0.2,2.7c0,0.3-0.1,1.6-0.3,0.8c0-0.2-0.1-0.1-0.1,0c-0.1,0.4-0.2,1.4-0.3,0.4c0-0.3-0.1-0.3-0.2,0
			c-0.1,1.1-0.2,2.2-0.2,3.3l0.2-0.4C48.7,14.2,48.6,12.4,48.3,10.5C48.3,10.4,48.3,10.5,48.3,10.5L48.3,10.5z"/>
		<path class="st1" d="M18.3,16.3c0,2.3,0.1,4.6,0.5,6.9c0.1,0.8,0.3,0.2,0.3-0.2c0-0.5,0-1.1,0.2-1.6c0,0,0,0,0.1,0l0.2-0.4
			l-0.2-0.4c0.2,1.4,0.3,2.9,0.4,4.3l0.4-0.5c-0.2-1.8,0.3-3.5,0.2-5.3c0-1.1-0.3-1.1-0.3,0s-0.3,2.2-0.4,3.2c0,1.1,0,2.1,0.1,3.2
			c0.1,1.1,0.4-0.1,0.4-0.5c-0.1-1.8-0.2-3.5-0.5-5.2c0,0-0.1-0.6-0.2-0.4l-0.2,0.2C19,19.3,19,19.7,19,19.7c-0.1,0.7-0.2,1.3-0.2,2
			c0,0.6,0-1,0-1.3C18.6,19,18.6,17.7,18.3,16.3L18.3,16.3L18.3,16.3z"/>
		<path class="st1" d="M15.6,11.2c0,1,0.1,2,0.1,2.9c0,0,0.1,0.6,0.1,0.5s0.1-0.2,0.2-0.3s0-0.6,0.1-0.2c0.2,0.9,0.2,1.8,0.2,2.7
			c0,0.3,0.2,1.8,0.3,0.7s0.2-2.4,0.2-3.6c0-0.2-0.1-1.7-0.2-1c-0.1,1.2-0.2,2.5-0.3,3.7l0.3,0.7c0-1.6-0.2-3.2-0.4-4.8
			c-0.1-0.4-0.1,0-0.1,0.1l-0.2,0.6l0.1,0.3C15.9,12.8,15.8,11.9,15.6,11.2L15.6,11.2L15.6,11.2z"/>
		<path class="st1" d="M1.8,2.7l1.3,2.6c0,0.2,0.1,0.1,0.1,0C3.3,4.7,4.6,5,4.9,5.2c1.2,0.8,0.4,5.6,0.5,7.1c0,2.7,0.2,5.4,0.3,8
			c0,0.5,0.3,1.2,0.3,0.3c0-1.3,0.2-2.5,0.4-3.8c0-0.7-0.1-1.3-0.2-2l-0.4,0.6c-0.3,0.5,0.2,2,0.1,2.1l0.4-0.6l-0.2-2
			c-0.2,0.9-0.5,5.4-0.4,2.5c0.1-2.6-0.2-5.4-0.3-8c0-1.4,0.5-4-0.1-5.3C5,3.1,3.8,3.8,3.4,3l0,0C3,3.4,2.5,2.5,1.8,2.3
			C1.8,2.5,1.8,2.6,1.8,2.7L1.8,2.7z"/>
		<path class="st1" d="M51.1,8.1c1.6-0.6,4.7,1.3,5.2,2.9c0,0,0,0.2,0.1,0.1l0.4-1.6c0,0,0.1,0.8,0.1,0.8c3.2-1.6,7.9-1.5,11.4-2.1
			c2-0.4,4.1-0.5,6.2-0.4C76,8,77.5,8.8,79,8.4l-0.1-1.2c-0.2,2.8-0.3,5.5-0.2,8.2c0,0.1,0.2,1.2,0.2,0.8c0.6-2.8,0.5,2,0.5,2.1
			c0.4,5.2,0.8-2.5,0.7-3.9c0.1,0.6,0.3,0.6,0.3,0l0.1-1.4c0-0.4-0.2-2.5-0.3-1.1l0.1,0.2c0-0.3-0.2-0.8-0.3-0.2
			c-0.4,3.2-0.7,6.5-0.7,9.7c0,0.7,0.3,2,0.4,0.5c0.2-3,0.2-5.9,0.1-8.8c0-0.1,0-0.9-0.2-0.9h-0.4c0,0-0.1,0.1-0.1,0.1
			c-0.7,3.4,0.1-6.4,0-4.7c0-0.1,0-1.2-0.1-1.2c-1.5,0.2-3-0.6-4.6-0.7c-2.1-0.1-4.2,0-6.2,0.4c-1,0.2-11.3,1.6-11.3,2.2
			c0-0.3-0.1-0.5-0.1-0.8c-0.1,0.4-4.6-1.5-5.7-0.5C51,7.7,51,7.9,51.1,8.1L51.1,8.1z"/>
		<path class="st1" d="M80.7,8.4c2.1-2.9,2.3,4.8,2.4,5.8c0.1,2.9,0.4,5.7,0.8,8.6c0.2,1.2,0.3-0.5,0.3-0.8l0.1-2.4
			c0,0.3,0.1,0.6,0.2,0.9c0.4-1.2,0.5-2.6,0.1-3.9c-0.1-0.2-0.2,1.2-0.1,1.5l-0.1,0.6l0.2,0.9v-0.9c0-0.1-0.1-1.2-0.2-0.8
			c-0.3,1-0.5,2-0.5,3.1c0,1.9-0.1-2.4-0.1-2.7c-0.4-3.9-0.1-7.8-0.8-11.6c0,0,0-0.2-0.1-0.2c-1.1,0.9-1.6-0.2-2.2,1.4
			C80.6,7.8,80.7,8.3,80.7,8.4L80.7,8.4z"/>
		<path class="st1" d="M86,14.8c0,1.6,0.1,3.2,0.3,4.8c0,0.4,0.2,0.9,0.2,0.2c0.1-1.1,0.1-2.3,0.2-3.4c0-0.3,0-0.7-0.1-1
			c-0.1-0.2-0.1-0.2-0.2,0.1l-0.1,0.7c0,0.2,0.1,1.4,0.1,1.4c0.9-0.8,0.8-2.2,0.8-3.3c0-0.6-0.2-0.6-0.2,0c0.1,0.6-0.1,1.2-0.6,1.7
			l0.1,1.4l0.1-0.7l-0.2-1c-0.1,1.1-0.1,2.3-0.2,3.4h0.2c-0.1-0.9-0.2-1.9-0.3-2.8c0-0.5-0.1-1.1-0.2-1.6V14.8L86,14.8z"/>
		<path class="st1" d="M87.5,10c0.9,0.3,1.8,0.4,2.7,0.4c0.4-0.2,0.9-0.2,1.2,0.1c0.3,0.8,0.5,1.6,0.5,2.4c0,0.9,0.2,0.9,0.2,0
			c0-0.7,0.4-3.6-0.5-3.9v1.5c0.5,0.2,1.1,0.2,1.6,0.1c0.3-0.1,1.5-0.8,1.6-0.2c0,0,0,0.1,0.1,0.1s0.7-0.4,0.9-0.7s-0.2-0.5,0.5-1
			l-0.1-0.4c0.1,1.1,0.2,2.2,0.2,3.4c0,0.1,0.1,1.2,0.2,0.8c0.2-1.1,0.4-2.1,0.6-3.2c0.1-0.4,0.1-0.8,0-1.3c0-0.1-0.1-0.7-0.2-0.3
			C97,8.4,96.9,9,96.8,9.7c0.3-0.6,0.5-1.2,0.3-1.9c0,0-0.8-0.8-0.8-0.8c-0.5,0.3-0.6,1.5-1.1,1.3l0,0h-0.3c0,0,0-0.1-0.1-0.1
			c-1,0.7-1.9,1.1-3.2,0.6c0,0-0.3,1.4,0,1.5s0.4,2.4,0.4,1.4c0-0.7-0.2-1.4-0.4-2.1c-0.2-0.5-0.2-0.8-0.7-0.9s-1.1,0.3-1.5,0.4
			c-0.7,0.1-1.3,0.1-2,0.2c0,0.1,0,0.3,0,0.4L87.5,10z"/>
		<path class="st1" d="M97.3,8.6c0.2-0.1,0.2-0.4,0.3-0.5c0-0.2,0-0.4,0-0.6c0-0.1,0-0.3,0-0.4c-0.1,0.3-0.2,0.7-0.2,1
			C97.2,8.2,97.2,8.3,97.3,8.6L97.3,8.6z"/>
		<path class="st1" d="M99.5,7.7c0.7-0.2,0.7,11.6,0.7,12.8c0,0.2,0.1,1.6,0.3,1.2c0.2-0.6,0.7-5,0.6-2.4c0,0.2,0.2,1.8,0.2,1.4
			c0.2-1,0.3-2.1,0.3-3.2c0-0.7-0.3-2-0.3-0.5c0,2.7,0,3.1,0.1,1.3c0-0.2-0.2-1.7-0.2-1.3c-0.4,2.3-0.4,4.6,0,6.9
			c0.1,0.8,0.3-0.5,0.3-0.7c-0.1-1.7-0.3-3.4-0.7-5c-0.1-0.4-0.2,0.8-0.2,0.9l-0.2,0.8l0.2,1.3c0.1-2.9,0.1-5.8-0.1-8.7
			c-0.1-1.5,0.1-3.8-0.6-5.2l0,0c-0.3,0.1-0.2,0-0.4,0.3C99.5,7.5,99.5,7.6,99.5,7.7L99.5,7.7z"/>
		<path class="st1" d="M101.2,18.5c-0.3,2.2-0.2,4.4,0.3,6.6c0.1,0.3,0.2-0.5,0.2-0.6C101.7,22.5,101.5,20.5,101.2,18.5
			C101.3,18.5,101.3,18.4,101.2,18.5L101.2,18.5z"/>
		<path class="st1" d="M101.6,18.4c-0.1,1-0.2,2-0.1,2.9c0,1.4-0.1,2.7,0,4c0,0.4,0.2,0.8,0.2,0.2C101.9,23.1,101.8,20.7,101.6,18.4
			L101.6,18.4z"/>
		<path class="st1" d="M101.7,7.9c1.2-0.2,1,0.6,1.3,1.5c0,0,0,0,0,0l0.5-1.3c0.1-0.2,0.1-1.4-0.1-1.4l-0.3-0.1c0,0-0.1,0.2-0.1,0.2
			l-0.2,0.1c-0.1,0.5-0.1,1,0,1.4c0.8,0.3,0.9,4.7,1.1,5.6c0,0,0.1,0.2,0.1,0.1s0.5-0.2,0.6-0.3l-0.1-0.6c0.1,1,0.1,1.9,0.1,2.9
			c0,0.3,0.2,1.8,0.3,0.7c0.3-2.7,0.4-5.5,0.4-8.2c-0.1-0.8-0.2-0.9-0.2,0.1c0,0.5,0,1,0,1.6c0.2,2,0.1,4.1-0.2,6.1l0.3,1.3
			c0-1.6,0-3.1,0-4.6c0-0.7-0.3-2-0.3-0.6s-0.1,3.1-0.1,4.6c0,0.2,0.2,1.8,0.3,1.3c0.7-3.6,0.2-7.1,0.2-10.8c0-0.3-0.2-1.7-0.2-0.7
			c-0.1,2.2-0.2,4.5-0.4,6.7c-0.1,0.5-0.1,1-0.1,1.5c0.1,0.7,0.2,1,0.2,0.1c0-0.8,0-1.7-0.1-2.5c0,0,0-0.7-0.1-0.6l-0.5-0.1
			c0,0,0,0-0.1,0s-0.2-4.6-1.3-5v1.4h0.2l0.1-0.2h0.3l-0.1-1.4c-0.2,0.6-0.6,1-0.8,0.1c0,0,0,0,0-0.1c-0.3,0.2-0.6,0.4-0.9,0.6
			c-0.1,0.1,0,0.6,0,0.6L101.7,7.9z"/>
		<path class="st1" d="M105.5,7.3c1-0.1,2,0.3,3,0.2c0.4,0,0.8-0.2,1.3-0.2c1,0,0.9,1.1,1,1.8c0,0.1,0.1,0.4,0.2,0.1
			c0.1-0.6,0.3-1.2,0.6-1.7c0.4-0.5,0.9-0.5,1.5-0.5V5l-0.3,0.2c-0.2,0.1-0.1,1.7,0,1.7l0.3,0c0.2,0,0.2-2,0-2
			c-0.8,0.1-1.4,0.1-1.8,0.8c-0.2,0.3,0.1,0.4-0.2,0.3c-0.2-0.1-0.4-0.2-0.6-0.4c-0.5-0.6-1.6,0.2-2.3,0.2c-1.1,0.1-2-0.1-2.7,0.9
			C105.4,6.9,105.4,7.1,105.5,7.3L105.5,7.3z"/>
		<path class="st1" d="M60.4,8.1c-0.8,0.4-1.7,0.7-2.6,1c-0.2,0.1-0.5,0.1-0.7-0.1c0-0.1-0.1-0.2-0.1-0.3c0.1-0.6,0.2-1.2,0.4-1.7
			c0.2-0.6-0.3-1.6-0.1-2.1C57.8,4.2,58.6,4.6,59,5C59.8,5.8,59.4,7.3,60.4,8.1z"/>
		<path class="st1" d="M83.8,3.1c0.1,0.6,0.4,1.2,0.7,1.8C84.6,5,84.8,5.2,85,5.3c0.6,0.2,1.2-0.4,1.7-0.9s0.9-1.1,1.6-1
			c0.2,0,0.3,0.1,0.4,0c0-0.1,0.1-0.1,0.1-0.2c0.1-0.6,0.1-1.4-0.5-1.6c-0.3-0.1-0.7-0.1-1,0c-1.4,0.3-2.8,0.3-4.2,0.6
			C83.4,2.5,83.6,2.8,83.8,3.1z"/>
		<path class="st1" d="M23,3.9c0.3-0.3,0.7-0.6,1.2-0.8c0.5-0.1,1.1,0.2,1,0.7c0,0.3-0.3,0.6-0.2,0.8s0.7,0.3,1.1,0.2l1.6-0.7
			c0.5-0.2,1-0.4,1.5-0.4c0.5,0,1,0.3,1.2,0.8C30.5,5,30.3,5.4,30,5.7c-0.3,0.3-0.8,0.5-1.2,0.5c-0.6,0.1-1.3,0.2-1.5,0.7
			s0,1-0.2,1.5c-0.2,0.5-0.8,0.8-1.3,0.6c-0.2-0.1-0.3-0.2-0.4-0.3c-0.5-0.7,0.1-1.7-0.3-2.4c-0.4-0.6-1-0.9-1.7-0.9
			c-0.4-0.1-1.7,0.1-1.7-0.4C21.6,4.6,22.8,4.1,23,3.9z"/>
	</g>
</g>
<path class="st1" d="M113.1,6.9c0.3,0,0.5-0.1,0.8-0.3c0.3-0.2,0.7-0.4,1-0.5c0.4-0.2,0.8-0.4,1-0.8c0.1-0.1,0.1-0.3,0.1-0.4
	c0-0.2-0.2-0.3-0.3-0.3c-0.1,0-0.2,0.1-0.2,0.2c-0.6,0.5-1.4,0.5-2.1,0.2c-0.1,0-0.3-0.1-0.4,0c-0.1,0-0.2,0.1-0.2,0.2
	c-0.2,0.3-0.4,0.5-0.6,0.8c-0.1,0.1-0.2,0.3-0.3,0.4C111.5,7.3,112.7,6.9,113.1,6.9z"/>
</svg>
