<svg xmlns="http://www.w3.org/2000/svg" viewBox="0 0 708.92 12.21"><defs><style>.cls-1{fill:#eef6fe;}.cls-2{fill:#c6ebf4;}</style></defs><title>1</title><g id="Слой_2" data-name="Слой 2"><g id="OBJECTS"><path class="cls-1" d="M247.9,1.49c-2.42-.06-4.85-.15-7.28-.26C238,1.12,236.07.5,233.41.39c-2.95-.12-6.67.26-9.62.22-5.79-.07-11.59.83-17.38.83-3.79,0-7-1.05-10.75-1-3.11,0-6.85.39-10,.25s-6.68.45-9.79.45c-4.28,0-8.11-.83-12.39-.68S154.95,1,150.66,1L130,1c-3.27,0-6.54-.45-9.82-.45-2.57,0-5.15.47-7.72.47s-5.35.62-8,.62C99.48,1.68,94.59,1,89.66,1c-4.32.07-8.64.33-13,.34-8.18,0-14.29-.71-24.55-.21-2.93.14-6.78.5-9.74.51-8.91,0-16.83-.82-25.5-.93-2.78,0-6.08.56-8.94.57-1.79,0-11.5.34-6.33,1.2,4.53.76,12.26.43,17.19.42h5.72V5.72c0,.14.34.25.76.25s.76-.11.76-.25V2.93h1.47v2c0,.19.46.34,1,.34h.72c.57,0,1-.15,1-.34v-2l20,0a38.51,38.51,0,0,1,6.09.31c1.42.24,2.56.64,4,.82A32,32,0,0,0,67,3.91q4-.35,8-.58V4.55c0,.14.34.25.76.25s.76-.11.76-.25V3.25c7.81-.4,15.77-.5,23.65-.25,3.52.28,7.06.55,10.66.64V5.95c0,.16.41.3.91.3h.35c.5,0,.91-.13.91-.3V3.67c1.4,0,2.8,0,4.2-.08v.82c0,.15.37.27.82.27h.13c.45,0,.82-.12.82-.27v-.9c8-.39,15.88-1.35,23.77-.86,2.36.15,4.64.42,7,.49s4.5-.06,6.73-.18c7.18-.37,14.89-.67,21.43.38a24,24,0,0,0,4.78.51,28.39,28.39,0,0,0,3.6-.5A33.24,33.24,0,0,1,191.66,3V5.22c0,.19.46.34,1,.34h.11c.56,0,1-.15,1-.34V3.06c3,.13,6,.43,9.05.61V4.91c0,.15.37.27.82.27h.13c.45,0,.82-.12.82-.27V3.76a48,48,0,0,0,5.56-.06,25.31,25.31,0,0,1,4.14-.17c1.64.15,2.85.73,4.56.71a11.61,11.61,0,0,0,3.41-.7c4.2-1.22,10.47-1.11,16-.89l1.55,0V4.8c0,.14.34.25.76.25s.76-.11.76-.25V2.7C244.39,2.67,247.27,2.37,247.9,1.49Z"/><path class="cls-2" d="M112.06,6.39h-.35c-.52,0-1.05-.14-1.05-.44V3.78c-3.6-.09-7.12-.37-10.53-.64C92.37,2.9,84.47,3,76.64,3.39V4.55c0,.55-1.81.55-1.81,0V3.48c-2.66.15-5.3.34-7.86.57h-.13a31.24,31.24,0,0,1-6.4.13,20.77,20.77,0,0,1-2.32-.46c-.55-.13-1.12-.27-1.74-.37a39,39,0,0,0-6.07-.31l-19.84,0V4.88c0,.33-.61.48-1.17.48h-.72c-.56,0-1.17-.15-1.17-.48V3.07H26.22V5.72c0,.55-1.81.55-1.81,0V3.08H18.83l-3.52,0c-4.51.06-10.13.14-13.69-.46C.24,2.43,0,2.25,0,2c.06-.78,7.9-.86,8-.86,1.38,0,2.88-.15,4.34-.29A44.84,44.84,0,0,1,16.91.6c4,0,7.84.26,11.59.46,4.46.24,9.07.49,13.91.47,1.91,0,4.16-.16,6.35-.31C50,1.14,51.1,1.06,52.14,1c6.45-.31,11.28-.14,16,0,2.78.1,5.41.19,8.36.19h.23c2.45,0,4.95-.09,7.36-.18C85.89,1,87.79.92,89.66.89c2.59,0,5.2.14,7.72.32,2.3.16,4.69.32,7,.32a35.62,35.62,0,0,0,4-.31,36,36,0,0,1,4-.31c1.28,0,2.58-.12,3.85-.24s2.58-.24,3.88-.24h.06c1.62,0,3.27.11,4.86.22s3.23.22,4.84.22H130l20.71,0c2.61,0,5.26-.16,7.83-.32,1.65-.1,3.35-.2,5-.26a50.57,50.57,0,0,1,6.68.33c1.83.17,3.71.35,5.67.35h.05c1.36,0,2.85-.12,4.29-.23A45.4,45.4,0,0,1,185.71.5c1.82.08,3.87,0,5.86-.11,1.44-.07,2.8-.14,4.09-.14h0a35.44,35.44,0,0,1,5.38.53,35.32,35.32,0,0,0,5.33.52h0c2.78,0,5.61-.21,8.34-.42,3-.22,6-.45,9-.41,1.33,0,2.83-.05,4.29-.12,1.82-.08,3.71-.17,5.33-.1a30.21,30.21,0,0,1,3.64.42,30.2,30.2,0,0,0,3.58.42c2.92.13,5.16.21,7.27.26a.14.14,0,0,1,.11.23c-.56.79-2.73,1.22-6.45,1.27v2c0,.55-1.81.55-1.81,0v-2l-1.41,0c-5.92-.23-11.95-.28-16,.89l-.52.16a9.75,9.75,0,0,1-2.93.55A11.73,11.73,0,0,1,216.27,4a14.17,14.17,0,0,0-1.92-.34,18.73,18.73,0,0,0-3.27.1l-.84.07a47.16,47.16,0,0,1-5.43.06v1c0,.29-.49.42-1,.42h-.13c-.48,0-1-.13-1-.42V3.81c-1.21-.07-2.45-.17-3.64-.26-1.69-.13-3.44-.26-5.13-.34v2c0,.33-.61.48-1.17.48h-.11c-.56,0-1.17-.15-1.17-.48V3.15h-.18a32.3,32.3,0,0,0-5,.35l-1,.16a18.48,18.48,0,0,1-2.66.34,20.17,20.17,0,0,1-4.1-.39l-.7-.12c-6.5-1-14.13-.76-21.4-.38h-.16c-2.15.11-4.38.23-6.58.17-1.48,0-2.94-.16-4.35-.28-.88-.07-1.78-.15-2.68-.21a130.81,130.81,0,0,0-17,.44c-2.16.15-4.4.31-6.61.42v.76c0,.29-.49.42-1,.42H118c-.48,0-1-.13-1-.42V3.74c-1.41.05-2.69.08-3.9.08h0V5.95C113.11,6.25,112.58,6.39,112.06,6.39ZM91.44,2.72q4.37,0,8.71.13c3.45.27,7,.55,10.66.64a.14.14,0,0,1,.14.14V5.95a1.39,1.39,0,0,0,.76.16h.35a1.22,1.22,0,0,0,.77-.17V3.67a.14.14,0,0,1,.14-.14h0c1.3,0,2.67,0,4.19-.08a.21.21,0,0,1,.1,0,.14.14,0,0,1,0,.1v.82a1.43,1.43,0,0,0,.68.13h.13a1.13,1.13,0,0,0,.68-.15V3.51a.14.14,0,0,1,.14-.14c2.25-.11,4.53-.27,6.74-.42a131.18,131.18,0,0,1,17-.44c.9.06,1.81.13,2.69.21,1.41.12,2.87.24,4.34.28,2.19.06,4.41-.06,6.55-.17h.16c7.28-.38,14.93-.66,21.46.39l.71.12a19.54,19.54,0,0,0,4,.39,18.18,18.18,0,0,0,2.62-.34l1-.17a33.23,33.23,0,0,1,5.41-.35.14.14,0,0,1,.14.14V5.22a1.44,1.44,0,0,0,.88.19h.11a1.35,1.35,0,0,0,.88-.2V3.06a.14.14,0,0,1,0-.1.13.13,0,0,1,.11,0c1.74.07,3.54.21,5.29.35,1.24.09,2.51.19,3.77.27a.14.14,0,0,1,.13.14V4.91a1.43,1.43,0,0,0,.68.13h.13a1.13,1.13,0,0,0,.68-.15V3.76a.14.14,0,0,1,0-.1.13.13,0,0,1,.11,0,47.49,47.49,0,0,0,5.54-.06l.84-.07a19.05,19.05,0,0,1,3.32-.1,14.55,14.55,0,0,1,2,.35,10.77,10.77,0,0,0,2.51.36h.07a9.51,9.51,0,0,0,2.85-.54l.52-.16c4.06-1.18,10.12-1.13,16.07-.9l1.54,0a.14.14,0,0,1,.14.14V4.8a1.45,1.45,0,0,0,.62.11,1.06,1.06,0,0,0,.63-.13V2.7a.14.14,0,0,1,.14-.14c3.21,0,5.36-.37,6.14-.93-2-.05-4.17-.13-6.94-.25A30.45,30.45,0,0,1,237,1a30,30,0,0,0-3.6-.42c-1.62-.07-3.49,0-5.31.1-1.46.07-3,.13-4.31.12-3,0-6,.19-9,.41-2.74.2-5.57.42-8.36.42h0A35.61,35.61,0,0,1,201,1.06a35.2,35.2,0,0,0-5.34-.52h0c-1.28,0-2.64.07-4.08.14-2,.1-4.05.2-5.89.11a45,45,0,0,0-5.48.22c-1.44.11-2.93.23-4.31.23h-.05c-2,0-3.86-.18-5.69-.35a50.6,50.6,0,0,0-6.65-.33c-1.67.06-3.37.16-5,.26-2.57.15-5.23.31-7.84.32L130,1.17h-.06c-1.62,0-3.27-.11-4.86-.22s-3.23-.22-4.84-.22h-.06c-1.28,0-2.59.12-3.85.24s-2.58.23-3.87.24a35.71,35.71,0,0,0-4,.31,35.94,35.94,0,0,1-4,.31h-.08c-2.33,0-4.69-.16-7-.32-2.52-.17-5.12-.36-7.7-.32-1.86,0-3.76.1-5.59.16-2.42.08-4.91.17-7.37.18h-.22c-3,0-5.72-.1-8.38-.19-4.67-.16-9.5-.33-15.94,0-1,0-2.17.13-3.38.21-2.19.15-4.45.3-6.37.31-4.83,0-9.46-.23-13.92-.47-3.75-.2-7.62-.41-11.58-.46-1.42,0-3,.13-4.57.28s-3,.28-4.36.29c-2,0-7,.24-7.64.59a5.21,5.21,0,0,0,1.33.33c3.54.59,9.14.52,13.64.46l3.52,0h5.72a.14.14,0,0,1,.14.14V5.72a1.45,1.45,0,0,0,.62.11,1.05,1.05,0,0,0,.63-.13V2.93a.14.14,0,0,1,.14-.14h1.47a.14.14,0,0,1,.14.14v2a1.43,1.43,0,0,0,.88.2h.72a1.35,1.35,0,0,0,.89-.2V2.93a.14.14,0,0,1,.14-.14l20,0a38.52,38.52,0,0,1,6.12.31c.62.1,1.2.24,1.76.37a20.5,20.5,0,0,0,2.29.45,31,31,0,0,0,6.34-.13h.13c2.61-.23,5.31-.42,8-.58a.15.15,0,0,1,.11,0,.15.15,0,0,1,0,.1V4.55a1.45,1.45,0,0,0,.62.11,1.06,1.06,0,0,0,.63-.13V3.25a.14.14,0,0,1,.14-.14C81.46,2.85,86.46,2.72,91.44,2.72Z"/><path class="cls-2" d="M5.33,3c3.15.23,6.31.33,9.47.37,2.26,0,7.38-.9,9.27.7.32.27.87,2.66,1.13,3.07t0,0l.84-.6c0,.14.06-.26.06-.3l.14-2.34c0,.1.07.51.06.52.94-2.11,1.57.91,2.05,2.37t0,0q.21-.83.93-.77c.09,0,0-.63,0-.69.1.85.49.53.89.2,3.72-3.05.27-1.39,3.9-2.08,4.66-.89,10.46.08,15.21.17s9.37,1,14.08,1.2a37.58,37.58,0,0,0,6.85-.7c2.57-.36,4.48-1.53,5.09,1.66,0,0,0,.16,0,.14l.33-.74c-.14.23.11.87.06,1l.47-.83a4.54,4.54,0,0,0,0-.91c.4-.27-1.79-1.58-2.06-1.65-2.1-.54-5.19.71-7.29.92-5.2.5-10.44-1-15.67-1.13-5.38-.16-10.77-.17-16.15-.15-1.5,0-3.65-.47-4.75.64-.55.55.22,2.31-1.05,1.8a3.37,3.37,0,0,0,0,.7.72.72,0,0,0-.57-.44v0Q27.14,4.9,27.59,2.9s0-.19,0-.19A1.22,1.22,0,0,0,26.26,3c-.1.06,0,.6,0,.69l.13-.59c0-.07,0-.6-.07-.48A10.24,10.24,0,0,0,26,5.49s0-.06,0,0L24.3,3.27c0-.06,0-.58,0-.58-6.31.06-12.63-.07-18.93.14a.3.3,0,0,0,0,.16Z"/><path class="cls-2" d="M4.36,2.9a50.94,50.94,0,0,0,10.94.67c3.27-.08,6.64-.73,9.86,0,0,0,.11-.8,0-.83-3.2-.78-6.61-.08-9.86,0-3.64.13-7.28-.07-10.92,0,0,0,0,.09,0,.09Z"/><path class="cls-2" d="M25,3.12c-.28.08-.31,0-.4.31a3.2,3.2,0,0,0,0,.55l.21-.34c.05-.08,0-.5,0-.52a1.23,1.23,0,0,0-.36,1.26c.05.39.21.75.3,1.13,0,.14.25.73,0,.38-.11-.17-.18-.37-.3-.54,0,0-.11.55,0,.72l.57,1c0,.06.08-.38.08-.4q0-.29,0-.57l-.07.38.16.15s0,0,0,0l.2-.19-.05-.78,0,0c0,.1-.11.76,0,.8.75.2.65-1.12.57-1.52s-.1.48-.08.6-.39.56-.47.66c-.23.28-.4.5-.58.06l0,.69a.71.71,0,0,1,.22.43c.07.54.14-.35.1-.52a1.37,1.37,0,0,0-.31-.64,2.67,2.67,0,0,0,0,.69q.08.32.18.63s0,.08.06,0A2.84,2.84,0,0,0,26,5l-.08.6c0-.14-.38.14-.51.11l0,.8,0,0a2.08,2.08,0,0,0-.05-.78l-.32.07C25,5.67,25,6,25,6q0,.28,0,.57l.08-.29-.58-.92v.72a2,2,0,0,1,.33.79c0,.24.1,0,.11-.09a6.82,6.82,0,0,0,0-1.47c-.08-.6-.47-1.15,0-1.66l0-.51-.21.3,0,.55a3.75,3.75,0,0,1,.37-.75.29.29,0,0,0,0-.11Z"/><path class="cls-2" d="M27.64,3.68a3.36,3.36,0,0,0-.13,2.1c0,.14.09.17.1,0s0-.48.07-.71l-.14-.35a1.75,1.75,0,0,0,.38,1.34l0,0a.52.52,0,0,0,.25-.42l-.05.14.11.09s0,.1.06,0l.16-.15-.06-.91a5.8,5.8,0,0,0,0,2.17l.09-.79-.32-.84c-.07-.18-.1.53-.09.61a2.76,2.76,0,0,0,.45,1.26c.06.09.1-.35.1-.34l0-1c0-.18-.13-1-.16-.37l-.05,1.1.1-.34a1.68,1.68,0,0,1-.35-.77l-.09.61.31.94c.06.18.1-.09.11-.13a1.67,1.67,0,0,0,0-.66,1.49,1.49,0,0,1,0-.69,3.78,3.78,0,0,0-.08-.83c-.23.15-.1.15-.33,0,0,0-.05.16-.05.14q-.23.12-.31-.06t-.08,0c0-.08-.09-.82-.13-.44a1.3,1.3,0,0,0,0,.41,3.84,3.84,0,0,1,.12-1.19.57.57,0,0,0,0-.06Z"/><path class="cls-2" d="M76.62,3.44C85.75,4,95,3.29,104.1,3.67c1.84.07,5.2-.24,6.28.68.37.31.79,1.92,1.29,2.45t0,0c.64-.85.87-2.52,1.24-2.71.92-.46,3.64,0,4,0-.59,0,1.29,1.77.71,1.24t0,0c2.67-2.54,9.42-1.69,12.92-1.83,4.58-.18,9.17-.2,13.76-.2,8.44,0,16.91-.1,25.35.16,3.33.1,6.6.43,9.92.71s7.15-.79,10.16-.27c4,.68-.09.27,1.42,1.16,0,0,1.78,1.4,1.67.75,0,0,0,.32.12.24a4.83,4.83,0,0,0,1.22-1.79,1.41,1.41,0,0,0,0-1l-.4-.61,0,1c3,0,6.06.48,9.06.67l-.1-1.07c-.32,1.68-.28,2.38,1,3.73t.06,0a24.92,24.92,0,0,0,1.62-2.54c.07-.13.16-1.2-.06-1.2h-.75l0,1.2c6,0,12.5,1,18.35,0s10.85-1.72,16.66-.73c.09,0,.19-1.17,0-1.21-5.77-1-11-.24-16.66.72s-12.42.08-18.35.06c-.15,0-.16,1.19,0,1.2l.75,0-.06-1.2c-.68,1.27-1,1.5-.54,2.89.06.19.17-.85.09-1.09l-.17-.57s-.05-.12-.09-.06q-.57,1.55-1.67-.29c0-.13.08-1.06-.1-1.07-3-.16-6.06-.5-9.05-.49-.17,0-.05.91,0,1,.22.74-.81.92-.73,1.46,0-.05,0-.24-.09-.26-1-.28-1.26-.65-1.21-1.58,0,0,0-.7-.11-.68-5.6,1-10.73.65-16.35.23-6.66-.5-13.38-.37-20.05-.4s-13.36-.14-20,0c-1.79,0-17.67-.36-18,1.7,0-.11.07-.92-.09-.93-1.31-.08-3.55-.59-4.7.29-.19.15,0,.66-.06.82a4.64,4.64,0,0,0-.27,3s.08.39.12.18l.33-1.66a3.78,3.78,0,0,0-.09-.92l-1.71-.85c0-.1.09-.94-.07-.94-11.24-.14-22.9-1-34.09.19,0,0,0,.32,0,.33Z"/><path class="cls-2" d="M75,3.44a4.35,4.35,0,0,0,.61,3.19s0,0,0,0a7.92,7.92,0,0,0,1.27-2.69,2.06,2.06,0,0,0,0-.68s-.07-.37-.11-.18a6.26,6.26,0,0,1-1,2.11c-.29.45-.41.2-.59-.18A2.68,2.68,0,0,1,75,3.54s0-.14,0-.11Z"/><path class="cls-2" d="M110.47,3.56a21.29,21.29,0,0,0,.88,2.74l0-1L111,4.61a7.07,7.07,0,0,0-.06.87,6,6,0,0,0,.66,1.85s0,0,0,0l.46-.68L112,6.27a8.66,8.66,0,0,1,0,1.07L112.2,7l-.08-.4L112,7l.32.32s0,0,0,0,.28-.71.54-.45t0,0a.86.86,0,0,0,.22-.7,3.33,3.33,0,0,1,.51-1.84c.15-.24-.1-1-.07-1A4,4,0,0,0,113,4.9a4.88,4.88,0,0,0,0,.66q0,.14,0,.28.1.62-.27-.23s-.05,0-.07.05c-.14.39-.32.6-.62.27-.08-.09-.1.37-.1.38A5.85,5.85,0,0,0,112.13,8c.07.25.14-.31.14-.34a15.82,15.82,0,0,0-.08-1.78s0-.32-.11-.24c-.21.29-.3.56-.61.28a2.63,2.63,0,0,1-.4-1.16l-.06.87.35.75c0,.1.1-.38.1-.4a1.68,1.68,0,0,0-.08-.69c-.23-.55-.43-1.47-.92-1.83a1,1,0,0,0,0,.13Z"/><path class="cls-2" d="M117.11,3.85c.15.37.58,1,.49,1.38a2.9,2.9,0,0,0,.09,1l.58-.58c.12-.12.41-.52.54-.25L118.74,5v.1s.09.57.14.32l.21-1.13a2.44,2.44,0,0,0,0-.69s-.05-.4-.11-.32c-.27.39-.55.77-.86,1.14l.12.4V4.57s-.06-.48-.12-.39a1.69,1.69,0,0,0-.13.2A1.32,1.32,0,0,0,118,5c0,.05,0,.45.12.38a1.12,1.12,0,0,0,.13-.16l-.12-.39v.25s.05.49.12.4q.45-.58.85-1.18l-.09-1-.21,1.13.14.32a1,1,0,0,0-.21-.66s0,0,0,0c-.34.35-.69.68-1,1l.11.89a4.27,4.27,0,0,0,0-1.46c-.06-.33-.24-.89-.61-1,0,0,0,.19,0,.21Z"/><path class="cls-2" d="M191.67,4.1c-.4,0-.24,2-.22,2.23,0,.05.06.73.19.6l.59-.6-.2-.84q0,.2,0,.39c0,.06.07,1,.21.89s.22-.22.32-.33l-.12-.09.06.19a.16.16,0,0,0,.08.13.7.7,0,0,1,.36-.09l-.12-1.8q-.14.65-.3,1.29a3.84,3.84,0,0,0,0,1.39c0,.11.14.76.24.36a5.93,5.93,0,0,1,.3-1c0-.08.51-.9.59-.78l-.08-1.79,0,.09.08-.14-.12.08.09,2a5,5,0,0,0,.24-1.8c0-.1,0-.91-.16-.93s-.15.61-.15.69q0-.26-.07.11a3,3,0,0,0-.08,1.24c0,.1.07.83.21.7s.23-.7.23-1a1.91,1.91,0,0,0-.21-1.16s-.06,0-.08,0a4.24,4.24,0,0,0-1,2l.21,1.75q.15-.69.29-1.37c0-.17.13-1.84-.12-1.8a.73.73,0,0,0-.36.12l.08.13-.06-.18c0-.06-.05-.17-.12-.09l-.32.38.2.64q0-.19,0-.38c0-.05-.06-.74-.19-.61l-.59.62.14.22a5.6,5.6,0,0,1,0-1.36s0,0,0,0Z"/><path class="cls-2" d="M203,3.56c-.13-.11-.18,1.19-.17,1.28a6.2,6.2,0,0,0,.54,1.48.15.15,0,0,0,.08.13l.3-.2-.13-1.88a3,3,0,0,0,.14,2.11l0,0a.93.93,0,0,0,.27-.19l-.17-.54,0,.26c0,.07.08.64.21.49a1,1,0,0,1,.43-.26L204.4,6l0,.13,0-1.77A7.07,7.07,0,0,0,204,6a5,5,0,0,0,0,1.23s.12.63.21.46c.36-.75.89-1.4,1.27-2.14a2.37,2.37,0,0,0,.08-1.13c0-.08-.13-.77-.2-.64-.36.7-.91,1.27-1.28,2l.21,1.69c.06-.44.28-.8.37-1.22a4.38,4.38,0,0,0,0-1.51s-.06-.56-.16-.52a1.22,1.22,0,0,0-.53.33l.21.49,0-.28s-.1-.59-.17-.54-.27.24-.3.21l0,0c-.27.2-.31.12-.51-.12a.84.84,0,0,0-.14-.14c-.24-.17.29-.29,0,.42,0-.11.13-.81,0-.92Z"/><path class="cls-1" d="M240.62,1.23s65.54-.29,69.54.2a115.62,115.62,0,0,0,16.5.13,127,127,0,0,1,13.5-.2c5.37.31,10.35-.08,13.88,0,7.38.08,40.22-.66,52.88-.16,10.75.42,51.25.48,61-.3,3.9-.31,27.75.92,33.75.75s16.87-.9,32.63-.14c6.16.3,10.88.47,13.88,0s5-.84,8.5-.07,16.29-.42,20.59-.24c5.7.24,26.58-.81,35.91.13,10.46,1.06,13.37-.16,21.87-.2s37.79.79,60.75-.59c4.44-.27,12.46-.51,12.83.2.58,1.11-3.79,3.05-14.46,2.68-8.5-.3-19.87-.22-30.62-.22-6.84,0-21.12-.66-28.37-.3-4,.2-18.5,1.62-25,1.11s-20.65-.4-24.67-.29c-23.33.66-38.33.51-45.33-.16s-13.93-.42-23.37.18C504,4.55,484,2.22,471.66,3c-8,.51-28.5,1.07-33.5.22-4.35-.74-24.94-.86-30.13-.31-10.82,1.15-32.23.53-36.37.2-9.25-.74-20,2.17-32.5.66A163,163,0,0,0,322,3.32c-16,1.32-40.37.53-42.37-.07s-7.75-.76-14.5-.62c-2.16,0-9.5,1.19-11.5,1.08S240.09,3.7,240.62,1.23Z"/><path class="cls-2" d="M346.88,4.47A64.22,64.22,0,0,1,339.13,4a162.4,162.4,0,0,0-17.07-.46c-16.28,1.34-40.49.52-42.47-.08-1.8-.54-7.06-.76-14.42-.61-.94,0-2.88.25-4.94.5a58,58,0,0,1-6.58.59l-1.22,0c-5.22-.13-10.71-.46-11.84-1.9a1,1,0,0,1-.21-.85l0-.2h.2c2.67,0,65.6-.29,69.57.2,4.29.52,10.73.36,16.46.13l2.31-.1a102.75,102.75,0,0,1,11.22-.09c3.46.2,6.72.11,9.61,0,1.54,0,3-.08,4.26-.07,2.5,0,8.09,0,14.55-.12,12.65-.16,30-.37,38.33,0,10.25.41,51.14.48,61-.3,2-.16,9.32.09,17,.35,6.82.24,13.88.48,16.75.4l3.7-.13c6.37-.25,16-.63,28.95,0,6,.29,10.8.47,13.83,0l.56-.08a19,19,0,0,1,8,0c2.1.46,7.71.2,12.66,0,3.19-.15,6.2-.29,7.89-.22,2,.09,6.08,0,10.76-.09,8.54-.17,19.17-.39,25.16.22a71.29,71.29,0,0,0,14.23.14C629.66,1,632,.88,635,.87c1.93,0,4.9,0,8.66.07,12.84.15,34.33.41,52.08-.66,2.09-.13,12.53-.7,13.07.33a.72.72,0,0,1-.06.74C707.95,2.68,703,4,694.15,3.65c-7-.24-16.14-.23-25-.22h-5.66c-2.46,0-5.92-.09-9.59-.18-6.63-.17-14.14-.35-18.77-.12-1,0-2.5.17-4.46.31-6.22.47-15.62,1.18-20.57.79-6.37-.5-20.39-.41-24.64-.28-21.74.61-37.85.56-45.36-.16-6.85-.65-13.75-.43-23.34.18-6.49.41-14.87,0-23-.36-7.88-.37-16-.75-22.14-.36-7.73.5-28.42,1.09-33.56.22-4.34-.74-25-.84-30.06-.31-11.16,1.18-32.66.5-36.42.2a80.11,80.11,0,0,0-12.9.44C355.06,4.13,351.08,4.47,346.88,4.47ZM325.21,3c4.46,0,11.56.25,14,.54,7,.85,13.66.28,19.5-.22a80.59,80.59,0,0,1,13-.44c3.75.3,25.2,1,36.33-.2,5.08-.54,25.83-.43,30.19.31,5,.85,25.95.26,33.44-.22,6.13-.39,14.29,0,22.19.36,8.1.38,16.48.77,22.93.36,9.61-.61,16.53-.84,23.41-.18,7.5.71,23.59.77,45.3.16,4.26-.12,18.31-.21,24.69.29,4.91.39,14.29-.32,20.49-.79,2-.15,3.51-.27,4.47-.31,4.65-.24,12.18,0,18.81.12,3.66.09,7.12.18,9.58.18h5.65c8.83,0,18,0,25,.22,9.19.32,13.58-1.1,14.19-2.07.08-.13.06-.2,0-.25-.5-.45-6.92-.41-12.59-.06-17.77,1.07-39.27.82-52.11.66-3.76,0-6.72-.08-8.65-.07-3,0-5.35.18-7.58.34a71.62,71.62,0,0,1-14.32-.14c-6-.61-16.58-.39-25.1-.22-4.69.09-8.74.17-10.79.09-1.67-.07-4.67.07-7.84.22-5,.23-10.62.5-12.79,0a18.55,18.55,0,0,0-7.85,0l-.56.08c-3.07.46-7.91.27-13.92,0-12.92-.62-22.54-.25-28.91,0l-3.7.13c-2.88.08-9.94-.16-16.78-.4-7.35-.25-14.94-.52-17-.35-9.84.79-50.78.71-61,.3-8.35-.33-25.66-.11-38.3,0-6.74.08-12.05.15-14.57.12-1.25,0-2.7,0-4.24.07-2.89.08-6.17.17-9.65,0A102.31,102.31,0,0,0,329,1.7l-2.31.1c-5.75.23-12.21.4-16.54-.13-3.82-.47-64.92-.22-69.27-.2a.54.54,0,0,0,.11.23c1.14,1.46,8.64,1.64,11.46,1.71l1.23,0a59.71,59.71,0,0,0,6.49-.58c2.07-.25,4-.48,5-.5,4.36-.09,12-.13,14.58.63,2,.59,26,1.4,42.28.06C322.67,3,323.81,3,325.21,3Z"/><path class="cls-1" d="M242.89,1.39a9.44,9.44,0,0,1-3.22-.07c-.85.28-.17.74.53,1.06a4.64,4.64,0,0,0,1.38.43,9.27,9.27,0,0,0,1.49,0,36.6,36.6,0,0,0,3.68-.29,5.21,5.21,0,0,0,1.18-.25c.29-.12.39-.31.1-.43a3.56,3.56,0,0,0-.94-.16q-2.59-.21-5.23-.36"/><path class="cls-2" d="M239.93,4.24c-.26.67.27,1.36.64,1.85h0c.46-.31.43-.8.35-1.31,0,0,0-.17-.06-.11l-.51,1.08.05.85c.19-.45.41-.88.63-1.31a1.19,1.19,0,0,0,0-.54s0-.35-.07-.3a8.38,8.38,0,0,0-.63,1.3,1.33,1.33,0,0,0,0,.55s.06.35.08.31l.33-.71a.93.93,0,0,0,.1-.57c0-.73,0,0-.38-.13-.1,0-.29-.27-.36-.35a.66.66,0,0,1-.17-.55s0-.06,0-.07Z"/><path class="cls-2" d="M241.79,3.13c7.13,1.88,14.4.69,21.6.05a71.56,71.56,0,0,1,10.48-.25c3.48.2,6.74,1.27,10.13,1.65,7.67.85,15.95.12,23.67.06,3.7,0,7.41-.11,11.1-.34,2.16-.14,10.62-2,11.73.57,0,0,0,.12.08.06a2.11,2.11,0,0,0,.12-2.17.1.1,0,0,0-.05-.08.86.86,0,0,1-.94-.14l0,1.16c9.43.52,18.61,1.18,28.06.6,4.3-.26,8.58-.48,12.89-.49C373.08,3.8,383,2.68,384.4,5t.06,0c.92-1.2,5.23-.57,6.53-.58a34.24,34.24,0,0,1,6.27.06l0-1.31a.39.39,0,0,1-.44,0c-.08,0-.23,1.25,0,1.31a.39.39,0,0,0,.44,0c.19-.08.16-1.28,0-1.31-4.24-.72-8.81.32-13.06.2-5.37-.14-10.76-.81-16.21-.71-6.28.12-12.54.81-18.82.86-6.48,0-13-.54-19.41-.94-.13,0-.13,1.07,0,1.16.61.35.53-.47.55-.47-1.58-.13-2.82-.68-4.52-.66-4.17,0-8.37.7-12.55.83-8.48.26-17,.09-25.45.06-7.64,0-14.88-2-22.7-1.32-8,.66-15.29,1.21-23.3.6,0,0,0,.38,0,.39Z"/><path class="cls-2" d="M242.67,2.81c-.58-.3-1-.09-1.1.54a4,4,0,0,0,.31,1.56s0,.11.06,0c.11-.28.31-.49.41-.78l-.09-1c-.1.34-.85,2.6-1.44,1.8l.08.57V5.5s-.06-.66-.13-.57a2.16,2.16,0,0,0-.34,1.7l.15-.59a.34.34,0,0,1,.42-.33L240.92,5v.09a3.43,3.43,0,0,0,.1.71c.07-.05.45-.08.45-.13l.12-.47c.07.24.11,0,.18-.12l.22-.37a2.18,2.18,0,0,0,.25-.6,3.23,3.23,0,0,0-.06-1.46c-.06-.22-.11.53-.1.6l0,.4.09-.68L242,2.66c-.05-.1-.1.38-.1.4a1.44,1.44,0,0,0,.08.7l.18.28a2.71,2.71,0,0,0,.09-.68l0-.39-.1.6c-.06-.23-.15.07-.2.14s-.15.23-.22.35a2.07,2.07,0,0,0-.25.6,3.16,3.16,0,0,0,.07,1.49c.07.24.12-.29.12-.33a1.62,1.62,0,0,0-.38-1.29l0,0L241,4.7l.1.71c0-.39,0-.77-.32-1l0,0a3.5,3.5,0,0,0-.32,2.18c0,.16,0,.32.13.21s0-.66,0-.8c.05.54,0,.29.27,0l-.13-.57c0,.62.26,1.22.91.51a2.35,2.35,0,0,0,.37-.89c.12-.34.28-.65.38-1a1.83,1.83,0,0,0,0-.66s-.08-.37-.1-.3a1.6,1.6,0,0,1-.27.5c-.24.29,0,.09-.22,0-.05,0-.11.17-.06.09a1.16,1.16,0,0,1,.17-.21c.23-.23.53-.39.77-.61,0,0,0-.15,0-.16Z"/><path class="cls-2" d="M240.1,4.83A17.39,17.39,0,0,0,240.64,7a.08.08,0,0,0,0,.07,1.38,1.38,0,0,0,.89-.84,1.9,1.9,0,0,0-.06-1.15c0-.08-.08.17-.08.17a1.93,1.93,0,0,0,0,.54l0-.31-.06.09c-.11.05-.22.2-.32.27-.31.2-.37.08-.49-.22s-.19-.78-.43-1a1.25,1.25,0,0,0,0,.17Z"/><path class="cls-2" d="M240.79,6v.11c0,.06,0,.44,0,.47s0-.35,0-.39V6.09c0-.13-.07-.29-.08-.06Z"/><path class="cls-2" d="M329.49,3.4a.93.93,0,0,1-.06.63,1.38,1.38,0,0,0,0,.57,3.61,3.61,0,0,0,.08.44s.47-.44.44-.26a2.52,2.52,0,0,0,0,.74c0,.07,0,.33.11.14a4.88,4.88,0,0,1,.61-1.26l-.07-1.06-.21.59a1.69,1.69,0,0,0,0,.61,4.39,4.39,0,0,0,.09.48l.23-.22,0-1.1-.34.39c-.14.16-.21.35-.35.18a1.68,1.68,0,0,1-.15-.52l-.18-.6c-.06-.22-.1.17-.1.21a2.87,2.87,0,0,0,0,.78,7.2,7.2,0,0,1,.16,1.46s0,.61.1.59.07-.53.07-.59a12.7,12.7,0,0,0-.28-2.45l-.05,1,.4,1.4s0,.1.07.06l.68-.81c.1-.12,0-.48,0-.61a4.81,4.81,0,0,0-.09-.48l-.23.23,0,1.09.21-.6a1.79,1.79,0,0,0,0-.68c0-.05-.06-.45-.1-.38a4.77,4.77,0,0,0-.64,1.36l.12.88a5.12,5.12,0,0,0-.11-2,.09.09,0,0,0,0-.07l-.47.48.06,1a3.31,3.31,0,0,0,.18-1.14,1.5,1.5,0,0,0-.16-.88,2.18,2.18,0,0,0,0,.4Z"/><path class="cls-2" d="M329.16,3.49a.65.65,0,0,1-.31-.26l0,.53.27.61.06-.59L329,3.21V4a3.15,3.15,0,0,0,.81.47s0-.24.05-.24l0-.35-.13-.38q0,.1,0,.21c0,.16.1.93.13.36,0-.1,0-.21,0-.31s-.1-1-.13-.38l0,.37.05-.24a2.94,2.94,0,0,1-.8-.41s0,.73,0,.83l.18.53c0,.14.06-.07.07-.11a1.68,1.68,0,0,0,0-.56,1.1,1.1,0,0,0-.37-.68,0,0,0,0,0,0,0v.06c0,.06,0,.53,0,.54s.2-.08.31-.09,0-.21,0-.21Z"/><path class="cls-2" d="M331.17,3.61l-.16,0s0,.18,0,.19v.11s0,.18,0,.18l.75.29h0c.49,0,.91-.25,1.4-.27.27,0,.48.13.73.11.08,0,.06-.51.06-.53V3.6c0-.06,0-.52-.08-.53A13.69,13.69,0,0,0,331.73,3c-.09,0-.11,1.11,0,1.13a6.84,6.84,0,0,0,1.61.07c.1,0,.1-1.1,0-1.11h-.1l0,0,0,0c-.06.1-.07,1.1,0,1.09a3,3,0,0,1,2.67,1.22c0,.06.06,0,.06-.06a1.73,1.73,0,0,0-.23-1.58s-.22,1,0,1.19l.39.44,0,0c.88-.87,2.29-.74,3.51-.9.17,0,.05-1.28,0-1.27-.9.13-2.28.6-3.16.31a.1.1,0,0,0,0,.09l-.68.11,0,1.19.22.22,0-1.13c.1-.64-2.34-1-2.69-1l0,1.09.11,0,0-1.11a5.42,5.42,0,0,1-1.61-.1l0,1.13c.72,0,1.44,0,2.16,0l-.08-.39v.07l.05-.67a7.57,7.57,0,0,1-2.26.07h0l-.6.38,0,.48.13-.32s0-.12,0-.12Z"/><path class="cls-2" d="M384.47,3.52c-.27,1.31.2,1-.5.2a2.71,2.71,0,0,0,0,.7l.3.63h0l.2,0c.09,0,.07-.77,0-.8a.79.79,0,0,0-.71-.1c-.12,0,0,.74,0,.82.4,1.06,1.47-.35,1.69.22l0,0c3-1,6.47-.77,9.58-1,3.92-.24,7.84-.48,11.77-.68,7.5-.38,15-.64,22.47-.35s15.22,1.05,22.86,1.06,15.2-.45,22.79-.66c15.3-.42,30.51,1.59,45.81,1,7.31-.31,14.58-.72,21.89-.41,7.72.32,15.39,1,23.12.47.15,0,.09-1.24,0-1.23-7.41.51-14.78-.09-22.18-.43-7.63-.34-15.2.05-22.82.38C505.41,4,490.2,2,474.9,2.45c-7.6.21-15.19.68-22.79.67s-15.24-.76-22.86-1.05c-7.18-.28-14.31-.06-21.48.36-1.94.11-22.19,2.12-22.36,1.7l0,0a.84.84,0,0,0-.78.07c-.14.06,0,.77,0,.88L385,6s0,0,0,0l.09-.26c0-.12.11-.8,0-.85-1.12-.45-.84-.08-.34.44,0,0,.09-.47,0-.59l-.29-.74a1.26,1.26,0,0,0,0-.42Z"/><path class="cls-2" d="M562.17,4.11c10.86.47,21.75.22,32.61.2,10.55,0,21.34.73,31.86,0,7.09-.49,13.9-1.09,21-.75,7.34.35,14.69.79,22,.67,7.57-.12,15.14-.65,22.71-.78,5.82-.1,10.85.65,16.26-1.58.25-.1,0-1.3,0-1.3-5.42,2.23-10.45,1.47-16.26,1.58-7.57.14-15.14.69-22.71.84-7.06.14-14.11-.27-21.16-.55a204.16,204.16,0,0,0-21.91.75c-10.53.69-21.29-.11-31.86,0-10.86.13-21.73.22-32.59.58,0,0,0,.31,0,.31Z"/><path class="cls-2" d="M330.47,3.45a.75.75,0,0,0,0,.29c.12.26.35.15.56.09a1.43,1.43,0,0,1,.58,0c.15,0,.23,0,.26-.15s.06-.51,0-.57-.37.1-.45,0h0c-.25.11-.59.37-.87.29l0,.15V3.45c0-.16,0-.16-.05,0Z"/><path class="cls-2" d="M336.16,3.88c-.23,0-.24.25-.17.45a.43.43,0,0,0,.37.3c.08,0,.24-.12.29-.11a.06.06,0,0,0,0-.05,1.47,1.47,0,0,0,.13.32s0,0,0,0l0,0a1.17,1.17,0,0,0,0-.8.48.48,0,0,0-.28-.15.07.07,0,0,0,0,.06A3.19,3.19,0,0,0,337,6.35a3.32,3.32,0,0,0,.07-.77c0,.43,0,.23.15.07a1.72,1.72,0,0,1,.25-.28,2.77,2.77,0,0,1,.78-.52l0-1c-.05,0-.61.52-.68.39l0,1,.11-.18-.07-1-.31.49.11.63V4.8s0-.64-.09-.64-.08,0-.13.05a1.41,1.41,0,0,0,0,1c.2.22.39-.05.41-.24a3.66,3.66,0,0,0-.08-.86,1.21,1.21,0,0,1-.29.16s-.12,0-.18,0-.19,0-.26.08-.05.49,0,.63,0,.42.11.35.22,0,.31,0a.82.82,0,0,0,.38-.14l-.08-.86a.44.44,0,0,1-.27,0l0,1h.09l-.09-.64v.3c0,.07.07.69.11.63l.31-.48a1.22,1.22,0,0,0,0-.64c0-.05,0-.43-.11-.36a1.35,1.35,0,0,0,0,1.35l0,0c.21-.17.43-.34.64-.51s-.05-1,0-1a2.68,2.68,0,0,0-1.18,1,2.49,2.49,0,0,0-.1,1.25l.07-.77a1.28,1.28,0,0,1-.34-.8l0,.13a.32.32,0,0,1,.25.05l0-.8a.85.85,0,0,1-.15-.22s0,0,0,0c0,.22-.47.3-.63.19l0,.31.14-.11s0-.26,0-.26Z"/><path class="cls-2" d="M382.66,4.1a4.82,4.82,0,0,1,2.06,1.71c0-.07.16-.77,0-1l-.47-.84c0,.08-.16.75,0,1-.46-.84-.16-.88-1.5-1.56l0,1.06a3.61,3.61,0,0,1,2.34,2.13s0,0,0,0a1.71,1.71,0,0,1,1-.84l0,0,.59-.45a.09.09,0,0,0,0,.08L387.5,5l0-1.11c-.55.37-1.38.37-2,.83-.22.16.07,1.06,0,1.09,2.1-1.38,5.15-.84,7.55-1.39.17,0,.07-1.19,0-1.18l-.48,0c-.14,0-.11,1.19,0,1.19,2.36.06,4.94,1,6.92-.25a2,2,0,0,0,0-1.36L397.57,3c-.16,0-.12,1.36,0,1.36l.2.06V3.06l-.56,0c-.15,0-.12,1.35,0,1.35h.56c.2,0,0-1.2,0-1.33l0-.08,0,0h-.2l0,1.36,1.86-.15,0-1.36c-1.93,1.25-4.55.4-6.91.42l0,1.19.48-.06,0-1.18c-2.43.62-5.39.08-7.54,1.47l0,1.09c.64-.46,1.46-.45,2-.82.22-.14-.05-1.09,0-1.11l-.72.19s0-.1-.07-.06l-.93.43,0,0q-.06.83-.89.61a6.2,6.2,0,0,0,0,1l.16.56c.05.19.1-.62.09-.73-.15-1.43-1-1.84-2.29-2.46,0,0-.2.94,0,1.06a4.57,4.57,0,0,1,2,1.42,3.26,3.26,0,0,0,0-1c-.49-.93-1.07-1-2.11-1.19,0,0,0,.37,0,.4Z"/><path class="cls-2" d="M282.47,4.07c.61.7,1.55,1,2.08,1.82t0,0l.76-1.1c.1-.14,0-.48,0-.64s0-.43-.1-.36a2.21,2.21,0,0,1-.62.49l.08.39,0-.35a2.7,2.7,0,0,0-.08-.39.67.67,0,0,0-.23.57l.06-.26L284.17,4s-.06.26-.06.26l0,.37.14.4V4.57c0-.12,0-.57-.07-.64s-.08.34-.08.37v.43c0,.18.09,1,.14.4l0-.37L284.2,5l.31.25s.06-.26.06-.26l.11,0-.09-.53V4.8s0,.55.09.53a2.16,2.16,0,0,0,.65-.54l-.06-1c-.14.2-.48.94-.71,1s-.3-.22-.45-.34c-.39-.33-1.14-.78-1.65-.61,0,0,0,.23,0,.25Z"/><path class="cls-2" d="M285.17,4.67c.24-.15.35.24.52.34.38.22.86-.09,1.31-.08.29,0,.54.09.79.1a12.57,12.57,0,0,0,1.62-.2c.12,0,.07-1.06,0-1.05-.36,0-1.75.36-1.94.07l0,0a2.25,2.25,0,0,1-.57.2c-.27.06-.6.22-.86.27-.42.07-.52-.36-.84.13a.91.91,0,0,0,0,.24Z"/><path class="cls-2" d="M427.49,2.73a11.79,11.79,0,0,1,2,.2c.47.14.54.45.91.63.56.27,1.2-.25,1.75-.18s1.14.58,1.76.72l0,0,.26-.58a3.16,3.16,0,0,0,0-1,1.53,1.53,0,0,1-1.15,0l0,1,.24-.13c.12-.06.1-1,0-1A9.77,9.77,0,0,0,430,2.19c-.1,0-.1,1,0,1l1.16.19s.13-.93,0-1L430,2.19l0,1a10.34,10.34,0,0,1,3.24.24l0-1-.24.13c-.12.07-.1,1,0,1a1.48,1.48,0,0,0,1.14-.05l0-1a.91.91,0,0,1-1.61,0l0,0a10.92,10.92,0,0,0-1.4.23c-.6.08-.59-.12-1-.33a3.64,3.64,0,0,0-2.56.07s0,.25,0,.26Z"/><path class="cls-2" d="M434,2.88l-.32-.16s-.12.57,0,.6A30.16,30.16,0,0,0,439,4c.64,0,1.47-.08,2.08,0,1,.17,1.21,1.15,1.67,2t0,0l.65-1.9-.09-1-.52.17s0-.23-.08-.14l-.45.09s0,0,0,0a2.24,2.24,0,0,0-.09,1.51s0,.23.08.14.43.53.37.45,0,0,0,0l.6-.57-.07-1-.17,0v1h.11c.13,0,.08-1.06,0-1.05H443c-.15,0,0,.94,0,1l0,0,0,0c.16,0,.14,0,.21-.09s-.11-1,0-1q-.34.57-.84,0s0-.23-.08-.14l-.1.1v.93l.35.1s0,0,0,0c.27-.52.13-.33.49,0t0,0c.32-.32.25-.2.34-.59a9.07,9.07,0,0,0-.09-1c-.16.46-.23,1.49-.93,1.29-.31-.09-.44-1.09-.73-1.32-.46-.35-1.3,0-1.82,0-1,0-2-.12-3.06-.08s-2-.2-3.16-.15l0,.59.29-.38s0,0,0,0Z"/><path class="cls-2" d="M443.17,4.07a5.14,5.14,0,0,0,1,.06,2.37,2.37,0,0,0,1-.06,1,1,0,0,0,0-.68,2.32,2.32,0,0,0-1,.06,5.31,5.31,0,0,0-1,.18.69.69,0,0,0,0,.45Z"/><path class="cls-2" d="M480.37,3.36c.34.06,3.37.43,3.27,1.29a9.14,9.14,0,0,0,.1.91,3.12,3.12,0,0,0,.35-2.95s0,0,0,0l-.38.29c0-.06-.08.48-.08.52,0,.79,4.83.53,5.22.53.09,0,.11-1,0-1.06l-1.86-.2,0,1.05c1.28,0,6.57-.54,7.33,1.09t0,0c1-1.77,12.52-.15,14.53-.12.12,0,.12-1.28,0-1.28-4.74,0-9.46-.25-14.19-.36l0,0-.52.19,0,0c-.47.21-1-.35-1.49-.38-1.88-.13-3.77-.11-5.65-.19-.08,0-.11,1,0,1.05L488.8,4l0-1.06h-5.14c-.09,0-.06.65-.05.68l0,.38c0,.61.15.27.14-.15l.1.44s0,0,0,0h.49s0,0,0,0l.19-.49c.1-.27-.11-1-.07-1.06a6.38,6.38,0,0,0-.69,1.83,3.39,3.39,0,0,0,0-.47c.31,0-1.77-1-.41-.8a8.74,8.74,0,0,0-3.06-.37s0,.46,0,.47Z"/><path class="cls-2" d="M484.13,2.89a5.75,5.75,0,0,0-.8.2c-.09,0,0,.7,0,.7a.19.19,0,0,0,.21,0c.1-.06.06-.64,0-.72s-.37-.13-.55-.14-.08.81,0,.81a1.79,1.79,0,0,0,.64-.05,1.08,1.08,0,0,0,0-.71,1.82,1.82,0,0,0-.65-.06l0,.81c.13,0,.41-.07.52,0V3a.22.22,0,0,1-.21.08l0,.7c.28-.2.53-.43.79-.66a.48.48,0,0,0,0-.25Z"/><path class="cls-2" d="M492.89,3.78a11.26,11.26,0,0,0,1.9,1.46.08.08,0,0,0,0-.07,1.47,1.47,0,0,0-.24-1.49s0,0,0,0a1.5,1.5,0,0,0,.13,1.61l0,0c.45-.23,1.11-.84,1.63-.61l-.06-.94c0,.06-.37,0-.41-.05l.06.93v0a1.53,1.53,0,0,0,0-.68c0-.06-.05-.37-.11-.18v0c0,.15-.11.85.06.93a.58.58,0,0,0,.44,0,.08.08,0,0,0,0-.07v0c0-.15.11-.86-.06-.94-.53-.24-1.59.9-1.83.32l.06.72a.18.18,0,0,1,.22.11V4.19a5.71,5.71,0,0,1-.9-.4,2,2,0,0,0-1-.25s0,.23,0,.25Z"/><path class="cls-2" d="M564.33,4.32a8.66,8.66,0,0,0,2,.07,6.54,6.54,0,0,0,.07.91l.71-.43,0-1.05-.9-.21,0,0-.56.11,0,1.06c.84-.74,3.34-.3,4.33-.28l0-1.08c-1.79,0-3.77.13-3.11,2.23.06.2.1-.68.09-.8V6.17c0,.07.07.27.1.09.25-1.39,3.52-1.56,4.57-1.63a40.86,40.86,0,0,1,5.65-.07c.09,0,.13-1.27,0-1.28a48.65,48.65,0,0,0-5.65.18,11.33,11.33,0,0,0-2.39.29c-.65.2-1.07.65-1.77.41l0,0c-.26.38-.41.91-.53.17-.08-.47-.12.59-.11.71,0-.27,3-.52,3.22-.52a1.85,1.85,0,0,0,0-1.08c-1.09,0-3.47-.45-4.33.3-.11.1-.11,1,0,1.06.75.34.18-.31,1.36.23l0,0,.15-.16c.13-.15-.08-1,0-1.05l-.71.43.07.91c.16-1.91,0-2-2.17-1.16a.56.56,0,0,0,0,.34Z"/><path class="cls-2" d="M566,4.37a11.1,11.1,0,0,0,.64,1.25,5,5,0,0,0,0-.6A2.43,2.43,0,0,0,566.2,4a3.71,3.71,0,0,0,0,.64,5,5,0,0,0,.74,1.95l0,0a3.42,3.42,0,0,0,1.13-1.24L568,4.54c0,.3-.5.5-.73.61l0,.91c.18-.53.87-.77,1.35-.94.15-.05,0-.87,0-.86-.5.15-1.2.36-1.38.92a3.13,3.13,0,0,0,0,.91c.41-.19.75-.41.82-.88a2.07,2.07,0,0,0,0-.56s0-.28-.08-.21a2.64,2.64,0,0,1-.33.51c-.14.17-.41.54-.63.59-.46.12-.77-1.19-.82-1.48l0,.64a2.11,2.11,0,0,1,.46.89l0-.65a2.67,2.67,0,0,0-.65-.68.61.61,0,0,0,0,.12Z"/><rect class="cls-1" x="511.29" y="2.8" width="2.42" height="7.01" rx="0.69" ry="0.69"/><path class="cls-1" d="M510.44,4.3s.7.31.54.09c.08.12-.18.78-.22,1a9.36,9.36,0,0,0-.23,1.73,4.43,4.43,0,0,0,.85,3.21c.14.15.17-.6.17-.65a2.26,2.26,0,0,0-.13-1.14,2.14,2.14,0,0,1-.54-1.36A7.85,7.85,0,0,1,511.11,6a9.07,9.07,0,0,0,.18-1.7c0-.65-.08-1.66-.89-.84-.08.08-.08.78,0,.84Z"/><path class="cls-2" d="M510.48,3.55q.28,3.43.63,6.86s0,.28.07.26c.81-.3,1,.68,1.57-.08l-.1-.75,0,.33a3.29,3.29,0,0,0,.08.77c1-.54,1.09-1.16,1.3-2.25a41.13,41.13,0,0,0,.59-4.48,3,3,0,0,0-.1-.81,11.4,11.4,0,0,1-.33,2.17q-.12.5-.11-.45l-.13-1.19c-.07-.65-.12.36-.11.54a15.16,15.16,0,0,0-.08,2.48q0,.57,0,.21a8.22,8.22,0,0,0,0-.89,16.92,16.92,0,0,0-.31-2.66c0-.16-.07-.18-.09,0a17.93,17.93,0,0,0,.4,6.54c0,.14.09-.63.07-.77l-.11-.6,0,.82.35.82c0,.08.08-.24.07-.23l.21-2.7a14.25,14.25,0,0,0,.27-3s.17-.75,0-.94l-.08-.1c0-.06-.06.11-.06.13-.09,1.13-.18,2.27-.27,3.4A12.08,12.08,0,0,1,514,8.5c-.09.44,0,1-.37.15,0,0-.08.65,0,.82A20.45,20.45,0,0,1,513.39,6c0-3.25.2,1.29.2,1.34s.08.9.12.71a12.92,12.92,0,0,0,.3-2.67,3.36,3.36,0,0,0,0-.91,2.2,2.2,0,0,0,0,1.15l.13,1.19c0,.15.07.41.12.11a17.46,17.46,0,0,0,.31-2.11c0-1.9-.18.33-.22.71-.18,1.45-.15,3.61-1.6,4.37l.08.77,0-.33a3.52,3.52,0,0,0-.1-.75,3.29,3.29,0,0,0-.62,2c0,.18.1,1,.15.4a10,10,0,0,0-.12-2.56s0-.17-.06-.15c-1.35.51-1.06-1.74-1.17-2.65s-.25-2.07-.38-3.1c0,0,0,0,0,0Z"/><path class="cls-2" d="M509.89,3.92q0,.94,0,1.88a3,3,0,0,0,.07.42,5.32,5.32,0,0,0,.43-1.94c0-.12-.08-.54-.07-.56a4,4,0,0,0-.18,1.9c0,.11.05.3.08.08a3.81,3.81,0,0,0-.33-2.25c0,.09-.1.58,0,.78l.63,1.43s0,0,0,0a4.08,4.08,0,0,0-.16-2.3s-.06.42-.05.52l.05.66,0-.62-.11-.33s0,0,0,0c-.89,2.17,0,4.33.9,6.33,0,.08.07-.24.07-.23a14.07,14.07,0,0,0-.3-4c0-.21-.09.38-.09.43q0,1.08.06,2.17c0,.1.07.73.12.35a6.78,6.78,0,0,0-.32-3.38c0,.06-.07.64,0,.82l.23,1.69s0,.19.07.12a2.4,2.4,0,0,0-.25-2.75c-.05-.06-.07.21-.07.22a10.28,10.28,0,0,0-.06,1.62c0,.23.11.6.11.16a3.35,3.35,0,0,0-.37-1.39c0,.11-.12.66,0,.91l.26.84c0,.16.1.93.13.36l0-.81,0-.4q-.16-.56.11-.35s.24.69,0,.14a5.61,5.61,0,0,1-.14-1.06l0,.82q.4,2.72.32,1.23l0-.87c.14.37.47,2.79-.19,1.64a7.61,7.61,0,0,1-.6-1.49,3.42,3.42,0,0,1-.15-1.57q0-.42.34-.4s.06-.42.05-.52l0-.55-.05.52q0,.75-.18,0l-.31-.71v.78q.06.51.49.23l-.07-.56A11,11,0,0,1,510,5.34q-.09.44,0-.22c0-.38,0-.78,0-1.16,0-.09,0-.19,0,0Z"/><path class="cls-2" d="M511.39,9.43c.18.51.36,1,.55,1.53v-.59a13.42,13.42,0,0,1-1.31-4.17c0-.2-.07-.2-.08,0a7.93,7.93,0,0,0,1.85,5.57c0,.06.07-.41.07-.44V11c0-.33-.12-.67-.13-.12l0,.71c0,.06.06.62.1.57a3.67,3.67,0,0,0,.54-1.27l-.11-.64,0,.35c0,.09.07.82.11.64l.1-.43A2.16,2.16,0,0,0,513,10l-.1.43L513,11l0-.35c0-.09-.07-.81-.11-.64a3.2,3.2,0,0,1-.51,1.18l.1.57a.34.34,0,0,0-.11-.47l.07-.44a9.34,9.34,0,0,1-1.2-1.81,6.27,6.27,0,0,1-.4-1c-.19-.65-.31-1.59-.11-.54A13.07,13.07,0,0,0,511.94,11c0-.06.09-.43,0-.59-.18-.34-.37-.68-.56-1a.49.49,0,0,0,0,.08Z"/><path class="cls-2" d="M99.91,2.08c.72.09,2.44-.06,3.6.1a3,3,0,0,0,.58,0,2.57,2.57,0,0,0,1-.21,5.69,5.69,0,0,0,1.65.22c.9,0,1.68-.3,1.62-.6,0,0,0-.27-.11-.28a11.23,11.23,0,0,0-1.18.21,17.06,17.06,0,0,1-4.7,0,31,31,0,0,0-3.56-.2C97.28,1.43,99.26,2,99.91,2.08Z"/><path class="cls-2" d="M172.21,1a3.35,3.35,0,0,0,1.13,1.14,1.83,1.83,0,0,0,1.08.3c.64,0,.87-.3,1.42-.41,1-.2,2.09.22,3.24.24a4.17,4.17,0,0,0,2.51-.75c.29-.2.46-.51-.17-.58a3.64,3.64,0,0,0-.73,0A53.28,53.28,0,0,1,172,1"/><path class="cls-2" d="M279.75,2.87c0-.3,0-.42.51-.67a3.74,3.74,0,0,1,2.31-.08c.44.21.1.31.42.55.73.53,3.78.19,4.59.71.48.31-.4.7-1.45.76a10.09,10.09,0,0,1-2.92-.33,11.47,11.47,0,0,1-2.95-.91"/><path class="cls-2" d="M379.42,2c.13.32.79.41,1.67.28.32,0,.5.17.63.07a7.28,7.28,0,0,1,.92-.82,4.08,4.08,0,0,1,2.13-.43c.7,0,1.27.23,2,.26s1.39-.33.72-.41a3,3,0,0,0-.44,0c-2.79.1-9.73-.08-11.92.49C371,2.47,378.76,1.72,379.42,2Z"/><path class="cls-1" d="M384.92,4.29l.72-.14c-.24.19.51.38,1.12.34a10,10,0,0,0,1.62-.3c.59-.12,1.26-.19,1.92-.26a22.08,22.08,0,0,1,5.1-.12,7,7,0,0,0,2.46.13,1.19,1.19,0,0,0,.56-.34,6,6,0,0,1,3-.92,2.57,2.57,0,0,0,.88-.17c.17-.11,0-.05-.34-.13a9.59,9.59,0,0,0-2.28-.18c-4.17,0-8.35.09-12.48.29-1.28.06-3.8-.18-4.24.29S383.94,4,384.92,4.29Z"/><path class="cls-1" d="M331.26,3.38c.49,0,1,0,1.51,0a33.44,33.44,0,0,1,3.92.64,7.86,7.86,0,0,0,1,.08A6.41,6.41,0,0,0,338.73,4l1.58-.29a2.36,2.36,0,0,0,1.1-.38c.2-.26-.53-.5-1.25-.62a37.85,37.85,0,0,0-7-.47c-1,0-3.5-.15-4,.21S330.27,3.3,331.26,3.38Z"/><path class="cls-1" d="M432.49,2.79c.69.11,1.46.16,2.22.2l5.38.33c.57,0,1.15.07,1.68.14s.8.13,1.23.17a23.55,23.55,0,0,0,3.23-.24c3.59-.17,4.43-.49,1.81-.61s-.34-.21-.87-.32a12,12,0,0,0-1.78-.19c-5.21-.29-11.11.16-16.37,0C429.1,2.69,431.44,2.62,432.49,2.79Z"/><path class="cls-1" d="M487.2,3.32c1,0,2-.17,3-.22a8.18,8.18,0,0,1,2.86.26c.33.13.52.29.88.41,1.15.37,3,0,4.59-.06,1.2-.08,2.45.2,3.65.13,2.11-.11,3.93-.68,4.36-1.37.08-.12.11.27-.08.16s-1,.12-1.55.1c-7.9-.25-15.83-.26-23.74-.47-.69,0-4.39-.24-4.59,0s2,.2,2.65.27A49.83,49.83,0,0,0,487.2,3.32Z"/><path class="cls-2" d="M482.93,2.23a6.06,6.06,0,0,1,.93.25c1.48.36,3.53-.5,5.23-.27,1,.14,1.3.6,2.29.75a3.39,3.39,0,0,1,1,.19c.21.14-.25.31-.72.33a10.73,10.73,0,0,1-1.39-.09c-2.23-.19-4.65.29-6.83,0A24,24,0,0,1,480,2.72,6.54,6.54,0,0,1,482.93,2.23Z"/><path class="cls-2" d="M611.35,1.91a24.5,24.5,0,0,1,4.34.53,56.59,56.59,0,0,0,5.73-.19,5.72,5.72,0,0,0,.87,0c.26,0,.44-.16.27-.24a1.75,1.75,0,0,0-.55-.08c-3.79-.21-8.18-.67-12-.65S608.16,2.14,611.35,1.91Z"/><path class="cls-2" d="M666.19,2.6a11.7,11.7,0,0,0,2.71-.37c2.57-.48,6.2-.21,7.88.59A66.05,66.05,0,0,1,665,3.46C659.91,3.29,662.3,2.46,666.19,2.6Z"/><path class="cls-2" d="M329.51,4.77A2.56,2.56,0,0,0,330,6.34a10.1,10.1,0,0,0,1.55-2.25,2.87,2.87,0,0,1-.2.68A2.86,2.86,0,0,1,332.1,4l.31.19.47-.22a.71.71,0,0,0,.43.15c0-.16.69-.25,1.13-.17a1.43,1.43,0,0,1,.83.39,1.68,1.68,0,0,1,.57,1.07c.4-.15.59-.36.48-.55.41.26.37.56.42.85s.24.61.93.79a3.78,3.78,0,0,1,1-2.3.6.6,0,0,0,.51.39,1.77,1.77,0,0,0,.67-.58,4.28,4.28,0,0,1-1.52.25A10.79,10.79,0,0,1,336.23,4a32.89,32.89,0,0,0-6.33-.8C328.13,3.36,329.45,4.36,329.51,4.77Z"/><path class="cls-2" d="M678.08,3.72a1.53,1.53,0,0,0-.54.71l-.49,1.08a1.59,1.59,0,0,0-.75-.88l.23.87c.11,0,.07-.07,0-.06s-.14.05-.16.09l-.5,1.36-2.76-3a1.44,1.44,0,0,1,.31,1.61c-.9-.42-1.3-.95-1.1-1.45a.77.77,0,0,0-.17.51,2.11,2.11,0,0,1-.43-1.33c0,.28,6.89.05,7.5.06A3.79,3.79,0,0,0,678.08,3.72Z"/><path class="cls-2" d="M511.43,9.72a3.55,3.55,0,0,1,.71,1.37c.05.38,0,.83.24,1.1a2.19,2.19,0,0,0-.45-2.74,2.15,2.15,0,0,1-.35-.31,1.46,1.46,0,0,1-.2-.92,9.5,9.5,0,0,0-.49-3.65,1,1,0,0,0-.59-.66c-.86-.21-.16,2.22-.07,2.63A8.91,8.91,0,0,0,511.43,9.72Z"/><path class="cls-2" d="M511.67,5.45a.89.89,0,0,1,.13.48,1.58,1.58,0,0,1-.31.56c-.4.68.1,1.55,0,2.34a.25.25,0,0,1,0,.11.2.2,0,0,1-.15.08.5.5,0,0,1-.46-.28,1.46,1.46,0,0,1-.13-.55,13.48,13.48,0,0,1-.37-3.45C510.59,3.57,511.45,4.9,511.67,5.45Z"/><path class="cls-2" d="M513.46,7.85a2.53,2.53,0,0,1,.06.86.78.78,0,0,1-.51.64c-.11,0-.22,0-.33,0a.67.67,0,0,0-.09,1.3.26.26,0,0,0,.13,0,.27.27,0,0,0,.14-.09c.27-.28.33-.75.68-.93a2.36,2.36,0,0,0,.29-.13.62.62,0,0,0,.19-.24,4.46,4.46,0,0,0,.19-2.12c0-.7.85-3.36-.51-3.47C512.76,3.65,513.35,7.19,513.46,7.85Z"/></g></g></svg>