<?xml version="1.0" encoding="utf-8"?>
<!-- Generator: Adobe Illustrator 21.1.0, SVG Export Plug-In . SVG Version: 6.00 Build 0)  -->
<svg version="1.1" id="Слой_1" xmlns="http://www.w3.org/2000/svg" xmlns:xlink="http://www.w3.org/1999/xlink" x="0px" y="0px"
	 viewBox="0 0 70.9 24.5" style="enable-background:new 0 0 70.9 24.5;" xml:space="preserve">
<style type="text/css">
	.st0{fill:#EEF6FE;}
	.st1{fill:#C6EBF4;}
</style>
<title>3</title>
<g id="Слой_2">
	<g id="OBJECTS">
		<path class="st0" d="M69.7,4.2L69.9,4c0.6,0,1-0.5,1-1c0-0.1,0-0.2,0-0.2l-1.1-0.1h-0.1l-0.8-0.1l0,0c-3.1-0.4-6-0.9-9-0.1
			c-3.9,1.1-7.4-1-11.6-0.7c-0.8,0.2-1.7,0.2-2.6,0.1c-1.1-0.2-2.1-1.1-3.2-1.4c-2.4-0.5-6-0.4-8,0.9c-1.1,0.7-1.1,1.1-2.6,1.2
			c-1,0-2.1,0-3.1-0.2c-2-0.2-4-0.7-6.1-0.8c-1.4-0.2-2.9-0.3-4.3-0.2c-1,0.3-2,0.7-3,1.1c-2.2,0.6-2.7-0.3-4.8-0.7
			C8.6,1.5,6.8,2,4.9,2C3.5,2,1.5,1.4,0.6,2.4l0,0L0.6,2.5c-0.7,1,0,1.5,0.9,1.9l-0.4,7.5c0,0.3,0.2,0.5,0.5,0.5c0,0,0,0,0,0
			c0.3,0,0.5-0.1,0.5-0.4l0.4-7.1C2.8,5,3.1,5.1,3.3,5.2L3,10.9c0,0.3,0.2,0.5,0.5,0.5c0,0,0,0,0,0c0.3,0,0.5-0.2,0.5-0.4l0.3-5.2
			C4.9,6,5.4,6.3,5.9,6.6l-0.4,7.5c0,0.3,0.2,0.5,0.5,0.5c0,0,0,0,0,0c0.3,0,0.5-0.1,0.5-0.4L7,7c0.5,0.2,1,0.3,1.5,0.4
			c1.8,0.4,4,0.3,5.7,1.2c2.2,1.2,2.8,2.4,5.2,3c1.5,0.5,3,0.9,4.5,1.2l-0.2,3.7c0.1,0.3,0.3,0.5,0.6,0.4c0.2,0,0.3-0.2,0.4-0.3
			l0.2-3.7h0.3c0.4,0,0.8-0.2,1.2-0.3l-0.4,7c0.1,0.3,0.3,0.5,0.6,0.4c0.2,0,0.3-0.2,0.4-0.3l0.4-7.6c0.7-0.4,1.4-0.8,2.1-1.2
			c3.3-1.4,6.2-2.5,10.1-2.1c1.8,0.2,2.8,1.2,4.6,1.7c1.6,0.5,3,1.2,4.4,2.2l-0.3,5.2c0.1,0.3,0.3,0.5,0.6,0.4
			c0.2,0,0.3-0.2,0.4-0.3l0.3-4.6l1.5,1l-0.4,7.3c0.1,0.3,0.3,0.5,0.6,0.4c0.2,0,0.3-0.2,0.4-0.3L52,15c0.2,0.1,0.5,0.2,0.7,0.3
			l-0.1,2.3c0.1,0.3,0.3,0.5,0.6,0.4c0.2,0,0.3-0.2,0.4-0.3l0.1-2C56.2,16,58,14,60,12c1.4-1.3,2.4-2.9,4-3.9l-0.3,5.6
			c0.1,0.3,0.3,0.5,0.6,0.4c0.2,0,0.3-0.2,0.4-0.3L65,7.6c0.3-0.1,0.6-0.2,1-0.2l-0.2,3.3c0.1,0.3,0.3,0.5,0.6,0.4
			c0.2,0,0.3-0.2,0.4-0.3L67,7.3c0.9,0.1,1.5,0.4,1.8-0.9S68,5,69.7,4.2z"/>
		<path class="st1" d="M51.1,22.4c-0.4,0-0.7-0.3-0.7-0.8l0.4-7.2l-0.9-0.6h-0.1l-0.2,4.1c-0.1,0.4-0.5,0.7-0.9,0.6
			c-0.3-0.1-0.6-0.4-0.6-0.7l0.3-5c-1.3-0.9-2.7-1.6-4.2-2.1c-0.7-0.2-1.3-0.5-1.9-0.8c-0.8-0.5-1.7-0.8-2.6-0.9
			c-3.7-0.4-6.5,0.6-10,2c-0.5,0.2-1,0.5-1.4,0.8l-0.5,0.3l-0.4,7.4c-0.1,0.4-0.5,0.7-0.9,0.6c-0.3-0.1-0.6-0.4-0.6-0.7l0.3-6.5
			c-0.3,0.1-0.6,0.2-0.9,0.2l0,0L25,16.5c-0.1,0.4-0.5,0.7-0.9,0.6c-0.3-0.1-0.6-0.4-0.6-0.7l0.2-3.4c-1-0.2-1.9-0.4-2.9-0.7
			c-0.5-0.2-1-0.3-1.5-0.4c-1.2-0.3-2.4-0.9-3.4-1.7c-0.6-0.5-1.2-0.9-1.9-1.3c-1.2-0.5-2.4-0.8-3.7-0.9C9.7,7.9,9,7.8,8.4,7.7
			C8,7.6,7.6,7.5,7.2,7.4l-0.4,6.8c0,0.4-0.4,0.7-0.8,0.7c-0.4,0-0.7-0.3-0.7-0.8l0.4-7.3C5.3,6.6,4.9,6.4,4.6,6.2L4.3,11
			c0,0.4-0.4,0.7-0.8,0.7c-0.4,0-0.7-0.3-0.7-0.8l0.3-5.5L2.7,5.3L2.3,12c0,0.4-0.4,0.7-0.8,0.7c-0.4,0-0.7-0.3-0.7-0.8l0.4-7.3
			C0.7,4.4,0.2,4,0,3.5c-0.1-0.4,0-0.8,0.3-1.1l0.1-0.1c0.8-0.8,2.1-0.7,3.3-0.6c0.4,0,0.8,0.1,1.1,0.1c0.7,0,1.3-0.1,2-0.1
			c1.2-0.2,2.5-0.2,3.7,0c0.6,0.1,1.2,0.3,1.7,0.5c0.9,0.4,2,0.5,2.9,0.2c0.4-0.1,0.8-0.3,1.2-0.5c0.6-0.3,1.2-0.5,1.8-0.6
			c1-0.1,2-0.1,3,0.1c0.5,0,0.9,0.1,1.3,0.1c1.2,0.1,2.4,0.2,3.6,0.4C27.1,2,28,2.1,28.8,2.2h0.2c0.9,0.1,1.9,0.2,2.8,0.2
			c0.7,0,1.3-0.2,1.8-0.6c0.2-0.1,0.4-0.3,0.7-0.5c2-1.3,5.7-1.5,8.2-0.9c0.6,0.2,1.2,0.4,1.7,0.8c0.5,0.3,1,0.5,1.5,0.7
			c0.6,0.1,1.1,0.1,1.7-0.1c0.3,0,0.6-0.1,0.8-0.1C50,1.4,51.8,1.6,53.5,2c2.1,0.4,4.2,0.8,6.3,0.2c2.8-0.8,5.5-0.4,8.3,0l0.8,0.1
			l0.8,0.1h0.1l0.8,0.1c0.1,0,0.2,0.1,0.2,0.2C71,3,71,3.4,70.8,3.8C70.6,4,70.3,4.2,70,4.3l-0.1,0.1l0,0C68.9,4.8,69,5,69,5.4
			c0.1,0.4,0.1,0.8,0,1.2c-0.3,1.3-0.9,1.2-1.6,1.1h-0.1l-0.2,3.2c-0.1,0.4-0.5,0.7-0.9,0.6c-0.3-0.1-0.6-0.4-0.6-0.7l0.2-3
			l-0.3,0.1l-0.3,6c-0.1,0.4-0.5,0.7-0.9,0.6c-0.3-0.1-0.6-0.4-0.6-0.7l0.3-5.1c-0.8,0.6-1.5,1.3-2.2,2.1c-0.4,0.5-0.9,1-1.3,1.4
			l-0.5,0.5c-1.8,1.7-3.4,3.4-5.7,3.1l-0.1,1.7c-0.1,0.4-0.5,0.7-0.9,0.6c-0.3-0.1-0.6-0.4-0.6-0.7l0.1-2.1l-0.2-0.1l-0.4,6.4
			C51.9,22.1,51.5,22.5,51.1,22.4C51.1,22.4,51.1,22.4,51.1,22.4z M49.6,13c0.1,0,0.1,0,0.1,0.1l0.5,0.3l1,0.7
			c0.1,0.1,0.1,0.1,0.1,0.2l-0.4,7.3c0,0.1,0.1,0.2,0.2,0.2s0.2-0.1,0.2-0.2l0.4-6.7c0-0.1,0.1-0.3,0.3-0.3c0,0,0.1,0,0.1,0
			c0.2,0.1,0.4,0.2,0.7,0.3c0.1,0,0.2,0.2,0.2,0.3l-0.1,2.3c0,0.1,0.1,0.2,0.2,0.2s0.2-0.1,0.2-0.2l0.1-2c0-0.1,0-0.1,0.1-0.2
			c0.1,0,0.1-0.1,0.2-0.1c2.1,0.3,3.7-1.2,5.5-3l0.5-0.5c0.5-0.4,0.9-0.9,1.3-1.4c0.8-1,1.7-1.8,2.7-2.5c0.1-0.1,0.2-0.1,0.3,0
			c0.1,0.1,0.1,0.1,0.1,0.2L64,13.8c0,0.1,0.1,0.2,0.2,0.2s0.2-0.1,0.2-0.2l0.3-6.2c0-0.1,0.1-0.2,0.2-0.2c0.3-0.1,0.6-0.2,0.9-0.2
			c0.1,0,0.3,0.1,0.3,0.2c0,0,0,0,0,0.1L66,10.8c0,0.1,0.1,0.2,0.2,0.2s0.2-0.1,0.2-0.2l0.2-3.5c0-0.1,0-0.1,0.1-0.2
			c0.1-0.1,0.1-0.1,0.2-0.1l0.4,0.1c0.7,0.1,0.8,0.1,1-0.7c0.1-0.3,0.1-0.6,0-0.9c-0.1-0.6-0.1-0.9,1.1-1.5l0.2-0.1c0,0,0.1,0,0.1,0
			c0.2,0,0.4-0.1,0.5-0.3c0.1-0.1,0.2-0.3,0.2-0.5l-0.7-0.1h-0.1l-0.8-0.1l-0.8-0.1c-2.8-0.4-5.5-0.8-8.1,0
			c-2.3,0.7-4.4,0.3-6.6-0.2C51.7,2.2,50,2,48.4,2c-0.3,0-0.5,0.1-0.8,0.1c-0.6,0.1-1.2,0.1-1.9,0C45.1,2,44.5,1.8,44,1.5
			c-0.5-0.3-1-0.5-1.5-0.7c-2.4-0.5-5.9-0.4-7.8,0.9C34.4,1.8,34.2,2,34,2.1c-0.6,0.5-1.3,0.8-2.1,0.8c-1,0-1.9,0-2.9-0.2h-0.2
			c-0.9-0.1-1.8-0.2-2.6-0.4C25,2.2,23.8,2,22.6,2c-0.4,0-0.9-0.1-1.3-0.1c-1-0.2-1.9-0.2-2.9-0.1c-0.6,0.1-1.2,0.3-1.7,0.6
			c-0.4,0.2-0.9,0.4-1.3,0.5c-1.1,0.4-2.3,0.3-3.3-0.2c-0.5-0.2-1.1-0.4-1.7-0.5C9.3,2,8.1,2,6.9,2.2C6.2,2.2,5.5,2.3,4.8,2.3
			c-0.4,0-0.8,0-1.2-0.1C2.6,2.1,1.4,2,0.8,2.6L0.8,2.7C0.6,2.9,0.5,3.1,0.6,3.4c0.1,0.3,0.4,0.6,1,0.8c0.1,0,0.2,0.1,0.2,0.3
			L1.3,12c0,0.1,0.1,0.2,0.2,0.2s0.2-0.1,0.2-0.2l0.4-7.1c0-0.1,0.1-0.3,0.3-0.3c0,0,0.1,0,0.1,0C2.8,4.7,3.2,4.9,3.4,5
			c0.1,0,0.2,0.2,0.2,0.3l-0.3,5.7c0,0.1,0.1,0.2,0.2,0.2s0.2-0.1,0.2-0.2l0.3-5.2c0-0.1,0.1-0.2,0.1-0.2c0.1,0,0.2,0,0.3,0l0.2,0.1
			c0.5,0.3,0.9,0.5,1.4,0.7c0.1,0,0.2,0.2,0.2,0.3l-0.4,7.5c0,0.1,0.1,0.2,0.2,0.2s0.2-0.1,0.2-0.2L6.7,7c0-0.1,0-0.2,0.1-0.2
			c0.1,0,0.2,0,0.2,0C7.5,7,8,7.1,8.5,7.2c0.6,0.1,1.3,0.2,1.9,0.3c1.3,0.1,2.7,0.4,3.9,1c0.7,0.4,1.4,0.8,2,1.3
			c0.9,0.8,2,1.3,3.2,1.6c0.5,0.1,1,0.3,1.5,0.4c1,0.3,2,0.6,3,0.8c0.1,0,0.2,0.1,0.2,0.3L24,16.5c0,0.1,0.1,0.2,0.2,0.2
			s0.2-0.1,0.2-0.2l0.2-3.7c0-0.1,0.1-0.2,0.3-0.2h0.2c0.4,0,0.7-0.1,1.1-0.3c0.1,0,0.2,0,0.3,0c0.1,0.1,0.1,0.1,0.1,0.2l-0.4,7
			c0,0.1,0.1,0.2,0.2,0.2s0.2-0.1,0.2-0.2l0.4-7.6c0-0.1,0.1-0.2,0.1-0.2l0.7-0.4c0.5-0.3,1-0.6,1.5-0.8C33,9,35.8,8,39.7,8.4
			c1,0.2,1.9,0.5,2.8,1c0.6,0.3,1.2,0.6,1.8,0.8c1.6,0.5,3.1,1.2,4.4,2.2c0.1,0.1,0.1,0.1,0.1,0.2l-0.3,5.2c0,0.1,0.1,0.2,0.2,0.2
			S49,18,49,17.9l0.3-4.6c0-0.1,0.1-0.2,0.2-0.2C49.5,13.1,49.5,13,49.6,13z M69.7,4.2L69.7,4.2z"/>
		<path class="st1" d="M0.4,3.8c1,1.3,0.7,3.3,0.7,4.8c0,1.8,0,3.5,0.1,5.3c0,0.8,0.2,0.8,0.3,0c0-0.1,0.2-0.1,0.3-0.1
			c-0.3,0.6-0.3,1.2-0.1,1.8c1.2-0.1,1.4-1.2,0.6-3.2c0-0.3,0-2.2-0.2-1.4c-0.4,2.3-0.5,4.5-0.5,6.8c0,1.2,0.3,0.6,0.4-0.3
			C2,15.8,2,14.1,2,12.5c0,0,0-0.8-0.2-0.7l-0.4-0.2c-0.1-0.2-0.2,0.7-0.2,0.7c0.2-2.3,0-5.6,0-8.2c0,0,0-0.4-0.1-0.4L0.4,3.5
			C0.4,3.6,0.4,3.7,0.4,3.8L0.4,3.8z"/>
		<path class="st1" d="M3.4,5.3c0,0.4-0.1,0.8-0.1,1.2l0.2-0.2c0-0.8-0.1-1.6-0.1-2.3c0,0-0.1-0.4-0.1-0.3C3.2,4,3,4.6,2.8,4l0,0
			C2.4,4.4,2.5,5,2.5,5.6c-0.1,1-0.2,2-0.2,3.1c0,0.1-0.1,1,0.1,1.1s0.2-0.8,0.2-0.8l0.1-2.1c0-0.3,0-1.6,0.3-0.8c0,0,0,0,0.1,0
			c0.1-0.3,0.2-0.7,0.3-1L3.2,4.7c0,0.8,0.1,1.5,0.1,2.3s0.2-0.3,0.2-0.5C3.5,6.1,3.5,5.7,3.4,5.3C3.5,5.2,3.5,5.2,3.4,5.3L3.4,5.3z
			"/>
		<path class="st1" d="M3.1,9.5c-0.1,1-0.1,2-0.1,3c0,0,0,0.8,0.1,0.7c0.4-0.6,0.5-1.2,0.5-1.9c0-0.1-0.1-1.1-0.2-0.5
			c-0.1,0.5-0.1,1,0,1.6c0,0,0,0.3,0.1,0.2c0.2-0.2,0.3-0.5,0.4-0.7l-0.1-1.1c-0.1,1.1-0.3,2.3-0.4,3.4c0,0.1,0.1,1,0.2,0.7
			c0.2-1.1,0.4-2.2,0.4-3.3c0.1-0.3,0.1-0.6,0-0.9c0-0.1,0-0.3-0.1-0.1c-0.1,0.2-0.2,0.5-0.3,0.7l0.1,0.2v0.5l-0.2-0.5
			c-0.1,0.2-0.2,0.3-0.3,0.5l0.1,0.5C3.3,11.4,3.3,10.4,3.1,9.5C3.2,9.4,3.2,9.5,3.1,9.5L3.1,9.5z"/>
		<path class="st1" d="M5.1,6.4C6.8,7,5.2,15.8,5.2,17.9c0,0.5,0.2,1.1,0.3,0.3c0.2-1.2-0.2-2.6,1.1-2.5c0.2,0,0.2-0.9,0.2-1
			c0-0.5,0.2-4.8,0.7-5.8c0.3-0.5-0.4-1.2,0.4-0.2l0,0c1.2-0.9,5.1,0,5.5,1.3c0,0.1,0,0.1,0.1,0.1c0.7,0.1,1.3-0.2,2,0
			c1.1,0.5,2.1,1.1,3.1,1.7c1.8,1,3.4,1.9,5.5,1v-1.3c-0.4,2-0.5,4.1-0.2,6.2c0,0,0,0.3,0.1,0.2c0.6,1.2,0.9,1.3,0.9,0.2
			c0.1-0.7,0.2-1.4,0.2-2.1c0.1-1,0.2-2,0.2-2.9s-0.2-1.7-0.3-0.3c-0.1,2.2-0.4,4.4-0.7,6.6c0,0.2,0.1,1.7,0.2,1
			c0.3-1.3,0.4-2.7,0.2-4c0,0,0-0.4-0.1-0.4L24,12.6c0.1-0.4,0.1-0.9,0-1.3c-1.8,0.9-3.2-0.1-4.9-0.9c-1-0.5-1.8-1-2.8-1.6
			c-0.8-0.4-1.9-0.2-2.4-0.5c-0.8-0.4-0.4-0.8-1.2-1.2s-4.6-0.2-5.3-1C7.3,6,7.2,7.2,7.2,7.3c0,2.5-0.7,4.9-0.7,7.4l0.2-1l-0.9-0.1
			c-0.1,0-0.2,0.4-0.2,0.5c-0.1,0.5-0.4,3.3-0.2,2.1c0.3-2.4,0.3-4.9,0.5-7.3C6,7.9,6.4,6.7,6,5.7l0,0L5.2,5.7
			C5.1,5.7,5,6.4,5.1,6.4L5.1,6.4z"/>
		<path class="st1" d="M26,16.1c-0.2,1.9-0.1,3.7,0.1,5.6c0,0.1,0.1,0.4,0.2,0.1c0.5-0.6,0.7-0.4,0.6,0.6c0.1,0.4,0.2-0.7,0.2-0.8
			c0-1.5,0-3.1,0.2-4.6c0.2-1,2.2-5.9,3-4c0,0,0,0,0.1,0c0.5-1,0.5-1.3,1.3-1.9c0.7-0.5,6.4-2.5,6.9-0.7c0,0.1,0,0.1,0.1,0.1
			c1.5-1.1,1.5,1.3,1.5,1.9c0,1.2,0.3,0.5,0.3-0.3c0-1.1,0-2-0.1-3.2l-0.2,1.6c2.3,1.3,7.5,0.7,8.2,4.1c0.4,2-0.3,4.6,0.1,6.8
			c0.1,0.3,0.2,0.4,0.3,0c0.2-0.7,0.2-1.3,0-2c0,0.2,0.1,1.5,0.3,0.7c0.4-2.1,0.6-4.2,0.7-6.3c0-1.2-0.3-1.3-0.3,0l-0.2,5
			c0-0.2-0.1-1.5-0.3-0.7c-0.6,3.2,0-3.2,0-3.2c0-0.3,0-0.7,0-1.1c0.1-0.5,0.1-1.1,0.1-1.6c-1.2-3.1-6-2.4-8.5-3.8
			c-0.1,0.5-0.2,1-0.2,1.6c0.5,0.6,0.6,0.3,0.3-1c-0.5-1.9,0-0.5-0.1-0.5L39.7,8l0,0c-0.6,0.5-1.3-0.7-1.6-0.9l0,0
			c-1.2,1-2.5,0.8-4,1.3c-0.6,0.2-1.1,0.5-1.6,0.7c-0.3,0.1-0.8-0.1-1,0c-0.4,0.5-0.8,1.1-1,1.8c0,0-0.9-1-1.9-0.4
			c-0.7,0.4-0.9,1.5-1.1,2.2c-0.2,1.1-0.3,2.2-0.2,3.3c0,0.2,0.1,5.8-0.5,3.1c0-0.1-0.1-0.2-0.1,0L26,16.1C26,16.1,26,16.1,26,16.1
			L26,16.1z"/>
		<path class="st1" d="M50.7,14.7c0.5,2.6,0.6,5.3,0.3,7.9c0,0.2,0,1.7,0.2,1.4c0.2-0.5,0.4-1,0.3-1.5c0,0.2,0,0.3,0,0.5
			c0.2,0.5,0.3,0.9,0.4,1.4c0.1-0.5,0.2-0.9,0.2-1.4c0-0.2-0.5-7.4,0.3-4.4c0,0.1,0,0.1,0.1,0.1l0.8,0.2l0,0
			c0.2-0.1,0.7-1.2,0.8-0.9s0.1-0.1,0.1-0.1c0.2-0.8,3.7-2.6,4.4-3.2c1.1-0.9,2.1-1.9,3.1-3c0.7-0.7,1.4-1.5,2-2.3
			c0.4-0.5-0.4-2.2,0,0.1c0,0.1,0,0.1,0.1,0.1c0.4,0,0.1,5.1,0.1,5.6c0,0.4,0.1,0.7,0.2,1.1l0.6-1.4l-0.2-1.1c0,1.3-0.1,2.6-0.2,3.9
			c0,0.4,0.1,2.5,0.3,1.1c0.2-1.6,0.4-3.3,0.7-4.9c0.1-0.3,0-2.6-0.2-1.6c0,0-0.2,2.1,0.2,1.3c0.2-0.7,0.2-1.3,0.2-2
			c0.1-1.3,0.1-2.6,0-3.9S65,8.1,65,8.5l-0.3,4.8c-0.1,0.3,0,2.6,0.2,1.6c0.1-0.7,0.2-2.9-0.4-0.6c-0.2,0.7-0.3,1.5-0.3,2.2
			c0.1,1.3,0.3,0.5,0.4-0.3s0.1-1.7,0.1-2.5c0-0.4-0.1-0.7-0.2-1.1l-0.6,1.4l0.2,1.1c0.2-2.1,0.2-4.3,0.1-6.4c0-0.4-0.1-0.8-0.2-1.1
			l0,0l-0.2-0.5c-0.1-0.4-0.2,0.9-0.2,1.1c0,0.5-3.5,3.4-4,3.8c-1,0.9-3.1,3.4-4.5,2.6l0,0c0.4-0.4-0.8,1.2-1,0.8
			c-0.1-0.2-0.2,0.3-0.2,0.2l-0.7,0.9l0,0c-0.5-0.1-0.9-0.5-0.8-1c-0.1-0.4-0.2,0.5-0.2,0.5c-0.2,2.6-0.3,5.2-0.2,7.8l0.1-1.4
			l-0.2-1c0-0.1,0-1.2-0.2-0.8c-0.3,0.9-0.3,3.1-0.2,0.6c0-0.6,0-1.2,0-1.8c0-1.7-0.2-3.4-0.7-5.1C50.7,14.4,50.7,14.6,50.7,14.7
			L50.7,14.7z"/>
		<path class="st1" d="M66,11.1c0,0.9,0.2,1.7,0.3,2.6c0,0,0,0.2,0.1,0.1c0.3-0.7,0.6-1.4,0.8-2.1l-0.1-1.5c-0.2,1-0.5-0.1-0.5-0.2
			s0,0-0.1,0c-0.2,0.4-0.3,0.9-0.4,1.4c0,0.2,0,1.7,0,1.8c1.4-1.1,0.9-4,1-5.6L67,8.5c0.2,0.3,0.3,0.6,0.4,1c0,0,0,0,0.1,0
			c0.3-0.7,0.7-1.1,1.4-0.7l0,0c0.2-0.7,0.3-1.4,0.4-2.2c0-0.4,0-0.8,0-1.1c0,0-0.2-1.5-0.2-0.8c-0.1,0.4,0,0.8,0,1.2
			s0.1,0.2-0.2,0.5c-0.3,0.2-0.6,0.2-0.9,0.2l0,0c-0.3,0.7-0.4,0.6-0.7,0C67.1,7,67,7.3,67,7.6c0,1.1,0.2,2.9-0.7,3.7V13
			c-0.1-0.4,0.1-0.6,0.5-0.4c0.6,0.2,0,0.2,0.1,0.1c0.2-0.3,0.3-0.6,0.4-1c0-0.5,0-1-0.1-1.5c-0.1,0.4-0.2,1.7-0.7,1.4
			s-0.3-0.6-0.4-0.9C66.1,10.6,66.1,11,66,11.1L66,11.1z"/>
		<path class="st1" d="M12.9,6.4c0.4,0,0.8,0,1,0.2s0.1,0.5,0.3,0.6c0.2,0.1,0.5,0.1,0.7-0.2c0.1-0.2,0.3-0.4,0.4-0.6
			c0.4-0.5,1-0.7,1.7-0.6c0.6,0.1,1,0.7,1,1.3c0,0.3-0.1,0.5-0.2,0.8c0,0.8,1.2,1.3,1.9,0.9c0.2-0.1,0.3-0.3,0.5-0.4
			c0.6-0.2,1.1,0.1,1.3,0.7c0,0.1,0,0.1,0,0.2c0,0.6-0.3,1.1-0.8,1.5c-0.3,0.3-0.7,0.6-1.1,0.7c-0.3,0-0.6,0-0.8-0.1
			c-0.8-0.2-1.5-0.5-2.2-1c-0.6-0.5-1.3-1-2-1.4c-0.7-0.3-1.6-0.1-2.2-0.3c-1.2-0.5-1.3-1-1.8-2.2C11.4,6.4,12.1,6.4,12.9,6.4z"/>
		<path class="st1" d="M40.2,9l-1.3-1.3c-0.3-0.2-0.5-0.6-0.6-1c0-0.7,1-1,1.9-1.1c1.1-0.1,2.5,0.1,3,1c0.2,0.5,0.3,1.1,0.4,1.7
			c0.2,0.6,1,1.1,1.5,0.7c0.6,0.6-0.1,1.6-1,1.8c-0.9,0-1.8-0.3-2.5-0.9"/>
	</g>
</g>
</svg>
