<svg xmlns="http://www.w3.org/2000/svg" viewBox="0 0 65.89 37.61"><defs><style>.cls-1{fill:#eef6fe;}.cls-2{fill:#c6ebf4;}.cls-3{fill:#90bdd9;}</style></defs><title>4</title><g id="Слой_2" data-name="Слой 2"><g id="OBJECTS"><path class="cls-1" d="M4.6,9.31A.33.33,0,0,1,4.24,9V6.45h0L4,6.31,4,6.26,3.8,6.15l-.11-.06-.25-.14-.17-.09-.13-.06L3,5.71l-.13-.05-.22-.08-.12,0-.36-.09H2.08l0,0H2L2,5.39h0l-.08,0h0c-.2-.07-.47-.18-.74-.3h0c-.76-.35-1.46-.83-.07-1,2.17-.42,3.47-.36,5.36-1.39a9,9,0,0,1,5.68-1.16c2.19.38,2.83,1.2,5.19.42C19.09,1.34,20.47.11,22.6.26s2.87,1.51,5.51,1.26c1.07-.1,1.84-.6,2.8-.71,1.43-.16,2.09.89,3.32.86,1.56,0,23.72-2,27.39.79a5.33,5.33,0,0,1,.91.9l0,0a1.77,1.77,0,0,1,.14.22c.32.6.34,1.31,1,1.82,1.2,1,1.64.46,1.94,1.82C66,9,63.87,9.71,64.49,11.58A6.4,6.4,0,0,1,65,15.11c-.13,1,.55,2.94-.13,3.83-.34.45-1.18.32-1.58.76a7.42,7.42,0,0,0-.83,1.89c-1.28,2.61-4.86,5.37-4.84.81,0-1.32.15-2.5.23-3.72.12-1.87-2.06-1.36-3.33-2.73-1-1.06-.55-2.71-1.91-3.6a17.62,17.62,0,0,0-4.89-2c-2.08-.35-4.39.11-6.46-.14a19,19,0,0,0-5-.28,44.91,44.91,0,0,1-5.73.83,19,19,0,0,0-2.4,0c-1,.14-1.84.73-2.77.92l-.41.07h-.12l-.3,0h-.21v2.56a.37.37,0,0,1-.72,0V11.75l-.08,0-.26-.05L23,11.6h0v1.25a.37.37,0,0,1-.72,0V11.32h0c-.27-.12-.53-.25-.8-.39l0,0v7a.37.37,0,0,1-.72,0V10.56l-.32-.14-.06,0L20,10.28l-.16-.06-.21-.07L19.28,10a15.06,15.06,0,0,0-3.18-.25c-1.82-.06-1.44-.25-2.71-.88L13,8.75l-.09,0-.33-.13h0l-.35-.11-.08,0-.3-.08h0l-.34-.06H11.4l-.29,0h0l-.33,0h-.07l-.29,0H9.25V9.43a.37.37,0,0,1-.72,0V8.11L8,8.08H8v4.49a.33.33,0,0,1-.36.27.33.33,0,0,1-.36-.27V8L7.11,8l-.3-.06-.24-.07v7.56a.33.33,0,0,1-.36.27.33.33,0,0,1-.36-.27V7.55A6.76,6.76,0,0,1,5,7V9A.33.33,0,0,1,4.6,9.31Z" transform="translate(0 0)"/><path class="cls-2" d="M58.62,25.06c-.81-.19-1.22-1.08-1.21-2.66,0-.89.07-1.73.14-2.54,0-.4.07-.79.09-1.19.06-.88-.44-1.1-1.38-1.45a4.53,4.53,0,0,1-1.88-1.09,3.84,3.84,0,0,1-.81-1.73,2.77,2.77,0,0,0-1.06-1.83,17.32,17.32,0,0,0-4.8-2,17,17,0,0,0-3.41-.1,19.76,19.76,0,0,1-3,0l-.89-.12a15,15,0,0,0-4.06-.16c-.72.09-1.42.23-2.09.36a19.11,19.11,0,0,1-3.67.47l-.84,0a8.63,8.63,0,0,0-1.53,0,6.08,6.08,0,0,0-1.47.47,7,7,0,0,1-1.28.44L25,12h-.08l-.29,0v2.31a.62.62,0,0,1-1.22,0V12l-.14,0v.92a.62.62,0,0,1-1.22,0V11.49l-.34-.16v6.57a.62.62,0,0,1-1.22,0V10.72l-.17-.07.1-.23-.16.2-.27-.11-.1,0-.09,0-.16-.06-.38-.11a10.48,10.48,0,0,0-2.4-.22l-.73,0A3.21,3.21,0,0,1,14,9.56a8,8,0,0,0-.74-.42L12.93,9l-.09,0-.34-.13-.33-.11.07-.24-.15.22-.33-.08-.32-.06h-.07l-.33,0-.33,0h-.07l-.33,0H10V8.16l-.08.25H9.5v1a.57.57,0,0,1-.61.52.57.57,0,0,1-.61-.52V8.35h0v4.22a.57.57,0,0,1-.61.52A.57.57,0,0,1,7,12.56V8.21l-.22,0v7.24a.57.57,0,0,1-.61.52.57.57,0,0,1-.61-.52V7.7l-.39-.23V9a.57.57,0,0,1-.61.52A.57.57,0,0,1,4,9V6.58L3.9,6.51,4,6.31l-.21.16-.27-.18-.23-.14-.17-.09L3,6l-.18-.08-.12,0L2.49,5.8l-.07,0-.34-.09L2,5.67l.08-.24-.14.21-.08,0,.09-.23-.18.2c-.2-.07-.48-.19-.76-.31C.26,4.92,0,4.64,0,4.33s.55-.46,1-.5,1.07-.19,1.55-.26a10,10,0,0,0,3.74-1.1,9.2,9.2,0,0,1,5.84-1.18,13.88,13.88,0,0,1,1.67.41,4.72,4.72,0,0,0,3.4,0A13.68,13.68,0,0,0,18.84,1a7.09,7.09,0,0,1,3.77-1A6.72,6.72,0,0,1,25,.69a5.43,5.43,0,0,0,3.08.59A6.19,6.19,0,0,0,29.54.91,6.37,6.37,0,0,1,30.88.57a3.39,3.39,0,0,1,2,.46,3,3,0,0,0,1.35.4l1.54-.1c5.62-.39,22.73-1.58,26,.94a5.59,5.59,0,0,1,.95.94l0,.05a2,2,0,0,1,.16.25,4.45,4.45,0,0,1,.27.67,2.18,2.18,0,0,0,.62,1.07,4,4,0,0,0,1,.62c.51.23.81.41,1,1.34a2.78,2.78,0,0,1-.62,2.22,2.19,2.19,0,0,0-.5,2.07l.16.49a5.8,5.8,0,0,1,.4,3.14,6,6,0,0,0,.07,1.33,3.77,3.77,0,0,1-.25,2.62,1.59,1.59,0,0,1-.92.48,1.37,1.37,0,0,0-.67.3A2.93,2.93,0,0,0,63,21a5.37,5.37,0,0,1-.27.74c-.83,1.7-2.53,3.39-3.81,3.39A1.3,1.3,0,0,1,58.62,25.06ZM35.79,1.82l-1.57.1a3.29,3.29,0,0,1-1.58-.45,2.87,2.87,0,0,0-1.71-.41,5.86,5.86,0,0,0-1.24.32,6.63,6.63,0,0,1-1.57.39,6,6,0,0,1-3.33-.63A6.22,6.22,0,0,0,22.58.51a6.62,6.62,0,0,0-3.52.94,13.91,13.91,0,0,1-1.71.73,5.17,5.17,0,0,1-3.7,0A13.39,13.39,0,0,0,12,1.77,8.7,8.7,0,0,0,6.53,2.9,10.44,10.44,0,0,1,2.63,4.06c-.47.07-1,.15-1.55.26a2.11,2.11,0,0,0-.53.1,2.69,2.69,0,0,0,.68.4c.26.12.53.23.77.32l.06,0L2,5.39l.16-.21L2,5.41l.15-.21.38.1.12,0,.23.08.13.05.21.09.12.06.18.1.29.17.26.17.07,0,.2.14a.25.25,0,0,1,.1.2V9a.15.15,0,0,0,.11,0,.3.3,0,0,0,.11,0V7a.25.25,0,0,1,.4-.2A6.38,6.38,0,0,0,6,7.33a.25.25,0,0,1,.13.22v7.84a.15.15,0,0,0,.11,0,.36.36,0,0,0,.11,0V7.85a.25.25,0,0,1,.1-.2.25.25,0,0,1,.22,0l.23.06.28.06.17,0A.25.25,0,0,1,7.54,8v4.55a.15.15,0,0,0,.11,0,.36.36,0,0,0,.11,0V8.08a.26.26,0,0,1,.09-.18A.25.25,0,0,1,8,7.83l.5,0a.25.25,0,0,1,.24.25v1.3a.15.15,0,0,0,.11,0,.35.35,0,0,0,.11,0V8.14A.26.26,0,0,1,9.09,8a.27.27,0,0,1,.2-.07l.63,0H10l.4,0,.29,0h.07l.39,0,.3,0h.08l.39.08.32.08.08,0,.39.12.34.13.1,0,.38.17a8.54,8.54,0,0,1,.78.44c.44.27.59.37,1.83.41l.72,0a10.85,10.85,0,0,1,2.51.24l.41.12.18.06-.09.23L20,10l.11,0,.28.12.07,0,.32.15a.25.25,0,0,1,.14.23v7.31a.15.15,0,0,0,.11,0,.27.27,0,0,0,.11,0v-7a.25.25,0,0,1,.14-.21.28.28,0,0,1,.26,0l.77.37.06,0a.25.25,0,0,1,.11.21v1.51a.15.15,0,0,0,.11,0,.42.42,0,0,0,.11,0V11.6a.25.25,0,0,1,.1-.2.25.25,0,0,1,.23,0l.29.08.24,0,0,.25.11-.23a.25.25,0,0,1,.21.25v2.59a.15.15,0,0,0,.11,0,.29.29,0,0,0,.11,0V11.8a.25.25,0,0,1,.25-.25h.2l.28,0h.11l.39-.06A6.62,6.62,0,0,0,26.51,11a6.44,6.44,0,0,1,1.59-.51,9,9,0,0,1,1.62,0l.81,0a18.47,18.47,0,0,0,3.57-.46c.68-.13,1.39-.27,2.13-.37a15.26,15.26,0,0,1,4.19.16l.89.12a19.31,19.31,0,0,0,3,0,17.54,17.54,0,0,1,3.51.1,17.77,17.77,0,0,1,5,2,3.21,3.21,0,0,1,1.27,2.12,3.41,3.41,0,0,0,.69,1.52,4.07,4.07,0,0,0,1.69,1c.88.32,1.79.66,1.71,2,0,.4-.06.8-.09,1.2-.07.8-.14,1.63-.14,2.5s.14,2,.83,2.17c.92.21,2.67-1.32,3.54-3.09a4.88,4.88,0,0,0,.25-.67,3.3,3.3,0,0,1,.62-1.28,1.77,1.77,0,0,1,.91-.44,1.21,1.21,0,0,0,.65-.3,3.52,3.52,0,0,0,.15-2.25,6.34,6.34,0,0,1-.07-1.46,5.29,5.29,0,0,0-.38-2.92l-.17-.5a2.69,2.69,0,0,1,.55-2.49,2.28,2.28,0,0,0,.55-1.84c-.16-.73-.32-.8-.73-1a4.55,4.55,0,0,1-1.12-.69,2.64,2.64,0,0,1-.77-1.29,4,4,0,0,0-.24-.6,1.78,1.78,0,0,0-.15-.23,5.1,5.1,0,0,0-.86-.86c-1.26-1-4.93-1.45-11-1.45Q44.63,1.21,35.79,1.82Z" transform="translate(0 0)"/><path class="cls-2" d="M64.85,11.76c.32,2,.85,4.39.36,6.38-.92,3.76-4,5.23-4.62,9.63-.09.63-.2-.44-.2-.58.09-4.9.23-.52-.83-1,.35.16-1.79,0-1.26-.39,0,0-.12-.46-.07-.53-.55.81.06,5.42,0,6.58,0,.35-.22,1.36-.28.44-.11-1.76-.3-3.57-.32-5.33,0-1,.08-4.34,0-.25,0,.19-.19,1.45-.28.68A68.83,68.83,0,0,1,57,17.8c0-.19.15-1.45.27-.68.4,2.48-2.26.45-3,3.14-.09.31-.19-1.29-.14-1.57,1.27-7.75-9.13-7.07-13.65-7.1l-8.22,0c-3.3,0-8-.8-7.66,4.07,0,.19-.14,1.8-.26,1.39L24,15.72c-.18,1.23-.31-.65-.26-1l.11-.79c0-.08.12-.76.23-.36.87,3-.07,1.67.2-.24A5.56,5.56,0,0,1,25,10.8c1.59-2,5.05-1.29,7.28-1.28l10,.06c4.74,0,10.17-.16,11.86,5.25a13,13,0,0,1,.35,3.09c.23,2.14,0-.73.27-1.76A.16.16,0,0,1,54.9,16c2.05.66,2.6,1.68,2.8,3.67,0,.28-.12,2.2-.25,1.4-.74-4.61-.16,8.53,0,1.81,0-.38.23-1.47.29-.47s-.26,6.64.42,7.17q-.39,1.47-.06-1.45.06-1.84.12-3.68c0-.54.2-1.11.23-.19q1.1,1.41,2.09-1.27c.12-.35.17.62.17.69,0,2.34-.18,1.54.42-.22,1.7-5,4.53-4.34,3.67-11.27a1.44,1.44,0,0,1,.06-.46Z" transform="translate(0 0)"/><polygon class="cls-3" points="57.58 21.71 57.58 21.69 57.58 21.71 57.58 21.71"/><path class="cls-2" d="M58,24a36.67,36.67,0,0,1-1,9.86c-.08.35-.19-1.15-.17-1.37.28-2.82.42-5.62.42-8.46,0-.35.19-2,.28-.77q.34,4.62.4,9.24c0,.17-.19,1.88-.29,1-.25-2.15-.88,3.7-.88,3.69-.18,1.29-.32-.68-.27-1.07.76-5.65-.66-11.2.51-16.83.09-.44.19.8.19.91q-.07,3.14-.15,6.28c0,1.17-.31,1.19-.3,0,0-2.79.19.52,0,1.27-.38,1.49.08-.59.32-1,.06-.1.1.07.11.1.23,1,.06.64-.08,1.45a19,19,0,0,0-.15-3.44c0-2.1,0-4.19.17-6.28.09-1.36.28-.12.24.53a67.66,67.66,0,0,0,.12,9.49c0,.24-.16,2-.25,1.18l-.7.15c-.11.37-.19-1.17-.17-1.37q.23-2.51.46-5c.1-1.09.27.12.26.53,0,3.31-.22-1.86-.19-2.66-.11,3.59.09,7,.17,10.5,0,1.05.32,2.9-.11,3.86-.24.52-.08-2-.07-2.2.07-1.15.34-2.32.51-3.45,0-.13.13-.48.2-.16a7.91,7.91,0,0,1,.12,1.42c0,.95-.16-2.09-.16-2.12a33.37,33.37,0,0,1-.19-3.74c.08-1,.1-.66.18.19a30.94,30.94,0,0,1-.21,4.88c0,.52-.1,1-.13,1.55.13-2.64.66-5.2.68-7.85,0-.15.1-.86.12-.34Z" transform="translate(0 0)"/><path class="cls-2" d="M21.36,14.67a27.18,27.18,0,0,1,.23,6.72c0,.06-.08.76-.18.45A8.94,8.94,0,0,1,20.67,19c-.11,1.75-.16-2.37.22-.58.06.3-.09,1.69-.16,1.46a30.11,30.11,0,0,1-.94-9.61c0-.18.13-1.33.23-.63l.33,2.32q-.07,3.06-1-.52c-.58-.41-2-.28-2.7-.4-1.59-.27-5.67-2.19-6.85-1l0,0c-.93-.87-.6.38-.82.9-.28.67-.71.92-1.06,1.57L8.05,11c.08,1.33.48,2.59-.18,3.83q0,.07-.08,0c-1.1-1.34-1-.32-1.17.86L6,19.35c-.12.72-.26-.24-.26-.46a13.73,13.73,0,0,1,0-2.66c.2-1,0-.51.29-.44s-.19.82-.24.91-.15-.27-.15-.27l0-.11c-.06-.32.14-2.32.27-1.49l-.14-.46c0-.73.31-1.5.32-.26,0,.71,0,1.42,0,2.13,0,1-.16,1.29,0,.11.22-1.56.54-3.12.81-4.68,0,0,.09-.43.16-.26a.91.91,0,0,0,1,1L8,13.92c-.06-1-.45-2.23-.11-3.26a10.72,10.72,0,0,1,.92-1.55c.2-.38,0-.79.32-1.16,1.26-1.37,5.8.83,7.12,1.08,1,.2,3,0,3.72.81.58.62.52,2.7.59,3.27,0,.27-.11,2.08-.22,1.33-.15-1.05-.23-2-.29-3.07.12,2.26.49,4.54.54,6.78s-.17-1.09-.18-1.4c0-.14.13-1.42.21-.77s.33,3.34.77,3.21,0-4,0-4.51c0,0,0,0,0,0Z" transform="translate(0 0)"/><path class="cls-2" d="M3.95,6.52A8.94,8.94,0,0,1,.53,6.28c-.32-.05,0-1.91,0-1.89A11.58,11.58,0,0,1,4,5.82c.08.06.07.68,0,.7Z" transform="translate(0 0)"/><path class="cls-2" d="M42.61,7.27c.06-.72.56-1.51.14-2.09A1.53,1.53,0,0,0,42,4.69a2.9,2.9,0,0,0-1.47-.21,1.15,1.15,0,0,0-1,1c0,.44.25,1-.13,1.24a.76.76,0,0,1-.54,0l-2.29-.45c-.91-.18-2-.28-2.6.46s.09,2.12,1,2.58a22.13,22.13,0,0,0,3.08.76c.49.15,1,.39,1.46.52a5.73,5.73,0,0,0,2.06.07A10.63,10.63,0,0,0,44.36,10C44.19,8.83,42.49,8.71,42.61,7.27Z" transform="translate(0 0)"/></g></g></svg>