<svg xmlns="http://www.w3.org/2000/svg" viewBox="0 0 24 24">
	<defs>
		<style>.cls-1{fill:#6cc4eb;}.cls-2{fill:#fff;}</style>
	</defs>
	<title>new_tw</title>
	<g id="Слой_2" data-name="Слой 2">
		<g id="Слой_1-2" data-name="Слой 1">
			<circle class="cls-1" cx="12" cy="12" r="12"/>
			<path class="cls-2" d="M20.87,7.14a4.59,4.59,0,0,1-1.93.46,3.09,3.09,0,0,0,1.47-1.93,7.86,7.86,0,0,1-2.21.83,3.36,3.36,0,0,0-4.78-.18,3.43,3.43,0,0,0-1,3.31A9.36,9.36,0,0,1,5.42,6a3.41,3.41,0,0,0,1.1,4.6A3.1,3.1,0,0,1,5,10.18H5a3.36,3.36,0,0,0,2.76,3.31,3.13,3.13,0,0,1-.92.09,1.56,1.56,0,0,1-.64-.09,3.58,3.58,0,0,0,3.22,2.39,6.36,6.36,0,0,1-4.32,1.66H4.23a9.76,9.76,0,0,0,15-8.18V8.89A7.47,7.47,0,0,0,20.87,7.14Z"/>
		</g>
	</g>
</svg>