<svg xmlns="http://www.w3.org/2000/svg" viewBox="0 0 32 32"><defs><style>.cls-1{fill:#db2824;}.cls-2{fill:#fff;}</style></defs><title>Ресурс 40</title><g id="Слой_2" data-name="Слой 2"><g id="для_футера_светлые" data-name="для футера светлые"><rect class="cls-1" width="32" height="32" rx="3" ry="3"/><path class="cls-2" d="M27,11.78c-.12-1.49-1-3.36-2.83-3.43a114,114,0,0,0-16.29,0C6.24,8.53,5.14,10.49,5,12a42.32,42.32,0,0,0,0,8c.12,1.49,1.2,3.46,2.83,3.66a120.87,120.87,0,0,0,16.29,0c1.59-.28,2.71-2.18,2.83-3.66A44.53,44.53,0,0,0,27,11.78ZM13.21,20v-8l7,4Z"/></g></g></svg>