<svg xmlns="http://www.w3.org/2000/svg" viewBox="0 0 24 24">
	<defs>
		<style>.cls-1{fill:#004359;}.cls-2{fill:#143644;}.cls-3{fill:#11adeb;}.cls-4{fill:#fff;}</style>
	</defs>
	<title>lj</title>
	<g id="Слой_2" data-name="Слой 2">
		<g id="Слой_1-2" data-name="Слой 1">
			<circle class="cls-1" cx="12" cy="12" r="12"/>
			<path class="cls-2" d="M15.26,12.56,9.91,7.22a6.56,6.56,0,0,0-3.24,3.13l5.41,5.41,2,.47,2.11.45-.45-2.11ZM13.92,16l-1.57-.36a5.62,5.62,0,0,1,2.77-2.77l.36,1.57A3.53,3.53,0,0,0,13.92,16Z"/>
			<path class="cls-3" d="M12.1,5.47A7.22,7.22,0,0,0,9.31,6L7.81,4.52a.13.13,0,0,0-.16,0A11.24,11.24,0,0,0,4,8.13a.13.13,0,0,0,0,.16L5.48,9.73a7.27,7.27,0,1,0,6.63-4.26ZM13.71,16l-2.14-.5L5.79,9.68A7,7,0,0,1,9.25,6.33L15,12l.51,2.14L16,16.45Z"/>
			<path class="cls-4" d="M12.35,15.61l1.57.36a3.53,3.53,0,0,1,1.56-1.56l-.36-1.57A5.62,5.62,0,0,0,12.35,15.61Z"/>
		</g>
	</g>
</svg>