<svg xmlns="http://www.w3.org/2000/svg" viewBox="0 0 24 24"><defs><style>.cls-1{fill:#2daae2;}.cls-2{fill:#fff;}</style></defs><title>Ресурс 16</title><g id="Слой_2" data-name="Слой 2"><g id="темные"><rect class="cls-1" width="24" height="24" rx="2" ry="2"/><path class="cls-2" d="M21.64,6.67a7.4,7.4,0,0,1-2.13.58A3.72,3.72,0,0,0,21.14,5.2a7.48,7.48,0,0,1-2.36.9,3.71,3.71,0,0,0-6.32,3.38A10.53,10.53,0,0,1,4.82,5.61,3.71,3.71,0,0,0,6,10.56a3.71,3.71,0,0,1-1.68-.47v0a3.71,3.71,0,0,0,3,3.64,3.76,3.76,0,0,1-1,.13,3.56,3.56,0,0,1-.7-.07,3.71,3.71,0,0,0,3.46,2.58A7.44,7.44,0,0,1,4.45,18a7.88,7.88,0,0,1-.88-.05A10.54,10.54,0,0,0,19.8,9.06V8.58A7.4,7.4,0,0,0,21.64,6.67Z"/></g></g></svg>