<svg xmlns="http://www.w3.org/2000/svg" viewBox="0 0 24 24">
	<defs>
		<style>.cls-1{fill:#34506b;}.cls-2{fill:#fff;}</style>
	</defs>
	<title>tmblr</title>
	<g id="Слой_2" data-name="Слой 2">
		<g id="Слой_1-2" data-name="Слой 1">
			<circle class="cls-1" cx="12" cy="12" r="12"/>
			<path id="Tumblr" class="cls-2" d="M13.41,17.07a1.49,1.49,0,0,1-.61-.69,6.91,6.91,0,0,1-.09-1.73v-4.1h3.73V7.69H12.71V4h-2.3a6.16,6.16,0,0,1-.56,2A4.39,4.39,0,0,1,8.76,7.4a5.71,5.71,0,0,1-1.82.88v2.27h2.2v5.61a4.7,4.7,0,0,0,.23,1.68,2.88,2.88,0,0,0,.83,1.09,4.28,4.28,0,0,0,1.45.79,5,5,0,0,0,1.74.28,8.13,8.13,0,0,0,1.81-.19,9.84,9.84,0,0,0,1.87-.68V16.59a4.43,4.43,0,0,1-2.44.79A2.36,2.36,0,0,1,13.41,17.07Z"/>
		</g>
	</g>
</svg>