<svg xmlns="http://www.w3.org/2000/svg" viewBox="0 0 17 17"><title>Share</title><g id="680838fb-4f1b-45ae-8250-5f8e30f83efc" data-name="Слой 2"><g id="f73deb6d-0ce4-49e5-91c4-cc06b3efe174" data-name="Слой 1"><path d="M14.08,11.09A2.87,2.87,0,0,0,12,12L5.79,9a2.74,2.74,0,0,0,0-.87L12,5a2.87,2.87,0,0,0,4.1.11A3,3,0,0,0,16.2.92,2.87,2.87,0,0,0,12.1.81,3,3,0,0,0,11.19,3a3,3,0,0,0,0,.43L5,6.5a2.87,2.87,0,0,0-4.1-.12,3,3,0,0,0-.11,4.18,2.87,2.87,0,0,0,4.1.12L5,10.56l6.18,3a3,3,0,0,0,0,.44,2.9,2.9,0,1,0,2.9-3Z" style="fill:#666"/></g></g></svg>