<svg xmlns="http://www.w3.org/2000/svg" xmlns:xlink="http://www.w3.org/1999/xlink" viewBox="0 0 24 24"><defs><style>.cls-1{fill:url(#Безымянный_градиент_11);}.cls-2{fill:#fff;}</style><linearGradient id="Безымянный_градиент_11" x1="11.92" y1="23.61" x2="12.08" y2="0.5" gradientUnits="userSpaceOnUse"><stop offset="0" stop-color="#3f6790"/><stop offset="1" stop-color="#6085ac"/></linearGradient></defs><title>Ресурс 13</title><g id="Слой_2" data-name="Слой 2"><g id="темные"><rect class="cls-1" width="24" height="24" rx="2" ry="2"/><g id="_Группа_" data-name="&lt;Группа&gt;"><path id="_Контур_" data-name="&lt;Контур&gt;" class="cls-2" d="M19,13.49a26.46,26.46,0,0,1,1.9,1.91,5.56,5.56,0,0,1,.68,1c.26.51,0,1.07-.43,1.1H18.33a2.19,2.19,0,0,1-1.8-.73c-.39-.4-.76-.82-1.13-1.24a2.68,2.68,0,0,0-.51-.45.59.59,0,0,0-.94.23,3,3,0,0,0-.3,1.32c0,.67-.23.84-.9.87a7.24,7.24,0,0,1-4.05-.87A9,9,0,0,1,6,14.06a34.37,34.37,0,0,1-3.59-6.4c-.23-.5-.06-.77.5-.78.92,0,1.85,0,2.77,0a.81.81,0,0,1,.77.58A17.19,17.19,0,0,0,8.3,10.94a3,3,0,0,0,.71.78.43.43,0,0,0,.73-.22,2.42,2.42,0,0,0,.16-.73,10.88,10.88,0,0,0,0-2.56,1.07,1.07,0,0,0-.91-1c-.27-.05-.23-.15-.1-.31a1,1,0,0,1,.87-.43h3.2c.5.1.62.33.68.83v3.55c0,.2.1.78.45.91s.47-.13.64-.31a11,11,0,0,0,1.8-2.77c.22-.44.4-.89.58-1.35a.69.69,0,0,1,.72-.5h3.08l.27,0c.52.09.66.31.5.82a7.69,7.69,0,0,1-1.22,2.12c-.51.71-1.06,1.4-1.57,2.11s-.43,1,.15,1.55Z"/></g></g></g></svg>