<svg xmlns="http://www.w3.org/2000/svg" xmlns:xlink="http://www.w3.org/1999/xlink" viewBox="0 0 24 24">
	<defs>
		<style>.cls-1{fill:url(#Безымянный_градиент);}.cls-2{fill:#fff;}</style>
		<linearGradient id="Безымянный_градиент" y1="30" x2="24" y2="30" gradientTransform="translate(0 -18)" gradientUnits="userSpaceOnUse">
		<stop offset="0" stop-color="#3f6790"/><stop offset="1" stop-color="#6085ac"/>
		<stop offset="1"/></linearGradient>
	</defs>
	<title>new_vk</title>
	<g id="Слой_2" data-name="Слой 2">
		<g id="Слой_1-2" data-name="Слой 1">
			<circle class="cls-1" cx="12" cy="12" r="12"/>
			<g id="_Группа_" data-name=" Группа ">
				<path id="_Контур_" data-name=" Контур " class="cls-2" d="M18.34,13.27A15.56,15.56,0,0,1,20.07,15a3.28,3.28,0,0,1,.64.91c.27.46,0,1-.37,1H17.79a1.9,1.9,0,0,1-1.64-.64,10.94,10.94,0,0,1-1-1.1,1.6,1.6,0,0,0-.46-.37.48.48,0,0,0-.73.09c0,.09-.09.09-.09.18a2.81,2.81,0,0,0-.27,1.19c0,.64-.18.73-.82.82A6.81,6.81,0,0,1,9,16.28a7.66,7.66,0,0,1-2.46-2.37A33.18,33.18,0,0,1,3.28,8.07c-.27-.55-.18-.82.37-.82H6.2a.69.69,0,0,1,.73.55A21.12,21.12,0,0,0,8.57,11a2.46,2.46,0,0,0,.64.73.34.34,0,0,0,.55,0c.09-.09.09-.09.09-.18s.09-.46.18-.64a10.32,10.32,0,0,0,0-2.37,1,1,0,0,0-.82-.91c-.27-.09-.27-.18-.09-.37a.89.89,0,0,1,.82-.37h2.92c.46.09.55.27.64.73V10.9c0,.18.09.73.37.82a.44.44,0,0,0,.55-.27,12.24,12.24,0,0,0,1.64-2.56c.18-.37.37-.82.55-1.28a.69.69,0,0,1,.64-.46h3.1c.46.09.64.27.46.73a6.57,6.57,0,0,1-1.1,1.92c-.46.64-1,1.28-1.46,1.92s-.46,1,.09,1.55Z"/>
			</g>
		</g>
	</g>
</svg>