<svg xmlns="http://www.w3.org/2000/svg" viewBox="0 0 24 24"><defs><style>.cls-1{fill:#fa9314;}.cls-2{fill:#fff;}</style></defs><title>Ресурс 15</title><g id="Слой_2" data-name="Слой 2"><g id="темные"><rect class="cls-1" width="24" height="24" rx="2" ry="2"/><path class="cls-2" d="M11.49,15.56a6.89,6.89,0,0,1-3.67-1.31c-.13-.1-.27-.2-.39-.32a1.1,1.1,0,0,1,1.25-1.8,2.15,2.15,0,0,1,.3.18,6,6,0,0,0,6.68.06,1.81,1.81,0,0,1,.65-.34,1,1,0,0,1,1.17.47,1,1,0,0,1-.07,1.3,5.39,5.39,0,0,1-1.94,1.26,9.12,9.12,0,0,1-2.2.49l.24.26,3.06,3.08a1,1,0,0,1,.23,1.19,1.21,1.21,0,0,1-1.13.71,1.1,1.1,0,0,1-.72-.37c-.77-.78-1.56-1.54-2.31-2.33-.22-.23-.33-.19-.52,0-.77.8-1.56,1.58-2.35,2.36a1,1,0,0,1-1.19.21,1.21,1.21,0,0,1-.7-1.11,1.11,1.11,0,0,1,.37-.75l3-3Z"/><path class="cls-2" d="M12.33,12a4.49,4.49,0,1,1,4.51-4.43A4.49,4.49,0,0,1,12.33,12Zm2.23-4.49a2.19,2.19,0,1,0-2.18,2.2A2.19,2.19,0,0,0,14.55,7.55Z"/></g></g></svg>