<svg xmlns="http://www.w3.org/2000/svg" viewBox="0 0 24 24">
	<defs>
		<style>.cls-1{fill:#fa9314;}.cls-2{fill:#fff;}</style>
	</defs>
	<title>new_ok</title>
	<g id="Слой_2" data-name="Слой 2">
		<g id="Слой_1-2" data-name="Слой 1">
			<circle class="cls-1" cx="12" cy="12" r="12"/>
			<path class="cls-2" d="M11.13,15.49a7,7,0,0,1-3.59-1.26c-.1-.1-.29-.19-.39-.29a1,1,0,0,1-.1-1.45,1.17,1.17,0,0,1,1.36-.29c.1.1.19.1.29.19a5.86,5.86,0,0,0,6.49.1.84.84,0,0,1,.58-.29,1.11,1.11,0,0,1,1.16.48.91.91,0,0,1-.1,1.26A4.81,4.81,0,0,1,15,15.2a7.61,7.61,0,0,1-2.13.48l.19.29,3,3a1,1,0,0,1,.19,1.16,1.19,1.19,0,0,1-1.07.68,1,1,0,0,1-.68-.39C13.74,19.66,13,19,12.29,18.2c-.19-.19-.29-.19-.48,0L9.48,20.53a1,1,0,0,1-1.16.19A1.09,1.09,0,0,1,8,18.88L10.93,16Z"/>
			<path class="cls-2" d="M12,12a4.36,4.36,0,1,1,4.36-4.36h0A4.47,4.47,0,0,1,12,12Zm2.13-4.36A2.13,2.13,0,1,0,12,9.77a2.09,2.09,0,0,0,2.13-2.13Z"/>
		</g>
	</g>
</svg>