<svg xmlns="http://www.w3.org/2000/svg" viewBox="0 0 24 24">
	<defs>
		<style>.cls-1{fill:#00468c;}.cls-2{fill:#e99a11;}</style>
	</defs>
	<title>new_mail</title>
	<g id="Слой_2" data-name="Слой 2">
		<g id="Слой_1-2" data-name="Слой 1">
			<circle class="cls-1" cx="12" cy="12" r="12"/>
			<path class="cls-2" d="M12,20.39A8.39,8.39,0,1,1,20.38,12h0a1.09,1.09,0,0,1-2.18,0,6.2,6.2,0,1,0-3.1,5.38,1.1,1.1,0,1,1,1.09,1.9A8.39,8.39,0,0,1,12,20.39Z"/>
			<path class="cls-2" d="M12,16.75A4.75,4.75,0,1,1,16.75,12,4.75,4.75,0,0,1,12,16.75Zm0-7.3A2.56,2.56,0,1,0,14.56,12h0A2.56,2.56,0,0,0,12,9.44Z"/>
			<path class="cls-2" d="M17.48,16.75a2.92,2.92,0,0,1-2.91-2.92V12a1.09,1.09,0,0,1,2.19,0v1.83a.7.7,0,0,0,.21.51.73.73,0,0,0,1,0h0a.72.72,0,0,0,.21-.52V12a1.09,1.09,0,1,1,2.18,0v1.83a2.91,2.91,0,0,1-2.85,2.93Z"/>
		</g>
	</g>
</svg>