<svg viewBox="0 0 30 30" xmlns="http://www.w3.org/2000/svg">
<path d="m27.5 0h-25c-1.3807 0-2.5 1.1193-2.5 2.5v25c0 1.3807 1.1193 2.5 2.5 2.5h25c1.3807 0 2.5-1.1193 2.5-2.5v-25c0-1.3807-1.1193-2.5-2.5-2.5z" fill="#ECECEC"/>
<path transform="translate(3.75 9.8262)" d="m4.9865 7.5208l-0.78319 2.9238-2.8626 0.0605c-0.85549-1.5867-1.3407-3.4021-1.3407-5.3313 0-1.8655 0.45369-3.6247 1.2579-5.1738h6.2e-4l2.5485 0.46723 1.1164 2.5332c-0.23366 0.6812-0.36101 1.4124-0.36101 2.1734 9e-5 0.82582 0.14968 1.617 0.42411 2.347z" fill="#FBBB00"/>
<path transform="translate(15.247 12.898)" d="m10.806 0c0.1292 0.68054 0.1966 1.3834 0.1966 2.1016 0 0.80543-0.0847 1.5911-0.246 2.3489-0.5477 2.5788-1.9787 4.8307-3.961 6.4242l-6.1e-4 -6e-4 -3.2099-0.1638-0.45431-2.836c1.3154-0.77141 2.3433-1.9786 2.8848-3.4238h-6.0157v-4.4506h10.806z" fill="#518EF8"/>
<path transform="translate(5.0907 17.347)" d="m16.952 6.4255l7e-4 6.2e-4c-1.928 1.5496-4.377 2.4768-7.043 2.4768-4.2843 0-8.0091-2.3946-9.9093-5.9186l3.6458-2.9843c0.95005 2.5356 3.396 4.3405 6.2635 4.3405 1.2325 0 2.3872-0.33319 3.378-0.91485l3.6643 2.9998z" fill="#28B446"/>
<path transform="translate(5.0079 3.75)" d="m17.173 2.59l-3.6445 2.9837c-1.0254-0.64098-2.2376-1.0113-3.5363-1.0113-2.9324 0-5.4241 1.8878-6.3266 4.5142l-3.6649-3.0004h-6.1523e-4c1.8723-3.6099 5.6442-6.0762 9.9921-6.0762 2.7297 0 5.2325 0.97233 7.1808 2.59z" fill="#F14336"/>
</svg>