<svg xmlns="http://www.w3.org/2000/svg" viewBox="0 0 24 24">
	<defs>
		<style>.cls-1{fill:#d73532;}.cls-2{fill:#fff;}</style>
	</defs>
	<title>new_pin</title>
	<g id="Слой_2" data-name="Слой 2">
		<g id="Слой_1-2" data-name="Слой 1"><circle class="cls-1" cx="12" cy="12" r="12"/>
			<path class="cls-2" d="M19,8c-.5-3.59-4.09-5.39-7.89-5A6.83,6.83,0,0,0,4.91,9.2c-.1,2.1.5,3.69,2.6,4.19.9-1.6-.3-1.9-.5-3-.7-4.59,5.29-7.79,8.49-4.49,2.2,2.2.8,9.09-2.8,8.39s1.7-6.09-1-7.19c-2.2-.9-3.4,2.7-2.3,4.39-.6,3-1.9,5.89-1.4,9.59,1.7-1.3,2.3-3.69,2.8-6.19a5.44,5.44,0,0,0,2.4,1.2C17.29,16.39,19.49,12,19,8Z"/>
		</g>
	</g>
</svg>