<svg xmlns="http://www.w3.org/2000/svg" viewBox="0 0 24 24">
	<defs>
		<style>.cls-1{fill:#ff7011;}.cls-2{fill:#fff;}</style>
	</defs>
	<title>new_bl</title>
		<g id="Слой_2" data-name="Слой 2">
			<g id="Слой_1-2" data-name="Слой 1">
				<circle class="cls-1" cx="12" cy="12" r="12"/>
				<path class="cls-2" d="M18.91,13.95a3.59,3.59,0,0,0-.5-2.36,2.61,2.61,0,0,0-2.11-.86,5.24,5.24,0,0,0,.1-1.66,3.49,3.49,0,0,0-3.47-3.51H9.59A3.84,3.84,0,0,0,6.71,6.65a3.76,3.76,0,0,0-1.06,2.5v5.41a4.49,4.49,0,0,0,1,3.27A4.19,4.19,0,0,0,9.79,19h4.95a4.16,4.16,0,0,0,3-1.18,4.47,4.47,0,0,0,1.15-3.14S18.91,14.15,18.91,13.95Zm-9-5.67h2.71A1.2,1.2,0,0,1,13.72,9.5a1.11,1.11,0,0,1-1.13,1.09H9.84a1.16,1.16,0,0,1,0-2.31h0ZM15,15.89H9.55a1.16,1.16,0,0,1,0-2.31H15a1.16,1.16,0,1,1,0,2.31Z"/>
			</g>
		</g>
</svg>