<svg width="17" height="15" viewBox="0 0 17 15" fill="none" xmlns="http://www.w3.org/2000/svg">
<path d="M16.6356 0.760755C16.5124 0.636291 16.3661 0.573853 16.1976 0.573853H6.22985C6.06115 0.573853 5.91506 0.636291 5.79184 0.760755C5.66859 0.885391 5.60691 1.03304 5.60691 1.20354V3.09248H4.04939C3.87415 3.09248 3.68424 3.13511 3.47985 3.22036C3.27542 3.30575 3.1116 3.4105 2.98835 3.53514L1.06094 5.4831C0.976626 5.56835 0.903699 5.66666 0.84192 5.77824C0.780312 5.88954 0.734864 5.98981 0.705646 6.0782C0.676495 6.16682 0.655289 6.28801 0.642435 6.44228C0.629548 6.59649 0.621297 6.70961 0.618058 6.7818C0.614955 6.85389 0.614955 6.97856 0.618058 7.15568C0.621331 7.33286 0.622968 7.44754 0.622968 7.50009V10.6482C0.454304 10.6482 0.308313 10.7105 0.184961 10.8352C0.0616763 10.9596 0 11.1073 0 11.2779C0 11.3761 0.0128876 11.4631 0.0388673 11.5384C0.0648811 11.6139 0.108624 11.6745 0.170402 11.7205C0.23201 11.7665 0.285572 11.8041 0.330952 11.8337C0.376467 11.8632 0.452702 11.8828 0.559757 11.8927C0.666813 11.9026 0.739774 11.9092 0.778744 11.9125C0.817713 11.9155 0.900391 11.9155 1.02691 11.9125C1.15357 11.9092 1.22654 11.9075 1.24604 11.9075H1.86897C1.86897 12.6025 2.11237 13.1962 2.59896 13.6881C3.08572 14.18 3.67296 14.426 4.36088 14.426C5.04872 14.426 5.63603 14.18 6.12269 13.6881C6.60945 13.1962 6.85268 12.6025 6.85268 11.9075H10.5907C10.5907 12.6025 10.8341 13.1962 11.3207 13.6881C11.8072 14.18 12.3946 14.426 13.0825 14.426C13.7705 14.426 14.3575 14.18 14.8443 13.6881C15.3311 13.1962 15.5743 12.6025 15.5743 11.9075C15.5937 11.9075 15.6668 11.9092 15.7932 11.9125C15.9198 11.9155 16.0025 11.9155 16.0415 11.9125C16.0805 11.9092 16.1536 11.9026 16.2606 11.8927C16.3676 11.8828 16.4438 11.8632 16.4893 11.8337C16.5348 11.8042 16.5882 11.7665 16.6499 11.7205C16.7116 11.6745 16.7554 11.6139 16.7813 11.5384C16.8076 11.4631 16.8203 11.3761 16.8203 11.2779V1.20365C16.8204 1.03311 16.7588 0.885632 16.6356 0.760755ZM5.23675 12.7929C4.99029 13.0421 4.69817 13.1669 4.36074 13.1669C4.02328 13.1669 3.73123 13.0422 3.48462 12.7929C3.23802 12.5439 3.11477 12.2486 3.11477 11.9076C3.11477 11.5666 3.23816 11.2711 3.48462 11.022C3.73119 10.7729 4.02324 10.6482 4.36074 10.6482C4.69817 10.6482 4.99025 10.7728 5.23675 11.022C5.48346 11.2711 5.60678 11.5666 5.60678 11.9076C5.60678 12.2486 5.48346 12.5439 5.23675 12.7929ZM5.60678 6.87033H1.86883V6.57529C1.86883 6.49001 1.89798 6.41785 1.95639 6.35879L3.85454 4.44043C3.91291 4.38136 3.98441 4.35194 4.06876 4.35194H5.60678V6.87033ZM13.9585 12.7929C13.712 13.0421 13.4199 13.1669 13.0825 13.1669C12.745 13.1669 12.4528 13.0422 12.2063 12.7929C11.9597 12.5439 11.8364 12.2486 11.8364 11.9076C11.8364 11.5666 11.9597 11.2711 12.2063 11.022C12.4528 10.7729 12.745 10.6482 13.0825 10.6482C13.4199 10.6482 13.712 10.7728 13.9585 11.022C14.205 11.2713 14.3285 11.5666 14.3285 11.9076C14.3285 12.2486 14.2052 12.5439 13.9585 12.7929Z" fill="#7685B4"/>
</svg>
