<svg width="42" height="42" viewBox="0 0 42 42" fill="none" xmlns="http://www.w3.org/2000/svg">
<circle cx="21" cy="21" r="20.5" fill="white" stroke="#D9D9DA"/>
<g clip-path="url(#clip0)">
<path d="M14.0973 22.8992L13.2967 25.8879L10.3705 25.9498C9.49603 24.3278 9 22.4721 9 20.5C9 18.593 9.46377 16.7947 10.2858 15.2113H10.2865L12.8916 15.6889L14.0328 18.2783C13.7939 18.9747 13.6637 19.7222 13.6637 20.5C13.6638 21.3442 13.8167 22.153 14.0973 22.8992Z" fill="#FBBB00"/>
<path d="M31.7991 18.3517C31.9311 19.0473 32 19.7658 32 20.5C32 21.3233 31.9134 22.1264 31.7485 22.9011C31.1887 25.5373 29.7259 27.8392 27.6995 29.4681L27.6989 29.4675L24.4176 29.3001L23.9532 26.401C25.2978 25.6125 26.3487 24.3784 26.9022 22.9011H20.7528V18.3517H26.9919H31.7991Z" fill="#518EF8"/>
<path d="M27.6989 29.4675L27.6995 29.4681C25.7287 31.0522 23.2252 32 20.5 32C16.1205 32 12.3129 29.5522 10.3705 25.9499L14.0973 22.8992C15.0685 25.4911 17.5688 27.3362 20.5 27.3362C21.7599 27.3362 22.9403 26.9956 23.9532 26.401L27.6989 29.4675Z" fill="#28B446"/>
<path d="M27.8404 11.6475L24.1149 14.6975C23.0667 14.0423 21.8275 13.6638 20.5 13.6638C17.5024 13.6638 14.9553 15.5935 14.0328 18.2783L10.2865 15.2113H10.2858C12.1998 11.5212 16.0554 9 20.5 9C23.2903 9 25.8488 9.99394 27.8404 11.6475Z" fill="#F14336"/>
</g>
<defs>
<clipPath id="clip0">
<rect width="23" height="23" fill="white" transform="translate(9 9)"/>
</clipPath>
</defs>
</svg>
