<svg width="42" height="42" viewBox="0 0 42 42" fill="none" xmlns="http://www.w3.org/2000/svg">
<circle cx="21" cy="21" r="21" fill="#1A4487"/>
<path d="M21.0155 34C18.4437 34.0031 15.9287 33.2432 13.7889 31.8166C11.649 30.39 9.98034 28.3608 8.99402 25.9856C8.00771 23.6105 7.74805 20.9961 8.24791 18.4733C8.74777 15.9506 9.98467 13.6327 11.8021 11.8131C13.6196 9.99347 15.936 8.7538 18.4581 8.25093C20.9803 7.74807 23.595 8.00461 25.9713 8.98809C28.3476 9.97157 30.3789 11.6378 31.808 13.776C33.2372 15.9141 34 18.4282 34 21C34 21.4479 33.8221 21.8775 33.5053 22.1942C33.1886 22.511 32.759 22.6889 32.3111 22.6889C31.8632 22.6889 31.4336 22.511 31.1168 22.1942C30.8001 21.8775 30.6222 21.4479 30.6222 21C30.6185 18.8859 29.9177 16.8321 28.6282 15.1569C27.3387 13.4816 25.5327 12.2785 23.49 11.734C21.4472 11.1894 19.2819 11.3339 17.3297 12.145C15.3774 12.9561 13.7472 14.3885 12.6918 16.2203C11.6363 18.052 11.2145 20.1807 11.4918 22.2765C11.7691 24.3723 12.73 26.3181 14.2255 27.8123C15.721 29.3065 17.6676 30.2657 19.7636 30.5412C21.8596 30.8167 23.988 30.3931 25.8188 29.3361C26.0127 29.1994 26.233 29.1047 26.4655 29.0581C26.6981 29.0114 26.9378 29.0138 27.1694 29.0651C27.401 29.1164 27.6193 29.2155 27.8104 29.356C28.0015 29.4965 28.1612 29.6753 28.2793 29.881C28.3973 30.0868 28.4711 30.3149 28.4959 30.5508C28.5207 30.7867 28.496 31.0252 28.4234 31.251C28.3508 31.4768 28.2318 31.685 28.0742 31.8622C27.9165 32.0394 27.7236 32.1817 27.5077 32.2801C25.5317 33.4122 23.2929 34.0052 21.0155 34Z" fill="#E99A11"/>
<path d="M21.0151 28.36C19.5595 28.36 18.1365 27.9283 16.9262 27.1196C15.7158 26.3109 14.7725 25.1614 14.2154 23.8166C13.6584 22.4717 13.5126 20.9919 13.7966 19.5642C14.0806 18.1365 14.7815 16.8251 15.8109 15.7958C16.8402 14.7665 18.1516 14.0655 19.5793 13.7815C21.007 13.4975 22.4868 13.6433 23.8317 14.2003C25.1765 14.7574 26.326 15.7007 27.1347 16.9111C27.9434 18.1214 28.3751 19.5444 28.3751 21.0001C28.3751 22.952 27.5997 24.8241 26.2194 26.2043C24.8391 27.5846 22.9671 28.36 21.0151 28.36ZM21.0151 17.0489C20.2299 17.0489 19.4624 17.282 18.8098 17.7185C18.1571 18.1551 17.6487 18.7755 17.349 19.5012C17.0492 20.2269 16.9716 21.0252 17.1259 21.7951C17.2802 22.565 17.6595 23.2717 18.2158 23.8259C18.7721 24.38 19.4804 24.7565 20.2508 24.9078C21.0213 25.0591 21.8193 24.9784 22.5439 24.6758C23.2684 24.3732 23.8868 23.8623 24.3208 23.208C24.7548 22.5537 24.9848 21.7852 24.9818 21.0001C24.9818 19.948 24.5638 18.9391 23.82 18.1952C23.0761 17.4513 22.0671 17.0334 21.0151 17.0334V17.0489Z" fill="#E99A11"/>
<path d="M29.5062 28.36C28.309 28.3559 27.1621 27.8774 26.317 27.0293C25.4718 26.1813 24.9973 25.0328 24.9973 23.8356V21C24.9973 20.5501 25.1761 20.1185 25.4942 19.8003C25.8124 19.4821 26.244 19.3034 26.694 19.3034C27.1439 19.3034 27.5755 19.4821 27.8937 19.8003C28.2119 20.1185 28.3906 20.5501 28.3906 21V23.8356C28.3885 23.9824 28.4163 24.1282 28.4722 24.2641C28.5281 24.3999 28.6111 24.523 28.716 24.6258C28.9258 24.823 29.2028 24.9328 29.4907 24.9328C29.7786 24.9328 30.0557 24.823 30.2655 24.6258C30.3709 24.5201 30.4539 24.3943 30.5098 24.2559C30.5657 24.1175 30.5933 23.9693 30.5909 23.8201V21C30.5909 20.5521 30.7688 20.1225 31.0855 19.8058C31.4023 19.4891 31.8318 19.3111 32.2798 19.3111C32.7277 19.3111 33.1573 19.4891 33.474 19.8058C33.7908 20.1225 33.9687 20.5521 33.9687 21V23.8356C33.9771 25.0208 33.5184 26.1617 32.692 27.0114C31.8655 27.861 30.7378 28.3511 29.5527 28.3755L29.5062 28.36Z" fill="#E99A11"/>
</svg>
