<svg width="42" height="42" viewBox="0 0 42 42" fill="none" xmlns="http://www.w3.org/2000/svg">
<circle cx="21" cy="21" r="21" fill="#EC983B"/>
<path d="M19.2954 25.6923C17.4262 25.5756 15.6257 24.9437 14.0936 23.8665C13.9487 23.7216 13.6733 23.5912 13.5284 23.4463C13.3762 23.3211 13.2511 23.1661 13.1608 22.9908C13.0706 22.8155 13.017 22.6237 13.0034 22.427C12.9899 22.2303 13.0166 22.0329 13.0819 21.8469C13.1473 21.6609 13.2499 21.4902 13.3835 21.3453C13.6239 21.0737 13.945 20.8863 14.2997 20.8106C14.6544 20.735 15.024 20.7751 15.3542 20.9251C15.4991 21.07 15.6295 21.07 15.7744 21.2004C17.1532 22.1484 18.7814 22.668 20.4545 22.6938C22.1276 22.7195 23.771 22.2504 25.1784 21.3453C25.2836 21.223 25.4121 21.1229 25.5564 21.0508C25.7007 20.9787 25.8578 20.9359 26.0188 20.9251C26.3364 20.8578 26.667 20.8882 26.967 21.0124C27.267 21.1365 27.5224 21.3485 27.6996 21.6206C27.9167 21.8844 28.0229 22.2221 27.9959 22.5627C27.9688 22.9033 27.8107 23.22 27.5547 23.4463C26.8254 24.2535 25.9173 24.8787 24.9031 25.272C23.9131 25.651 22.8736 25.8853 21.8167 25.9676L22.092 26.3878L26.439 30.7348C26.6565 30.95 26.8002 31.2285 26.8497 31.5305C26.8991 31.8324 26.8517 32.1422 26.7143 32.4156C26.575 32.7093 26.3555 32.9576 26.0812 33.1319C25.8069 33.3063 25.4889 33.3995 25.1639 33.4009C24.97 33.3779 24.7829 33.316 24.6135 33.2189C24.4442 33.1218 24.2963 32.9915 24.1786 32.8358C23.0773 31.7346 22.0051 30.7782 20.9763 29.619C20.701 29.3437 20.5561 29.3437 20.2808 29.619L16.9046 32.9952C16.6894 33.2127 16.4108 33.3564 16.1089 33.4059C15.807 33.4553 15.4971 33.408 15.2238 33.2705C14.9698 33.1721 14.7457 33.0097 14.573 32.7991C14.4004 32.5884 14.2852 32.3368 14.2385 32.0685C14.1918 31.8002 14.2153 31.5243 14.3067 31.2678C14.3981 31.0113 14.5543 30.7827 14.7601 30.6044L19.0056 26.4312L19.2954 25.6923Z" fill="white"/>
<path d="M20.5557 20.6352C19.3062 20.6352 18.0847 20.2647 17.0458 19.5705C16.0069 18.8763 15.1971 17.8897 14.719 16.7353C14.2408 15.5809 14.1157 14.3106 14.3594 13.0851C14.6032 11.8596 15.2049 10.7339 16.0884 9.85039C16.972 8.96686 18.0977 8.36516 19.3232 8.12139C20.5487 7.87763 21.8189 8.00274 22.9733 8.4809C24.1277 8.95907 25.1144 9.76881 25.8086 10.8077C26.5028 11.8467 26.8733 13.0681 26.8733 14.3176C26.8329 15.9804 26.1543 17.564 24.9781 18.7401C23.802 19.9162 22.2185 20.5948 20.5557 20.6352ZM23.642 14.3176C23.642 13.7072 23.461 13.1105 23.1219 12.6029C22.7828 12.0954 22.3007 11.6998 21.7368 11.4662C21.1728 11.2326 20.5523 11.1715 19.9536 11.2906C19.3549 11.4097 18.8049 11.7036 18.3733 12.1352C17.9417 12.5669 17.6477 13.1168 17.5286 13.7155C17.4095 14.3142 17.4707 14.9348 17.7043 15.4987C17.9379 16.0627 18.3334 16.5447 18.841 16.8838C19.3485 17.223 19.9453 17.404 20.5557 17.404C20.9631 17.4119 21.368 17.3374 21.746 17.1851C22.124 17.0328 22.4674 16.8057 22.7556 16.5176C23.0438 16.2294 23.2708 15.886 23.4231 15.508C23.5755 15.13 23.6499 14.7251 23.642 14.3176Z" fill="white"/>
</svg>
