<svg width="42" height="42" viewBox="0 0 42 42" fill="none" xmlns="http://www.w3.org/2000/svg">
<circle cx="21" cy="21" r="21" fill="#D1D1D1"/>
<path d="M17.9561 18.0581C18.691 17.3527 19.539 17 20.5 17C21.461 17 22.309 17.3527 23.0439 18.0581C23.7788 18.7636 24.1462 19.5775 24.1462 20.5C24.1462 21.4225 23.7788 22.2364 23.0439 22.9419C22.309 23.6473 21.461 24 20.5 24C19.539 24 18.691 23.6473 17.9561 22.9419C17.2212 22.2364 16.8538 21.4225 16.8538 20.5C16.8538 19.5775 17.2212 18.7636 17.9561 18.0581ZM28.8099 18.0581C29.5448 17.3527 30.3928 17 31.3538 17C32.3148 17 33.1628 17.3527 33.8977 18.0581C34.6326 18.7636 35 19.5775 35 20.5C35 21.4225 34.6326 22.2364 33.8977 22.9419C33.1628 23.6473 32.3148 24 31.3538 24C30.3928 24 29.5448 23.6473 28.8099 22.9419C28.075 22.2364 27.7076 21.4225 27.7076 20.5C27.7076 19.5775 28.075 18.7636 28.8099 18.0581ZM7.10234 18.0581C7.83723 17.3527 8.68519 17 9.6462 17C10.6072 17 11.4552 17.3527 12.1901 18.0581C12.925 18.7636 13.2924 19.5775 13.2924 20.5C13.2924 21.4225 12.925 22.2364 12.1901 22.9419C11.4552 23.6473 10.6072 24 9.6462 24C8.68519 24 7.83723 23.6473 7.10234 22.9419C6.36745 22.2364 6 21.4225 6 20.5C6 19.5775 6.36745 18.7636 7.10234 18.0581Z" fill="white"/>
</svg>
