<svg width="42" height="42" viewBox="0 0 42 42" fill="none" xmlns="http://www.w3.org/2000/svg">
<circle cx="21" cy="21" r="21" fill="#56A7DD"/>
<path d="M34 15.4091C33.1678 15.8156 32.2573 16.034 31.3323 16.049C31.8335 15.7626 32.2718 15.3771 32.621 14.9156C32.9702 14.4542 33.223 13.9264 33.3642 13.3641C32.4095 13.9016 31.3797 14.2908 30.3095 14.5187C29.8942 14.062 29.393 13.6929 28.8348 13.4327C28.2767 13.1726 27.6727 13.0266 27.058 13.0033C26.4434 12.98 25.8302 13.0798 25.2542 13.297C24.6782 13.5142 24.1507 13.8443 23.7025 14.2683C23.0876 14.8439 22.6356 15.5735 22.3927 16.3826C22.1499 17.1916 22.1249 18.0511 22.3203 18.8731C20.4397 18.7905 18.5996 18.2958 16.9284 17.4236C15.2573 16.5514 13.7954 15.3227 12.6448 13.8232C12.0269 14.8807 11.8401 16.138 12.1236 17.3312C12.4071 18.5244 13.1388 19.5607 14.1653 20.2225C13.4266 20.2132 12.7029 20.012 12.0643 19.6382C12.063 20.7341 12.4443 21.7956 13.1416 22.6372C13.8389 23.4789 14.8079 24.0472 15.8792 24.2429C15.4638 24.3478 15.0353 24.3899 14.6076 24.3681C14.3072 24.389 14.0059 24.3463 13.723 24.2429C14.0503 25.1809 14.6492 25.9988 15.4424 26.5914C16.2356 27.1839 17.1868 27.524 18.1737 27.5678C16.5421 29.0649 14.4104 29.8893 12.2025 29.8771H11C13.0341 31.18 15.378 31.9104 17.7877 31.9923C20.1975 32.0742 22.585 31.5045 24.7018 30.3427C26.8186 29.1809 28.5873 27.4693 29.824 25.3861C31.0606 23.3028 31.7198 20.9241 31.7332 18.4974V17.8436C32.6141 17.1603 33.3796 16.3382 34 15.4091Z" fill="white"/>
</svg>
