<svg width="42" height="42" viewBox="0 0 42 42" fill="none" xmlns="http://www.w3.org/2000/svg">
<circle cx="21" cy="21" r="21" fill="#4E6C92"/>
<path d="M29.2803 23.3747C30.1904 24.1534 31.0379 25.0028 31.815 25.9148C32.2012 26.3034 32.5183 26.7553 32.7527 27.2509C33.1483 27.9263 32.7527 28.7192 32.2106 28.7192H28.4745C28.028 28.7684 27.5763 28.7087 27.1579 28.545C26.7395 28.3814 26.3668 28.1187 26.0717 27.7795C25.5473 27.275 25.0578 26.7354 24.6065 26.1644C24.4174 25.943 24.1889 25.7588 23.9326 25.6212C23.8574 25.551 23.7678 25.4981 23.6701 25.4664C23.5724 25.4346 23.469 25.4247 23.367 25.4373C23.2651 25.4499 23.1671 25.4847 23.08 25.5393C22.993 25.5939 22.9189 25.6669 22.863 25.7533C22.863 25.8854 22.7311 25.8854 22.7311 26.0176C22.4732 26.5639 22.3381 27.1604 22.3356 27.7648C22.3356 28.7045 22.0718 28.8366 21.1341 28.9688C19.2136 29.1212 17.2901 28.7133 15.5959 27.7942C14.1485 26.9209 12.9164 25.7314 11.9917 24.3144C10.1154 21.6247 8.5152 18.752 7.21534 15.7399C6.81975 14.9323 6.95161 14.5359 7.75744 14.5359H11.4935C11.7394 14.5166 11.9839 14.588 12.1809 14.7368C12.3779 14.8855 12.5138 15.1013 12.5631 15.3434C13.2293 16.9752 14.0331 18.547 14.9659 20.0418C15.2043 20.458 15.5231 20.8223 15.9036 21.1136C15.9498 21.1773 16.0104 21.2292 16.0804 21.2649C16.1505 21.3007 16.2279 21.3193 16.3065 21.3193C16.3851 21.3193 16.4626 21.3007 16.5326 21.2649C16.6026 21.2292 16.6632 21.1773 16.7094 21.1136C16.8413 20.9815 16.8413 20.9815 16.8413 20.8494C16.8413 20.7172 16.9732 20.174 17.105 19.9097C17.2384 18.7536 17.2384 17.586 17.105 16.4299C17.0809 16.1053 16.9498 15.7978 16.7323 15.556C16.5149 15.3141 16.2233 15.1515 15.9036 15.0938C15.508 14.9617 15.508 14.8295 15.7717 14.5506C15.9058 14.3612 16.0878 14.2111 16.2989 14.1156C16.5101 14.0202 16.7428 13.9828 16.9732 14.0073H21.2514C21.9253 14.1395 22.0572 14.4038 22.189 15.0792V19.895C22.189 20.1593 22.3209 20.9668 22.7311 21.099C22.8905 21.1508 23.0638 21.1384 23.2142 21.0644C23.3646 20.9904 23.4804 20.8606 23.537 20.7025C24.4907 19.5546 25.2978 18.2919 25.9398 16.9438C26.2035 16.4006 26.4819 15.7399 26.7456 15.0645C26.8144 14.8694 26.9411 14.7001 27.1088 14.5794C27.2764 14.4587 27.4769 14.3922 27.6833 14.3891H32.2252C32.8992 14.5212 33.1629 14.7855 32.8992 15.4609C32.5249 16.4851 31.9799 17.4383 31.2875 18.2799C30.6136 19.2196 29.8224 20.1593 29.1484 21.099C28.4745 22.0386 28.4745 22.5672 29.2803 23.3747Z" fill="white"/>
</svg>
