<svg width="50" height="50" viewBox="0 0 50 50" fill="none" xmlns="http://www.w3.org/2000/svg">
<path d="M25 50C38.8071 50 50 38.8071 50 25C50 11.1929 38.8071 0 25 0C11.1929 0 0 11.1929 0 25C0 38.8071 11.1929 50 25 50Z" fill="#FD7801"/>
<path d="M23.7403 38.4012C25.3961 38.4012 26.7384 37.0314 26.7384 35.3417C26.7384 33.652 25.3961 32.2822 23.7403 32.2822C22.0845 32.2822 20.7422 33.652 20.7422 35.3417C20.7422 37.0314 22.0845 38.4012 23.7403 38.4012Z" fill="white"/>
<path d="M32.4161 38.4012C34.0718 38.4012 35.4141 37.0314 35.4141 35.3417C35.4141 33.652 34.0718 32.2822 32.4161 32.2822C30.7603 32.2822 29.418 33.652 29.418 35.3417C29.418 37.0314 30.7603 38.4012 32.4161 38.4012Z" fill="white"/>
<path d="M40.6836 18.6755C40.5498 18.4828 40.3728 18.3254 40.1674 18.2166C39.962 18.1077 39.734 18.0505 39.5026 18.0497H16.3129L14.3596 12.9505C14.255 12.6735 14.0714 12.4348 13.8325 12.2654C13.5936 12.096 13.3104 12.0036 13.0195 12.0002H9.11292C8.96975 11.9972 8.82738 12.0229 8.69395 12.076C8.56053 12.1291 8.43866 12.2085 8.33531 12.3096C8.23196 12.4108 8.14915 12.5318 8.09162 12.6656C8.03408 12.7994 8.00295 12.9435 8 13.0896C8 13.0896 8 13.0896 8 13.0896V14.318H12.5425L18.6523 30.2182C18.7604 30.4909 18.9455 30.7246 19.1841 30.8897C19.4227 31.0548 19.7041 31.1438 19.9923 31.1453H35.8912C36.1887 31.1448 36.4789 31.0512 36.7226 30.8771C36.9663 30.7031 37.1518 30.4569 37.254 30.1718L40.9335 20.043C41.0045 19.8116 41.0189 19.5659 40.9754 19.3275C40.9318 19.0891 40.8316 18.8652 40.6836 18.6755ZM35.2553 28.9434H20.4693L17.0851 20.2516H38.4124L35.2553 28.9434Z" fill="white"/>
</svg>
