<svg width="35" height="35" viewBox="0 0 35 35" fill="none" xmlns="http://www.w3.org/2000/svg">
<path d="M17.5 34.9999C27.165 34.9999 35 27.1649 35 17.5C35 7.835 27.165 0 17.5 0C7.83502 0 0 7.835 0 17.5C0 27.1649 7.83502 34.9999 17.5 34.9999Z" fill="#2DAAE2"/>
<path d="M30.4355 10.4125C29.5574 10.8386 28.5968 11.0676 27.6209 11.0833C28.1496 10.7831 28.6121 10.3789 28.9806 9.89523C29.349 9.41152 29.6157 8.85826 29.7647 8.26875C28.7574 8.83217 27.6709 9.24025 26.5417 9.47916C26.1036 9.00038 25.5748 8.6134 24.9858 8.34069C24.3969 8.06798 23.7597 7.91498 23.1112 7.89056C22.4627 7.86613 21.8158 7.97079 21.208 8.19843C20.6003 8.42608 20.0438 8.77219 19.5709 9.21667C18.9221 9.82002 18.4452 10.5849 18.189 11.433C17.9327 12.2811 17.9064 13.1821 18.1126 14.0437C16.1283 13.9572 14.1869 13.4386 12.4237 12.5243C10.6606 11.61 9.11821 10.3219 7.90424 8.75C7.25228 9.85859 7.05517 11.1767 7.35428 12.4275C7.65339 13.6783 8.42546 14.7646 9.50841 15.4583C8.72907 15.4486 7.96548 15.2376 7.29174 14.8458C7.29037 15.9946 7.69268 17.1074 8.42838 17.9897C9.16409 18.872 10.1864 19.4678 11.3167 19.6729C10.8785 19.7828 10.4263 19.827 9.97507 19.8041C9.65821 19.826 9.34028 19.7813 9.04174 19.6729C9.38716 20.6562 10.019 21.5136 10.8559 22.1348C11.6927 22.7559 12.6964 23.1124 13.7376 23.1583C12.0161 24.7278 9.76707 25.592 7.43757 25.5791H6.16882C8.31497 26.9449 10.7879 27.7106 13.3304 27.7965C15.8728 27.8823 18.3918 27.2852 20.6252 26.0673C22.8586 24.8493 24.7247 23.0551 26.0295 20.8713C27.3342 18.6874 28.0298 16.1938 28.0438 13.65V12.9646C28.9733 12.2482 29.7809 11.3865 30.4355 10.4125Z" fill="white"/>
</svg>
