<svg width="35" height="35" viewBox="0 0 35 35" fill="none" xmlns="http://www.w3.org/2000/svg">
<path d="M17.5 35C27.165 35 35 27.165 35 17.5C35 7.83502 27.165 0 17.5 0C7.83502 0 0 7.83502 0 17.5C0 27.165 7.83502 35 17.5 35Z" fill="#04B2D9"/>
<path d="M6.02438 16.4311L25.5348 9.08985C26.4403 8.77059 27.2312 9.30543 26.9378 10.6417L26.9395 10.64L23.6175 25.9133C23.3713 26.9961 22.7119 27.2594 21.7895 26.7493L16.7307 23.1107L14.2906 25.4048C14.0208 25.6681 13.7931 25.8902 13.2704 25.8902L13.6296 20.8661L23.0054 12.6C23.4134 12.2495 22.9143 12.052 22.3764 12.4009L10.7898 19.5199L5.79504 17.9994C4.71076 17.6637 4.68715 16.9412 6.02438 16.4311Z" fill="white"/>
</svg>
