<svg width="35" height="35" viewBox="0 0 35 35" fill="none" xmlns="http://www.w3.org/2000/svg">
<path d="M17.5 34.9999C27.165 34.9999 35 27.1649 35 17.5C35 7.835 27.165 0 17.5 0C7.83502 0 0 7.835 0 17.5C0 27.1649 7.83502 34.9999 17.5 34.9999Z" fill="#FA9314"/>
<path d="M16.2314 22.5895C14.3501 22.4721 12.538 21.8361 10.996 20.752C10.8502 20.6062 10.5731 20.4749 10.4272 20.3291C10.274 20.203 10.1481 20.047 10.0573 19.8706C9.9664 19.6942 9.91249 19.5012 9.89884 19.3032C9.88519 19.1053 9.91208 18.9066 9.97786 18.7194C10.0436 18.5322 10.1469 18.3604 10.2814 18.2145C10.5233 17.9411 10.8464 17.7526 11.2034 17.6764C11.5604 17.6003 11.9324 17.6407 12.2647 17.7916C12.4106 17.9374 12.5418 17.9374 12.6877 18.0687C14.0753 19.0228 15.714 19.5457 17.3979 19.5717C19.0818 19.5976 20.7358 19.1255 22.1522 18.2145C22.2582 18.0915 22.3875 17.9907 22.5327 17.9181C22.6779 17.8455 22.8361 17.8025 22.9981 17.7916C23.3177 17.7239 23.6504 17.7545 23.9524 17.8795C24.2543 18.0044 24.5114 18.2178 24.6897 18.4916C24.9082 18.7571 25.0151 19.097 24.9879 19.4398C24.9607 19.7825 24.8015 20.1014 24.5439 20.3291C23.8099 21.1415 22.8959 21.7708 21.8752 22.1666C20.8788 22.548 19.8326 22.7838 18.7689 22.8666L19.046 23.2895L23.421 27.6645C23.6399 27.8811 23.7845 28.1614 23.8343 28.4653C23.8841 28.7692 23.8364 29.081 23.6981 29.3562C23.5579 29.6517 23.337 29.9016 23.0609 30.0771C22.7848 30.2525 22.4648 30.3464 22.1377 30.3478C21.9426 30.3247 21.7542 30.2624 21.5838 30.1647C21.4134 30.0669 21.2645 29.9358 21.146 29.7791C20.0377 28.6707 18.9585 27.7082 17.9231 26.5416C17.646 26.2645 17.5002 26.2645 17.2231 26.5416L13.8252 29.9395C13.6085 30.1584 13.3282 30.303 13.0243 30.3528C12.7204 30.4026 12.4086 30.3549 12.1335 30.2166C11.8779 30.1175 11.6523 29.9541 11.4786 29.7421C11.3048 29.5301 11.1888 29.2768 11.1419 29.0068C11.0949 28.7367 11.1186 28.4592 11.2105 28.201C11.3025 27.9428 11.4597 27.7128 11.6668 27.5332L15.9397 23.3332L16.2314 22.5895Z" fill="white"/>
<path d="M17.4997 17.5C16.2421 17.5 15.0128 17.1271 13.9672 16.4284C12.9216 15.7297 12.1066 14.7367 11.6254 13.5749C11.1441 12.413 11.0182 11.1346 11.2635 9.9012C11.5089 8.66781 12.1144 7.53486 13.0037 6.64564C13.8929 5.75641 15.0258 5.15084 16.2592 4.9055C17.4926 4.66016 18.7711 4.78608 19.9329 5.26733C21.0948 5.74857 22.0878 6.56353 22.7865 7.60915C23.4851 8.65477 23.858 9.88409 23.858 11.1416C23.8173 12.8152 23.1344 14.4089 21.9507 15.5926C20.7669 16.7763 19.1732 17.4593 17.4997 17.5ZM20.6059 11.1416C20.6059 10.5273 20.4238 9.92673 20.0824 9.41591C19.7411 8.90509 19.256 8.50696 18.6884 8.27185C18.1208 8.03675 17.4962 7.97523 16.8937 8.09509C16.2911 8.21494 15.7377 8.51079 15.3032 8.9452C14.8688 9.37962 14.573 9.9331 14.4531 10.5356C14.3333 11.1382 14.3948 11.7628 14.6299 12.3304C14.865 12.8979 15.2631 13.3831 15.774 13.7244C16.2848 14.0657 16.8853 14.2479 17.4997 14.2479C17.9098 14.2558 18.3173 14.1809 18.6977 14.0276C19.0782 13.8743 19.4238 13.6458 19.7138 13.3557C20.0038 13.0657 20.2323 12.7201 20.3856 12.3397C20.5389 11.9592 20.6139 11.5517 20.6059 11.1416Z" fill="white"/>
</svg>
