<svg width="35" height="35" viewBox="0 0 35 35" fill="none" xmlns="http://www.w3.org/2000/svg">
<path d="M17.5 34.9999C27.165 34.9999 35 27.1649 35 17.5C35 7.835 27.165 0 17.5 0C7.83502 0 0 7.835 0 17.5C0 27.1649 7.83502 34.9999 17.5 34.9999Z" fill="#EDECED"/>
<path d="M23.4662 20.733C23.0052 20.7329 22.549 20.8271 22.1257 21.0096C21.7024 21.1922 21.3209 21.4593 21.0045 21.7947L13.7712 18.2947C13.8258 17.9625 13.8258 17.6236 13.7712 17.2913L21.0279 13.733C21.5715 14.3054 22.2976 14.6704 23.0813 14.7654C23.865 14.8603 24.6572 14.6792 25.3218 14.2531C25.9864 13.8271 26.4817 13.1828 26.7226 12.431C26.9635 11.6793 26.9349 10.8671 26.6417 10.1341C26.3485 9.40119 25.8091 8.79332 25.1162 8.41508C24.4233 8.03685 23.6203 7.91189 22.8452 8.06171C22.0702 8.21152 21.3715 8.62674 20.8695 9.23595C20.3675 9.84516 20.0935 10.6103 20.0945 11.3997C20.0828 11.5628 20.0828 11.7265 20.0945 11.8897L12.8612 15.4597C12.3995 14.9717 11.8035 14.6317 11.1485 14.4826C10.4935 14.3335 9.80905 14.382 9.18167 14.6221C8.55429 14.8622 8.01224 15.283 7.6241 15.8312C7.23596 16.3795 7.01919 17.0306 7.00122 17.7021C6.98324 18.3736 7.16488 19.0353 7.52314 19.6035C7.88139 20.1718 8.40017 20.6209 9.0138 20.8942C9.62744 21.1675 10.3084 21.2526 10.9704 21.1388C11.6324 21.0249 12.2458 20.7172 12.7329 20.2547L12.8612 20.1263L20.0945 23.6263C20.082 23.7933 20.082 23.961 20.0945 24.128C20.0945 24.7995 20.2936 25.4559 20.6667 26.0142C21.0397 26.5725 21.57 27.0076 22.1903 27.2646C22.8107 27.5215 23.4933 27.5888 24.1519 27.4578C24.8104 27.3268 25.4154 27.0034 25.8902 26.5286C26.365 26.0538 26.6883 25.4489 26.8193 24.7903C26.9503 24.1318 26.8831 23.4492 26.6261 22.8288C26.3691 22.2084 25.934 21.6782 25.3757 21.3052C24.8174 20.9321 24.161 20.733 23.4895 20.733H23.4662Z" fill="#A9A9A9"/>
</svg>
