<svg width="35" height="35" viewBox="0 0 35 35" fill="none" xmlns="http://www.w3.org/2000/svg">
<path d="M17.5001 34.9999C27.1651 34.9999 35.0001 27.1649 35.0001 17.5C35.0001 7.835 27.1651 0 17.5001 0C7.83514 0 0.00012207 7.835 0.00012207 17.5C0.00012207 27.1649 7.83514 34.9999 17.5001 34.9999Z" fill="#D73532"/>
<path d="M27.7086 11.6667C26.9795 6.43133 21.7441 3.80634 16.2024 4.37509C13.8739 4.58158 11.6921 5.6005 10.0391 7.25348C8.38615 8.90647 7.36722 11.0882 7.16073 13.4167C7.0149 16.4792 7.8899 18.798 10.9524 19.5271C12.2649 17.1938 10.5149 16.7563 10.2232 15.1521C9.2024 8.45841 17.9378 3.79175 22.6045 8.60424C25.8128 11.8126 23.7711 21.8605 18.5211 20.8396C13.2711 19.8188 21.0003 11.9584 17.0628 10.3542C13.8545 9.04174 12.1045 14.2917 13.7086 16.7563C12.8336 21.1313 10.9378 25.3459 11.667 30.7417C14.1461 28.8459 15.0211 25.3605 15.7503 21.7146C16.7526 22.5811 17.9558 23.1827 19.2503 23.4646C25.2149 23.9021 28.4232 17.5001 27.7086 11.6667Z" fill="white"/>
</svg>
