<svg width="35" height="35" viewBox="0 0 35 35" fill="none" xmlns="http://www.w3.org/2000/svg">
<path d="M17.5 35C27.165 35 35 27.165 35 17.5C35 7.83502 27.165 0 17.5 0C7.83502 0 0 7.83502 0 17.5C0 27.165 7.83502 35 17.5 35Z" fill="#1C1C1C"/>
<path d="M14.7658 18.7459C12.9621 18.7459 11.505 20.203 11.5317 21.9889C11.5494 23.135 12.1803 24.1302 13.1087 24.6855C12.7933 24.2012 12.6067 23.6282 12.5979 23.0107C12.5712 21.2248 14.0283 19.7677 15.832 19.7677C16.1874 19.7677 16.5294 19.8254 16.8493 19.9276V16.3514C16.5161 16.3025 16.174 16.2759 15.832 16.2759C15.8142 16.2759 15.8009 16.2759 15.7831 16.2759V18.9058C15.4633 18.8036 15.1212 18.7459 14.7658 18.7459V18.7459Z" fill="#F00044"/>
<path d="M22.5623 8.02173H22.5357H21.6116C21.8782 9.35891 22.629 10.5228 23.6774 11.3136C22.9888 10.4029 22.5712 9.26562 22.5623 8.02173V8.02173Z" fill="#F00044"/>
<path d="M27.9999 13.4638C27.6489 13.4638 27.3113 13.4283 26.9781 13.3661V15.9294C25.7698 15.9294 24.597 15.6939 23.4952 15.223C22.7844 14.921 22.1225 14.5345 21.5139 14.068L21.5317 21.9711C21.5228 23.7481 20.8209 25.4141 19.5503 26.6713C18.5152 27.693 17.2047 28.3461 15.7831 28.5549C15.4499 28.6037 15.1079 28.6304 14.7658 28.6304C13.2465 28.6304 11.7982 28.1373 10.621 27.2266C10.7542 27.3865 10.8964 27.542 11.0519 27.693C12.3313 28.9547 14.0283 29.6522 15.8364 29.6522C16.1785 29.6522 16.5206 29.6255 16.8538 29.5766C18.2753 29.3679 19.5859 28.7148 20.621 27.693C21.8915 26.4358 22.5934 24.7699 22.6023 22.9929L22.5357 15.0898C23.1398 15.5562 23.8018 15.9472 24.517 16.2448C25.6232 16.7113 26.796 16.9512 27.9999 16.9512" fill="#F00044"/>
<path d="M11.0387 18.2439C12.3048 16.9867 13.9885 16.2892 15.7832 16.2759V15.3297C15.45 15.2808 15.108 15.2542 14.7659 15.2542C12.9534 15.2542 11.2519 15.9516 9.97248 17.2222C8.71526 18.4705 7.99558 20.1764 8.00002 21.9489C8.00002 23.7348 8.70637 25.4096 9.98136 26.6757C10.1857 26.8756 10.3945 27.0622 10.6166 27.231C9.61264 26.036 9.06621 24.5433 9.06177 22.9707C9.06621 21.1982 9.78145 19.4923 11.0387 18.2439V18.2439Z" fill="#08FFF9"/>
<path d="M26.9782 13.366V12.4153H26.9693C25.7343 12.4153 24.597 12.0066 23.6819 11.3136C24.4771 12.362 25.641 13.1084 26.9782 13.366Z" fill="#08FFF9"/>
<path d="M15.6499 26.1559C16.072 26.1781 16.4762 26.1204 16.8494 26.0004C18.1377 25.5784 19.0662 24.3789 19.0662 22.9662L19.0706 17.6797V8.02177H21.6117C21.5451 7.68858 21.5095 7.35095 21.5051 7H18.0044V16.6535L18 21.94C18 23.3527 17.0715 24.5522 15.7832 24.9742C15.41 25.0986 15.0058 25.1564 14.5837 25.1297C14.0462 25.0986 13.5442 24.9387 13.1088 24.681C13.6552 25.5251 14.5882 26.0982 15.6499 26.1559V26.1559Z" fill="#08FFF9"/>
<path d="M15.7832 28.5548C17.2048 28.346 18.5153 27.693 19.5504 26.6712C20.8209 25.414 21.5229 23.7481 21.5317 21.9711L21.514 14.0679C22.1181 14.5344 22.7801 14.9253 23.4953 15.223C24.6015 15.6894 25.7743 15.9293 26.9782 15.9293V13.366C25.641 13.1084 24.4771 12.362 23.6819 11.3136C22.6335 10.5228 21.8783 9.35891 21.6161 8.02173H19.0706V17.6752L19.0662 22.9617C19.0662 24.3744 18.1377 25.5739 16.8494 25.9959C16.4762 26.1203 16.072 26.1781 15.6499 26.1514C14.5837 26.0937 13.6553 25.5206 13.1088 24.681C12.1804 24.1301 11.5495 23.1306 11.5318 21.9844C11.5051 20.1985 12.9622 18.7414 14.7659 18.7414C15.1213 18.7414 15.4633 18.7992 15.7832 18.9013V16.2714C13.9884 16.2847 12.3047 16.9822 11.0386 18.2394C9.78142 19.4877 9.06174 21.1936 9.06618 22.9617C9.06618 24.5344 9.61261 26.027 10.621 27.2221C11.8027 28.1328 13.2465 28.6259 14.7659 28.6259C15.1079 28.6303 15.45 28.6037 15.7832 28.5548V28.5548Z" fill="white"/>
</svg>
