<svg width="35" height="35" viewBox="0 0 35 35" fill="none" xmlns="http://www.w3.org/2000/svg">
<path d="M17.5 34.9999C27.165 34.9999 35 27.1649 35 17.5C35 7.835 27.165 0 17.5 0C7.83502 0 0 7.835 0 17.5C0 27.1649 7.83502 34.9999 17.5 34.9999Z" fill="#DB2824"/>
<path d="M28.583 13.809C28.4622 12.2839 27.5766 10.3699 25.7347 10.2982C20.2766 9.9006 14.7975 9.9006 9.33932 10.2982C7.68871 10.4824 6.58159 12.4886 6.44069 14.0342C6.18644 16.7575 6.18644 19.4992 6.44069 22.2226C6.56146 23.7476 7.64845 25.764 9.289 25.9688C14.7479 26.3437 20.2255 26.3437 25.6844 25.9688C27.2847 25.6822 28.4119 23.7374 28.5327 22.2226C28.8045 19.4256 28.8214 16.6091 28.583 13.809ZM14.7038 22.2226V14.0342L21.7491 18.1284L14.7038 22.2226Z" fill="white"/>
</svg>
