<svg width="35" height="35" viewBox="0 0 35 35" fill="none" xmlns="http://www.w3.org/2000/svg">
<path d="M17.5 34.9999C27.165 34.9999 35 27.1649 35 17.5C35 7.835 27.165 0 17.5 0C7.83502 0 0 7.835 0 17.5C0 27.1649 7.83502 34.9999 17.5 34.9999Z" fill="#00468C"/>
<path d="M17.5002 29.7353C15.0797 29.7382 12.7127 29.023 10.6986 27.6804C8.68463 26.3377 7.11411 24.4278 6.18581 22.1923C5.2575 19.9568 5.01312 17.4963 5.48357 15.1219C5.95403 12.7475 7.11819 10.566 8.82876 8.85335C10.5393 7.14075 12.7195 5.97399 15.0933 5.5007C17.4671 5.02741 19.928 5.26886 22.1646 6.1945C24.4012 7.12014 26.3129 8.68837 27.658 10.7008C29.0031 12.7132 29.7211 15.0794 29.7211 17.4999C29.7211 17.9215 29.5536 18.3258 29.2555 18.6239C28.9574 18.922 28.5531 19.0895 28.1315 19.0895C27.7099 19.0895 27.3056 18.922 27.0075 18.6239C26.7094 18.3258 26.5419 17.9215 26.5419 17.4999C26.5385 15.5102 25.8789 13.5772 24.6652 12.0005C23.4516 10.4237 21.7518 9.29136 19.8292 8.77886C17.9066 8.26636 15.8687 8.40235 14.0312 9.16575C12.1938 9.92914 10.6595 11.2773 9.66608 13.0013C8.6727 14.7253 8.27573 16.7288 8.53671 18.7014C8.79769 20.6739 9.70203 22.5052 11.1096 23.9116C12.5171 25.3179 14.3492 26.2207 16.322 26.48C18.2947 26.7393 20.2979 26.3406 22.0211 25.3457C22.2036 25.2171 22.4109 25.128 22.6297 25.0841C22.8486 25.0401 23.0743 25.0424 23.2922 25.0907C23.5102 25.1389 23.7157 25.2322 23.8955 25.3644C24.0754 25.4967 24.2257 25.665 24.3368 25.8586C24.4479 26.0523 24.5173 26.267 24.5407 26.489C24.5641 26.711 24.5408 26.9355 24.4725 27.148C24.4041 27.3605 24.2922 27.5564 24.1438 27.7232C23.9954 27.89 23.8138 28.024 23.6107 28.1166C21.7508 29.182 19.6437 29.7403 17.5002 29.7353Z" fill="#E99A11"/>
<path d="M17.4998 24.4271C16.1298 24.4271 14.7905 24.0209 13.6514 23.2597C12.5122 22.4986 11.6243 21.4167 11.1 20.1509C10.5758 18.8852 10.4386 17.4924 10.7059 16.1487C10.9731 14.8049 11.6329 13.5707 12.6017 12.6019C13.5704 11.6331 14.8047 10.9734 16.1484 10.7061C17.4922 10.4388 18.885 10.576 20.1507 11.1003C21.4165 11.6246 22.4983 12.5124 23.2595 13.6516C24.0207 14.7907 24.4269 16.13 24.4269 17.5001C24.4269 19.3372 23.6971 21.0992 22.398 22.3982C21.0989 23.6973 19.337 24.4271 17.4998 24.4271ZM17.4998 13.7813C16.7608 13.7813 16.0385 14.0007 15.4242 14.4115C14.8099 14.8224 14.3314 15.4063 14.0493 16.0894C13.7672 16.7724 13.6941 17.5238 13.8393 18.2484C13.9846 18.973 14.3416 19.6381 14.8652 20.1597C15.3888 20.6812 16.0553 21.0356 16.7805 21.178C17.5056 21.3204 18.2567 21.2444 18.9387 20.9596C19.6206 20.6748 20.2026 20.194 20.6111 19.5782C21.0196 18.9623 21.2361 18.2391 21.2332 17.5001C21.2332 16.5099 20.8398 15.5603 20.1397 14.8602C19.4396 14.1601 18.49 13.7667 17.4998 13.7667V13.7813Z" fill="#E99A11"/>
<path d="M25.4916 24.427C24.3647 24.4232 23.2853 23.9728 22.4899 23.1746C21.6944 22.3765 21.2478 21.2955 21.2478 20.1687V17.4999C21.2478 17.0764 21.416 16.6703 21.7155 16.3708C22.015 16.0713 22.4212 15.9031 22.8447 15.9031C23.2682 15.9031 23.6744 16.0713 23.9738 16.3708C24.2733 16.6703 24.4416 17.0764 24.4416 17.4999V20.1687C24.4396 20.3069 24.4657 20.4441 24.5183 20.572C24.571 20.6998 24.649 20.8157 24.7478 20.9124C24.9452 21.098 25.206 21.2014 25.477 21.2014C25.7479 21.2014 26.0087 21.098 26.2061 20.9124C26.3053 20.813 26.3835 20.6946 26.4361 20.5643C26.4887 20.4341 26.5147 20.2946 26.5124 20.1541V17.4999C26.5124 17.0784 26.6799 16.674 26.978 16.3759C27.2761 16.0778 27.6804 15.9104 28.102 15.9104C28.5236 15.9104 28.9279 16.0778 29.226 16.3759C29.5241 16.674 29.6916 17.0784 29.6916 17.4999V20.1687C29.6995 21.2842 29.2678 22.358 28.4899 23.1577C27.7121 23.9574 26.6506 24.4186 25.5353 24.4416L25.4916 24.427Z" fill="#E99A11"/>
</svg>
