<svg width="35" height="35" viewBox="0 0 35 35" fill="none" xmlns="http://www.w3.org/2000/svg">
<path d="M17.5 34.9999C27.165 34.9999 35 27.1649 35 17.5C35 7.835 27.165 0 17.5 0C7.83502 0 0 7.835 0 17.5C0 27.1649 7.83502 34.9999 17.5 34.9999Z" fill="url(#paint0_radial)"/>
<path d="M23.85 28.75H11.05C8.35 28.75 6.25 26.55 6.25 23.95V11.05C6.25 8.35 8.35 6.25 11.05 6.25H23.95C26.65 6.25 28.75 8.45 28.75 11.05V23.85C28.65 26.55 26.55 28.75 23.85 28.75ZM11.05 8.84999C9.85 8.84999 8.85 9.84999 8.85 11.05V23.95C8.85 25.15 9.85 26.15 11.05 26.15H23.95C25.15 26.15 26.15 25.15 26.15 23.95V11.05C26.15 9.84999 25.15 8.84999 23.95 8.84999H11.05Z" fill="white"/>
<path d="M17.45 23.65C14.05 23.65 11.25 20.85 11.25 17.45C11.25 14.05 14.05 11.25 17.45 11.25C20.85 11.25 23.65 14.05 23.65 17.45C23.65 20.95 20.85 23.65 17.45 23.65ZM17.45 13.85C15.45 13.85 13.85 15.45 13.85 17.45C13.85 19.45 15.45 21.05 17.45 21.05C19.45 21.05 21.05 19.45 21.05 17.45C21.05 15.45 19.45 13.85 17.45 13.85Z" fill="white"/>
<path d="M23.65 12.15C24.1471 12.15 24.55 11.747 24.55 11.25C24.55 10.7529 24.1471 10.35 23.65 10.35C23.1529 10.35 22.75 10.7529 22.75 11.25C22.75 11.747 23.1529 12.15 23.65 12.15Z" fill="white"/>
<defs>
<radialGradient id="paint0_radial" cx="0" cy="0" r="1" gradientUnits="userSpaceOnUse" gradientTransform="translate(7.48211 36.4262) rotate(-31.0699) scale(59.8035 42.6443)">
<stop offset="0.1116" stop-color="#FEC053"/>
<stop offset="0.2484" stop-color="#F67445"/>
<stop offset="0.3211" stop-color="#F2503E"/>
<stop offset="0.3541" stop-color="#EC4C48"/>
<stop offset="0.3542" stop-color="#E94A4D"/>
<stop offset="0.4111" stop-color="#DD4264"/>
<stop offset="0.4849" stop-color="#C33192"/>
<stop offset="0.5176" stop-color="#B729A8"/>
<stop offset="0.6499" stop-color="#7F37C2"/>
<stop offset="0.7649" stop-color="#5342D6"/>
</radialGradient>
</defs>
</svg>
