<svg width="35" height="35" viewBox="0 0 35 35" fill="none" xmlns="http://www.w3.org/2000/svg">
<path d="M17.5 34.9999C27.165 34.9999 35 27.1649 35 17.5C35 7.835 27.165 0 17.5 0C7.83502 0 0 7.835 0 17.5C0 27.1649 7.83502 34.9999 17.5 34.9999Z" fill="#5177A0"/>
<path d="M26.7459 19.352C27.6518 20.1254 28.4953 20.969 29.2688 21.8749C29.6532 22.2609 29.9688 22.7097 30.2021 23.2019C30.5959 23.8728 30.2021 24.6603 29.6625 24.6603H25.9438C25.4994 24.7092 25.0498 24.6498 24.6333 24.4873C24.2169 24.3248 23.8459 24.0639 23.5521 23.7269C23.0302 23.2259 22.543 22.69 22.0938 22.1228C21.9056 21.9029 21.6781 21.7199 21.423 21.5832C21.3482 21.5135 21.259 21.461 21.1618 21.4295C21.0645 21.3979 20.9615 21.388 20.8601 21.4005C20.7586 21.4131 20.6611 21.4476 20.5744 21.5019C20.4877 21.5561 20.414 21.6287 20.3584 21.7144C20.3584 21.8457 20.2271 21.8457 20.2271 21.9769C19.9703 22.5196 19.8359 23.112 19.8334 23.7124C19.8334 24.6457 19.5709 24.7769 18.6375 24.9082C16.7259 25.0597 14.8114 24.6545 13.125 23.7415C11.6843 22.8742 10.458 21.6927 9.53754 20.2853C7.67 17.6138 6.07719 14.7604 4.78337 11.7686C4.38962 10.9666 4.52087 10.5728 5.32295 10.5728H9.0417C9.28645 10.5536 9.52977 10.6246 9.72584 10.7723C9.92192 10.92 10.0572 11.1343 10.1063 11.3749C10.7694 12.9956 11.5695 14.5568 12.498 16.0415C12.7353 16.4549 13.0525 16.8168 13.4313 17.1061C13.4773 17.1694 13.5376 17.2209 13.6073 17.2564C13.677 17.2919 13.7541 17.3104 13.8323 17.3104C13.9105 17.3104 13.9877 17.2919 14.0574 17.2564C14.1271 17.2209 14.1874 17.1694 14.2334 17.1061C14.3646 16.9749 14.3646 16.9749 14.3646 16.8436C14.3646 16.7124 14.4959 16.1728 14.6271 15.9103C14.7598 14.762 14.7598 13.6023 14.6271 12.4541C14.6031 12.1316 14.4727 11.8262 14.2562 11.586C14.0397 11.3458 13.7495 11.1843 13.4313 11.127C13.0375 10.9957 13.0375 10.8645 13.3 10.5874C13.4335 10.3993 13.6146 10.2502 13.8248 10.1554C14.0349 10.0606 14.2666 10.0234 14.4959 10.0478H18.7542C19.425 10.1791 19.5563 10.4416 19.6875 11.1124V15.8957C19.6875 16.1582 19.8188 16.9603 20.2271 17.0915C20.3858 17.143 20.5582 17.1307 20.708 17.0572C20.8577 16.9837 20.9729 16.8548 21.0292 16.6978C21.9785 15.5576 22.7819 14.3035 23.4209 12.9645C23.6834 12.4249 23.9605 11.7686 24.223 11.0978C24.2914 10.9041 24.4176 10.7359 24.5844 10.616C24.7513 10.4961 24.9508 10.4301 25.1563 10.427H29.6771C30.348 10.5582 30.6105 10.8207 30.348 11.4916C29.9754 12.5089 29.433 13.4556 28.7438 14.2916C28.073 15.2249 27.2855 16.1582 26.6146 17.0915C25.9438 18.0249 25.9438 18.5499 26.7459 19.352Z" fill="white"/>
</svg>
